<?xml version="1.0" encoding="UTF-8"?>
<!DOCTYPE svg  PUBLIC '-//W3C//DTD SVG 1.1//EN'  'http://www.w3.org/Graphics/SVG/1.1/DTD/svg11.dtd'>
<svg clip-rule="evenodd" fill-rule="evenodd" stroke-linejoin="round" stroke-miterlimit="2" version="1.1" viewBox="0 0 2429 947" xml:space="preserve" xmlns="http://www.w3.org/2000/svg"><path d="m638.34 811.28l1017.2 1.04 35.44-9.38 27.89 1.82 1.04-2.86 445.95 2.23 22.906 0.11 2.867 4.95 20.328 1.57 0.521 7.03 3.91 5.22 4.496-1.83 14.337 23 11.402-11.4-0.194-13.49-2.347-4.17c37.224-4.15 73.999-10.07 111.03-15.63 24.66-14.59 53.615-39.633 67.132-65.879 2.326-4.515 2.827-5.312 0.729-9.928 8.927-11.904 0.551-16.29-8.599-26.583 20.513-83.487 15.634-165.58-1.668-249.4-6.087-29.485-13.811-35.966-39.683-53.829-133.41-92.128-391.22-125.34-553.37-130.96l-5.86 5.474-39.49-3.909c-168.01-99.86-330.09-187.34-520.7-237.33-202.75-24.223-428.37-23.584-641.11-3.997-17.679 1.628-124.6 13.575-142.08 15.398-13.4 1.666-26.7 3.382-39.911 5.142l-10.809-0.391-163.66 24.572c-17.551 2.635-32.49 6.243-49.531 11.392l-3.25 6.647c-0.209 6.246 1.431 10.398 4.561 14.413 7.689 9.879 29.24 14.184 40.91 17.643l7.56 11.989c-93.02 46.893-162.39 92.673-244.98 155.59l-2.08 4.953-2.61 16.679 5.869 6.125c0.811 21.366 4.031 37.398 8.601 58.118l-3.39 3.91c0.49 45.457 2.18 69.176 13.549 113.11l-24.049 30.551c-7.12 9.046-6.26 8.884-6.13 20.512 0.23 19.3 1.22 39.302 3.73 58.135 2.91 6.066 6.17 11.196 9.38 17.071l0.52 8.862 1.83 4.951 4.69 1.824 0.779 5.733c-2.019 7.083-1.939 9.135 1.081 15.891l24.08 53.808c1.93 4.314 2.23 4.586 6.77 5.947 6.65 12.815 11.559 20.927 19.94 33.099 36.69 24.973 72.46 27.839 115.45 34.402l-1.04-13.031 3.65-4.17 7.809 3.128c10.141 1.244 428.44 44.932 438.59 46.132z" fill="#030405"/><path d="m73.869 744.83c32.47 7.248 51.95 8.218 85.25 9.182 5.55-166.47 109-298.12 280.78-297.73 151.94 0.352 251.9 114.21 271.47 258.9l3.389 58.899 24.24-0.781c280.2-2.86 562.78 4.83 843.09 11.985l109.98 5.22c3.48-35.476 7.04-67.401 13.64-97.133 29.25-131.87 132.8-218.31 268.09-221 134.84-2.686 247.24 98.964 268.48 229.78 5.218 32.165 5.971 65.194 5.442 98.522l21.63 0.52c31.981-2.28 69.921-7.6 101.62-12.11 20.247-14.673 40.604-34.687 51.298-55.451 2.326-4.516 2.826-5.313 0.728-9.928 8.928-11.905 0.552-16.29-8.596-26.584 20.512-83.486 15.633-165.58-1.67-249.4-6.087-29.485-13.81-35.964-39.683-53.83-133.41-92.127-391.22-125.34-553.37-130.96l-5.87 5.474-39.48-3.909c-132.77-78.912-390.99-222.93-540.95-239.43-213.68-23.516-449.53-19.896-669.89 2.891-1.24 0.129-91.81 10.476-93.05 10.606-13.4 1.666-26.7 3.382-39.911 5.142l-10.809-0.391-163.66 24.572c-17.551 2.635-32.49 6.243-49.531 11.393l-3.25 6.646c-0.209 6.247 1.431 10.398 4.561 14.413 7.679 9.879 29.24 14.184 40.91 17.643l7.56 11.99c-93.02 46.892-162.4 92.673-244.98 155.59l-2.08 4.953-2.61 16.679 5.869 6.125c0.811 21.366 4.031 37.398 8.601 58.118l-3.39 3.91c0.49 45.457 2.18 69.176 13.549 113.11l-24.049 30.551c-7.12 9.046-6.26 8.884-6.13 20.512 0.23 19.3 1.22 39.302 3.73 58.135 2.9 6.066 6.17 11.196 9.38 17.071l0.52 8.862 1.83 4.952 4.69 1.823 0.779 5.733c-2.019 7.083-1.939 9.135 1.081 15.891l24.08 53.808c1.93 4.314 2.23 4.586 6.77 5.947 6.65 12.815 11.559 20.927 19.93 33.099z" fill="#c3bcb1"/><path d="m2293.9 698.84l9.103-94.187c2.055-21.317 3.652-45.153 28.862-49.863 30.461-5.69 50.2-7.064 81.255-8.895 4.595-0.27 6.133-0.357 6.79 2.699 7.518 73.508 8.061 85.449-12.753 149.94-6.075 18.826-5.256 15.914-24.81 17.718l-91.309 8.426 2.862-25.836z" fill="#9c917f"/><path d="m133.49 752.64c7.72 0.405 15.94 0.675 25.23 0.946 5.549-166.48 109-298.12 280.78-297.73 151.94 0.352 251.89 114.21 271.47 258.9l3.39 58.898 24.24-0.781c280.2-2.859 562.78 4.831 843.09 11.985l109.98 5.22c3.47-35.475 7.04-67.4 13.64-97.131 29.25-131.87 132.8-218.31 268.09-221.01 134.84-2.687 247.24 98.963 268.47 229.77 5.22 32.167 5.972 65.194 5.442 98.523l21.632 0.53c12.384-112.79-26.578-221.77-106.5-287.74-91.821-75.797-233.5-84.077-336.58-26.768-32.19 17.897-60.06 41.659-83.47 69.67-58.14-70.691-115.72-67.96-202.57-72.044-245.72-11.557-522.19-18.328-751.91-22.545-75.82-1.391-87.76 15.393-127.74 70.434-6.84-8.039-14.08-15.688-21.72-22.924-99.88-94.662-270.47-103.72-382.27-24.427-79.09 56.101-122.02 152.16-122.7 268.22z" fill="#9c917f"/><path d="m20.758 371.15c-4.569-20.722-7.779-36.753-8.599-58.118 23.65 9.726 39.28 16.466 64.9 19.33 30.12 3.37 68.34 7.311 90.42 12.049 27.4 5.879 59.16 32.81 81.13 51.156-58.58-2.115-118.36-4.083-175.24-8.524-22.06-1.721-32.31-7.072-52.611-15.893z" fill="#501420"/><path d="m206.06 78.899c7.75 10.909 21.189 15.503 37.85 19.724 194.08-31.723 375.47-53.255 569.98-62.527 205.93-9.813 335.14-16.671 525 46.498 7.55-3.11 35.55-10.787 36.43-21.327-71.88-25.172-146.16-42.828-223.54-48.387-192.37-13.824-399.24-5.066-592.49 15.085-13.39 1.667-116.03 13.601-129.23 15.36l-10.82-0.39-163.66 24.571c-17.55 2.636-32.48 6.243-49.52 11.393z" fill="#ccc5bc"/><path d="m1964.2 540.25c-116.44 0-210.84 91.011-210.84 203.28 0 112.27 94.4 203.29 210.84 203.29 116.44 0 210.84-91.02 210.84-203.29 0-112.27-94.396-203.28-210.84-203.28z" fill="#1a1a1a"/><path d="m1965.9 585.72c-87.48 0-159.16 70.651-160.11 157.8-0.95 87.156 69.2 157.81 156.67 157.81 87.478 0 159.16-70.65 160.11-157.81 0.95-87.153-69.195-157.8-156.67-157.8z" fill="#e6e6e6"/><path d="m429.59 42.65c-13.43 10.353-15.17 16.181-19.071 29.264l-0.439 1.456-0.01 0.047-0.01 0.045c-0.96 4.884-1.76 9.595-2.52 14.082-4.521 26.608-7.67 45.193-37.73 56.334-40.09 14.861-78.1 29.373-115.89 44.973-37.7 15.566-75.14 32.207-114.15 51.35l-1.649 0.244c-16.851 2.501-63.22 9.38-69.75 2.424l-1.43 1.344c7.23 7.705 54.34 0.715 71.47-1.825l1.79-0.265 0.14-0.021 0.15-0.072c38.99-19.143 76.45-35.79 114.18-51.366 37.69-15.563 75.7-30.071 115.82-44.943 31.12-11.538 34.35-30.584 38.98-57.854 0.75-4.422 1.539-9.065 2.51-13.983l0.42-1.409c3.78-12.667 5.46-18.31 18.39-28.273l-1.2-1.552z" fill="#030405"/><path d="m233.23 388.54c-18.44-15.925-41.38-36.1-65.66-40.967-35.35-7.086-89.4-8.345-133.25-20.537l2.17 15.639c47.9 14.128 98.1 13.829 147.68 16.155l13.3 9.514c-52.29-1.302-107.33-4.614-159.13-12.328l2.77 19.903c61.25 9.737 130.23 11.064 192.12 12.621z" fill="#ed2124"/><path d="m584.75 45.403c-28.189 2.281-56.829 5.284-85.529 8.934-29.07 3.696-58.13 8.05-86.8 12.983l0.329 1.934c28.711-4.94 57.75-9.29 86.721-12.974 28.59-3.636 57.19-6.635 85.43-8.92l-0.151-1.957z" fill="#030405"/><path d="m1524.2 310.61l143.01 7.124-4.69-9.904c-108.53-89.019-203.73-149.69-330.33-201.52-109.3-44.742-248.51-51.11-364.83-46.668-116.8 4.462-208.64 11.352-308.58 30.239-78.53 14.841-197.15 42.797-273.68 80.138-10.02 4.888-13.97 6.841-14.57 12.675-0.87 8.422 5.79 10.811 13.5 13.579 51.38 18.437 116.92 30.289 170.04 41.874 52.83 11.519 104.02 20.498 156.23 27.392 112.39 14.836 232.12 16.265 345.71 21.743l468.19 23.323z" fill="#1a1a1a"/><path d="m1347.2 81.054c-18.81-6.825-37.99-13.055-57.84-18.723-19.86-5.668-40.41-10.781-61.98-15.369l-0.41 1.919c21.51 4.575 42.02 9.678 61.85 15.339 19.84 5.662 38.97 11.878 57.72 18.677l0.66-1.843z" fill="#030405"/><path d="m992.4 77.057c-107.29 0-199.54 8.27-304.92 26.062l-53.17 78.186 5.74 66.196c129.08 15.684 232.36 23.926 363.82 27.886l-11.47-198.33z" fill="#030405"/><path d="m1650.6 657.86c-63.02-24.796-53.01-24.392-122.32-28.503l-613-36.364c-57.901-2.55-102.16 8.035-155.99 30.465l891.31 34.402z" fill="#c3bcb1"/><path d="m1682.8 402.93l2.37 37.142 107.53 2.645c17.77-2.319 34.12-6.359 49.26-14.851 14.49-8.125 13.5-14.801-3.19-15.782l-155.97-9.154z" fill="#030405"/><path d="m1845.5 275.74c160.04 13.43 279.37 32.516 440.86 72.19-151.32-31.79-291.07-50.048-445.28-63.187-0.08-7e-3 5.76-4.974 4.42-9.003z" fill="#9c917f"/><path d="m2363.7 783.97l22.306-20.823-76.491 6.254c-0.039 1.306-0.332 4.597-0.205 7.668 0.603 14.491 17.871 12.391 29.355 10.661l25.035-3.76z" fill="#1a1a1a"/><path d="m2090.4 405.03l-1.191 0.64-57.632 49.565-0.042 0.038-19.605 18.869 2.48 0.333 18.463-17.769 58.445-50.381-0.918-1.295z" fill="#030405"/><path d="m2395.2 526.32c-41.037-12.883-88.548-11.454-131.01-7.315-13.005 1.267-20.981 2.977-33.535 8.025-12.191 4.903-20.841 10.561-4.517 10.561 57.268-0.925 114.59-0.484 171.81-3.307 19.032-0.938 11.083-3.621-2.752-7.964z" fill="#ccc5bc"/><path d="m2318.5 560.36c19.935-4.59 37.661-7.888 58.26-7.398 7.122 11.038 9.52 20.542 12.866 33.248 5.899 22.4 3.873 30.944-3.472 57.136-8.78 31.307-13.136 45.489-45.291 49.586l-46.722 5.949 9.106-94.422c1.597-16.564 2.917-34.647 15.253-44.099z" fill="#030405"/><path d="m439.11 540.12c-116.45 0-210.84 91.013-210.84 203.28 0 112.27 94.391 203.28 210.84 203.28 116.44 0 210.84-91.01 210.84-203.28 0-112.27-94.4-203.28-210.84-203.28z" fill="#1a1a1a"/><path d="m440.83 585.6c-87.48 0-159.16 70.652-160.11 157.8-0.951 87.152 69.19 157.8 156.67 157.8s159.16-70.65 160.11-157.8c0.951-87.153-69.199-157.8-156.67-157.8z" fill="#e6e6e6"/><path d="m381.92 886.25c-6.58-2.71-11.06-4.54-16.95-9.83l-2.43-14.11c-1.16-8.65-1.86-8.55 3.229-15.53l44.311-60.8c1.03-1.4 3.4-5 5.32-3.32 2.26 1.98 0.21 4.43-1.03 6.4l-30.67 48.24c-4.51 7.08-3.99 8.8-2.28 17.09l4.79 26.43c0.93 5.15 1.74 7.92-4.29 5.43z" fill="#030405"/><path d="m439.98 788.77c-12.31 1.68-12.37 0.53-19.08 10.83-8.19 12.56-13.72 22.56-20.68 36.19-5.75 11.26-4.24 15.03 0.77 26.13l10.18 22.53c4.589 10.16 4.82 11.37 16.079 11.37 22.171-0.01 38.081-0.85 56.951-7.7 11.23-4.07 10.26-2.72 5.62-13.99l-31.21-75.8c-4.861-11.82-6.67-10.49-18.63-9.56z" fill="#030405"/><path d="m458.93 757.52c-5.65 0-10.23 4.492-10.23 10.034 0 5.541 4.58 10.034 10.23 10.034s10.23-4.493 10.23-10.034c0-5.542-4.58-10.034-10.23-10.034z" fill="#030405"/><path d="m421.99 757.26c-5.971 0-10.81 4.784-10.81 10.686 0 5.901 4.839 10.684 10.81 10.684 5.97 0 10.82-4.783 10.82-10.684 0-5.902-4.85-10.686-10.82-10.686z" fill="#030405"/><path d="m469.88 721.16c-5.861 0-10.621 4.784-10.621 10.685 0 5.902 4.76 10.686 10.621 10.686 5.86 0 10.619-4.784 10.619-10.686 0-5.901-4.759-10.685-10.619-10.685z" fill="#030405"/><path d="m439.32 700.58c-6.19 0-11.2 4.9-11.2 10.946 0 6.045 5.01 10.945 11.2 10.945 6.189 0 11.21-4.9 11.21-10.945 0-6.046-5.021-10.946-11.21-10.946z" fill="#030405"/><path d="m410.1 723.61c-5.72 0-10.36 4.813-10.36 10.751 0 5.937 4.64 10.751 10.36 10.751s10.36-4.814 10.36-10.751c0-5.938-4.64-10.751-10.36-10.751z" fill="#030405"/><path d="m533.34 862c-5.71 4.26-9.581 7.16-17.14 9.5l-13.36-5.15c-8.02-3.45-8.29-2.8-11.68-10.75l-29.44-69.23c-0.67-1.59-2.55-5.48-0.12-6.266 2.85-0.923 3.909 2.096 4.96 4.176l25.67 51.08c3.769 7.49 5.51 7.94 13.5 10.72l25.14 9.45c4.899 1.84 7.69 2.57 2.47 6.47z" fill="#030405"/><path d="m590.99 719.51c1.019 7.047 1.74 11.833 0.18 19.596l-10.89 9.291c-6.85 5.401-6.41 5.956-15.011 5.141l-74.889-7.105c-1.73-0.168-6.04-0.373-5.57-2.885 0.54-2.947 3.699-2.441 6.03-2.368l57.14 1.773c8.38 0.261 9.6-1.058 15.86-6.755l20.29-17.605c3.95-3.424 5.92-5.534 6.86 0.917z" fill="#030405"/><path d="m494.15 601.69c6.63 2.61 11.14 4.369 17.099 9.573l2.651 14.068c1.29 8.628 1.99 8.522-2.99 15.583l-43.37 61.47c-1 1.413-3.32 5.054-5.271 3.401-2.279-1.938-0.279-4.426 0.941-6.412l29.92-48.71c4.4-7.148 3.86-8.861 2.02-17.121l-5.2-26.358c-1.01-5.127-1.86-7.884 4.2-5.494z" fill="#030405"/><path d="m343.54 626.57c5.54-4.482 9.28-7.54 16.75-10.17l13.55 4.616c8.15 3.129 8.4 2.469 12.09 10.279l32.15 68.014c0.74 1.567 2.77 5.378 0.37 6.261-2.81 1.035-3.99-1.936-5.12-3.975l-27.66-50.028c-4.06-7.342-5.82-7.716-13.911-10.184l-25.5-8.452c-4.959-1.644-7.779-2.26-2.719-6.361z" fill="#030405"/><path d="m287.41 768.72c-1.141-7.03-1.93-11.802-0.5-19.589l10.75-9.465c6.76-5.51 6.31-6.057 14.92-5.38l75 5.909c1.73 0.14 6.04 0.276 5.62 2.794-0.51 2.955-3.67 2.501-6 2.465l-57.16-0.861c-8.39-0.127-9.58 1.213-15.75 7.007l-20.01 17.927c-3.89 3.487-5.83 5.629-6.87-0.807z" fill="#030405"/><path d="m479.61 765.59c-4.591 11.547-5.62 11.035 0.05 21.942 6.91 13.31 12.9 23.04 21.339 35.8 6.971 10.55 11 11.09 23.131 12.19l24.629 2.21c11.091 1 12.271 1.4 17.801-8.41 10.89-19.3 17.99-33.57 21.31-53.368 1.97-11.79 2.67-10.271-9.43-11.775l-81.34-10.108c-12.69-1.577-12.42 0.651-17.49 11.519z" fill="#030405"/><path d="m478.9 720.09c7.68 9.766 6.72 10.4 19 10.978 14.98 0.706 26.4 0.413 41.68-0.479 12.62-0.736 15.11-3.947 22.14-13.883l14.289-20.187c6.441-9.093 7.371-9.91 1.661-19.624-11.22-19.111-20-32.41-35.45-45.22-9.201-7.629-7.54-7.472-14.91 2.235l-49.59 65.27c-7.73 10.18-5.67 11.07 1.18 20.91z" fill="#030405"/><path d="m439.57 698.3c12.27-1.946 12.36-0.798 18.85-11.237 7.92-12.733 13.23-22.848 19.9-36.621 5.51-11.381 3.92-15.12-1.321-26.104l-10.659-22.317c-4.8-10.053-5.06-11.261-16.321-11.02-22.159 0.48-38.049 1.661-56.77 8.906-11.149 4.315-10.199 2.939-5.319 14.111l32.81 75.116c5.12 11.717 6.9 10.352 18.83 9.166z" fill="#030405"/><path d="m399.3 721.07c4.69-11.508 5.719-10.988 0.14-21.945-6.79-13.365-12.7-23.147-21.03-35.984-6.891-10.605-10.911-11.18-23.02-12.376l-24.61-2.431c-11.09-1.095-12.261-1.499-17.88 8.262-11.06 19.206-18.27 33.415-21.76 53.183-2.08 11.772-2.77 10.247 9.32 11.854l81.25 10.805c12.68 1.685 12.43-0.544 17.59-11.368z" fill="#030405"/><path d="m397.82 768.36c-7.79-9.681-6.83-10.326-19.12-10.767-14.98-0.54-26.4-0.121-41.67 0.94-12.61 0.876-15.07 4.114-21.99 14.128l-14.06 20.347c-6.34 9.16-7.26 9.99-1.45 19.64 11.44 18.98 20.36 32.18 35.95 44.82 9.289 7.53 7.63 7.39 14.89-2.4l48.86-65.81c7.63-10.267 5.55-11.133-1.41-20.898z" fill="#030405"/><path d="m73.619 744.54c32.47 7.247 51.95 8.216 85.25 9.181 5.55-166.47 109-298.12 280.78-297.73 151.94 0.352 251.9 114.21 271.47 258.9l3.389 58.9 24.24-0.782c280.2-2.858 562.78 4.832 843.09 11.989l109.98 5.21c3.48-35.468 7.04-67.393 13.64-97.125 29.25-131.87 132.8-218.31 268.09-221.01 134.84-2.687 247.24 98.963 268.47 229.78 5.22 32.167 5.971 65.194 5.443 98.526l21.63 0.52c31.981-2.28 70.231-7.83 101.92-12.34-5.443 3.96-10.899 7.55-16.144 10.65-37.026 5.56-73.801 11.48-111.02 15.64l2.346 4.17 0.194 13.49-11.402 11.4-14.336-23-4.497 1.82-1.994-2.66c6.975-31.97 12.27-71.31 3.162-114.69-23.862-113.64-116.98-203.14-242.79-204.43-170.32-1.745-253.69 146.19-254.86 300.67l-1.04 2.87-27.89-1.83-35.44 9.38-986.15-1 2.599-23.96 14.601 0.53c0.96-85.922-21.42-171.27-73.87-229.48-86.78-96.316-251.68-98.263-345.04-10.447-37.15 34.944-63.4 82.526-75.84 138.26l-3.58 79.971 1.05 13.032c-42.99-6.564-78.76-9.43-115.46-34.402z" fill="#333"/><path d="m669.05 810.89l986.15 1.01 35.45-9.38c-292.9-15.03-590.09-15.47-883.22-18.04l-60.47 5.48-60.711-2.5-14.589-0.52-2.61 23.95z" fill="#1a1a1a"/><path d="m1258.6 28.198c-160.38-36.91-497.86-19.795-666.8-3.324-6 10.177-8.6 16.973-12.1 28.773 77.06-7.773 154.57-13.631 234.27-17.431 162.23-7.729 276.85-13.666 411.02 15.063 12.6-6.357 27.43-11.038 33.61-23.081z" fill="#030405"/><path d="m1375.5 61.334c-0.87 10.54-28.87 18.217-36.42 21.327 140.25 55.064 264.42 142.64 387.15 228.43 35.32-3.578 64.56-4.841 95.26-16.342l-48.04-30.923c-131.07-77.903-257.8-150.44-397.95-202.5z" fill="#030405"/><path d="m67.508 243.36c59.951-42.712 117.18-77.995 188.3-113.85l12.58 24.121-1.04 4.692-13.3 18.244-16.91 20.111c-32.04 13.542-64.08 28.013-97.24 44.292-15.19 2.243-65.26 9.996-72.391 2.39z" fill="#030405"/><path d="m1774 264.21l47.45 30.572c36.44-13.649 28.82-27.34-3.85-30.501l-4.12 3.839-39.48-3.91z" fill="#1a1a1a"/><path d="m8.949 290.21c17.309 13.912 38.61 17.481 60 24.903 234.4-38.011 501.4-47.473 734.94-3.127-223.46-84.461-503.01-44.288-736.95-20.285-22.29 2.288-36.74 4.733-55.91-6.443l-2.08 4.952z" fill="#ccc5bc"/><path d="m202.91 85.789c-0.2 6.246 1.44 10.397 4.56 14.412 7.69 9.879 29.25 14.184 40.92 17.643l7.56 11.989 12.569 24.122-1.039 4.691-13.33 18.341-16.83 19.994c32.26-13.636 64.52-26.33 97.92-38.978l-84.18-50.536c-3.71-1.236-7.21-2.299-11-3.28-15.32-3.957-24.94-5.33-37.15-18.398z" fill="#333"/><path d="m644.96 109.53c-64.49 16.884-127.82 33.627-191.12 53.534-11.03 3.468-22.86 9.295-29.72 18.79-5.63 7.795 0.33 9.403 7.52 11.346l129.53 35.024 83.79-118.69z" fill="#030405"/><path d="m648.99 248.59c121.3 14.547 220.48 22.46 343.64 26.449l-7.9-136.4c-0.93-27.09 1.28-37.711-30.31-38.384-77.77-1.655-146.15 5.327-223.41 13.534-21.089 2.241-34.219 3.98-45.359 17.766-10.37 12.835-19.18 25.112-28.51 38.53-10.86 15.61-12.28 15.798-11.05 34.469l2.9 44.036z" fill="#86979e"/><path d="m139.6 240.28c-7.88 4.185-15.65 8.218-23.48 12.272-29.23 15.16-59.13 30.664-85.54 49.439l-0.321 0.231-0.069 0.395-3.01 16.816 1.92 0.346 2.94-16.421c26.209-18.587 55.92-33.996 84.979-49.062 7.99-4.141 15.931-8.256 23.5-12.28l-0.919-1.736z" fill="#030405"/><path d="m1578.6 262.13c-5.04-3.266-65.98-45.129-71.07-48.302-64.02-39.931-131.6-72.592-207.06-99.42-72.88-25.906-144.67-39.36-237.46-38.089l51.22 204.45c112.97 5.566 226.37 9.548 339.53 15.372 2.37 0.123 129.87 7.738 132.24 7.862 16.98 1.171 33.94 2.413 50.89 3.74-19.33-16.016-38.71-31.206-58.29-45.617z" fill="#030405"/><path d="m1123.6 281.23c109.86 5.328 220.12 9.251 330.14 14.914 0.92 0.047 21-0.149 45.09 1.286l11.01-64.595c-8.27-4.395-24.86-13.181-25.49-13.538-101.31-57.062-162.73-84.277-263.13-107.3-36.75-8.427-65.36-12.925-101.35-16.038-35.45-3.065-44.04 6.522-35.3 39.27l39.03 146z" fill="#86979e"/><path d="m570.58 139.09l-126.27 37.416c-7.08 2.096-17.73 8.461-6.03 11.612l81.4 20.519c15.05 3.795 16.11 4.129 25.31-9.002l34.87-49.815c8.42-12.03 2.46-14.207-9.28-10.73z" fill="#86979e"/><path d="m0.748 537.85c-0.169-10.245-0.679-10.455 6.151-19.127l24.05-30.551c11 22.037 66.85 52.961 101.63 72.388 16.45 9.19 30.65 15.801 2.01 13.134-42.67-3.973-104.88-11.905-133.84-35.844z" fill="#ccc5bc"/><path d="m12.339 318.23c3.14 2.55 5.47 3.52 9.15 5.051l2.2 16.45c-3.22-1.206-6.431-2.349-9.75-4.598-0.71-5.42-1.25-10.974-1.6-16.903zm7.64 49.683c-1.221-5.597-2.34-10.877-3.32-16.05 3.42 0.885 5.64 1.44 9 2.638l2.22 16.603c-2.84-1.419-4.94-2.163-7.9-3.191z" fill="#ed2124"/><path d="m151.54 386.01l0.01-6e-3c-37.49-1.68-75.24-4.499-110.43-10.093v6e-3c35.19 5.595 72.94 8.414 110.42 10.093z" fill="#501420" fill-rule="nonzero"/><path d="m151.55 386.01l14.14-10.882c-36.32-1.042-88.24-3.958-125.95-9.088l1.38 9.877c35.19 5.594 72.94 8.413 110.43 10.093z" fill="#942428" fill-rule="nonzero"/><path d="m27.169 319.72l6.64 57.328-3.71 6.17-0.16 0.266 0.02 0.305c0.38 5.154 0.72 10.033 1.049 14.82 2.581 36.983 4.801 68.69 13.351 106.45l-20.7 21.661c-4.62 4.614-7.46 4.925-9.42 2.91-2.231-2.28-3.69-7.287-5.221-12.694l-1.889 0.53c1.61 5.659 3.139 10.903 5.7 13.53 2.82 2.89 6.56 2.768 12.23-2.902l0.02-0.018 21.06-22.044 0.369-0.378-0.119-0.513c-8.621-37.832-10.83-69.592-13.42-106.66-0.34-4.795-0.68-9.68-1.03-14.522l3.73-6.19 0.17-0.286-0.04-0.328-6.68-57.655-1.95 0.222z" fill="#030405"/><path d="m53.599 711.46c-4.53-1.362-4.831-1.633-6.76-5.948l-24.081-53.808c-3.029-6.754-3.109-8.807-1.079-15.89l-0.79-5.734-4.69-1.823-1.82-4.952-0.52-8.861c-1.3-2.364-2.5-4.674-3.78-6.907 12.84 7.406 20.39 8.784 25.689 22.563 13.261 34.48 31.711 64.363 51.721 95.396 2.93 4.534 2.74 7.799-3.53 6.863l-6.49-0.969-14.07-17.722-9.8-2.208z" fill="#030405"/><path d="m53.629 711.4c-4.53-1.363-4.83-1.634-6.76-5.948l-24.08-53.809c-3.021-6.754-3.11-8.807-1.08-15.889l-0.78-5.733c7.69-4.751 11.67 5.152 13.93 11.393 9.94 23.92 19.38 40.896 31.58 63.791 3.97 8.248 3.77 10.023-3.01 8.402l-9.8-2.207z" fill="#333"/><path d="m1023.5 58.596l31.84 228.84 0.01 0.059 0.02 0.056c15.4 57.882 23.14 106.34 25.55 155.14 2.41 48.812-0.53 97.982-6.5 157.26l-0.01 0.122 0.02 0.112 5.1 35.713c-1.61 27.008-3.31 51.642-5.6 75.991-2.28 24.373-5.16 48.544-9.14 74.654l1.94 0.29c3.97-26.063 6.85-50.28 9.15-74.767 2.3-24.476 4-49.143 5.62-76.154v-0.101l-0.01-0.094-5.1-35.698c5.96-59.317 8.9-108.54 6.49-157.42-2.41-48.922-10.18-97.496-25.6-155.49l-31.84-228.78-1.94 0.271z" fill="#030405"/><path d="m1662.7 307.8l4.69 9.904c235.74 12.815 489.04 31.996 668.78 102.98 2.066-4.108 4.125-7.373 5.288-10.571-148.04-62.307-399.94-98.453-616.93-100.26l-61.82-2.053z" fill="#9c917f"/><path d="m678.45 370.03l0.15-23.162c-1.16-8.76-5.31-14.842-16.44-17.287-9.661-2.122-18.661-2.142-28.63-0.972-11 1.291-15.24 7.228-16.771 14.764l-0.75 26.456c0.381 5.413 2.541 8.122 12.221 11.309 11.17 3.681 23.4 3.288 35.13 2.313 9.99-0.83 13.79-6.115 15.09-13.421z" fill="#9c917f"/><path d="m559.92 352.73c0.31 11.868 3.9 10.463 15.45 11.959l40.97 5.307 4.69-5.734 55.64 1.435 1.78 4.423 18.88-0.969c6.08-0.312 17.49-0.792 17.15-9.316-0.39-9.67-13.86-10.802-21.56-11.569-39.64-3.946-76.2-5.225-116.07-5.599-9.62-0.091-17.23-1.285-16.93 10.063z" fill="#ccc5bc"/><path d="m571.28 363.73c-7.97-0.846-10.61-1.127-10.87-11.008-0.21-8.074 3.8-9.468 9.68-9.622 1.36-0.037 2.83-7e-3 4.36 0.022 0.78 0.014 1.58 0.031 2.4 0.038 19.919 0.187 39.02 0.601 58.1 1.461 19.069 0.86 38.11 2.165 57.92 4.137l0.47 0.047c7.62 0.753 20.29 2.006 20.65 11.052 0.32 7.94-10.51 8.493-16.471 8.797l-0.219 0.012-18.531 0.95-1.639-4.098-0.121-0.298-0.329-0.01-55.64-1.433-0.24-6e-3 -0.15 0.184-4.52 5.524-40.7-5.272c-1.56-0.201-2.921-0.346-4.15-0.477zm-11.85-10.985c0.28 10.742 3.13 11.046 11.74 11.96 1.27 0.134 2.66 0.283 4.14 0.474l40.97 5.306 0.27 0.036 0.17-0.21 4.539-5.549 55.081 1.419 1.65 4.124 0.13 0.325 0.35-0.017 18.88-0.969 0.22-0.011c6.3-0.321 17.75-0.907 17.4-9.814-0.4-9.899-13.6-11.205-21.53-11.989l-0.48-0.047c-19.82-1.974-38.88-3.282-57.97-4.141-19.07-0.859-38.19-1.273-58.13-1.461-0.81-7e-3 -1.611-0.023-2.39-0.038-1.55-0.03-3.02-0.059-4.41-0.023-6.45 0.17-10.86 1.709-10.63 10.625z" fill="#030405"/><path d="m603.38 342.9c-2.21 3.628-3.26 8.103-3.01 12.759 0.25 4.413 1.67 8.995 4.42 13.179l0.82-0.538c-2.65-4.032-4.02-8.445-4.26-12.694-0.24-4.462 0.76-8.74 2.86-12.199l-0.83-0.507z" fill="#030405"/><path d="m1234.8 394.04l0.16-23.161c-1.16-8.76-5.32-14.843-16.45-17.288-9.65-2.123-18.65-2.143-28.62-0.972-11 1.291-15.24 7.228-16.78 14.763l-0.75 26.457c0.39 5.412 2.55 8.121 12.22 11.308 11.17 3.68 23.41 3.289 35.13 2.315 10-0.832 13.79-6.116 15.09-13.422z" fill="#9c917f"/><path d="m1116.2 376.74c0.31 11.869 3.89 10.463 15.44 11.959l40.98 5.308 4.69-5.734 55.64 1.434 1.77 4.423 18.88-0.968c6.08-0.312 17.49-0.792 17.15-9.317-0.38-9.669-13.85-10.802-21.56-11.568-39.63-3.947-76.19-5.224-116.06-5.6-9.62-0.091-17.23-1.284-16.93 10.063z" fill="#ccc5bc"/><path d="m1127.6 387.74c-7.97-0.845-10.6-1.127-10.86-11.008-0.22-8.074 3.79-9.468 9.67-9.622 1.37-0.036 2.83-7e-3 4.37 0.022 0.78 0.014 1.57 0.031 2.39 0.038 19.92 0.188 39.03 0.601 58.11 1.461 19.07 0.859 38.11 2.165 57.91 4.138l0.48 0.047c7.61 0.752 20.28 2.005 20.64 11.051 0.32 7.94-10.5 8.494-16.46 8.798l-0.22 0.011-18.53 0.95-1.65-4.098-0.12-0.298-0.32-8e-3 -55.64-1.435-0.24-6e-3 -0.16 0.185-4.51 5.524-40.71-5.273c-1.55-0.201-2.91-0.346-4.15-0.477zm-11.84-10.984c0.28 10.743 3.13 11.045 11.74 11.959 1.26 0.134 2.66 0.282 4.13 0.473l40.97 5.309 0.27 0.034 0.17-0.21 4.55-5.548 55.07 1.419 1.66 4.124 0.13 0.325 0.35-0.018 18.88-0.968 0.21-0.012h0.01c6.3-0.321 17.75-0.906 17.39-9.813-0.39-9.899-13.59-11.205-21.53-11.99l-0.47-0.047c-19.83-1.974-38.88-3.281-57.97-4.141-19.07-0.859-38.19-1.273-58.14-1.46-0.8-7e-3 -1.6-0.024-2.38-0.039-1.55-0.03-3.03-0.058-4.41-0.022-6.46 0.17-10.87 1.708-10.63 10.625z" fill="#030405"/><path d="m1159.7 366.9c-2.2 3.629-3.26 8.104-3 12.759 0.24 4.412 1.67 8.996 4.41 13.18l0.82-0.539c-2.65-4.031-4.02-8.445-4.25-12.694-0.25-4.462 0.76-8.74 2.86-12.198l-0.84-0.508z" fill="#030405"/><path d="m197.63 686.02c-26.04-3.381-51.53-8.074-76.82-13.469-25.34-5.401-50.43-11.49-75.72-17.668l-0.47 1.904c25.36 6.192 50.5 12.295 75.78 17.684 25.32 5.398 50.84 10.098 76.99 13.492l0.24-1.943z" fill="#030405"/><path d="m244.97 394.59l86.06 81.422 1.94-0.772-84.36-79.666-2.67-2.229-0.97 1.245z" fill="#030405"/><path d="m658.03 89.323l-104.63 148.21c-6.19 6.32-11.87 12.074-17.631 17.644-5.77 5.577-11.629 10.961-18.159 16.53-9.04 7.715-9.03 7.924-8.71 16.893 0.06 1.668 0.13 3.659 0.15 6.042 0.57 69.049 8.33 136.99 16.26 205.47l2.14 1.256c-7.92-68.404-15.87-137.77-16.441-206.74-0.019-2.454-0.089-4.434-0.149-6.096-0.29-8.043-0.3-8.231 8.03-15.334 6.56-5.597 12.44-11.005 18.24-16.607 5.78-5.588 11.5-11.38 17.73-17.745l0.06-0.064 0.04-0.059 104.67-148.27-1.6-1.129z" fill="#030405"/><path d="m1665.7 316.68l-141.38-7.042-468.2-23.322c-27.07-1.306-54.54-2.384-82.19-3.468-88.1-3.456-177.91-6.978-263.43-18.27-26.05-3.439-51.89-7.406-77.84-11.956-25.92-4.546-51.92-9.668-78.31-15.424-10.24-2.233-21.24-4.537-32.52-6.899-45.76-9.585-96.17-20.142-137.4-34.935-3.78-1.356-7.3-2.62-9.69-4.516-2.26-1.791-3.56-4.229-3.17-8.043 0.27-2.621 1.3-4.374 3.39-6.023 2.22-1.753 5.68-3.447 10.64-5.868 32.929-16.066 73.66-30.392 115.62-42.68 55.48-16.245 113.14-28.934 157.81-37.377 49.951-9.44 97.871-15.881 147.88-20.518 50.02-4.638 102.17-7.476 160.55-9.707 58.12-2.219 121.96-1.738 184.92 4.886 62.92 6.621 124.96 19.378 179.51 41.709 63.25 25.892 118.65 53.994 171.8 86.739 53.1 32.712 103.94 70.067 158.11 114.49l3.9 8.226zm-141.47-5.084l143.01 7.124 1.63 0.081-0.7-1.479-4.69-9.903-0.09-0.198-0.17-0.14c-54.3-44.537-105.27-81.984-158.5-114.78-53.24-32.799-108.74-60.949-172.09-86.885-54.75-22.41-116.97-35.208-180.05-41.846-63.06-6.635-126.99-7.116-185.18-4.894-58.419 2.232-110.59 5.071-160.67 9.714-50.09 4.645-98.07 11.093-148.06 20.541-44.72 8.451-102.44 21.155-157.99 37.423-42.08 12.322-82.92 26.687-115.94 42.795-5.06 2.467-8.58 4.195-10.99 6.098-2.54 2.007-3.8 4.149-4.13 7.36-0.47 4.607 1.13 7.577 3.899 9.777 2.651 2.096 6.321 3.412 10.25 4.824 41.371 14.844 91.841 25.415 137.66 35.011 11.08 2.322 21.9 4.587 32.5 6.9 26.43 5.763 52.45 10.891 78.39 15.439 25.9 4.541 51.77 8.51 77.92 11.964 85.62 11.303 175.47 14.826 263.62 18.284 27.6 1.083 55.03 2.161 82.17 3.469l468.2 23.322z" fill="#030405"/><path d="m1470.3 232.6l-7.41 15.846c-4.14 8.873-3.52 14.982-3.14 24.556l0.8 20.317c0.49 12.334 0.19 18.63 13.92 19.875 16.42 1.49 34.76 0.923 50.14-2.603l42.11 2.161c7.63 0.39 12.82-0.623 17.67-6.963l9.48-12.378c5.9-7.705 7.69-10.753-3.17-11.34l-14.77-0.799 1.96-15.317c1.1-8.107 1.16-9.869-7.38-16.584-17.64-13.871-30.35-22.632-54.9-27.529-10.16-2.028-18.31-2.353-31.46-0.954-6.6 0.702-10.29 4.088-13.85 11.712z" fill="#c3bcb1"/><path d="m1729.8 734.34l-59.17-0.064c-196.59-7.222-393.29-10.581-590-13.938-113.96-1.945-227.94-3.891-341.94-6.59h-0.02l-64.48 0.02v1.958l64.46-0.02c113.96 2.697 227.96 4.643 341.95 6.589 196.68 3.358 393.34 6.715 589.96 13.94h0.03l59.21 0.062v-1.957z" fill="#030405"/><path d="m1666.4 318.08l11.38 30.374c6.91 80.651 9.9 154.51 7.43 227.82-2.46 73.349-10.38 146.18-25.27 224.74l1.98 0.08c14.91-78.652 22.79-151.3 25.25-224.76 2.47-73.464-0.52-147.43-7.44-228.17l-0.01-0.126-0.06-0.134-10.76-29.107-0.67-1.402-1.83 0.683z" fill="#030405"/><path d="m1825.8 417.96l-118.46-6.776 1.18 16.419 78.11 0.938c13.55 0.164 27.31-4.081 39.17-10.581z" fill="#333"/><path d="m1489.5 220.45c-1.71 0.13-3.51 0.296-5.41 0.499-6.6 0.701-10.29 4.088-13.85 11.712l-7.4 15.846c-4.15 8.874-3.53 14.981-3.15 24.557l0.8 20.317c0.49 12.333 0.19 18.629 13.92 19.873 16.42 1.491 34.77 0.925 50.15-2.602l42.11 2.16c7.62 0.392 12.82-0.622 17.67-6.961l9.47-12.378c5.9-7.706 7.7-10.754-3.17-11.341l-14.76-0.798-2.09 5.733-54.21-1.043-48.52-1.59c-0.24-6.325-0.29-12.623-0.05-19.056 0.47-12.837 0.21-14.223 6.49-25.247 3.79-6.665 7.49-12.865 12-19.681z" fill="#030405"/><path d="m1709.1 295.24c0.63 0.629 2.56 2.621 5.03 5.158 5.77 5.943 14.42 14.854 15.98 16.218 9.73 8.497 20.38 15.21 31.98 19.975 11.34 4.657 23.57 7.452 36.69 8.236 51.98 3.102 109.16 6.734 165.54 13.17 56.337 6.434 111.85 15.671 160.49 29.986 1.01 0.296 7.505 2.572 13.662 4.727 5.458 1.91 10.651 3.73 11.592 4.018l0.568-1.874c-0.851-0.261-6.052-2.082-11.515-3.995-6.188-2.166-12.717-4.453-13.754-4.758-48.772-14.351-104.39-23.608-160.83-30.053-56.4-6.441-113.63-10.075-165.64-13.18-12.91-0.769-24.93-3.516-36.06-8.089-11.4-4.681-21.88-11.28-31.44-19.638-1.49-1.304-10.12-10.186-15.87-16.109-2.48-2.552-4.42-4.558-5.05-5.181l-1.38 1.389z" fill="#030405"/><path d="m2293 482.58c-39.599-19.189-65.237-41.169-146.6-73.755-3.536-1.337-7.114-2.652-10.732-3.944l0.501-0.094c-8.115-3.157-16.748-6.41-25.965-9.769-0.284-0.103-0.343-0.251-0.23-0.433l-19.584 10.995c56.111 20.916 102.03 41.576 154.96 65.133 18.669 8.306 28.764 11.132 47.645 11.867zm39.755-55.414c-16.341-7.284-33.378-13.522-55.534-20.01-47.193-13.82-81.521-18.369-140.2-18.369-1.224 0-2.454 2e-3 -3.701 6e-3 -1.935 6e-3 -3.893 0.017-5.882 0.032-2.403 0.018-4.845 0.043-7.33 0.075l-6.793 3.813c3.474-1.528 8.186-3.294 6.793-3.813 5.868-0.074 11.49-0.113 16.913-0.113 58.682 0 93.01 4.549 140.2 18.369 22.156 6.488 39.193 12.726 55.534 20.01z" fill="url(#d)"/><path d="m2332.7 369.46c6.122 13.343 9.642 22.367 9.405 29.821-0.235 7.445-3.668 14.819-10.307 27.426l1.735 0.914c6.778-12.869 10.281-20.426 10.53-28.28 0.249-7.848-2.291-14.756-8.543-28.38l-2.82-1.501z" fill="#030405"/><path d="m2146.4 408.83c-3.313-1.327-6.728-2.675-10.231-4.038l-0.501 0.094c3.618 1.292 7.196 2.607 10.732 3.944z" fill="url(#c)"/><path d="m2318.6 560.37c3.536-2.706 7.283-4.535 12.896-5.584 30.46-5.69 50.199-7.064 81.256-8.894 4.593-0.27 6.131-0.357 6.788 2.699l-39.894 10.552c-1.028-1.964-2.183-3.951-3.499-5.992-20.598-0.49-37.613 2.631-57.547 7.219z" fill="#721118"/><path d="m2293.9 699.11l46.723-5.951c21.011-2.676 30.152-9.66 36.415-22.914 7.867 15.25 12.865 29.15 19.764 44.694-3.03 0.657-7.426 0.697-14.452 1.346l-91.308 8.424 2.858-25.599z" fill="#ccc5bc"/><path d="m2414.4 697.1l-8.196 17.181c-5.229 13.395-10.671 13.976-23.967 15.392l-2.085 0.224c-48.637 5.288-92.969 5.565-140.76 5.862-5.942 0.038-13.53 0.075-19.594 0.122l-0.382 2.023c6.063-0.047 14.041-0.15 19.983-0.188 47.866-0.297 92.263-0.575 140.96-5.869l2.085-0.224c14.138-1.506 19.925-2.123 25.585-16.628l7.226-16.946-0.856-0.949z" fill="#030405"/><path d="m1907 886.38c-6.59-2.71-11.07-4.54-16.95-9.83l-2.44-14.11c-1.15-8.65-1.85-8.56 3.23-15.54l44.32-60.79c1.021-1.4 3.391-5.004 5.32-3.32 2.25 1.97 0.211 4.43-1.039 6.4l-30.671 48.24c-4.5 7.08-3.99 8.8-2.28 17.09l4.79 26.43c0.93 5.14 1.74 7.91-4.28 5.43z" fill="#030405"/><path d="m1965 788.89c-12.31 1.69-12.37 0.54-19.08 10.84-8.19 12.56-13.72 22.56-20.679 36.19-5.75 11.26-4.24 15.03 0.77 26.12l10.179 22.54c4.59 10.16 4.821 11.37 16.09 11.37 22.158-0.01 38.07-0.85 56.94-7.7 11.237-4.08 10.259-2.72 5.618-13.99l-31.203-75.8c-4.868-11.82-6.676-10.5-18.635-9.57z" fill="#030405"/><path d="m1984 757.65c-5.65 0-10.23 4.491-10.23 10.033 0 5.541 4.58 10.034 10.23 10.034 5.649 0 10.228-4.493 10.228-10.034 0-5.542-4.579-10.033-10.228-10.033z" fill="#030405"/><path d="m1947 757.38c-5.97 0-10.81 4.784-10.81 10.686 0 5.901 4.84 10.685 10.81 10.685 5.98 0 10.82-4.784 10.82-10.685 0-5.902-4.84-10.686-10.82-10.686z" fill="#030405"/><path d="m1994.9 721.29c-5.866 0-10.621 4.784-10.621 10.686 0 5.901 4.755 10.685 10.621 10.685 5.864 0 10.62-4.784 10.62-10.685 0-5.902-4.756-10.686-10.62-10.686z" fill="#030405"/><path d="m1964.4 700.7c-6.19 0-11.21 4.901-11.21 10.945 0 6.046 5.02 10.947 11.21 10.947 6.185 0 11.202-4.901 11.202-10.947 0-6.044-5.017-10.945-11.202-10.945z" fill="#030405"/><path d="m1935.2 723.73c-5.721 0-10.36 4.812-10.36 10.75 0 5.937 4.639 10.751 10.36 10.751 5.729 0 10.359-4.814 10.359-10.751 0-5.938-4.63-10.75-10.359-10.75z" fill="#030405"/><path d="m2058.4 862.13c-5.707 4.25-9.574 7.16-17.139 9.5l-13.358-5.15c-8.014-3.45-8.292-2.8-11.674-10.75l-29.443-69.23c-0.674-1.6-2.548-5.483-0.119-6.271 2.852-0.922 3.911 2.091 4.958 4.171l25.669 51.08c3.767 7.5 5.507 7.94 13.497 10.73l25.148 9.45c4.892 1.84 7.685 2.57 2.461 6.47z" fill="#030405"/><path d="m2116 719.64c1.026 7.047 1.739 11.832 0.186 19.596l-10.891 9.291c-6.85 5.401-6.412 5.957-15.013 5.141l-74.893-7.104c-1.724-0.169-6.037-0.374-5.57-2.886 0.548-2.946 3.704-2.44 6.033-2.368l57.139 1.775c8.385 0.26 9.604-1.06 15.861-6.757l20.293-17.604c3.947-3.425 5.916-5.534 6.855 0.916z" fill="#030405"/><path d="m2019.2 601.82c6.626 2.61 11.132 4.369 17.098 9.573l2.654 14.068c1.286 8.629 1.985 8.523-2.996 15.583l-43.367 61.471c-1.002 1.413-3.323 5.053-5.27 3.4-2.286-1.938-0.28-4.426 0.94-6.411l29.923-48.71c4.392-7.149 3.851-8.862 2.015-17.122l-5.199-26.357c-1.011-5.127-1.864-7.884 4.202-5.495z" fill="#030405"/><path d="m1868.6 626.69c5.54-4.482 9.29-7.54 16.76-10.17l13.55 4.616c8.14 3.129 8.39 2.469 12.08 10.281l32.16 68.012c0.73 1.568 2.76 5.38 0.36 6.261-2.81 1.035-3.99-1.936-5.12-3.975l-27.66-50.027c-4.06-7.343-5.82-7.717-13.91-10.184l-25.5-8.453c-4.96-1.644-7.78-2.259-2.72-6.361z" fill="#030405"/><path d="m1812.5 768.85c-1.13-7.03-1.92-11.803-0.49-19.59l10.74-9.465c6.76-5.509 6.31-6.057 14.93-5.378l74.99 5.906c1.73 0.141 6.04 0.277 5.62 2.796-0.5 2.954-3.67 2.5-6 2.466l-57.16-0.863c-8.39-0.126-9.58 1.213-15.75 7.009l-20.01 17.926c-3.89 3.486-5.82 5.628-6.87-0.807z" fill="#030405"/><path d="m2004 720.22c7.683 9.767 6.723 10.401 19.003 10.979 14.978 0.705 26.399 0.413 41.676-0.478 12.624-0.738 15.113-3.949 22.146-13.885l14.287-20.187c6.436-9.093 7.364-9.91 1.663-19.623-11.222-19.112-20.001-32.409-35.454-45.22-9.203-7.63-7.54-7.473-14.914 2.234l-49.585 65.27c-7.735 10.182-5.675 11.07 1.178 20.91z" fill="#030405"/><path d="m1964.6 698.43c12.273-1.944 12.359-0.798 18.851-11.237 7.918-12.733 13.232-22.848 19.903-36.621 5.512-11.381 3.922-15.118-1.325-26.104l-10.659-22.316c-4.801-10.053-5.061-11.262-16.321-11.021-22.159 0.48-38.048 1.661-56.769 8.907-11.15 4.315-10.2 2.938-5.32 14.11l32.81 75.116c5.12 11.717 6.9 10.352 18.83 9.166z" fill="#030405"/><path d="m1924.4 721.2c4.691-11.508 5.72-10.987 0.14-21.945-6.79-13.366-12.7-23.148-21.03-35.985-6.88-10.605-10.91-11.18-23.02-12.377l-24.61-2.43c-11.09-1.095-12.26-1.498-17.88 8.262-11.06 19.208-18.27 33.415-21.76 53.183-2.08 11.772-2.76 10.248 9.32 11.855l81.25 10.804c12.68 1.687 12.43-0.544 17.59-11.367z" fill="#030405"/><path d="m1922.9 768.48c-7.79-9.682-6.84-10.327-19.13-10.769-14.98-0.539-26.4-0.121-41.67 0.94-12.61 0.876-15.06 4.114-21.99 14.128l-14.06 20.341c-6.33 9.17-7.25 9.99-1.45 19.64 11.44 18.99 20.36 32.19 35.96 44.83 9.28 7.53 7.62 7.39 14.89-2.4l48.861-65.81c7.62-10.271 5.549-11.137-1.411-20.9z" fill="#030405"/><path d="m2004.7 765.72c-4.588 11.548-5.619 11.036 0.047 21.946 6.911 13.31 12.899 23.04 21.341 35.8 6.976 10.55 11.002 11.09 23.127 12.18l24.631 2.22c11.096 1 12.268 1.39 17.805-8.41 10.893-19.31 17.985-33.58 21.304-53.372 1.977-11.79 2.677-10.271-9.422-11.775l-81.341-10.107c-12.688-1.577-12.423 0.65-17.492 11.518z" fill="#030405"/><path d="m116.27 750.8c-12.939-1.255-25.789-3.282-41.809-6.844-4.06-5.911-7.31-10.88-10.36-15.943-3.101-5.144-5.98-10.358-9.29-16.733l-0.19-0.372-0.4-0.119c-2.13-0.639-3.26-1.015-4-1.663-0.73-0.651-1.25-1.72-2.16-3.743l-24.08-53.809c-1.461-3.268-2.211-5.382-2.34-7.483-0.141-2.103 0.33-4.303 1.31-7.739l0.059-0.192-0.029-0.207-0.78-5.732-0.08-0.573-0.54-0.211-4.27-1.663-1.63-4.406-0.51-8.712-0.01-0.217-0.11-0.194c-1.1-2.013-2.23-3.984-3.36-5.936-2.05-3.57-4.07-7.074-5.931-10.947-1.24-9.337-2.109-18.971-2.689-28.67-0.59-9.774-0.9-19.582-1.01-29.196-0.01-1.252-0.03-2.342-0.051-3.324-0.169-8.055-0.179-8.753 5.971-16.57l24.05-30.552 0.3-0.379-0.12-0.474c-5.67-21.911-8.93-38.783-10.83-55.842-1.89-16.987-2.44-34.156-2.69-56.657l3.15-3.63 0.32-0.37-0.11-0.482c-2.281-10.34-4.22-19.51-5.69-28.76-1.48-9.233-2.48-18.546-2.89-29.182l-0.01-0.376-0.26-0.27-5.53-5.774 2.52-16.08 1.93-4.599c41.19-31.373 79.1-58.484 118.31-83.601 39.26-25.155 79.839-48.307 126.31-71.735l0.97-0.486-0.58-0.912-7.56-11.989-0.19-0.314-0.361-0.105c-1.959-0.58-4.129-1.169-6.449-1.797-11.801-3.193-27.74-7.507-33.97-15.507-1.5-1.928-2.64-3.879-3.38-6.079-0.721-2.159-1.06-4.584-0.98-7.493l2.97-6.066c8.36-2.52 16.21-4.664 24.1-6.503 8.03-1.867 16.13-3.424 24.88-4.738l163.59-24.559 10.71 0.386 0.08 4e-3 0.08-0.011c6.7-0.894 13.359-1.768 19.98-2.62 6.16-0.794 12.79-1.633 19.92-2.52v-2e-3c0.98-0.105 22.709-2.584 44.92-5.118 23.529-2.685 47.6-5.432 48.11-5.484 113.25-11.711 230.58-18.359 346.88-18.861 109.94-0.474 218.99 4.543 322.8 15.968 74.86 8.238 176.8 48.332 276.61 96.219 99.84 47.905 197.57 103.63 263.95 143.08l0.19 0.11 0.22 0.021 39.48 3.909 0.44 0.044 0.32-0.301 5.57-5.197c92.34 3.222 215.6 15.389 329.22 42.279 85.745 20.291 165.98 48.962 223.22 88.489 12.857 8.878 21.202 14.923 27.045 22.357 5.825 7.408 9.226 16.284 12.235 30.863 8.641 41.856 14.179 83.278 14.996 124.65 0.816 41.351-3.084 82.662-13.319 124.32l-0.123 0.502 0.342 0.384c1.524 1.715 3.059 3.298 4.49 4.774 6.659 6.868 10.985 11.331 4.058 20.569l-0.35 0.466 0.238 0.525c1.861 4.094 1.457 4.879-0.569 8.81l-0.137 0.265c-4.986 9.682-12.094 19.205-20.313 28.09-9.227 9.974-19.867 19.158-30.493 26.881-15.75 2.24-33.041 4.68-50.439 6.85-17.431 2.17-34.89 4.07-50.841 5.21l-20.592-0.49c0.248-16.37 0.179-32.656-0.58-48.793-0.776-16.479-2.273-32.816-4.888-48.938-10.778-66.409-44.975-125.33-93.656-167-47.553-40.699-108.93-64.933-175.8-63.601-67.7 1.349-127.5 23.607-174.07 62-46.8 38.583-80.25 93.454-94.96 159.77-3.3 14.899-5.85 30.341-8 46.496-2.11 15.852-3.85 32.408-5.56 49.817l-109.05-5.16h-0.02l-36.35-0.94c-268.39-6.868-538.66-13.79-806.78-11.054h-0.02l-23.28 0.75-3.34-57.943-0.01-0.077c-10.15-75.032-41.86-141.81-91.2-188.86-46.11-43.967-107.59-70.712-181.24-70.882-83.44-0.192-150.82 30.672-198.78 81.524-50.89 53.967-79.88 130.44-82.94 216.18-16.181-0.474-29.1-0.963-41.911-2.204zm-42.609-5.016c16.28 3.634 29.3 5.694 42.43 6.966 13.12 1.271 26.33 1.757 43.01 2.239l0.97 0.028 0.03-0.976c2.86-85.65 31.69-162.04 82.45-215.87 47.59-50.47 114.49-81.101 197.35-80.91 73.109 0.168 134.13 26.71 179.89 70.346 49 46.733 80.51 113.09 90.61 187.66l3.38 58.859 0.06 0.958 0.95-0.032 24.24-0.782c268.06-2.734 538.32 4.187 806.69 11.057l36.33 0.93 109.98 5.22 0.93 0.04 0.09-0.93c1.73-17.72 3.49-34.557 5.64-50.684 2.15-16.107 4.68-31.495 7.97-46.327 14.61-65.88 47.83-120.38 94.29-158.68 46.24-38.118 105.62-60.214 172.87-61.554 66.369-1.322 127.29 22.734 174.49 63.133 48.337 41.37 82.292 99.876 92.994 165.82 2.604 16.045 4.093 32.307 4.867 48.715 0.773 16.433 0.828 33.001 0.564 49.641l-0.015 0.97 0.971 0.02 21.632 0.52h0.092c16.022-1.14 33.516-3.04 50.965-5.22 17.401-2.17 34.84-4.64 50.718-6.9l0.24-0.03 0.197-0.14c10.771-7.81 21.583-17.131 30.973-27.283 8.342-9.017 15.557-18.683 20.621-28.518l0.137-0.266c2.304-4.47 2.829-5.491 0.848-9.994 7.445-10.256 2.694-15.158-4.563-22.64-1.289-1.331-2.665-2.749-4.087-4.331 10.184-41.657 14.067-82.971 13.249-124.32-0.819-41.504-6.371-83.041-15.034-125-3.077-14.906-6.581-24.015-12.61-31.684-6.007-7.641-14.461-13.77-27.475-22.756-57.468-39.684-137.93-68.448-223.88-88.79-113.91-26.956-237.51-39.133-330.01-42.338l-0.4-0.014-0.3 0.275-5.54 5.172-38.82-3.844c-66.39-39.453-164.07-95.135-263.93-143.05-99.98-47.973-202.13-88.14-277.23-96.403-103.87-11.431-212.99-16.452-323.03-15.977-116.38 0.502-233.78 7.153-347.07 18.869-0.76 0.079-24.72 2.812-48.131 5.483-22.469 2.565-44.449 5.073-44.919 5.121h-0.02c-6.21 0.772-12.85 1.616-19.93 2.527-6.73 0.867-13.371 1.738-19.91 2.609l-10.73-0.387-0.11-4e-3 -0.07 0.011-163.66 24.571c-8.79 1.32-16.94 2.887-25.03 4.769-8.09 1.884-16.101 4.078-24.63 6.655l-0.4 0.123-0.2 0.388-3.25 6.646-0.1 0.19v0.209c-0.11 3.245 0.27 5.955 1.08 8.386 0.81 2.439 2.06 4.573 3.68 6.66 6.63 8.519 22.94 12.933 35.01 16.199 2.199 0.597 4.27 1.157 6.05 1.679l6.79 10.762c-46.151 23.299-86.49 46.337-125.53 71.35-39.32 25.184-77.33 52.373-118.64 83.849l-0.211 0.156-0.099 0.244-2.08 4.951-0.05 0.111-0.021 0.12-2.609 16.68-0.07 0.478 0.33 0.351 5.61 5.855c0.42 10.573 1.42 19.849 2.89 29.045 1.46 9.143 3.37 18.208 5.61 28.393l-3.06 3.539-0.25 0.279 0.01 0.369c0.25 22.773 0.789 40.1 2.7 57.226 1.89 17.023 5.13 33.858 10.76 55.647l-23.75 30.172c-6.59 8.363-6.57 9.116-6.39 17.823 0.02 0.996 0.04 2.101 0.05 3.303v4e-3c0.12 9.686 0.419 19.53 1.01 29.289 0.59 9.782 1.47 19.514 2.73 28.963l0.02 0.154 0.06 0.141c1.92 3.991 3.98 7.571 6.079 11.22 1.061 1.845 2.131 3.712 3.231 5.703l0.5 8.643 0.01 0.149 0.05 0.132 1.83 4.952 0.149 0.415 0.411 0.161 4.15 1.614 0.679 4.954c-1 3.538-1.479 5.865-1.329 8.205 0.15 2.383 0.96 4.673 2.52 8.16l24.08 53.809c1.02 2.29 1.62 3.514 2.65 4.418 0.97 0.856 2.17 1.296 4.329 1.949 3.26 6.27 6.111 11.419 9.161 16.478 3.099 5.149 6.44 10.237 10.65 16.359l0.21 0.314 0.38 0.084z" fill="#030405"/><path d="m560.29 29.489c-10.74-17.08-10.11-20.463-29.99-24.146-19.64-3.638-33.17-4.792-54.41-4.229-14.371 0.383-13.67 0.459-9.23 12.401l3.2 9.59 0.26 18.243 90.17-11.859z" fill="#c3bcb1"/><path d="m555.72 23.928c0.87 1.43 1.82 2.993 2.93 4.789l-87.57 11.516-0.24-17.14-0.01-0.152-0.04-0.144-3.2-9.589-0.01-0.034-0.571-1.529c-1.299-3.453-2.149-5.743-2.189-7.147-0.051-2.082 2.77-2.184 11.09-2.404 10.57-0.281 19.23-0.133 27.71 0.538 8.47 0.671 16.73 1.865 26.5 3.675 16.82 3.116 18.58 6.013 25.6 17.621zm5.4 5.04c-1.351-2.145-2.601-4.205-3.71-6.053-7.391-12.211-9.24-15.257-26.93-18.535-9.87-1.827-18.19-3.031-26.711-3.706-8.51-0.673-17.239-0.821-27.899-0.537-9.8 0.259-13.111 0.397-13.01 4.407 0.05 1.738 0.95 4.147 2.31 7.784l0.57 1.529 3.14 9.412 0.26 18.09 0.01 1.103 1.09-0.144 90.18-11.857 1.51-0.199-0.81-1.294z" fill="#030405"/><path d="m2380 484.41c11.565 0 15.917-3.545 15.928-9.057-0.011 5.512-4.363 9.057-15.928 9.057-0.404 0-0.819-4e-3 -1.241-0.013l-81.065-1.68c-1.631-0.034-3.196-0.079-4.706-0.138 0.365 0.177 0.731 0.353 1.098 0.53l84.673 1.288c0.422 9e-3 0.837 0.013 1.241 0.013zm-270.03-89.826l3.333-1.872c-1.667 0.734-3.048 1.412-3.333 1.872z" fill="#b4524c" fill-rule="nonzero"/><path d="m2380 484.41c11.565 0 15.917-3.545 15.928-9.057 0.01-5.555-4.391-13.108-10.266-21.04-19.74-10.891-35.571-19.364-52.028-26.749-0.01 0.019-0.019 0.036-0.029 0.055l-0.862-0.454c-16.341-7.284-33.378-13.522-55.534-20.01-47.193-13.82-81.521-18.369-140.2-18.369-5.423 0-11.045 0.039-16.913 0.113 1.393 0.519-3.319 2.285-6.793 3.813l-3.333 1.872c-0.113 0.182-0.054 0.33 0.23 0.433 9.217 3.359 17.85 6.612 25.965 9.769l20.001-3.729c48.683 18.392 77.397 33.595 119.88 62.896 15.383 2.169 28.805 2.992 41.903 2.992 18.116 0 35.608-1.575 56.784-3.339l-28.67-15.463 10.714-4.013s19.113 11.823 26.206 15.985c2.866 1.681 3.965 2.731 4.694 4.648 0.889 2.338 1.185 4.49 1.277 6.704 0.299 7.236-2.256 7.496-7.799 7.496-0.215 0-0.434 0-0.657-1e-3h-0.628c-0.426 0-0.867 1e-3 -1.324 6e-3 -13.075 0.134-25.321 0.28-37.505 0.28-14.152 0-28.221-0.197-43.4-0.834-14.021-0.59-15.492-0.848-27.77-8.212-38.318-22.985-77.584-44.029-123.48-61.378 81.358 32.586 107 54.566 146.6 73.755 1.51 0.059 3.075 0.104 4.706 0.138l81.065 1.68c0.422 9e-3 0.837 0.013 1.241 0.013z" fill="url(#b)"/><path d="m2333.6 427.62c0.01-0.019 0.019-0.036 0.029-0.055-0.296-0.133-0.594-0.266-0.891-0.399l0.862 0.454z" fill="#313232" fill-rule="nonzero"/><path d="m2341 479.25c12.184 0 24.43-0.146 37.505-0.28 0.457-5e-3 0.898-6e-3 1.324-6e-3h0.628c0.223 1e-3 0.442 1e-3 0.657 1e-3 5.543 0 8.098-0.26 7.799-7.496-0.092-2.214-0.388-4.366-1.277-6.704-0.729-1.917-1.828-2.967-4.694-4.648-7.093-4.162-26.206-15.985-26.206-15.985l-10.714 4.013 28.67 15.463c-21.176 1.764-38.668 3.339-56.784 3.339-13.098 0-26.52-0.823-41.903-2.992-42.488-29.301-71.202-44.504-119.88-62.896l-20.001 3.729c3.503 1.363 6.918 2.711 10.231 4.038 45.896 17.349 85.162 38.393 123.48 61.378 12.278 7.364 13.749 7.622 27.77 8.212 15.179 0.637 29.248 0.834 43.4 0.834z" fill="url(#a)"/><path d="m2091.5 405.49l28.682-16.102c34.596-0.433 60.933 0.358 85.05 3.138 24.138 2.783 46.05 7.56 71.797 15.1 22.425 6.566 39.602 12.879 56.125 20.28 16.491 7.388 32.349 15.872 52.135 26.788 5.865 7.929 10.23 15.448 10.102 20.872-0.124 5.277-4.691 8.59-16.667 8.343l-81.065-1.681c-10.973-0.226-18.992-0.984-26.774-2.799s-15.337-4.693-25.387-9.164l-7.931-3.531c-49.339-21.967-93.203-41.497-146.07-61.244zm28.31-17.018l-29.711 16.679-0.922 0.518 0.991 0.369c53.27 19.857 97.363 39.491 147 61.592l7.932 3.53c10.111 4.498 17.719 7.396 25.564 9.226 7.846 1.829 15.925 2.592 26.977 2.821l81.066 1.68c12.684 0.263 17.525-3.427 17.664-9.299 0.134-5.705-4.347-13.449-10.358-21.565l-0.064-0.087-0.093-0.051c-19.841-10.947-35.736-19.453-52.301-26.874-16.56-7.418-33.776-13.744-56.252-20.326-25.806-7.557-47.769-12.345-71.958-15.133-24.179-2.788-50.59-3.578-85.301-3.142l-0.127 2e-3 -0.106 0.06z" fill="#030405"/><defs><linearGradient id="d" x2="1" gradientTransform="matrix(-246.95 -154.31 -154.31 246.95 2334.6 490.32)" gradientUnits="userSpaceOnUse"><stop stop-color="#030405" offset="0"/><stop stop-color="#424143" offset="1"/></linearGradient><linearGradient id="c" x2="1" gradientTransform="matrix(-246.95 -154.31 -154.31 246.95 2334.6 490.32)" gradientUnits="userSpaceOnUse"><stop stop-color="#353433" offset="0"/><stop stop-color="#636061" offset="1"/></linearGradient><linearGradient id="b" x2="1" gradientTransform="matrix(-246.95 -154.31 -154.31 246.95 2334.6 490.32)" gradientUnits="userSpaceOnUse"><stop stop-color="#323232" offset="0"/><stop stop-color="#595859" offset="1"/></linearGradient><linearGradient id="a" x2="1" gradientTransform="matrix(-246.95 -154.31 -154.31 246.95 2334.6 490.32)" gradientUnits="userSpaceOnUse"><stop stop-color="#504f4f" offset="0"/><stop stop-color="#726f70" offset="1"/></linearGradient></defs></svg>
