<svg
  xmlns="http://www.w3.org/2000/svg"
  xml:space="preserve"
  fill-rule="evenodd"
  stroke-linejoin="round"
  stroke-miterlimit="2"
  clip-rule="evenodd"
  viewBox="0 0 480 96"
>
  <path
    fill="#b1ca52"
    d="m164.223 95.923 3.067-11.827c.92.014 1.868.203 2.817.619 4.892 2.149 5.745 4.779 12.31 6.305 2.49.579 5.584 1.174 8.052 1.856 2.418.669 5.228 2.038 7.397 3.047h-33.643Z"
  />
  <path
    fill="#97b72e"
    d="m168.392 95.906-24.819-.005c2.397-1.72 6.242-5.166 9.191-6.319 2.073-.81 4.196-.194 5.728-1.434.927-.75 2.565-1.539 3.222-2.047 1.519-1.173 3.533-2.071 5.693-2.002 2.005 1.498 2.853 3.876.844 5.527-2.204 1.811-1.476 4.241.141 6.28Z"
  />
  <path
    fill="#91b42c"
    d="M180.956 95.35c-1.818-.105-2.275-1.264-1.371-3.479.464-1.008.921-1.504 1.371-1.489.45-.015.907.481 1.37 1.489.904 2.215.448 3.374-1.37 3.479Z"
  />
  <path
    fill="#84a128"
    d="M180.956 95.35c-1.818-.105-2.275-1.264-1.371-3.479.464-1.008.921-1.504 1.371-1.489v4.968Z"
  />
  <path fill="#877868" d="M180.833 92.851h.245v3.072h-.245z" />
  <path
    fill="#b1ca52"
    d="M40.879 85.117c.907-.082.742-.221 1.71-.276 1.744-.101 4.07.031 5.456.092 14.822.646 25.411 7.233 38.116 10.849H41.065l-6.047-4.439 5.861-6.226Z"
  />
  <path
    fill="#97b72e"
    d="M2.62 95.782c38.458-.028 49.322-.042 49.322-.042.196-1.131-2.002-1.585-6.043-2.733-7.555-2.145-5.853-2.967-1.944-4.004 2.913-.772 5.478-1.805 5.319-2.694-.153-.853-3.581-1.706-7.199-1.438-8.451.629-17.36 4.826-21.233 6.292-6.238 2.363-16.697 3.079-18.222 4.619Z"
  />
  <path
    fill="#91b42c"
    d="M74.498 94.967c-2.862-.149-3.581-1.8-2.157-4.953.729-1.435 1.448-2.142 2.157-2.12.708-.022 1.427.685 2.157 2.12 1.423 3.153.704 4.804-2.157 4.953Z"
  />
  <path
    fill="#84a128"
    d="M74.498 94.967c-2.862-.149-3.581-1.8-2.157-4.953.729-1.435 1.448-2.142 2.157-2.12v7.073Z"
  />
  <path fill="#877868" d="M74.305 91.408h.385v4.374h-.385z" />
  <path
    fill="#91b42c"
    d="M66.681 94.652c-3.967-.207-4.963-2.495-2.99-6.865 1.012-1.991 2.008-2.97 2.99-2.94.982-.03 1.979.949 2.99 2.94 1.974 4.37.977 6.658-2.99 6.865Z"
  />
  <path
    fill="#84a128"
    d="M66.681 94.652c-3.967-.207-4.963-2.495-2.99-6.865 1.012-1.991 2.008-2.97 2.99-2.94v9.805Z"
  />
  <path fill="#877868" d="M66.414 89.718h.534v6.064h-.534z" />
  <path
    fill="#f60"
    d="M38.718 55.343v40.464h-1.676V56.064c.575-.234 1.13-.477 1.676-.721Zm-12.121 3.663v36.801h-1.676V59.25c.565-.068 1.13-.156 1.676-.244Zm133.347 10.387v26.404h-1.676V69.032c.497.176 1.053.302 1.676.361Zm-12.12-15.239v41.653h-1.676V52.78c.604.439 1.159.897 1.676 1.374Zm-12.131-9.353v51.006h-1.676V42.716c.536.711 1.092 1.412 1.676 2.085Zm-12.121-23.199v74.205h-1.675V18.533c.594.916 1.14 1.948 1.675 3.069Zm-12.12-6.694v80.899h-1.676V16.009c.526-.438 1.081-.809 1.676-1.101ZM99.331 48.513v47.294h-1.676V52.741c.643-1.276 1.189-2.698 1.676-4.228ZM87.21 59.24v36.557h-1.675V58.773c.526.224 1.081.38 1.675.467ZM75.09 42.988v52.819h-1.676V40.28c.594.838 1.15 1.744 1.676 2.708ZM62.969 37.25v58.557h-1.676V38.448c.575-.448 1.13-.857 1.676-1.198Zm-12.13 10.415v48.142h-1.667V48.99c.566-.438 1.131-.877 1.667-1.325Z"
  />
  <path
    fill="#6b232a"
    d="M38.718 55.343v40.464h-1.101V55.82c.37-.156.74-.311 1.101-.477ZM25.496 95.807V59.172c.37-.058.741-.107 1.101-.175v36.8h-1.101v.01Zm133.347 0V69.208c.341.087.712.156 1.101.195v26.404h-1.101Zm-12.13 0V53.209c.39.302.76.624 1.101.945v41.653h-1.101Zm-12.121 0V43.466c.351.458.721.896 1.101 1.335v51.006h-1.101Zm-12.121 0V19.478c.38.662.741 1.374 1.101 2.124v74.205h-1.101Zm-12.12 0V15.571c.351-.244.721-.468 1.101-.663v80.899h-1.101Zm-12.121 0V51.514c.409-.945.77-1.939 1.101-3.001v47.294H98.23Zm-12.121 0v-36.82c.351.117.721.205 1.101.263v36.557h-1.101Zm-12.13 0V41.118c.39.594.75 1.218 1.101 1.861v52.818h-1.101v.01Zm-12.121 0V38.01c.37-.283.741-.536 1.101-.77v58.557h-1.101v.01Zm-12.12 0V48.552c.38-.292.74-.585 1.101-.887v48.142h-1.101Z"
  />
  <path
    fill="#f60"
    d="M45.265 49.594v1.988c-.117.078-.234.156-.35.234v-1.998c.116-.068.243-.146.35-.224Zm-20.831 7.629h.351v2.105h-.351v-2.105Zm18.912-6.508h.351v2.514h-.351v-2.514Zm-1.579.887h.351v2.708h-.351v-2.708Zm-1.578.798h.351v2.573h-.351V52.4Zm-1.578.78h.35v2.601h-.35V53.18Zm-1.569.711h.351v2.699h-.351v-2.699Zm-1.578.604h.35v2.524h-.35v-2.524Zm-1.579.556h.351v2.465h-.351v-2.465Zm-1.578.526h.35V58.1h-.35v-2.523Zm-1.569.39h.351v2.513h-.351v-2.513Zm-1.578.409h.35v2.65h-.35v-2.65Zm-1.579.331h.351v2.407h-.351v-2.407Zm-1.568.263h.35v2.602h-.35V56.97Zm134.292 10.386v2.134c-.117-.009-.234-.019-.351-.039v-2.133c.107.019.224.029.351.038Zm-1.579-.272v2.075c-.126-.049-.243-.097-.35-.156v-2.046c.107.049.233.088.35.127Zm-1.578-.809v1.861c-.127-.117-.234-.244-.351-.37v-1.774c.117.098.234.195.351.283Zm-1.569-1.734v1.373c-.117-.224-.243-.457-.35-.701v-1.247c.107.204.224.39.35.575Zm-1.578-3.031v1.014c-.117-.254-.234-.517-.351-.77v-1.033l.039.088c.107.234.205.477.312.701Zm-1.579-3.41v1.267c-.116-.205-.233-.4-.35-.604v-1.345c.117.234.234.458.35.682Zm-1.568-2.708v1.578c-.117-.156-.234-.302-.351-.458v-1.627c.117.175.234.341.351.507Zm-1.579-2.017v1.773c-.117-.117-.233-.234-.35-.351v-1.812c.117.127.233.253.35.39Zm-1.578-1.559v1.9c-.117-.088-.234-.185-.351-.273v-1.919c.117.097.234.194.351.292Zm-1.578-1.228v1.988c-.117-.078-.234-.156-.351-.224v-1.998l.351.234Zm-1.579-.984v2.036c-.029-.019-.068-.038-.107-.058-.088-.049-.166-.088-.253-.136v-2.037c.136.068.243.127.36.195Zm-1.569-.877v2.017c-.116-.078-.233-.146-.35-.224v-2.007c.107.068.224.136.35.214Zm-1.578-1.013v1.968c-.117-.088-.234-.175-.351-.263v-1.958c.117.087.234.175.351.253Zm-1.578-1.179v1.91c-.117-.098-.234-.205-.351-.302v-1.9c.117.107.234.204.351.292Zm-1.569-1.354v1.841l-.351-.351v-1.822c.107.108.224.215.351.332Zm-1.579-1.589v1.754c-.116-.136-.233-.273-.35-.409v-1.724c.107.126.234.253.35.379Zm-1.578-1.831v1.637c-.117-.156-.234-.322-.351-.478v-1.617c.117.156.234.302.351.458Zm-1.578-2.134v1.51c-.117-.185-.244-.37-.351-.555v-1.471c.117.165.234.341.351.516Zm-1.569-2.485v1.345c-.117-.214-.234-.429-.351-.653v-1.305c.107.214.234.409.351.613Zm-1.578-2.874v1.169c-.117-.253-.244-.497-.351-.74v-1.13c.117.233.234.477.351.701Zm-1.579-3.283v.993c-.117-.272-.234-.545-.351-.828v-.955c.117.263.234.527.351.79Zm-1.578-3.644v.886c-.117-.282-.234-.565-.351-.857v-.877c.117.283.234.565.351.848Zm-1.569-3.791v.936c-.117-.273-.234-.536-.351-.799v-.974c.107.282.234.565.351.837Zm-1.578-3.566v1.16c-.117-.224-.234-.448-.351-.663v-1.227c.117.243.234.487.351.73Zm-1.579-2.971v1.461c-.117-.165-.234-.341-.351-.497v-1.529c.117.175.234.37.351.565Zm-1.568-2.222v1.735c-.117-.117-.234-.234-.351-.341v-1.784c.107.117.234.254.351.39Zm-1.579-1.491v1.939c-.117-.078-.234-.146-.351-.214v-1.978c.117.078.234.166.351.253Zm-1.578-.896v2.066l-.351-.117v-2.076c.117.039.234.088.351.127Zm-1.579-.409v2.124c-.117-.01-.234-.02-.35-.029v-2.134c.116.01.233.029.35.039Zm-1.568-.029v2.133c-.117.01-.234.02-.351.039v-2.133c.117-.02.234-.03.351-.039Zm-1.579.263v2.114c-.117.029-.243.058-.351.088v-2.115c.108-.029.234-.068.351-.087Zm-1.578.555v2.066c-.117.048-.244.097-.351.156v-2.047c.117-.058.234-.116.351-.175Zm-1.569.945v1.959c-.127.078-.243.155-.351.243v-1.919c.108-.107.224-.195.351-.283Zm-1.578 1.462v1.773c-.117.117-.234.234-.351.36V15.61c.107-.146.224-.283.351-.419Zm-1.579 2.192v1.461c-.117.176-.234.351-.351.527v-1.364c.108-.215.234-.419.351-.624Zm-1.578 3.283v.936c-.117.253-.244.516-.351.779v-.769c.117-.322.234-.644.351-.946ZM97.275 50.91v1.023c-.117.273-.234.545-.351.808v-1.159l.351-.672Zm-1.578 2.552v1.54c-.117.175-.234.351-.351.526v-1.617c.117-.146.234-.293.351-.449Zm-1.579 1.686v1.832c-.117.117-.233.224-.35.331v-1.88c.117-.088.233-.185.35-.283ZM92.55 56.23v2.007l-.351.204v-2.036c.107-.058.234-.117.351-.175Zm-1.579.643v2.094c-.117.039-.234.078-.35.108V56.97c.116-.029.233-.058.35-.097Zm-1.578.311v2.144c-.117.01-.234.019-.351.039v-2.134c.117-.019.234-.029.351-.049Zm-1.579.049v2.134c-.116-.01-.233-.02-.35-.039v-2.134c.117.02.234.029.35.039Zm-1.578-.302v2.085c-.117-.049-.234-.097-.351-.146v-2.066c.117.039.234.088.351.127Zm-1.569-.75v1.958c-.117-.087-.233-.185-.35-.282v-1.92c.117.088.224.166.35.244Zm-1.578-1.296v1.754c-.117-.137-.234-.283-.351-.429v-1.695c.117.126.234.253.351.37Zm-1.578-1.939v1.481c-.117-.195-.234-.399-.351-.594V52.41c.117.185.234.361.351.536Zm-1.569-2.64v1.208c-.117-.234-.234-.478-.351-.731v-1.159c.107.224.224.458.351.682ZM78.363 47.1v1.072c-.117-.253-.233-.507-.35-.76V46.34c.117.263.233.517.35.76Zm-1.578-3.352v1.16c-.117-.224-.234-.458-.351-.682v-1.199c.117.234.234.468.351.721Zm-1.569-3.059v1.384c-.117-.186-.234-.371-.35-.556v-1.442c.107.205.233.409.35.614Zm-1.578-2.475v1.647c-.117-.137-.234-.283-.351-.409v-1.696c.117.146.234.302.351.458Zm-1.579-1.841v1.851c-.116-.098-.233-.205-.35-.292v-1.891c.117.108.234.215.35.332Zm-1.578-1.277v1.998c-.117-.069-.234-.137-.351-.195v-2.027c.117.078.234.146.351.224Zm-1.578-.808v2.094c-.117-.039-.234-.078-.351-.107v-2.104c.127.029.234.078.351.117Zm-1.569-.41v2.134c-.117-.01-.234-.019-.351-.029v-2.134c.107 0 .234.01.351.029Zm-1.578.049v2.124c-.117.02-.234.049-.351.068v-2.114c.117-.029.234-.058.351-.078Zm-1.579.507v2.065c-.117.049-.234.098-.351.156v-2.056c.117-.048.234-.107.351-.165Zm-1.569.886v1.998c-.116.068-.233.146-.35.224v-1.988c.107-.078.234-.156.35-.234Zm-1.578 1.15v1.939c-.117.088-.234.175-.351.273v-1.92c.117-.107.234-.194.351-.292Zm-1.578 1.315v1.891c-.117.097-.234.204-.351.302v-1.89c.117-.098.234-.195.351-.303Zm-1.579 1.413v1.871c-.117.107-.234.214-.351.322V39.53c.117-.117.244-.225.351-.332Zm-1.568 1.452v1.861l-.283.263-.068.068v-1.861l.351-.331Zm-1.579 1.442v1.871l-.351.321v-1.87c.117-.108.234-.215.351-.322Zm-1.578 1.413v1.88c-.117.107-.234.205-.351.312v-1.89c.117-.098.234-.195.351-.302Zm-1.569 1.354v1.9c-.117.098-.234.205-.351.302v-1.91c.107-.087.224-.185.351-.292Zm-1.578 1.296v1.919c-.117.098-.234.195-.351.283v-1.929c.117-.078.234-.176.351-.273Zm-1.579 1.228v1.948c-.117.088-.234.185-.351.273v-1.949c.117-.097.234-.185.351-.272Zm-1.578 1.14v1.968c-.117.087-.234.165-.351.253v-1.978c.117-.078.234-.156.351-.243Z"
  />
  <path
    fill="#f60"
    fill-rule="nonzero"
    d="M24.229 58.987c15.872-1.881 25.09-10.445 31.783-16.622 4.58-4.229 7.99-7.376 11.643-6.713 5.535 1.003 8.253 6.849 10.894 12.52 2.591 5.583 5.105 10.981 10.035 10.805 8.233-.292 10.24-10.932 12.277-21.718 2.095-11.088 4.219-22.312 13.163-23.51 6.976-.936 9.734 5.738 13.163 14.02 3.42 8.272 7.542 18.22 17.256 23.394 6.148 3.274 8.243 7.99 9.957 11.838 1.501 3.381 2.68 6.031 6.236 6.09v1.198c-4.336-.068-5.651-3.02-7.337-6.801-1.637-3.673-3.644-8.184-9.421-11.263-10.095-5.378-14.304-15.541-17.802-23.998-3.234-7.814-5.836-14.098-11.896-13.29-8.087 1.082-10.133 11.877-12.15 22.537-2.124 11.263-4.229 22.37-13.417 22.702-5.729.204-8.398-5.554-11.165-11.497-2.514-5.398-5.096-10.962-10.017-11.848-3.059-.556-6.284 2.426-10.62 6.42-6.801 6.295-16.33 15.025-32.582 16.954v-1.218Z"
  />
  <path
    fill="#6b232a"
    fill-rule="nonzero"
    d="M160.636 69.51v.789c-4.336-.068-5.651-3.02-7.337-6.801-1.637-3.673-3.644-8.184-9.421-11.263-10.095-5.378-14.304-15.541-17.802-23.998-3.234-7.814-5.836-14.099-11.896-13.29-8.087 1.082-10.133 11.877-12.15 22.536-2.124 11.264-4.229 22.371-13.417 22.702-5.729.205-8.398-5.553-11.165-11.497-2.514-5.398-5.096-10.961-10.017-11.848-3.059-.555-6.284 2.426-10.62 6.421-6.801 6.285-16.33 15.015-32.582 16.944v-.809c15.843-1.89 25.09-10.445 31.783-16.622 4.58-4.229 7.99-7.376 11.643-6.713 5.535 1.003 8.253 6.849 10.894 12.52 2.591 5.583 5.105 10.981 10.035 10.805 8.233-.292 10.24-10.932 12.277-21.727 2.095-11.088 4.219-22.312 13.163-23.511 6.976-.935 9.734 5.739 13.163 14.021 3.42 8.272 7.542 18.22 17.256 23.394 6.148 3.273 8.243 7.989 9.957 11.838 1.501 3.4 2.68 6.05 6.236 6.109Z"
  />
  <path
    fill="#f60"
    fill-rule="nonzero"
    d="M24.229 57.136c16.009-1.9 25.333-10.513 32.066-16.739 4.491-4.141 7.843-7.23 11.283-6.606 5.319.964 7.999 6.713 10.581 12.286 2.65 5.71 5.222 11.234 10.425 11.049 8.565-.302 10.611-11.117 12.676-22.069 2.066-10.941 4.161-22.02 12.813-23.169 6.654-.887 9.353 5.651 12.715 13.767 3.449 8.331 7.6 18.366 17.44 23.608 6.022 3.206 8.087 7.853 9.773 11.634 1.569 3.517 2.796 6.274 6.625 6.333v.36c-4.063-.068-5.329-2.923-6.947-6.557-1.666-3.732-3.702-8.321-9.607-11.468-9.957-5.31-14.137-15.394-17.606-23.793-3.303-7.98-5.953-14.401-12.335-13.553-8.389 1.12-10.464 12.072-12.501 22.877-2.094 11.098-4.16 22.049-13.017 22.361-5.446.195-8.067-5.437-10.766-11.253-2.553-5.496-5.183-11.156-10.318-12.082-3.264-.594-6.557 2.446-10.971 6.528-6.791 6.265-16.213 14.937-32.329 16.846v-.36Z"
  />
  <path fill="#fff" d="M114.151 84.622h29.883v.799h-29.883z" />
  <path
    fill="#ca3354"
    d="M114.891 84.622h28.402c-5.359-1.959-11.137-5.505-14.206-8.253-3.059 2.757-8.837 6.294-14.196 8.253Z"
  />
  <path
    fill="#ffd0ca"
    d="M119.178 84.622h19.838c-3.742-1.959-7.776-5.505-9.919-8.253-2.144 2.757-6.177 6.294-9.919 8.253Z"
  />
  <path
    fill="#ca3354"
    d="M125.092 84.622h8.019c-1.51-1.959-3.137-5.505-4.004-8.253-.877 2.757-2.504 6.294-4.015 8.253Zm-11.575 11.185h31.16c-1.024-3.459-1.706-6.918-1.706-10.386h-27.749c0 3.458-.682 6.917-1.705 10.386Z"
  />
  <path
    fill="#ffd0ca"
    d="M117.931 95.807h6.655c.263-3.459.438-6.918.458-10.386h-5.895c0 3.458-.487 6.917-1.218 10.386Zm15.677 0h6.655c-.731-3.459-1.218-6.918-1.218-10.386h-5.895c.01 3.458.195 6.917.458 10.386Z"
  />
  <path
    fill="#82172e"
    d="M115.193 86.775h27.808c-.02-.458-.03-.906-.03-1.354h-27.749c0 .458-.009.906-.029 1.354Z"
  />
  <path
    fill="#c27f77"
    d="M125.034 86.775c.01-.458.01-.906.01-1.354h-5.895c0 .458-.01.906-.019 1.354h5.904Zm8.126 0h5.904c-.019-.458-.019-.906-.019-1.354h-5.895c0 .458 0 .906.01 1.354Z"
  />
  <path
    fill="#540c1b"
    d="M125.638 95.807h6.928c-1.306-1.958-2.719-5.505-3.459-8.253-.76 2.748-2.163 6.285-3.469 8.253Z"
  />
  <path fill="#ca3354" d="M128.912 72.384h.37v4.151h-.37z" />
  <path
    fill="#fff"
    d="M129.282 74.956c.926.429 1.072-.234 1.695-.458.916-.331 1.628.975 2.514-.078-.886.673-1.442-1.598-2.436-.886-.594.428-1.354-.595-1.763-.965v2.387h-.01Z"
  />
  <path
    fill="#7933c9"
    d="M94.128 69.071c6.265 0 11.341 5.077 11.341 11.342H82.797c0-6.265 5.076-11.342 11.331-11.342Z"
  />
  <path fill="#fff" d="M82.426 80.403h23.403v.809H82.426z" />
  <path
    fill="#f4c9ff"
    d="M94.128 69.071c4.852 0 8.779 5.077 8.779 11.342H85.349c0-6.265 3.937-11.342 8.779-11.342Z"
  />
  <path
    fill="#7933c9"
    d="M94.128 69.071c1.988 0 3.605 5.077 3.605 11.342h-7.22c.01-6.265 1.627-11.342 3.615-11.342Zm-.877 12.15h1.754v12.355h-1.754z"
  />
  <path
    fill="#421675"
    d="M93.758 93.566h1.247V81.221h-1.754v3.859h.507v8.486Z"
  />
  <path fill="#7933c9" d="M86.752 81.221h.458v6.129h-.458z" />
  <path fill="#421675" d="M86.752 81.221h.458v3.868h-.458z" />
  <path
    fill="#0cf"
    d="M88.282 87.184c-.857.059-1.812-.224-2.572.185-.935.497-.994 2.066-.887 3.274.176.195.887.253.838-.36.059.565.458.555.633.457.176-.224.108-.604.127-.857.361.107.721.078 1.082.01-.02.39-.049.77 0 1.159.633.283.75-.292.857-.886.078.633.351.915.77.915.078-.341.126-.798-.117-1.997-.068-.321.175-.74.477-.867.39-.175.809.409 1.267.117.419-.594-.088-1.764-1.481-1.793-.302-.399-.633-.166-.994.643Z"
  />
  <path
    fill="#007db3"
    d="M88.282 87.184c-.633.049-1.335-.107-1.958-.01.117.312.419.536.867.702-1.432 0-1.871 1.15-1.803 2.874.176-.049.302-.195.283-.467.058.565.458.555.633.457.176-.224.107-.604.127-.857.36.107.721.078 1.081.01 0 .049-.009.087-.009.126.311.351.477.721.389 1.092.312-.068.4-.497.478-.955.078.633.351.916.77.916.077-.341.126-.799-.117-1.998-.069-.321.175-.74.477-.867.39-.175.809.409 1.267.117.419-.594-.088-1.763-1.481-1.793-.312-.389-.643-.156-1.004.653Z"
  />
  <path
    fill="#fff"
    d="M86.168 87.204c-.419.302-.556.76-.653 1.247.516.263 1.121.273 1.764.175.078-.731.321-1.208.721-1.442-.614.01-1.257-.107-1.832.02Z"
  />
  <path
    fill="#aac1cf"
    d="M85.788 88.568c.458.156.964.146 1.491.068.078-.731.321-1.208.721-1.442-.556 0-1.14-.098-1.667-.02.117.312.419.536.868.702-.682 0-1.131.253-1.413.692Z"
  />
  <path fill="#7933c9" d="M100.286 81.221h.458v6.129h-.458z" />
  <path fill="#421675" d="M100.286 81.221h.458v3.868h-.458z" />
  <path
    fill="#6b4600"
    d="M101.816 87.184c-.858.059-1.813-.224-2.573.185-.935.497-.993 2.066-.886 3.274.175.195.886.253.838-.36.058.565.458.555.633.457.175-.224.107-.604.117-.857.36.107.721.078 1.081.01-.019.39-.048.77 0 1.159.634.283.751-.292.858-.886.078.633.351.915.77.915.077-.341.126-.798-.117-1.997-.069-.321.097-.604.419-.692.165-.039.389.127.76-.029.204-.653-.098-1.705-.916-1.812-.302-.409-.634-.176-.984.633Z"
  />
  <path
    fill="#aac1cf"
    d="M99.692 87.204c.292.272.535.838.438 1.325.516.263 1.364.136 1.997.048.078-.73-.146-1.286-.613-1.383-.605 0-1.248-.117-1.822.01Z"
  />
  <path
    fill="#7933c9"
    d="M84.073 83.131c.702 0 1.276-.857 1.276-1.91h-2.562c.01 1.053.575 1.91 1.286 1.91Z"
  />
  <path
    fill="#f4c9ff"
    d="M87.931 83.131c1.433 0 2.592-.857 2.592-1.91h-5.174c0 1.053 1.16 1.91 2.582 1.91Z"
  />
  <path
    fill="#7933c9"
    d="M94.128 83.131c1.988 0 3.605-.857 3.605-1.91h-7.22c.01 1.053 1.627 1.91 3.615 1.91Z"
  />
  <path
    fill="#421675"
    d="M97.197 82.225c.341-.293.546-.634.546-1.004h-7.22c0 .37.195.711.546 1.004h6.128Z"
  />
  <path
    fill="#7933c9"
    d="M104.193 83.131c-.702 0-1.276-.857-1.276-1.91h2.562c-.01 1.053-.584 1.91-1.286 1.91Z"
  />
  <path
    fill="#421675"
    d="M103.102 82.225c-.127-.293-.195-.634-.195-1.004h2.562c0 .37-.068.711-.195 1.004h-2.172Z"
  />
  <path
    fill="#f4c9ff"
    d="M100.325 83.131c-1.432 0-2.592-.857-2.592-1.91h5.174c.01 1.053-1.15 1.91-2.582 1.91Z"
  />
  <path
    fill="#b785c4"
    d="M98.123 82.225c-.244-.293-.39-.634-.39-1.004h5.174c0 .37-.146.711-.39 1.004h-4.394Z"
  />
  <path
    fill="#421675"
    d="M85.155 82.225c.126-.293.194-.634.194-1.004h-2.562c0 .37.068.711.195 1.004h2.173Z"
  />
  <path
    fill="#b785c4"
    d="M90.133 82.225c.244-.293.39-.634.39-1.004h-5.174c0 .37.137.711.39 1.004h4.394Z"
  />
  <path
    fill="#fff"
    d="M83.888 93.566h20.48c.176 0 .322.146.322.322v.321H83.566v-.321c0-.166.147-.322.322-.322Z"
  />
  <path
    fill="#7933c9"
    d="M82.767 95.807h22.722v-.799c0-.438-.361-.799-.799-.799H83.566c-.438 0-.799.361-.799.799v.799Z"
  />
  <path
    fill="#aac1cf"
    d="M89.773 93.566h14.81c.175 0 .321.146.321.322v.321H89.451v-.321c0-.166.146-.322.322-.322Z"
  />
  <path
    fill="#421675"
    d="M88.867 95.807h16.622v-.799c0-.438-.361-.799-.799-.799H89.666c-.439 0-.799.361-.799.799v.799Z"
  />
  <path fill="#7933c9" d="M93.943 64.911h.37v4.151h-.37z" />
  <path
    fill="#fff"
    d="M94.313 67.493c.916.438 1.072-.234 1.696-.458.915-.331 1.627.974 2.513-.088-.886.673-1.442-1.598-2.435-.886-.595.419-1.355-.595-1.764-.965v2.397h-.01Z"
  />
  <path
    fill="#f76331"
    d="M54.677 72.287h.994l13.573 23.52h-1.793L55.174 74.118 42.907 95.807h-1.802l13.572-23.52Z"
  />
  <path
    fill="#ab350d"
    d="M54.677 72.287h.546l13.582 23.52h-1.354L55.174 74.118l-.214.39-.224-.39-12.277 21.689h-1.354l13.572-23.52Z"
  />
  <path
    fill="#c6c"
    d="M54.463 88.461h1.432c1.423 0 2.582 1.159 2.582 2.582 0 1.422-1.159 2.581-2.582 2.581h-1.432c-1.422 0-2.582-1.159-2.582-2.581-.01-1.413 1.16-2.582 2.582-2.582Z"
  />
  <path
    fill="#822d82"
    d="M56.987 93.391c-.332.156-.702.253-1.101.253h-1.433c-1.422 0-2.582-1.159-2.582-2.582 0-.75.322-1.432.838-1.9.332-.156.702-.253 1.101-.253h1.432c1.423 0 2.582 1.159 2.582 2.582 0 .75-.321 1.422-.837 1.9Z"
  />
  <path
    fill="#fff"
    d="M52.69 91.384h4.969v-1.179c0-.653-.526-1.179-1.179-1.179h-2.611c-.653 0-1.179.536-1.179 1.179v1.179Z"
  />
  <path
    fill="#b1eb7b"
    d="M65.795 83.745h1.422c1.423 0 2.582 1.159 2.582 2.582 0 1.422-1.159 2.582-2.582 2.582h-1.422c-1.423 0-2.582-1.16-2.582-2.582 0-1.423 1.169-2.582 2.582-2.582Z"
  />
  <path
    fill="#56802e"
    d="M68.328 88.665c-.331.156-.711.244-1.101.244h-1.423c-1.422 0-2.582-1.16-2.582-2.582 0-.75.322-1.423.838-1.9.331-.156.702-.244 1.101-.244h1.432c1.423 0 2.582 1.16 2.582 2.582-.009.75-.341 1.423-.847 1.9Z"
  />
  <path
    fill="#fff"
    d="M64.021 86.658h4.969v-1.179c0-.653-.536-1.179-1.179-1.179H65.2c-.643 0-1.179.536-1.179 1.179v1.179Z"
  />
  <path
    fill="#f09f7f"
    d="M70.15 73.183h1.432c1.423 0 2.582 1.159 2.582 2.582 0 1.422-1.159 2.582-2.582 2.582H70.15c-1.423 0-2.582-1.16-2.582-2.582 0-1.413 1.159-2.582 2.582-2.582Z"
  />
  <path
    fill="#9e5639"
    d="M72.673 78.103c-.331.156-.701.244-1.101.244H70.14c-1.422 0-2.582-1.16-2.582-2.582 0-.75.322-1.432.838-1.9.331-.156.702-.244 1.101-.244h1.432c1.423 0 2.582 1.16 2.582 2.582.01.751-.321 1.433-.838 1.9Z"
  />
  <path
    fill="#fff"
    d="M68.377 76.106h4.969v-1.179c0-.653-.536-1.179-1.179-1.179h-2.612c-.652 0-1.178.536-1.178 1.179v1.179Z"
  />
  <path
    fill="#97cb65"
    d="M43.2 61.929h1.422c1.423 0 2.582 1.16 2.582 2.582 0 1.423-1.159 2.582-2.582 2.582H43.2c-1.423 0-2.582-1.159-2.582-2.582 0-1.422 1.159-2.582 2.582-2.582Z"
  />
  <path
    fill="#56802e"
    d="M45.733 66.85c-.331.156-.711.243-1.101.243h-1.423c-1.422 0-2.581-1.159-2.581-2.582 0-.75.321-1.422.837-1.9.332-.155.702-.243 1.101-.243h1.433c1.422 0 2.582 1.159 2.582 2.582-.02.75-.341 1.422-.848 1.9Z"
  />
  <path
    fill="#fff"
    d="M41.426 64.843h4.97v-1.179c0-.653-.536-1.179-1.179-1.179h-2.612c-.652 0-1.179.536-1.179 1.179v1.179Z"
  />
  <path
    fill="#72e1f2"
    d="M65.717 61.929h1.422c1.423 0 2.582 1.16 2.582 2.582 0 1.423-1.159 2.582-2.582 2.582h-1.422c-1.423 0-2.582-1.159-2.582-2.582 0-1.422 1.159-2.582 2.582-2.582Z"
  />
  <path
    fill="#328b99"
    d="M68.25 66.85c-.331.156-.711.243-1.101.243h-1.423c-1.422 0-2.582-1.159-2.582-2.582 0-.75.322-1.422.838-1.9.332-.155.702-.243 1.101-.243h1.433c1.422 0 2.582 1.159 2.582 2.582-.01.75-.342 1.422-.848 1.9Z"
  />
  <path
    fill="#fff"
    d="M63.943 64.843h4.969v-1.179c0-.653-.535-1.179-1.179-1.179h-2.611c-.653 0-1.179.536-1.179 1.179v1.179Z"
  />
  <path
    fill="#c6c"
    d="M54.463 57.282h1.432c1.423 0 2.582 1.159 2.582 2.582 0 1.422-1.159 2.582-2.582 2.582h-1.432c-1.422 0-2.582-1.16-2.582-2.582-.01-1.413 1.16-2.582 2.582-2.582Z"
  />
  <path
    fill="#822d82"
    d="M56.987 62.212c-.332.156-.702.253-1.101.253h-1.433c-1.422 0-2.582-1.159-2.582-2.582 0-.75.322-1.432.838-1.9.332-.156.702-.253 1.101-.253h1.432c1.423 0 2.582 1.16 2.582 2.582 0 .75-.321 1.423-.837 1.9Z"
  />
  <path
    fill="#fff"
    d="M52.69 60.205h4.969v-1.179c0-.653-.526-1.179-1.179-1.179h-2.611c-.653 0-1.179.536-1.179 1.179v1.179Z"
  />
  <path
    fill="#72e1f2"
    d="M43.122 83.745h1.422c1.423 0 2.582 1.159 2.582 2.582 0 1.422-1.159 2.582-2.582 2.582h-1.422c-1.423 0-2.582-1.16-2.582-2.582 0-1.423 1.159-2.582 2.582-2.582Z"
  />
  <path
    fill="#328b99"
    d="M45.655 88.665c-.331.156-.711.244-1.101.244h-1.422c-1.423 0-2.582-1.16-2.582-2.582 0-.75.321-1.423.837-1.9.332-.156.702-.244 1.101-.244h1.433c1.422 0 2.582 1.16 2.582 2.582-.02.75-.341 1.423-.848 1.9Z"
  />
  <path
    fill="#fff"
    d="M41.349 86.658h4.969v-1.179c0-.653-.536-1.179-1.179-1.179h-2.612c-.652 0-1.178.536-1.178 1.179v1.179Z"
  />
  <path
    fill="#f09f7f"
    d="M38.767 73.183h1.432c1.422 0 2.582 1.159 2.582 2.582 0 1.422-1.16 2.582-2.582 2.582h-1.432c-1.423 0-2.582-1.16-2.582-2.582 0-1.413 1.169-2.582 2.582-2.582Z"
  />
  <path
    fill="#9e5639"
    d="M41.3 78.103c-.331.156-.702.244-1.101.244h-1.432c-1.423 0-2.582-1.16-2.582-2.582 0-.75.321-1.432.837-1.9.332-.156.712-.244 1.101-.244h1.423c1.423 0 2.582 1.16 2.582 2.582.01.751-.312 1.433-.828 1.9Z"
  />
  <path
    fill="#fff"
    d="M37.003 76.106h4.969v-1.179c0-.653-.536-1.179-1.179-1.179h-2.611c-.653 0-1.179.536-1.179 1.179v1.179Z"
  />
  <path
    fill="#993"
    d="m66.047 83.766.62-.62L44.311 60.79l-.62.62 22.356 22.356Z"
  />
  <path
    fill="#ffc"
    d="m66.489 83.314.172-.172-22.356-22.356-.173.172 22.357 22.356Z"
  />
  <path fill="#993" d="M39.371 71.838h31.617v.867H39.371z" />
  <path fill="#ffc" d="M39.371 71.838h31.617v.244H39.371z" />
  <path
    fill="#993"
    d="m66.666 61.404-.62-.62L43.689 83.14l.62.62 22.357-22.356Z"
  />
  <path
    fill="#ffc"
    d="m66.216 60.965-.172-.173-22.357 22.357.173.172 22.356-22.356Z"
  />
  <path fill="#993" d="M54.736 56.463h.867V88.08h-.867z" />
  <path fill="#ffc" d="M55.369 56.463h.244V88.08h-.244z" />
  <path
    fill="#ffc"
    d="M55.174 56.249c8.857 0 16.038 7.181 16.038 16.038 0 8.856-7.181 16.027-16.038 16.027-8.856 0-16.027-7.18-16.027-16.027 0-8.857 7.171-16.038 16.027-16.038Zm0 .819c8.409 0 15.219 6.81 15.219 15.219 0 8.398-6.81 15.219-15.219 15.219-8.398 0-15.219-6.811-15.219-15.219 0-8.409 6.811-15.219 15.219-15.219Z"
  />
  <path
    fill="#993"
    d="M69.516 79.467c-2.63 5.252-8.067 8.857-14.342 8.857-8.856 0-16.027-7.181-16.027-16.028 0-2.474.555-4.813 1.558-6.908 2.641-5.251 8.068-8.856 14.343-8.856 8.856 0 16.037 7.18 16.037 16.027-.01 2.475-.575 4.814-1.569 6.908Zm-.74-.36c-2.446 5.125-7.678 8.671-13.738 8.671-8.409 0-15.219-6.81-15.219-15.219 0-2.455.584-4.774 1.617-6.82 2.446-5.125 7.678-8.671 13.738-8.671 8.409 0 15.219 6.81 15.219 15.219 0 2.455-.584 4.774-1.617 6.82Z"
  />
  <path
    fill="#ffc"
    d="M55.174 61.929c5.72 0 10.367 4.638 10.367 10.358 0 5.719-4.638 10.357-10.367 10.357-5.729 0-10.357-4.638-10.357-10.357 0-5.72 4.638-10.358 10.357-10.358Zm0 .858c5.252 0 9.5 4.258 9.5 9.5 0 5.251-4.248 9.499-9.5 9.499-5.251 0-9.499-4.257-9.499-9.499 0-5.252 4.248-9.5 9.499-9.5Z"
  />
  <path
    fill="#993"
    d="M63.495 78.474c-1.89 2.533-4.911 4.18-8.321 4.18-5.719 0-10.357-4.638-10.357-10.358 0-2.182.672-4.199 1.822-5.865 1.89-2.533 4.911-4.18 8.311-4.18 5.72 0 10.367 4.638 10.367 10.357-.01 2.173-.682 4.2-1.822 5.866Zm-.701-.497c-1.715 2.494-4.59 4.131-7.844 4.131-5.251 0-9.5-4.248-9.5-9.5 0-2.134.702-4.102 1.891-5.68 1.714-2.495 4.589-4.131 7.843-4.131 5.252 0 9.5 4.257 9.5 9.499-.01 2.124-.711 4.093-1.89 5.681Z"
  />
  <path
    fill="#ffc"
    d="M55.174 69.968c1.286 0 2.319 1.032 2.319 2.319 0 1.286-1.033 2.319-2.319 2.319-1.276 0-2.319-1.033-2.319-2.319 0-1.287 1.043-2.319 2.319-2.319Z"
  />
  <path
    fill="#993"
    d="M57.181 73.446c-.399.692-1.149 1.15-2.007 1.15-1.276 0-2.319-1.033-2.319-2.319 0-.341.078-.672.215-.965.399-.692 1.149-1.149 1.997-1.149 1.276 0 2.319 1.032 2.319 2.318 0 .351-.078.673-.205.965Z"
  />
  <path
    fill="#330"
    d="M55.174 71.02c.702 0 1.267.565 1.267 1.267 0 .701-.565 1.266-1.267 1.266-.701 0-1.266-.565-1.266-1.266 0-.702.565-1.267 1.266-1.267Z"
  />
</svg>
