<svg
  xmlns="http://www.w3.org/2000/svg"
  xml:space="preserve"
  fill-rule="evenodd"
  stroke-linejoin="round"
  stroke-miterlimit="2"
  clip-rule="evenodd"
  viewBox="0 0 480 96"
>
  <path
    fill="#dc8757"
    d="m83.088 77.861 1.032-4.768h1.879v4.698l2.014 6.705V70.939l2.685-23.979 1.409-1.321v-2.544l2.484-1.273h2.551l1.745-2.203h4.431l1.075 7.047.871-5.089h3.691l1.546 1.615 2.349 5.236.939-4.306 3.425-1.027 8.054 1.223 3.758 1.32 2.82-.244 1.544 1.86 5.236.734.804 9.836 1.544.441v9.494l3.021 2.838v6.068h2.686v-6.851l2.887-2.105v17.178l2.215 1.762v3.426l3.221 1.566v4.257H83.088V77.861Z"
  />
  <path
    fill="#be6436"
    d="m85.999 77.791 1.075 13.951 1.433 1.581-.494-10.782-2.014-4.75Zm18.259-29.947-.94-8.225-4.488-.008-1.688 2.211 2.712 12.35-3.998 1.118 2.242 4.904-.956 1.994-.266 9.777-.158 5.826 4.144 2.061.696 13.979 1.512.067.92-.9 2.203-2.312 2.097 3.778 2.28-.2-5.505-19.112 3.086-10.179v-12.92l.804-10.476-3.691-.292-1.006 6.559Zm7.92-.913.874 12.951v3.768l1.812-4.013-1.745-12.438-.941-.268Zm31.817 29.734.6 2.767-.6 3.744 1.39-.386.789 3.371.507-9.496h-2.686Zm-18.727-32.347v8.812l3.758 6.656-1.879 4.499 1.879 7.54 4.299 3.521-3.257-7.587 1.039-4.733-2.081-17.388-3.758-1.32Z"
  />
  <path
    fill="#be6436"
    d="m105.665 67.759 4.905-2.169 4.294 1.084 5.633 1.085 7.416 3.561-7.306-2.487-3.818-.378-6.219-.696-1.917 3.561-5.439 2.017 2.451-5.578Zm33.153-1.9s-1.677 1.812-2.887 2.105c-1.209.292-4.956.292-4.956.292h-1.949l1.061 3.552 3.835-1.542 4.4-2.01.496-1.049v-1.348Z"
  />
  <path
    fill="#d57647"
    d="m95.856 55.29-3.242 2.365-.411 2.675 3.653-2.52 1.411.566-1.411-3.086Z"
  />
  <path
    fill="#be6436"
    d="m108.49 47.662 2.08 1.659 2.931.597 2.061-.597 2.333 1.7 4.26 1.737h-2.657l-3.328-1.93-2.516.187-3.084-.805-3.136 1.843 1.056-4.391Zm-.672 37.046 5.702 3.638h9.962l-7.92 1.695-6.549-1.185-1.195-4.148Z"
  />
  <path
    fill="#f5ad85"
    d="m129.026 45.638 2.081 17.388-1.039 4.733 3.257 7.587v7.83l-1.277 9.805 1.874-2.94 1.868-8.662 1.161-6.033-3.895-6.754 2.014-4.942V47.489l-1.68-.235-1.544-1.86-2.82.244Zm-15.237-1.516 3.425-1.027-.872 3.085s-2.073 2.849-1.812 3.439c.264.591.195 3.703.264 4.026.07.323-.304 3.334-.304 3.334l-1.371-9.78.67-3.077Zm25.641 13.702 1.544.441v9.494l3.021 2.838v6.069l.6 2.766-.6 3.744-1.982-4.272v-4.116l-2.583-5.325-1.108-6.941 1.108-4.698Zm10.138 15.636v11.427l2.215 1.762v3.426l3.221 1.566v2.129l-4.68-1.551-.756-2.178-1.68-3.88 1.68-12.701Z"
  />
  <path fill="#f5ad85" d="m117.214 43.095 4.027.611-4.464.931.437-1.542Z" />
  <path
    fill="#be6436"
    d="m89.748 55.448-1.735 15.491v6.778l1.735-7.217 1.188-6.85 5.609-4.747-1.81-4.493-4.541-2.956-.446 3.994Z"
  />
  <path
    fill="#f5ad85"
    d="m92.107 45.639.507 7.389.885.576 1.296-6.543 2.347-5.239h-2.551l-2.484 1.272v2.545Z"
  />
  <path
    fill="#dc8757"
    d="M8.402 95.898c.754-1.705 1.99-3.958 1.99-3.958l2.474-2.019.828-14.439 2.165-1.624 1.044-20.19 2.727-4.916h4.742l-.49 9.481-1.125 21.769 4.632 4.126.674-13.08.979-18.96-2.15-8.251.528-10.183 3.766-3.072 5.085-2.722 2.518 3.161 2.004-4.916 4.013-1.843 4.312-1.668h5.772l-.208 4.038 3.172-2.59 11.364.483 2.427 6.935 6.533 1.228 1.353 5.706-1.121 21.682 2.072 1.843-.819 15.801 2.407 5.267-.206 4.038 3.574.939v7.692l-6.008.242H8.402Z"
  />
  <path
    fill="#be6436"
    d="m71.011 29.649-3.545 25.322.281 2.036 2.676-15.976 4.488-8.957h-3.3l-.6-2.425Zm-19.008-7.055-1.106 21.422 1.02 14.22-.509 9.832s-2.513-8.251-2.438-9.656c.072-1.405-1.541-13.081-1.541-13.081l.269-5.177-4.7 3.174-.3 5.779-.46 8.954-2.765 5.618-1.743 5.793-3.12 2.546-.693 13.43-4.639 7.63 3.753-32.388-2.853-8.602-3.286-8.251.528-10.183 3.814-4.034 5.037-1.76 2.518 3.161 2.004-4.916 8.325-3.511h2.885Zm5.851 1.448-3.172 2.59-.418 6.924 3.59-9.514Z"
  />
  <path
    fill="#f5ad85"
    d="m55.925 29.154 2.438-3.639h2.242l1.241.528 2.956-.528 2.945-.528.562.728 1.332 5.282v2.761l.077 6.732 1.372-10.612-.35-1.003-1.522-4.35-11.217-.477-2.076 5.106Zm20.565 3.217 1.688.317 1.353 5.706-1.121 21.682 2.117 1.803-.806 14.739V64.099l-3.379-3.409-1.431-15.109 1.935-2.253-3.684-1.565-.876-4.451 2.625-5.238 1.579.297Zm-25.053 1.185-.54 10.46 1.02 14.22 2.347-14.908.05-10.622-2.448-7.471-.429 8.321ZM19.63 48.752l2.491 2.121-1.246 25.745 1.882 3.384 1.615-31.25H19.63Z"
  />
  <path
    fill="#be6436"
    d="M14.777 74.669V88.79l-1.911 3.818-2.556 2.964 6.324-.9.61-1.966v-9.601l-1.142-6.487v-2.554l-1.325.605Z"
  />
  <path
    fill="#be6436"
    d="M15.91 80.546c.523 0 3.72.447 3.72.447h1.238c.334 0-1.238.365-1.238.365h-3.053l-.667-.812Zm.763 11.655 1.317.285h2.717l1.795-.285-1.099.877h-2.491l-1.867-.11-.372-.767Zm-3.771-2.919c1.611-.671 14.996.028 14.996.028l-15.879 1.301.862-.702.021-.627Zm18.588-.411 3.111-2.193 5.673-1.137h-6.415l-2.369 3.33Zm2.06-7.513 13.605-1.356 5.451.544 4.5-.544-9.951-1.04-9.218 1.198-3.739-.14-.648 1.338Zm4.653-13.457 3.3-.719 5.652.719 3.742 1.555-1.479-2.274-4.867-1.381-3.525-2.184-2.024.462-.799 3.822Zm16.073-34.557 3.559.978 3.72-.489-1.62 1.055h-5.671l.012-1.544Zm-.012 10.159 3.667-.437 5.578.512 3.026 2.372-4.958-1.735-3.723.419-3.369 1.809-.778.417.557-3.357Zm-1.375 8.555 4.202-1.41 3.171.682 2.479.683 3.432 1.308 3.912-.684 2.239 1.461 1.126 2.21s-2.768-1.09-3.653-1.371c-.883-.281-6.6-.281-6.6-.281l-4.176.903-2.098-1.368-4.356-.092.322-2.041Zm8.957-26.015 3.624.504s3.045-.666 2.839-.832c-.207-.166-.562-.728-.562-.728l-5.901 1.056ZM76.342 60.69l-2.892 8.766-2.261 11.902 2.575 5.848-1.478-5.848s.333-10.042 1.478-10.972c1.147-.93 4.61-7.645 4.61-7.645l-2.032-2.051Z"
  />
  <path
    fill="#be6436"
    d="m72.401 78.928 1.483.494h3.362l2.146-1.198-1.018 1.424-3.592.512-2.864 1.636-.367-.664.85-2.204Z"
  />
  <path
    fill="#f5ad85"
    d="m79.663 77.72 2.407 5.267-.206 4.5-2.201-1.946-1.289-3.745.84-1.434-.84-.714 1.289-1.928Z"
  />
  <path
    fill="#dc8757"
    d="m253.791 95.851 6.142-22.092 4.157-2.234 3.29 3.266 1.903-10.833 9.872-3.785h11.253l6.581 4.471 8.484 19.262 7.618 5.331 3.028 6.614h-62.328Z"
  />
  <path
    fill="#be6436"
    d="m279.155 60.173-1.709 6.007 1.709 5.722v6.588s-4.275-4.366-2.991-2.184c1.282 2.184 2.991 7.329 2.991 7.329l2.486 4.243v7.145l1.584.828h-29.434l6.142-22.092 4.157-2.234 3.29 3.266 1.903-10.833 9.872-3.785Z"
  />
  <path
    fill="#dc8757"
    d="m164.142 95.851 3.341-7.077 4.396-1.164 3.809-10.486 5.571-3.379 3.854-12.408 4.25-.989 8.206-7.75 6.888-8.968 11.726-.992 4.69 1.98 3.37 4.544 4.689 9.787 9.382 2.097 5.275 2.796 2.328 11.408 6.742 1.399 4.104 7.805 9.964 9.088 2.076 2.309H164.142Z"
  />
  <path
    fill="#be6436"
    d="m210.32 43.133-2.193 6.693 4.509-.028-8.669 8.743v8.969l1.076.883-1.076 4.826 2.18 7.997 2.75 3.653 1.423 3.146-.156 7.836h-46.022l3.341-7.077 4.396-.876 3.809-10.774 5.571-3.379 3.854-12.408 4.25-.989 8.206-7.75 6.888-8.971 5.863-.494Z"
  />
  <path
    fill="#a54e1f"
    d="m189.363 60.346-2.126.496-1.85 11.096 3.602-6.562.374-5.03ZM181.307 73.8l1.636 5.765-3.074 6.993-2.688 5.885v-6.408l-.73-5.971.694-3.823 4.162-2.441Z"
  />
  <path
    fill="#be6436"
    d="m228.932 58.949 2.82 9.18v7.135l3.636 5.076-1.507-13.121-1.339-7.464-3.61-.806Zm16.985 16.301 2.844.59v3.962l-.425 5.708-1.457-6.233-.962-4.027Z"
  />
  <path
    fill="#a54e1f"
    d="m198.69 95.851 3.029-3.408v-2.841l1.231-9.221 1.017-7.162 2.18 7.997 2.75 3.653 1.286 2.841.015 6.423 1.171 1.718H198.69Z"
  />
  <path
    fill="#f5ad85"
    d="m216.183 42.638 4.69 1.98 3.37 4.544s2.978 5.942 3.098 6.465l1.591 6.979-8.441-11.815-6.06-4.118-2.38-3.687 4.132-.348Zm22.131 18.408 5.275 2.796 1.644 8.06-3.461-6.293-6.093-5.153 2.635.59Zm11.659 15.046 2.686.557 4.104 7.805 7.375 6.724-10.203-6.724-3.962-8.362Z"
  />
  <path
    fill="#be6436"
    d="M241.335 95.851h19.697l-3.977-4.181-8.294-3.415s-3.528 1.414-3.528.823c0-.588-5.866-3.18-5.866-3.18l-7.96-11.116 9.928 21.069Zm-19.711 0 1.606-4.298-.895-5.095-6.948-11.676-3.336-14.326 8.44 17.95 4.373 4.598 15.927 12.847h-19.167Z"
  />
  <path
    fill="#f5ad85"
    d="M282.167 60.173h8.241l6.581 4.471s5.201 11.81 5.033 11.426c-.171-.384-6.127-2.997-6.391-3.379-.262-.384-3.233-5.299-3.233-5.299l-5.861-2.806-4.37-4.413Zm25.612 25.346 5.312 3.718s1.917 4.193 1.732 3.782c-.187-.408-4.449-4.416-4.449-4.416l-2.595-3.084Z"
  />
  <path
    fill="#be6436"
    d="m293.262 95.851.446-1.658-2.712-3.015-2.534-10.128 5.246 8.933 7.083 3.955 3.235.447-2.58-1.882 6.333 1.435 5.086 1.913h-19.603Z"
  />
  <path
    fill="#a54e1f"
    d="m267.38 74.791-3.29-3.266 1.644 4.567 1.646 5.914 1.923 9.172V79.709l-1.923-4.918Zm-9.945 7.959 9.77 11.32-10.284-9.47.514-1.85Z"
  />
  <path
    fill="#dc8757"
    d="M388.23 96.351c1.321-3.093 6.738-7.474 7.935-9.659.451-.833 4.183-5.305 4.956-4.306 3.56 4.59 1.466 3.076 7.431-2.347.612-.553 1.224-1.304 1.766-2.486 1.257-2.711 7.174 9.568 8.151 8.688 2.717-2.449 1.654-2.873 3.629-.403 2.975 3.726 4.699 6.083 7.05 10.513H388.23Z"
  />
  <path
    fill="#d16d28"
    d="M407.092 96.351h-8.945c.177-.145.333-.279.435-.392 1.664-1.847 4.472-5.192 5.975-7.684.376-.622 2.588-3.393 2.588-1.653 0 1.229-.123 1.96-.354 2.556-.328.848-.886 1.428-1.638 2.791-1.004 1.804 1.38.876 2.545-.51 1.208-1.433 1.015 1.101.129 2.395-.445.65-.918 1.734-.735 2.497Zm15.259 0h-5.842c.081-.118.193-.285.349-.521.639-.945 2.593-6.083 2.379-1.128-.016.462.939.392 1.498-.569.327-.574 1.079.875 1.616 2.218Z"
  />
  <path
    fill="#f9a454"
    d="M405.223 83.524c.709-.848 1.729-2.024 3.329-3.485.344-.306.682-.682 1.009-1.154-.257.36-.467 2.507-4.284 4.628-.016.005-.032.005-.054.011Zm-12.456 7.109c1.482-1.547 2.862-2.964 3.398-3.941.215-.392 1.16-1.6 2.186-2.658-.006.054-2.615 5.509-2.787 5.901-.123.284-.456.73-.752 1.444-.155.37-.499.784-.902 1.197-1.557 1.627-2.179 2.073-.585-.526.387-.634.773-1.031 1.197-1.638 2.121-3.017-.864-.155-1.514.119l-.241.102Z"
  />
  <path
    fill="#d16d28"
    d="M411.344 77.349c2.137 1.364 6.314 9.622 7.125 8.892-.8 2.792-8.704 10.722-7.227 8.515.811-1.219 3.06-5.235 3.753-8.118.478-1.997-.113-2.674-1.015-2.599-1.573.14-2.164 1.788-.88-.757.139-.279.252-.521.316-.666 1.107-2.55-1.809-1.541-1.379-2.668.247-.666-.231-2.137-.693-2.599Zm-10.003 5.321c2.019 2.626 2.062 3.028 3.195 1.686-.564 2.422-5.133 7.307-7.619 9.396-1.578 1.332-1.884 1.745-.209-.532 1.283-1.261 4.692-6.824 4.692-8.832 0-.397-.043-1.047-.059-1.718Z"
  />
</svg>
