<svg
  width="100%"
  height="100%"
  viewBox="0 0 480 96"
  version="1.1"
  xmlns="http://www.w3.org/2000/svg"
  xml:space="preserve"
  fill-rule="evenodd"
  clip-rule="evenodd"
  stroke-linejoin="round"
  stroke-miterlimit="2"
>
  <path
    d="m28.304 68.32-.744-.264-.192-.072-1.032-.384 5.64-15.528 15.936-8.592H70.88c.528-2.64 2.88-4.656 5.688-4.656s5.136 1.992 5.688 4.656h3.168l1.08.576c.288-2.928 2.76-5.232 5.76-5.232 3.192 0 5.784 2.592 5.784 5.784v5.688l1.224.648.744.408 1.296.696.408 1.152.432 1.224v-9.816c0-3.192 2.592-5.784 5.784-5.784 3.192 0 5.784 2.592 5.784 5.784v51.048h1.608v4.248h-98.04v-4.248h10.968V68.32h.048Z"
    fill="#ef3933"
    fill-rule="nonzero"
  />
  <path
    d="M104.984 76.864h.984V75.04h-.984v-7.2h2.04l-.288-.768-.144-.408-.648-1.824-.168-.408-.648-1.848-.144-.408-.672-1.824-.144-.408-.672-1.848-.144-.408-.648-1.824-.168-.408-.36-1.008v-8.616h11.592V95.68h-8.784V76.864Z"
    fill="#c3c2c2"
    fill-rule="nonzero"
  />
  <path
    d="M102.176 44.632c0-3.192 2.592-5.784 5.784-5.784 3.192 0 5.784 2.592 5.784 5.784v1.2h-11.592v-1.2h.024Z"
    fill="#fafbfb"
    fill-rule="nonzero"
  />
  <path
    d="m95.888 49.144-.768-.408-3.384-1.848-.768-.408-1.224-.648h8.328v4.488l-2.184-1.176Z"
    fill="#c3c2c2"
    fill-rule="nonzero"
  />
  <path
    d="m89.744 45.832-2.184-1.176-.744-.408-.336-.168c.288-2.928 2.76-5.232 5.76-5.232 3.192 0 5.784 2.592 5.784 5.784v1.2h-8.28ZM76.544 38.848c2.808 0 5.136 1.992 5.688 4.656H70.88c.528-2.664 2.88-4.656 5.664-4.656Z"
    fill="#fafbfb"
    fill-rule="nonzero"
  />
  <path
    d="m69.536 67.84-.264-.768h37.464l.288.768H69.536ZM69.128 66.664l-.672-1.824h37.488l.648 1.824H69.128ZM67.496 62.176l-.672-1.824h37.488l.672 1.824H67.496ZM66.68 59.944l-.648-1.848h37.464l.672 1.848H66.68ZM65.888 57.688l-.672-1.824h37.488l.648 1.824H65.888ZM68.312 64.432l-.672-1.848h37.488l.648 1.848H68.312ZM65.072 55.456l-.672-1.824h37.488l.288.816.36 1.008H65.072ZM64.256 53.224l-.408-1.152h37.464l.432 1.152H64.256Z"
    fill="#7e4c2b"
    fill-rule="nonzero"
  />
  <path
    d="m57.632 48.736-3.408-1.848h37.512l3.384 1.848H57.632ZM53.48 46.48l-3.408-1.824h37.512l2.16 1.176 1.224.648H53.48ZM63.848 52.072l-1.296-.696h37.488l1.272.696H63.848ZM61.808 50.968 58.4 49.144h37.488l2.184 1.176 1.2.648H61.808ZM49.304 44.248l-1.416-.768H85.4l1.104.6.312.168H49.304Z"
    fill="#8f5d3b"
    fill-rule="nonzero"
  />
  <path
    d="m68 68.392.504-.192 1.032-.36h35.448v7.2H67.64v1.824h1.728v10.464h4.08V76.864h2.688v10.464h4.08V76.864h3.312v10.464h4.056V76.864H91.4v10.464h4.08V76.864h3.024v10.464h4.08V76.864h2.4V95.68H67.496V68.56l.504-.168Z"
    fill="#bb2b26"
    fill-rule="nonzero"
  />
  <path
    d="M28.304 67.816v.504l-.744-.288.576.216.168-.432Z"
    fill="#808285"
    fill-rule="nonzero"
  />
  <path
    d="m50.072 44.656 3.408 1.824.744.408 3.408 1.848.768.408 3.408 1.824.744.408 1.296.696.408 1.152.144.408.672 1.824.144.408.672 1.824.144.408.648 1.848.144.408.672 1.824.144.408.672 1.848.144.408.672 1.824.144.408.264.768-1.032.36-5.568-15.36-15.048-8.088L32.84 52.84l-5.472 15.144-1.056-.384 5.64-15.528 15.936-8.592 1.416.768.768.408Z"
    fill="#808285"
    fill-rule="nonzero"
  />
  <path
    d="m67.496 67.864.24.624.264-.096-.504.168v-.696Z"
    fill="#808285"
    fill-rule="nonzero"
  />
  <path
    d="m33.512 53.416 14.376-7.752 14.376 7.752 5.208 14.424v27.84H28.256V67.816l5.256-14.4Zm24.24.312h-4.08V70.84h4.08V53.728Zm-7.992 0h-4.08V70.84h4.08V53.728Zm-7.992 0h-4.08V70.84h4.08V53.728Zm-6.696 23.136h2.184V95.68h21.36V76.864h1.776V75.04H35.096v1.824h-.024Z"
    fill="#ef3933"
    fill-rule="nonzero"
  />
  <path
    d="M60.368 76.864h-1.776V95.68H37.256V76.864h-2.184V75.04h25.296v1.824Zm-17.52 9.36 3.888 8.232V77.992l-3.888 8.232Zm3.144-8.544H38.84l3.576 7.608 3.576-7.608Zm-3.576 9.504-3.624 7.68h7.224l-3.6-7.68Zm-.456-.96-3.888-8.232v16.464l3.888-8.232Zm11.184 0 3.888 8.232V77.992l-3.888 8.232Zm3.12-8.544h-7.152l3.576 7.608 3.576-7.608Zm-3.576 9.504-3.624 7.68h7.224l-3.6-7.68Zm-.456-.96-3.888-8.232v16.464l3.888-8.232ZM32.84 52.84l15.048-8.088 15.048 8.088 5.568 15.36-.504.192-.264.096-.24-.624-5.208-14.448-14.4-7.752-14.376 7.752-5.208 14.4-.168.432-.576-.216-.192-.048L32.84 52.84Z"
    fill="#fff"
    fill-rule="nonzero"
  />
  <path
    d="m50.072 44.656-.768-.408h37.512l.768.408H50.072ZM54.224 46.888l-.744-.408h37.488l.768.408H54.224ZM95.12 48.736l.768.408H58.4l-.768-.408H95.12ZM62.552 51.376l-.744-.408h37.464l.768.408H62.552ZM64.4 53.632l-.144-.408h37.488l.144.408H64.4ZM65.216 55.864l-.144-.408h37.464l.168.408H65.216ZM66.032 58.096l-.144-.408h37.464l.144.408H66.032ZM66.824 60.352l-.144-.408h37.488l.144.408H66.824ZM67.64 62.584l-.144-.408h37.488l.144.408H67.64ZM68.456 64.84l-.144-.408h37.464l.168.408H68.456ZM69.272 67.072l-.144-.408h37.464l.144.408H69.272Z"
    fill="#5d2d11"
    fill-rule="nonzero"
  />
  <path
    d="m56.264 77.68-3.576 7.584-3.576-7.584h7.152ZM53.144 86.224l3.888-8.232v16.464l-3.888-8.232ZM52.688 87.184l3.624 7.68h-7.224l3.6-7.68ZM52.232 86.224l-3.864 8.232V77.992l3.864 8.232ZM42.848 86.224l3.888-8.232v16.464l-3.888-8.232ZM42.416 87.184l3.6 7.68h-7.224l3.624-7.68ZM45.992 77.68l-3.576 7.584-3.576-7.584h7.152ZM41.96 86.224l-3.888 8.232V77.992l3.888 8.232Z"
    fill="#ba2229"
    fill-rule="nonzero"
  />
  <path
    d="M17.336 95.68h98.04v4.248h-98.04V95.68Z"
    fill="#6ea241"
    fill-rule="nonzero"
  />
  <path fill="#2b2b2b" d="M54.488 54.544h2.448v15.48h-2.448z" />
  <path
    d="M53.672 53.728h4.08V70.84h-4.08V53.728Zm3.264 16.296v-15.48h-2.448v15.48h2.448Z"
    fill="#fff"
    fill-rule="nonzero"
  />
  <path fill="#2b2b2b" d="M99.32 76.864h2.448v9.648H99.32z" />
  <path
    d="M102.584 87.328h-4.08V76.864H95.48v10.464H91.4V76.864h-3.816v10.464h-4.08V76.864h-3.288v10.464h-4.08V76.864h-2.688v10.464h-4.08V76.864h-1.752V75.04h38.376v1.824h-3.408v10.464ZM79.4 86.512v-9.648h-2.448v9.648H79.4Zm-6.768-9.648h-2.448v9.648h2.448v-9.648Zm22.032 9.648v-9.648h-2.448v9.648h2.448Zm-7.896-9.648H84.32v9.648h2.448v-9.648Zm15 9.648v-9.648H99.32v9.648h2.448Z"
    fill="#fff"
    fill-rule="nonzero"
  />
  <path
    fill="#2b2b2b"
    d="M92.216 76.864h2.448v9.648h-2.448zM84.32 76.864h2.448v9.648H84.32zM76.952 76.864H79.4v9.648h-2.448zM70.184 76.864h2.448v9.648h-2.448zM46.496 54.544h2.448v15.48h-2.448z"
  />
  <path
    d="M45.68 53.728h4.08V70.84h-4.08V53.728Zm3.264 16.296v-15.48h-2.448v15.48h2.448Z"
    fill="#fff"
    fill-rule="nonzero"
  />
  <path fill="#2b2b2b" d="M38.504 54.544h2.448v15.48h-2.448z" />
  <path
    d="M37.688 53.728h4.08V70.84h-4.08V53.728Zm3.264 16.296v-15.48h-2.448v15.48h2.448Z"
    fill="#fff"
    fill-rule="nonzero"
  />
</svg>
