<svg
  width="100%"
  height="100%"
  viewBox="0 0 480 96"
  version="1.1"
  xmlns="http://www.w3.org/2000/svg"
  xml:space="preserve"
  fill-rule="evenodd"
  clip-rule="evenodd"
  stroke-linejoin="round"
  stroke-miterlimit="2"
>
  <path
    d="M318.495 71.978c-.982-.183-.803-.49-1.851-.612-1.887-.223-4.405.069-5.905.204-16.043 1.43-27.503 16.022-41.255 24.033h48.809l6.545-9.832-6.343-13.793Z"
    fill="#b1ca52"
  />
  <path
    d="M359.903 95.603c-41.624-.062-53.382-.093-53.382-.093-.212-2.506 2.166-3.511 6.541-6.053 8.177-4.752 6.334-6.574 2.103-8.87-3.153-1.712-5.929-3.999-5.757-5.969.166-1.889 3.876-3.78 7.793-3.185 9.146 1.392 18.789 10.69 22.981 13.939 6.751 5.235 18.071 6.821 19.721 10.231Z"
    fill="#97b72e"
  />
  <path
    d="M314.694 95.603h121.249c-7.666-16.495-15.787-19.852-32.178-35.169-8.502-7.947-15.871-20.117-26.434-20.854-4.307-.3-9.147 1.303-14.811 5.871-15.602 12.58-28.715 40.034-47.826 50.152Z"
    fill="#a5c542"
  />
  <path
    d="M396.023 52.257c-7.174-8.314-13.377-12.538-18.608-12.67-3.423 2.355-4.547 7.767-3.323 12.898 1.172 4.91 4.507 14.138.545 21.007-5.695 9.874-10.34 7.248-12.736 21.922h73.898c-3.902-8.847-10.18-16.627-18.837-23.345-8.252-6.698-15.232-13.303-20.939-19.812Z"
    fill="#8bad2b"
  />
  <path
    d="m430.671 95.603-5.224-37.298c-1.568.046-3.183.641-4.799 1.954-8.336 6.777-9.788 15.069-20.973 19.884-4.242 1.826-9.513 3.7-13.718 5.853-4.118 2.107-8.906 6.427-12.602 9.607h57.316Z"
    fill="#b1ca52"
  />
  <path
    d="m423.569 95.551 42.284-.015c-4.084-5.426-10.634-16.293-15.659-19.929-3.532-2.554-7.149-.612-9.759-4.522-1.578-2.366-4.37-4.855-5.489-6.456-2.588-3.701-6.019-6.53-9.698-6.314-3.417 4.725-4.861 12.225-1.439 17.431 3.755 5.712 2.516 13.375-.24 19.805Z"
    fill="#97b72e"
  />
  <path
    d="M282.108 93.799c3.097-.332 3.875-3.989 2.335-10.973-.79-3.18-1.568-4.745-2.335-4.697-.766-.048-1.544 1.517-2.335 4.697-1.54 6.984-.762 10.641 2.335 10.973Z"
    fill="#91b42c"
  />
  <path
    d="M282.108 93.799c3.097-.332 3.875-3.989 2.335-10.973-.79-3.18-1.568-4.745-2.335-4.697v15.67Z"
    fill="#84a128"
  />
  <path fill="#877868" d="M281.9 85.915h.417v9.689h-.417z" />
  <path
    d="M290.568 93.1c4.294-.458 5.372-5.527 3.237-15.209-1.095-4.408-2.174-6.578-3.237-6.511-1.063-.067-2.141 2.103-3.236 6.511-2.136 9.682-1.057 14.751 3.236 15.209Z"
    fill="#91b42c"
  />
  <path
    d="M290.568 93.1c4.294-.458 5.372-5.527 3.237-15.209-1.095-4.408-2.174-6.578-3.237-6.511V93.1Z"
    fill="#84a128"
  />
  <path fill="#877868" d="M290.279 82.171h.578v13.433h-.578z" />
  <path
    d="M402.165 93.799c3.097-.332 3.875-3.989 2.334-10.973-.79-3.18-1.568-4.745-2.334-4.697-.767-.048-1.545 1.517-2.335 4.697-1.54 6.984-.762 10.641 2.335 10.973Z"
    fill="#91b42c"
  />
  <path
    d="M402.165 93.799c3.097-.332 3.875-3.989 2.335-10.973-.791-3.18-1.569-4.745-2.335-4.697v15.67Z"
    fill="#84a128"
  />
  <path fill="#877868" d="M401.956 85.915h.417v9.689h-.417z" />
</svg>
