<svg
  xmlns="http://www.w3.org/2000/svg"
  xml:space="preserve"
  fill-rule="evenodd"
  stroke-linejoin="round"
  stroke-miterlimit="2"
  clip-rule="evenodd"
  viewBox="0 0 480 96"
>
  <path
    fill="#dc8757"
    d="m83.088 77.861 1.032-4.768h1.879v4.698l2.014 6.705V70.939l2.685-23.979 1.409-1.321v-2.544l2.484-1.273h2.551l1.745-2.203h4.431l1.075 7.047.871-5.089h3.691l1.546 1.615 2.349 5.236.939-4.306 3.425-1.027 8.054 1.223 3.758 1.32 2.82-.244 1.544 1.86 5.236.734.804 9.836 1.544.441v9.494l3.021 2.838v6.068h2.686v-6.851l2.887-2.105v17.178l2.215 1.762v3.426l3.221 1.566v4.257H83.088V77.861Z"
  />
  <path
    fill="#be6436"
    d="m85.999 77.791 1.075 13.951 1.433 1.581-.494-10.782-2.014-4.75Zm18.259-29.947-.94-8.225-4.488-.008-1.688 2.211 2.712 12.35-3.998 1.118 2.242 4.904-.956 1.994-.266 9.777-.158 5.826 4.144 2.061.696 13.979 1.512.067.92-.9 2.203-2.312 2.097 3.778 2.28-.2-5.505-19.112 3.086-10.179v-12.92l.804-10.476-3.691-.292-1.006 6.559Zm7.92-.913.874 12.951v3.768l1.812-4.013-1.745-12.438-.941-.268Zm31.817 29.734.6 2.767-.6 3.744 1.39-.386.789 3.371.507-9.496h-2.686Zm-18.727-32.347v8.812l3.758 6.656-1.879 4.499 1.879 7.54 4.299 3.521-3.257-7.587 1.039-4.733-2.081-17.388-3.758-1.32Z"
  />
  <path
    fill="#be6436"
    d="m105.665 67.759 4.905-2.169 4.294 1.084 5.633 1.085 7.416 3.561-7.306-2.487-3.818-.378-6.219-.696-1.917 3.561-5.439 2.017 2.451-5.578Zm33.153-1.9s-1.677 1.812-2.887 2.105c-1.209.292-4.956.292-4.956.292h-1.949l1.061 3.552 3.835-1.542 4.4-2.01.496-1.049v-1.348Z"
  />
  <path
    fill="#d57647"
    d="m95.856 55.29-3.242 2.365-.411 2.675 3.653-2.52 1.411.566-1.411-3.086Z"
  />
  <path
    fill="#be6436"
    d="m108.49 47.662 2.08 1.659 2.931.597 2.061-.597 2.333 1.7 4.26 1.737h-2.657l-3.328-1.93-2.516.187-3.084-.805-3.136 1.843 1.056-4.391Zm-.672 37.046 5.702 3.638h9.962l-7.92 1.695-6.549-1.185-1.195-4.148Z"
  />
  <path
    fill="#f5ad85"
    d="m129.026 45.638 2.081 17.388-1.039 4.733 3.257 7.587v7.83l-1.277 9.805 1.874-2.94 1.868-8.662 1.161-6.033-3.895-6.754 2.014-4.942V47.489l-1.68-.235-1.544-1.86-2.82.244Zm-15.237-1.516 3.425-1.027-.872 3.085s-2.073 2.849-1.812 3.439c.264.591.195 3.703.264 4.026.07.323-.304 3.334-.304 3.334l-1.371-9.78.67-3.077Zm25.641 13.702 1.544.441v9.494l3.021 2.838v6.069l.6 2.766-.6 3.744-1.982-4.272v-4.116l-2.583-5.325-1.108-6.941 1.108-4.698Zm10.138 15.636v11.427l2.215 1.762v3.426l3.221 1.566v2.129l-4.68-1.551-.756-2.178-1.68-3.88 1.68-12.701Z"
  />
  <path fill="#f5ad85" d="m117.214 43.095 4.027.611-4.464.931.437-1.542Z" />
  <path
    fill="#be6436"
    d="m89.748 55.448-1.735 15.491v6.778l1.735-7.217 1.188-6.85 5.609-4.747-1.81-4.493-4.541-2.956-.446 3.994Z"
  />
  <path
    fill="#f5ad85"
    d="m92.107 45.639.507 7.389.885.576 1.296-6.543 2.347-5.239h-2.551l-2.484 1.272v2.545Z"
  />
  <path
    fill="#dc8757"
    d="M8.402 95.898c.754-1.705 1.99-3.958 1.99-3.958l2.474-2.019.828-14.439 2.165-1.624 1.044-20.19 2.727-4.916h4.742l-.49 9.481-1.125 21.769 4.632 4.126.674-13.08.979-18.96-2.15-8.251.528-10.183 3.766-3.072 5.085-2.722 2.518 3.161 2.004-4.916 4.013-1.843 4.312-1.668h5.772l-.208 4.038 3.172-2.59 11.364.483 2.427 6.935 6.533 1.228 1.353 5.706-1.121 21.682 2.072 1.843-.819 15.801 2.407 5.267-.206 4.038 3.574.939v7.692l-6.008.242H8.402Z"
  />
  <path
    fill="#be6436"
    d="m71.011 29.649-3.545 25.322.281 2.036 2.676-15.976 4.488-8.957h-3.3l-.6-2.425Zm-19.008-7.055-1.106 21.422 1.02 14.22-.509 9.832s-2.513-8.251-2.438-9.656c.072-1.405-1.541-13.081-1.541-13.081l.269-5.177-4.7 3.174-.3 5.779-.46 8.954-2.765 5.618-1.743 5.793-3.12 2.546-.693 13.43-4.639 7.63 3.753-32.388-2.853-8.602-3.286-8.251.528-10.183 3.814-4.034 5.037-1.76 2.518 3.161 2.004-4.916 8.325-3.511h2.885Zm5.851 1.448-3.172 2.59-.418 6.924 3.59-9.514Z"
  />
  <path
    fill="#f5ad85"
    d="m55.925 29.154 2.438-3.639h2.242l1.241.528 2.956-.528 2.945-.528.562.728 1.332 5.282v2.761l.077 6.732 1.372-10.612-.35-1.003-1.522-4.35-11.217-.477-2.076 5.106Zm20.565 3.217 1.688.317 1.353 5.706-1.121 21.682 2.117 1.803-.806 14.739V64.099l-3.379-3.409-1.431-15.109 1.935-2.253-3.684-1.565-.876-4.451 2.625-5.238 1.579.297Zm-25.053 1.185-.54 10.46 1.02 14.22 2.347-14.908.05-10.622-2.448-7.471-.429 8.321ZM19.63 48.752l2.491 2.121-1.246 25.745 1.882 3.384 1.615-31.25H19.63Z"
  />
  <path
    fill="#be6436"
    d="M14.777 74.669V88.79l-1.911 3.818-2.556 2.964 6.324-.9.61-1.966v-9.601l-1.142-6.487v-2.554l-1.325.605Z"
  />
  <path
    fill="#be6436"
    d="M15.91 80.546c.523 0 3.72.447 3.72.447h1.238c.334 0-1.238.365-1.238.365h-3.053l-.667-.812Zm.763 11.655 1.317.285h2.717l1.795-.285-1.099.877h-2.491l-1.867-.11-.372-.767Zm-3.771-2.919c1.611-.671 14.996.028 14.996.028l-15.879 1.301.862-.702.021-.627Zm18.588-.411 3.111-2.193 5.673-1.137h-6.415l-2.369 3.33Zm2.06-7.513 13.605-1.356 5.451.544 4.5-.544-9.951-1.04-9.218 1.198-3.739-.14-.648 1.338Zm4.653-13.457 3.3-.719 5.652.719 3.742 1.555-1.479-2.274-4.867-1.381-3.525-2.184-2.024.462-.799 3.822Zm16.073-34.557 3.559.978 3.72-.489-1.62 1.055h-5.671l.012-1.544Zm-.012 10.159 3.667-.437 5.578.512 3.026 2.372-4.958-1.735-3.723.419-3.369 1.809-.778.417.557-3.357Zm-1.375 8.555 4.202-1.41 3.171.682 2.479.683 3.432 1.308 3.912-.684 2.239 1.461 1.126 2.21s-2.768-1.09-3.653-1.371c-.883-.281-6.6-.281-6.6-.281l-4.176.903-2.098-1.368-4.356-.092.322-2.041Zm8.957-26.015 3.624.504s3.045-.666 2.839-.832c-.207-.166-.562-.728-.562-.728l-5.901 1.056ZM76.342 60.69l-2.892 8.766-2.261 11.902 2.575 5.848-1.478-5.848s.333-10.042 1.478-10.972c1.147-.93 4.61-7.645 4.61-7.645l-2.032-2.051Z"
  />
  <path
    fill="#be6436"
    d="m72.401 78.928 1.483.494h3.362l2.146-1.198-1.018 1.424-3.592.512-2.864 1.636-.367-.664.85-2.204Z"
  />
  <path
    fill="#f5ad85"
    d="m79.663 77.72 2.407 5.267-.206 4.5-2.201-1.946-1.289-3.745.84-1.434-.84-.714 1.289-1.928Z"
  />
  <path
    fill="#dc8757"
    d="m253.791 95.851 6.142-22.092 4.157-2.234 3.29 3.266 1.903-10.833 9.872-3.785h11.253l6.581 4.471 8.484 19.262 7.618 5.331 3.028 6.614h-62.328Z"
  />
  <path
    fill="#be6436"
    d="m279.155 60.173-1.709 6.007 1.709 5.722v6.588s-4.275-4.366-2.991-2.184c1.282 2.184 2.991 7.329 2.991 7.329l2.486 4.243v7.145l1.584.828h-29.434l6.142-22.092 4.157-2.234 3.29 3.266 1.903-10.833 9.872-3.785Z"
  />
  <path
    fill="#dc8757"
    d="m164.142 95.851 3.341-7.077 4.396-1.164 3.809-10.486 5.571-3.379 3.854-12.408 4.25-.989 8.206-7.75 6.888-8.968 11.726-.992 4.69 1.98 3.37 4.544 4.689 9.787 9.382 2.097 5.275 2.796 2.328 11.408 6.742 1.399 4.104 7.805 9.964 9.088 2.076 2.309H164.142Z"
  />
  <path
    fill="#be6436"
    d="m210.32 43.133-2.193 6.693 4.509-.028-8.669 8.743v8.969l1.076.883-1.076 4.826 2.18 7.997 2.75 3.653 1.423 3.146-.156 7.836h-46.022l3.341-7.077 4.396-.876 3.809-10.774 5.571-3.379 3.854-12.408 4.25-.989 8.206-7.75 6.888-8.971 5.863-.494Z"
  />
  <path
    fill="#a54e1f"
    d="m189.363 60.346-2.126.496-1.85 11.096 3.602-6.562.374-5.03ZM181.307 73.8l1.636 5.765-3.074 6.993-2.688 5.885v-6.408l-.73-5.971.694-3.823 4.162-2.441Z"
  />
  <path
    fill="#be6436"
    d="m228.932 58.949 2.82 9.18v7.135l3.636 5.076-1.507-13.121-1.339-7.464-3.61-.806Zm16.985 16.301 2.844.59v3.962l-.425 5.708-1.457-6.233-.962-4.027Z"
  />
  <path
    fill="#a54e1f"
    d="m198.69 95.851 3.029-3.408v-2.841l1.231-9.221 1.017-7.162 2.18 7.997 2.75 3.653 1.286 2.841.015 6.423 1.171 1.718H198.69Z"
  />
  <path
    fill="#f5ad85"
    d="m216.183 42.638 4.69 1.98 3.37 4.544s2.978 5.942 3.098 6.465l1.591 6.979-8.441-11.815-6.06-4.118-2.38-3.687 4.132-.348Zm22.131 18.408 5.275 2.796 1.644 8.06-3.461-6.293-6.093-5.153 2.635.59Zm11.659 15.046 2.686.557 4.104 7.805 7.375 6.724-10.203-6.724-3.962-8.362Z"
  />
  <path
    fill="#be6436"
    d="M241.335 95.851h19.697l-3.977-4.181-8.294-3.415s-3.528 1.414-3.528.823c0-.588-5.866-3.18-5.866-3.18l-7.96-11.116 9.928 21.069Zm-19.711 0 1.606-4.298-.895-5.095-6.948-11.676-3.336-14.326 8.44 17.95 4.373 4.598 15.927 12.847h-19.167Z"
  />
  <path
    fill="#f5ad85"
    d="M282.167 60.173h8.241l6.581 4.471s5.201 11.81 5.033 11.426c-.171-.384-6.127-2.997-6.391-3.379-.262-.384-3.233-5.299-3.233-5.299l-5.861-2.806-4.37-4.413Zm25.612 25.346 5.312 3.718s1.917 4.193 1.732 3.782c-.187-.408-4.449-4.416-4.449-4.416l-2.595-3.084Z"
  />
  <path
    fill="#be6436"
    d="m293.262 95.851.446-1.658-2.712-3.015-2.534-10.128 5.246 8.933 7.083 3.955 3.235.447-2.58-1.882 6.333 1.435 5.086 1.913h-19.603Z"
  />
  <path
    fill="#a54e1f"
    d="m267.38 74.791-3.29-3.266 1.644 4.567 1.646 5.914 1.923 9.172V79.709l-1.923-4.918Zm-9.945 7.959 9.77 11.32-10.284-9.47.514-1.85Z"
  />
  <path
    fill="#dc8757"
    d="M388.23 96.351c1.321-3.093 6.738-7.474 7.935-9.659.451-.833 4.183-5.305 4.956-4.306 3.56 4.59 1.466 3.076 7.431-2.347.612-.553 1.224-1.304 1.766-2.486 1.257-2.711 7.174 9.568 8.151 8.688 2.717-2.449 1.654-2.873 3.629-.403 2.975 3.726 4.699 6.083 7.05 10.513H388.23Z"
  />
  <path
    fill="#d16d28"
    d="M407.092 96.351h-8.945c.177-.145.333-.279.435-.392 1.664-1.847 4.472-5.192 5.975-7.684.376-.622 2.588-3.393 2.588-1.653 0 1.229-.123 1.96-.354 2.556-.328.848-.886 1.428-1.638 2.791-1.004 1.804 1.38.876 2.545-.51 1.208-1.433 1.015 1.101.129 2.395-.445.65-.918 1.734-.735 2.497Zm15.259 0h-5.842c.081-.118.193-.285.349-.521.639-.945 2.593-6.083 2.379-1.128-.016.462.939.392 1.498-.569.327-.574 1.079.875 1.616 2.218Z"
  />
  <path
    fill="#f9a454"
    d="M405.223 83.524c.709-.848 1.729-2.024 3.329-3.485.344-.306.682-.682 1.009-1.154-.257.36-.467 2.507-4.284 4.628-.016.005-.032.005-.054.011Zm-12.456 7.109c1.482-1.547 2.862-2.964 3.398-3.941.215-.392 1.16-1.6 2.186-2.658-.006.054-2.615 5.509-2.787 5.901-.123.284-.456.73-.752 1.444-.155.37-.499.784-.902 1.197-1.557 1.627-2.179 2.073-.585-.526.387-.634.773-1.031 1.197-1.638 2.121-3.017-.864-.155-1.514.119l-.241.102Z"
  />
  <path
    fill="#d16d28"
    d="M411.344 77.349c2.137 1.364 6.314 9.622 7.125 8.892-.8 2.792-8.704 10.722-7.227 8.515.811-1.219 3.06-5.235 3.753-8.118.478-1.997-.113-2.674-1.015-2.599-1.573.14-2.164 1.788-.88-.757.139-.279.252-.521.316-.666 1.107-2.55-1.809-1.541-1.379-2.668.247-.666-.231-2.137-.693-2.599Zm-10.003 5.321c2.019 2.626 2.062 3.028 3.195 1.686-.564 2.422-5.133 7.307-7.619 9.396-1.578 1.332-1.884 1.745-.209-.532 1.283-1.261 4.692-6.824 4.692-8.832 0-.397-.043-1.047-.059-1.718Z"
  />
  <g fill-rule="nonzero">
    <path
      fill="#003040"
      d="m448.354 65.219-.646.093-1.39-6.479.646-.092 1.39 6.478Zm1.184 0-.646.093-1.39-6.479.646-.092 1.39 6.478Z"
    />
    <path
      fill="#003040"
      d="m451.573 58.833-.646-.092-1.389 6.478.646.093 1.389-6.479Zm1.27 0-.646-.092-1.39 6.478.646.093 1.39-6.479Z"
    />
    <path
      fill="#ebf3da"
      d="M464.286 30.208c-2.113-4.862-7.724-7.871-14.671-7.871h-.154c-6.941 0-12.559 3.009-14.672 7.871-2.826 6.493.693 15.483 9.9 25.341.042.154.112.294.21.427l1.27 2.96c.037.14.096.276.173.405l.033.077h.016c.52.776 1.733.963 3.147.963 1.414 0 2.627-.187 3.147-.963h.015l.033-.077c.078-.129.136-.265.174-.405l1.269-2.96c.098-.133.168-.273.21-.427 9.208-9.858 12.727-18.848 9.9-25.341Z"
    />
    <path
      fill="#ec8323"
      d="M457.949 51.423c6.513-8.225 8.764-15.64 6.337-21.215-2.113-4.862-7.724-7.871-14.671-7.871h-.154c-6.941 0-12.559 3.009-14.672 7.871-2.739 6.292.481 14.929 9.061 24.427.589.042 1.182.065 1.782.065 4.484 0 8.69-1.192 12.317-3.277Z"
    />
    <path
      fill="#a2dbe0"
      d="M465.215 34.183c-.082-1.408-.39-2.737-.929-3.975-2.113-4.862-7.724-7.871-14.671-7.871h-.154c-6.941 0-12.559 3.009-14.672 7.871-2.064 4.743-.742 10.819 3.709 17.592 1.43.257 2.903.391 4.406.391 9.822 0 18.308-5.719 22.311-14.008Z"
    />
    <path
      fill="#1c97a1"
      d="M460.834 25.802c-2.79-2.205-6.725-3.465-11.219-3.465h-.154c-6.941 0-12.559 3.009-14.672 7.871-1.541 3.54-1.195 7.823.93 12.584.524.033 1.051.052 1.583.052 10.98 0 20.289-7.147 23.532-17.042Z"
    />
    <path
      fill="#044458"
      d="m445.357 57.044.812 1.892c.037.14.096.276.173.405l.033.077h.016c.52.776 1.733.963 3.147.963 1.414 0 2.627-.187 3.147-.963h.015l.033-.077c.078-.129.136-.265.174-.405l.812-1.892c-2.756-.593-5.606-.593-8.362 0Z"
    />
    <path
      fill="#7e675e"
      d="M451.786 69.842h-4.497c-.454 0-.836-.342-.885-.794l-.344-3.163h6.955l-.344 3.163c-.049.452-.43.794-.885.794Z"
    />
    <path
      fill="#fff"
      d="M451.062 65.885c.003.005.715 1.625 1.62 0h.333c-1.279 2.407-2.314.009-2.317.003l-.366-.003c-.003.005-.715 1.625-1.62 0h-.333c-1.28 2.407-2.316.009-2.319.003l.365-.003c.003.005.715 1.625 1.62 0h.334c1.28 2.407 2.315.009 2.319.003l.364-.003Z"
    />
    <path
      fill="#febc2c"
      d="M453.054 65.885h-7.033c-.215 0-.389-.175-.389-.39 0-.215.174-.389.389-.389h7.033c.216 0 .39.174.39.389 0 .215-.174.39-.39.39Z"
    />
    <path
      fill="#1c587a"
      d="M452.829 22.562c-1.032-.148-2.106-.225-3.214-.225h-.154c-6.941 0-12.559 3.009-14.672 7.871-.607 1.394-.92 2.904-.948 4.513 8.108-.779 15.072-5.468 18.988-12.159Z"
    />
    <path
      fill="#eacaad"
      d="M449.527 60.381h-.003.003Zm-.014 0Zm-.012 0h-.001.001Zm14.778-30.189c0-.001-.001-.003-.002-.004.001.001.002.003.002.004Zm-.007-.015c0-.002-.001-.004-.002-.006.001.002.002.004.002.006Zm-.007-.016c0-.002-.001-.004-.002-.006.001.002.002.004.002.006Zm-.007-.017c-.001-.001-.001-.003-.002-.005.001.002.001.004.002.005Zm-.008-.018c0-.001-.001-.002-.001-.002s.001.001.001.002Zm-.008-.018c-.001-.002-.001-.002-.001-.003 0 .001 0 .002.001.003Zm-.007-.016c-.001-.002-.002-.003-.002-.005 0 .002.001.003.002.005Zm-.007-.016c-.001-.002-.002-.004-.003-.005.001.002.002.003.003.005Zm-.007-.016c-.001-.002-.002-.003-.003-.005.001.002.002.003.003.005Zm-.008-.017c-.001-.001-.001-.002-.002-.004.001.002.001.003.002.004Zm-.009-.02-.001-.001.001.001Zm-.007-.015c-.001-.002-.002-.003-.002-.005 0 .002.001.004.002.005Zm-.008-.016c0-.002-.001-.003-.002-.005.001.002.002.003.002.005Zm-.007-.016c-.001-.002-.001-.003-.002-.005.001.002.001.003.002.005Zm-.008-.016c0-.002-.001-.003-.001-.004 0 .001.001.002.001.004Zm-.016-.036c-.001-.001-.001-.002-.001-.002 0 .001 0 .001.001.002Zm-.008-.016c0-.001-.001-.002-.001-.004 0 .001.001.003.001.004Zm-.007-.016c-.001-.001-.002-.002-.002-.004.001.002.001.003.002.004Zm-.008-.016c-.001-.001-.001-.003-.002-.003.001.001.001.001.002.003Zm-.025-.052v-.001.001Zm-.007-.016c-.001 0-.001-.001-.001-.002 0 .001 0 .002.001.002Zm-.008-.016c-.001-.001-.001-.001-.001-.002 0 .001 0 .001.001.002Z"
    />
    <path
      fill="#cfe1c4"
      d="M453.719 57.044c-.89-.192-1.789-.321-2.693-.389.71-1.037 1.378-2.063 2.006-3.08 1.728-.541 3.375-1.266 4.917-2.152 6.08-7.679 8.446-14.652 6.759-20.08.355 1.142.53 2.351.53 3.622-.002 5.836-3.722 12.95-10.852 20.584-.042.154-.112.294-.21.427l-.457 1.068Zm10.989-25.701c-.002-.006-.004-.011-.005-.017.001.006.003.011.005.017Zm-.006-.018a.0983.0983 0 0 0-.005-.016c.002.005.004.01.005.016Zm-.005-.017c-.009-.028-.018-.056-.026-.083.008.027.017.055.026.083Zm-.027-.085c-.002-.005-.003-.01-.005-.015.002.005.003.01.005.015Zm-.006-.018a.07838.07838 0 0 0-.005-.014c.002.005.004.009.005.014Zm-.005-.017c-.007-.022-.015-.043-.022-.065.007.022.015.044.022.065Zm-.022-.066c-.002-.005-.003-.01-.005-.014.002.004.003.009.005.014Zm-.006-.018c-.002-.005-.003-.009-.005-.014.002.005.003.009.005.014Zm-.006-.018c-.002-.005-.003-.008-.005-.013.002.004.003.009.005.013Zm-.006-.018c-.002-.004-.003-.009-.005-.013.002.004.003.009.005.013Zm-.005-.015c-.006-.015-.011-.031-.016-.046.005.016.01.031.016.046Zm-.018-.05c-.001-.003-.003-.008-.004-.012.002.004.003.008.004.012Zm-.006-.018c-.001-.003-.003-.008-.004-.011.001.003.003.008.004.011Zm-.006-.018Zm-.007-.018c-.001-.004-.002-.007-.003-.011.001.004.002.007.003.011Zm-.006-.017c-.005-.014-.009-.027-.014-.041.005.014.009.027.014.041Zm-.016-.046c-.001-.004-.003-.008-.004-.011.001.003.003.007.004.011Zm-.007-.019c-.001-.003-.002-.007-.003-.01.001.003.002.007.003.01Zm-.006-.018c-.001-.003-.003-.007-.004-.01.001.004.002.007.004.01Zm-.007-.018c-.001-.003-.002-.007-.004-.01.002.003.003.007.004.01Zm-.006-.018c-.002-.003-.003-.006-.004-.01.001.003.002.007.004.01Zm-.007-.019c-.002-.005-.005-.011-.007-.017.002.006.005.012.007.017Zm-.01-.026-.003-.009.003.009Zm-.007-.018-.003-.009.003.009Zm-.007-.018-.003-.009c.001.002.002.006.003.009Zm-.006-.018c-.002-.003-.003-.006-.004-.01.001.003.003.007.004.01Zm-.007-.018c-.001-.003-.003-.006-.004-.01.001.003.003.007.004.01Zm-.008-.02-.006-.015.006.015Zm-.009-.024-.003-.009.003.009Zm-.007-.018c-.001-.003-.002-.007-.004-.009.002.003.003.005.004.009Zm-.007-.019c-.001-.003-.002-.005-.003-.008.001.003.002.006.003.008Zm-.007-.018c-.001-.003-.003-.006-.004-.008.002.002.003.005.004.008Zm-.007-.018c-.001-.003-.003-.006-.004-.008.001.002.003.005.004.008Zm-.009-.021c-.001-.004-.003-.008-.004-.012.001.004.003.008.004.012Zm-.009-.023c-.001-.002-.002-.005-.003-.008.001.003.002.006.003.008Zm-.007-.018c-.001-.002-.002-.005-.003-.008.001.003.002.006.003.008Zm-.007-.017-.003-.009.003.009Zm-.007-.019c-.001-.002-.002-.005-.004-.008.002.003.003.006.004.008Zm-.008-.018c-.001-.003-.002-.006-.003-.008.001.002.002.005.003.008Zm-.009-.022-.003-.009.003.009Zm-.008-.021c-.001-.002-.001-.003-.002-.004v-.001c0 .001.001.003.002.005Zm-.008-.018v-.001c0-.001-.001-.002-.001-.003 0 .001.001.003.001.004Zm-.008-.021Zm-.008-.018c0-.001-.001-.003-.002-.005.001.002.002.004.002.005Zm-.008-.02c0-.001-.001-.001-.001-.002 0 .001.001.002.001.002Zm-.009-.02v-.001.001Zm-.007-.018c-.001-.001-.001-.002-.002-.003.001.001.001.002.002.003Zm-.008-.019c-.001-.001-.001-.002-.001-.002s0 .001.001.002Zm-.017-.038c0-.002-.001-.003-.001-.004 0 .001.001.002.001.004Zm-.007-.018c-.001-.001-.001-.002-.002-.003v-.001c0 .001.001.003.002.004Z"
    />
    <path
      fill="#d17527"
      d="M453.032 53.575c2.298-3.725 4.043-7.315 5.215-10.709 2.931-2.317 5.327-5.284 6.968-8.683-.077-1.319-.352-2.569-.83-3.739.002.004.004.007.005.011.001.002.002.005.003.008.002.003.003.007.004.01.002.003.003.006.004.008.001.004.002.007.004.01l.003.009c.001.003.003.006.004.009.001.003.002.006.003.008.002.004.003.007.004.01s.002.006.003.008c.002.004.003.008.005.011.001.004.003.008.004.012.002.004.004.009.005.013.001.002.003.005.004.008s.002.006.003.01c.001.002.003.005.004.008s.002.006.004.01c.001.003.002.005.003.008s.002.007.003.01c.002.002.003.006.004.009.001.003.002.006.004.009l.003.009c.001.002.002.006.003.009l.006.015c.002.004.003.007.004.01.001.004.003.007.004.01s.002.005.003.008c.001.004.002.007.004.01.001.003.002.005.003.009l.003.009c.001.003.003.006.004.009l.003.009c.001.003.002.006.004.009l.003.009.003.009c.002.006.005.012.007.017l.003.009c.001.004.002.007.004.01.001.003.001.005.002.008.002.003.003.007.004.01s.002.006.003.008c.001.003.003.007.004.01s.002.006.003.008c.001.003.002.007.003.01s.002.005.003.008.003.007.004.011c.001.002.001.003.002.005.005.014.009.027.014.041l.003.006c.001.004.002.007.003.011.001.002.002.004.003.007.001.004.002.007.004.011.001.002.001.004.002.007s.003.008.004.011c.001.002.001.004.002.006.001.004.003.009.004.012.001.002.001.003.002.004.005.015.01.031.016.046v.002c.002.004.003.009.005.013 0 .002.001.003.001.005.002.005.003.008.005.013 0 .002.001.003.001.004.002.005.003.009.005.014 0 .001.001.003.001.004.002.004.003.009.005.014v.001c.007.022.015.043.022.065v.003c.002.004.004.01.005.014 0 .001.001.002.001.003.002.005.003.01.005.015 0 .001 0 .001.001.002.008.027.017.055.026.083v.001c.002.005.004.011.005.016l.001.001c.001.006.003.011.005.017 1.687 5.428-.679 12.401-6.759 20.08-1.542.886-3.189 1.611-4.917 2.152Zm11.352-23.134c-.001-.004-.002-.007-.004-.01l.001.001.003.009Zm-.007-.018c-.001-.002-.002-.005-.003-.007.001.001.001.002.002.004 0 .001.001.002.001.003Zm-.008-.019c0-.001-.001-.002-.001-.003v.001c.001.001.001.001.001.002Zm-.041-.099Zm-.034-.078v-.002.002Z"
    />
    <path
      fill="#8bd2d2"
      d="M458.247 42.866c1.78-5.157 2.237-9.864 1.302-13.904.498-1.016.928-2.072 1.285-3.16-1.013-.801-2.178-1.477-3.465-2.013 3.064 1.276 5.431 3.343 6.725 6.001 0 .001 0 .001.001.002.002.005.004.009.007.014 0 .001 0 .002.001.002.002.005.004.01.007.015v.001c.008.016.016.032.023.049.001 0 .001.002.002.003l.006.012c0 .002.001.003.002.004l.006.012c0 .002.001.003.001.004.002.005.005.009.007.014 0 0 0 .001.001.002.005.01.01.021.015.032 0 .001.001.002.001.004.002.003.004.008.006.011.001.002.001.003.002.005.002.004.003.007.005.011.001.002.002.003.002.005.002.004.004.008.006.011 0 .002.001.003.002.005.002.005.004.009.006.014l.001.001c.002.006.005.011.007.016.001.002.001.003.002.004.002.004.003.008.005.012.001.002.002.003.003.005.001.004.003.007.004.011.001.001.002.003.003.005.001.004.003.007.005.011 0 .002.001.003.002.005.002.004.004.008.006.013 0 .001 0 .001.001.003.002.005.005.01.007.016 0 0 .001.001.001.002.002.004.004.009.006.013.001.002.001.004.002.005.002.004.003.007.005.011.001.002.002.004.002.006.002.003.003.006.005.01.001.002.002.004.002.006.002.003.004.007.005.011.001.001.002.003.002.004.003.006.005.011.007.016.003.006.005.012.008.017v.002c.001.001.001.002.002.003.002.005.004.009.006.014 0 .001.001.002.001.004.005.012.011.024.016.036 0 0 0 .001.001.002.002.005.004.01.006.016.001.001.001.002.002.003.002.006.004.011.007.017v.001c.003.006.005.012.008.018 0 .001.001.001.001.002l.006.015c.001.002.002.004.002.005.002.005.004.009.006.013 0 .002.001.004.002.005.002.006.004.011.007.017 0 .001.001.002.001.003s.001.002.001.003c.002.003.003.007.005.011v.001c.001.002.002.005.003.007.001.003.002.005.003.008.002.003.003.006.004.01.001.001.001.002.001.003.478 1.17.753 2.42.83 3.739-1.641 3.399-4.037 6.366-6.968 8.683Zm-.882-19.079c-.005-.002-.009-.004-.014-.006.004.002.009.004.014.006Zm-.023-.01c-.003-.001-.006-.002-.009-.004.003.002.006.003.009.004Zm-.022-.009c-.002-.001-.003-.001-.005-.002.002.001.003.001.005.002Z"
    />
    <path
      fill="#1a8791"
      d="M459.549 28.962c-.131-.57-.291-1.126-.478-1.668-.443-1.286-1.042-2.468-1.773-3.535.006.002.012.005.017.007.002.001.003.001.005.002.004.002.008.003.013.005.003.002.006.003.009.004.003.001.006.003.009.004.005.002.009.004.014.006.001 0 .003.001.004.002 1.287.536 2.452 1.212 3.465 2.013-.357 1.088-.787 2.144-1.285 3.16Z"
    />
    <path
      fill="#023b4e"
      d="M449.538 60.381h-.038c-.251 0-.495-.007-.73-.022l.191-.564c.098-.167.168-.344.21-.538.647-.873 1.265-1.741 1.855-2.602.904.068 1.803.197 2.693.389l-.812 1.892c-.038.14-.096.276-.174.405l-.033.077h-.015c-.02.03-.042.06-.064.088-.551.703-1.725.875-3.083.875Z"
    />
    <path
      fill="#003040"
      d="m260.973 49.143-.163.024-.351-1.637.163-.023.351 1.636Zm.299 0-.163.024-.351-1.637.163-.023.351 1.636Zm.514-1.613-.163-.023-.351 1.636.163.024.351-1.637Zm.321 0-.163-.023-.351 1.636.163.024.351-1.637Z"
    />
    <path
      fill="#f69786"
      d="M264.997 40.299c-.533-1.228-1.951-1.988-3.706-1.988h-.038c-1.754 0-3.173.76-3.707 1.988-.714 1.64.175 3.911 2.501 6.402.011.038.028.074.053.107l.321.748c.009.036.024.07.044.102l.008.02h.004c.131.196.438.243.795.243.357 0 .664-.047.795-.243h.004l.008-.02c.02-.032.034-.066.044-.102l.321-.748c.024-.033.042-.069.053-.107 2.326-2.491 3.214-4.762 2.5-6.402Z"
    />
    <path
      fill="#f8ab9c"
      d="M263.467 40.299c-.315-1.228-1.15-1.988-2.184-1.988h-.023c-1.032 0-1.868.76-2.183 1.988-.42 1.64.103 3.911 1.473 6.402.007.038.017.074.032.107l.189.748c.005.036.014.07.025.102l.005.02h.003c.077.196.258.243.468.243.21 0 .391-.047.468-.243h.003l.004-.02c.012-.032.021-.066.026-.102l.189-.748c.015-.033.025-.069.031-.107 1.371-2.491 1.894-4.762 1.474-6.402Z"
    />
    <path
      fill="#fabbaf"
      d="M262.264 40.299c-.142-1.228-.52-1.988-.987-1.988h-.01c-.467 0-.845.76-.987 1.988-.19 1.64.046 3.911.666 6.402.003.038.007.074.014.107l.085.748c.003.036.007.07.012.102l.002.02h.001c.035.196.117.243.212.243.095 0 .177-.047.212-.243h.001l.002-.02c.005-.032.009-.066.012-.102l.085-.748c.007-.033.011-.069.014-.107.619-2.491.856-4.762.666-6.402Z"
    />
    <path
      fill="#044458"
      d="m260.216 47.078.205.478c.009.036.024.07.044.102l.008.02h.004c.131.196.438.243.795.243.357 0 .664-.047.795-.243h.004l.008-.02c.02-.032.034-.066.044-.102l.205-.478c-.696-.15-1.416-.15-2.112 0Z"
    />
    <path
      fill="#7e675e"
      d="M261.84 50.311h-1.136c-.115 0-.211-.086-.224-.201l-.087-.799h1.757l-.086.799c-.013.115-.109.201-.224.201Z"
    />
    <path
      fill="#fff"
      d="M261.657 49.311c.001.002.181.411.409 0h.084c-.323.609-.584.003-.585.001l-.092-.001c-.001.002-.181.411-.41 0h-.084c-.323.609-.585.003-.586.001l.093-.001c0 .002.18.411.409 0h.084c.324.609.585.003.586.001l.092-.001Z"
    />
    <path
      fill="#febc2c"
      d="M262.16 49.311h-1.776c-.055 0-.099-.044-.099-.098 0-.054.044-.098.099-.098h1.776c.055 0 .099.044.099.098 0 .054-.044.098-.099.098Z"
    />
    <path
      fill="#d4472b"
      d="M261.291 38.311h-.038c-1.617 0-2.95.646-3.566 1.71l1.757-.616.911.398.917-.459.917.459.911-.398 1.757.616c-.616-1.064-1.947-1.71-3.566-1.71Zm2.317 3.974-1.318.263-1.018-.263-1.018.263-1.318-.263-1.488.256c.147.566.408 1.167.78 1.794l1.213-.109 1.037.213.794-.248.794.248 1.037-.213 1.213.109c.372-.627.633-1.228.78-1.794l-1.488-.256Z"
    />
    <path
      fill="#eacaad"
      d="M261.269 47.921Zm-.003 0Zm-.003 0h-.001.001Zm3.733-7.626-.001-.001.001.001Zm-.002-.004s0-.001-.001-.001c.001 0 .001.001.001.001Zm-.002-.004v-.001.001Zm-.001-.004c-.001 0-.001-.001-.001-.001s0 .001.001.001Zm-.002-.004c-.001 0-.001-.001-.001-.001s0 .001.001.001Zm-.003-.005v-.002.002Zm-.001-.004c-.001 0-.001-.001-.001-.002 0 .001 0 .001.001.002Zm-.002-.004c0-.001-.001-.001-.001-.002 0 .001.001.002.001.002Zm-.002-.004s-.001-.001-.001-.002c0 .001.001.002.001.002Zm-.002-.003c0-.001 0-.002-.001-.003.001.001.001.002.001.003Zm-.001-.004Zm-.003-.006c0-.001-.001-.002-.001-.002s.001.001.001.002Zm-.002-.004c0-.001 0-.001-.001-.002.001.001.001.001.001.002Zm-.002-.004s0-.001-.001-.002c.001.001.001.001.001.002Zm-.001-.004c-.001 0-.001-.001-.001-.002 0 .001 0 .002.001.002Zm-.002-.003c-.001-.003-.003-.006-.004-.009.001.003.003.006.004.009Zm-.005-.01c0-.001 0-.002-.001-.002.001 0 .001.001.001.002Zm-.001-.004-.002-.002.002.002Zm-.002-.004c-.001 0-.001-.001-.001-.002 0 .001 0 .002.001.002Zm-.002-.003c0-.001-.001-.002-.001-.003 0 .001.001.002.001.003Zm-.001-.003-.003-.006.003.006Zm-.004-.007c0-.001 0-.002-.001-.002.001 0 .001.001.001.002Zm-.002-.004c0-.001 0-.001-.001-.002.001.001.001.001.001.002Zm-.001-.004c-.001-.001-.001-.001-.001-.002 0 .001 0 .001.001.002Zm-.002-.004c-.001 0-.001-.001-.001-.002 0 .001 0 .002.001.002Zm-.002-.004c-.001-.001-.001-.002-.002-.003.001.001.001.002.002.003Zm-.003-.005c0-.001-.001-.001-.001-.002 0 .001.001.001.001.002Zm-.002-.004c0-.001 0-.001-.001-.002.001.001.001.001.001.002Zm-.002-.004c0-.001 0-.001-.001-.002.001.001.001.001.001.002Zm-.002-.004s0-.001-.001-.002c.001.001.001.002.001.002Zm-.002-.004s0-.001-.001-.001c.001 0 .001.001.001.001Zm-.002-.005-.001-.001.001.001Zm-.002-.004c-.001-.001-.001-.001-.001-.002 0 .001 0 .001.001.002Zm-.002-.004c-.001 0-.001-.001-.001-.001s0 .001.001.001Zm-.002-.004c-.001 0-.001-.001-.001-.001s0 .001.001.001Zm-.003-.004v-.001.001Zm-.004-.009v-.001.001Zm-.002-.004v-.001.001Zm-.002-.004-.001-.001.001.001Zm-.002-.004-.001-.001c0 .001.001.001.001.001Zm-.007-.013Zm-.002-.004Z"
    />
    <path
      fill="#e28a7a"
      d="M262.328 47.078c-.138-.03-.277-.053-.416-.071l.05-.199c.015-.033.025-.069.031-.107.285-.518.533-1.025.744-1.52.167-.321.317-.637.45-.947l1.129.101c.372-.627.633-1.228.78-1.794l-1.302-.224c.195-.997.166-1.907-.096-2.702l1.159.406c.016.028.032.057.048.086.001.002.001.003.002.004l.006.012.001.001c0 .001.001.002.001.003l.001.001c0 .001.001.002.002.003v.001c0 .001.001.002.002.003v.001c.001.003.003.005.004.008v.001c.001.001.001.002.002.003 0 0 0 .001.001.001 0 .001.001.002.001.003 0 0 0 .001.001.001 0 .001 0 .002.001.002 0 .001 0 .001.001.002 0 .001.001.002.001.003l.001.001c0 .001.001.002.001.004.001 0 .001.001.001.001.001.001.001.002.001.002.001.001.001.002.001.002.001.001.001.002.001.002.001.001.001.001.001.002.001.001.001.001.001.002.001.001.001.001.001.002s.001.001.001.002.001.001.001.002c0 0 .001.001.001.002.001.001.001.002.002.003 0 .001 0 .002.001.002 0 .001 0 .002.001.002 0 .001 0 .001.001.002 0 .001 0 .001.001.002v.002c.001.001.001.001.001.002.001.001.001.001.001.002.001 0 .001.001.001.002.001 0 .001.001.001.001l.003.006c0 .001.001.002.001.003l.001.001c0 .001 0 .002.001.002v.002l.002.002v.002c.001 0 .001.001.001.002.001 0 .001.001.001.001.001.003.003.006.004.009 0 .001 0 .001.001.001 0 .001 0 .002.001.002v.002c.001.001.001.002.001.002.001.001.001.001.001.002.001.001.001.001.001.002s.001.001.001.002c0 0 .001.001.001.002 0 0 0 .001.001.001 0 .002.001.004.002.005v.001c.001.001.001.002.001.003.001 0 .001.001.001.001 0 .001.001.002.001.002 0 .001.001.002.001.002 0 .001.001.001.001.002s0 .002.001.002c0 .001 0 .002.001.002 0 .001 0 .002.001.002v.002c.001.001.001.003.002.004 0 0 0 .001.001.001 0 .001 0 .002.001.003 0 0 0 .001.001.001 0 .001 0 .002.001.003v.001c.001.001.001.002.001.003.001 0 .001.001.001.001 0 .001.001.002.001.003l.001.001c0 .002.001.003.001.004.162.37.241.772.241 1.202-.001 1.474-.94 3.271-2.741 5.2-.011.038-.029.074-.053.107l-.116.27Zm2.528-7.058c0-.001-.001-.002-.001-.002s.001.001.001.002Zm-.003-.006v-.001.001Zm-.002-.003c0-.001-.001-.001-.001-.002.001.001.001.001.001.002Zm-.002-.004c0-.001-.001-.001-.001-.001s.001 0 .001.001Zm-.008-.013Z"
    />
    <path
      fill="#e29b8d"
      d="M261.912 47.007c-.088-.012-.176-.021-.264-.027.42-.613.783-1.214 1.089-1.799-.211.495-.459 1.002-.744 1.52-.006.038-.016.074-.031.107l-.05.199Z"
    />
    <path
      fill="#023b4e"
      d="M261.272 47.921h-.01c-.063 0-.125-.002-.184-.005l.048-.143c.025-.042.043-.087.053-.136.164-.22.32-.44.469-.657.088.006.176.015.264.027.139.018.278.041.416.071l-.205.478c-.009.035-.024.069-.044.102l-.008.02h-.004c-.045.067-.111.117-.193.154-.049.022-.104.039-.164.052-.054.012-.112.02-.174.026-.083.008-.172.011-.264.011Z"
    />
    <path
      fill="#bd3f27"
      d="m264.857 40.021-1.159-.406c-.006-.017-.012-.035-.018-.052-.112-.325-.263-.623-.448-.893.704.29 1.264.744 1.609 1.324.003.004.005.008.007.012 0 0 .001 0 .001.001s.001.002.001.002c0 .001.001.001.001.002l.002.002v.001c.001.002.001.003.002.004 0 0 .001.001.001.002 0 0 .001 0 .001.001Zm-.541 4.314-1.129-.101c.284-.667.487-1.308.607-1.917l1.302.224c-.147.566-.408 1.167-.78 1.794Z"
    />
    <path
      fill="#013645"
      d="m356.652 72.567-.979.14-2.105-9.819.981-.14 2.103 9.819Zm1.796 0-.979.14-2.105-9.819.979-.14 2.105 9.819Zm3.085-9.679-.979-.14-2.106 9.819.979.14 2.106-9.819Zm1.923 0-.979-.14-2.106 9.819.98.14 2.105-9.819Z"
    />
    <path
      fill="#3abb9c"
      d="M380.802 19.503c-3.202-7.37-11.708-11.93-22.237-11.93h-.234c-10.518 0-19.034 4.56-22.236 11.93-4.283 9.84 1.049 23.467 15.004 38.407.063.234.17.446.318.647l1.925 4.487c.057.213.146.418.263.614l.051.117h.022c.789 1.176 2.628 1.46 4.77 1.46 2.143 0 3.982-.284 4.77-1.46h.023l.049-.117c.119-.196.207-.401.265-.614l1.923-4.487c.15-.201.254-.413.318-.647 13.955-14.94 19.289-28.567 15.006-38.407Z"
    />
    <path
      fill="#73c9b9"
      d="M371.617 19.503c-1.886-7.37-6.896-11.93-13.101-11.93h-.137c-6.197 0-11.213 4.56-13.099 11.93-2.525 9.84.618 23.467 8.84 38.407.037.234.098.446.187.647l1.132 4.487c.035.213.087.418.156.614l.029.117h.015c.463 1.176 1.547 1.46 2.809 1.46 1.263 0 2.346-.284 2.81-1.46h.015l.028-.117c.07-.196.121-.401.154-.614l1.135-4.487c.086-.201.15-.413.187-.647 8.22-14.94 11.362-28.567 8.84-38.407Z"
    />
    <path
      fill="#3abb9c"
      d="M364.4 19.503c-.853-7.37-3.117-11.93-5.921-11.93h-.061c-2.802 0-5.07 4.56-5.922 11.93-1.141 9.84.279 23.467 3.994 38.407.019.234.045.446.087.647l.511 4.487c.016.213.039.418.069.614l.015.117h.006c.209 1.176.7 1.46 1.27 1.46.571 0 1.059-.284 1.271-1.46h.006l.012-.117c.031-.196.056-.401.07-.614l.513-4.487c.039-.201.068-.413.084-.647 3.717-14.94 5.138-28.567 3.996-38.407Z"
    />
    <path
      fill="#85685d"
      d="M361.855 79.573h-6.816c-.687 0-1.266-.518-1.34-1.203l-.521-4.795h10.541l-.521 4.795c-.074.685-.653 1.203-1.343 1.203Z"
    />
    <path
      fill="#fff"
      d="M360.759 73.575c.004.008 1.082 2.464 2.455 0h.505c-1.94 3.65-3.508.015-3.514.005l-.554-.005c-.004.008-1.082 2.464-2.455 0h-.505c-1.939 3.65-3.509.015-3.513.005l.552-.005c.004.008 1.083 2.464 2.457 0h.504c1.94 3.65 3.508.015 3.514.005l.554-.005Z"
    />
    <path
      fill="#febc2c"
      d="M363.779 73.575h-10.661c-.326 0-.591-.264-.591-.59 0-.326.265-.59.591-.59h10.661c.326 0 .589.264.589.59 0 .326-.263.59-.589.59Z"
    />
    <path
      fill="#039e7a"
      d="m377.809 41.777-.016-.008c1.03-1.905 1.884-3.767 2.559-5.577l.012.009c-.527 1.419-1.165 2.868-1.91 4.346-.126.25-.257.501-.388.753-.021.037-.041.075-.06.112-.064.121-.131.243-.197.365Zm-38.721 0c-.046-.084-.093-.168-.136-.252-.051-.095-.102-.191-.152-.287-.113-.215-.226-.431-.334-.646-.05-.097-.097-.194-.146-.292-.031-.064-.064-.127-.094-.191-.651-1.326-1.22-2.63-1.694-3.908 1.495-1.146 3.719-2.458 6.071-2.458.846 0 1.706.169 2.558.578.316 1.747.737 3.546 1.258 5.389-.819.871-1.258 1.771-1.258 1.771-.852-.408-1.712-.578-2.558-.578-1.235 0-2.438.363-3.515.874Zm31.938-1.414c-.158-.21-.341-.432-.55-.653.523-1.843.942-3.642 1.26-5.389.441-.213.887-.36 1.332-.453-.523 2.108-1.203 4.275-2.042 6.495Z"
    />
    <path
      fill="#1db596"
      d="M346.419 39.71c-.521-1.843-.942-3.642-1.26-5.389h.002s1.646-3.372 4.511-3.372c.735 0 1.552.222 2.44.78 0 0 .048-.063.138-.171.117 2.103.306 4.294.566 6.555-.457.449-.704.776-.704.776-.888-.558-1.705-.781-2.44-.781-1.385 0-2.485.788-3.253 1.602Zm24.057 0c-.766-.814-1.866-1.602-3.251-1.602-.735 0-1.552.223-2.441.781 0 0-.246-.327-.704-.776.259-2.261.45-4.452.565-6.555.092.108.139.171.139.171.889-.558 1.704-.78 2.441-.78 2.865 0 4.511 3.372 4.511 3.372-.318 1.747-.737 3.546-1.26 5.389Z"
    />
    <path
      fill="#039e7a"
      d="M364.08 38.113c-.997-.973-2.992-2.517-5.632-2.517-2.639 0-4.636 1.544-5.632 2.517-.26-2.261-.449-4.452-.566-6.555.575-.677 2.875-3.122 6.198-3.122 3.321 0 5.624 2.445 6.197 3.122-.115 2.103-.306 4.294-.565 6.555Z"
    />
    <path
      fill="#febb28"
      d="m352.112 60.176 1.23 2.868c.057.213.146.418.263.614l.051.117h.022c.789 1.176 2.628 1.46 4.77 1.46 2.143 0 3.982-.284 4.77-1.46h.023l.049-.117c.119-.196.207-.401.265-.614l1.229-2.868c-4.176-.899-8.497-.899-12.672 0Z"
    />
    <path
      fill="#eacaad"
      d="M382.244 26.697c-.002-2.571-.478-4.979-1.442-7.194-1.893-4.354-5.634-7.726-10.55-9.758-.014-.02-.027-.041-.041-.061 4.936 2.03 8.694 5.409 10.591 9.775.97 2.228 1.446 4.65 1.442 7.238Z"
    />
    <path
      fill="#1bb693"
      d="M364.768 60.172c-.821-.176-1.648-.318-2.48-.424l.302-1.191c.086-.201.15-.413.187-.647 1.753-3.185 3.276-6.312 4.56-9.354 1.454-2.798 2.683-5.533 3.689-8.193.466.616.71 1.118.71 1.118.85-.408 1.712-.578 2.557-.578 1.23 0 2.424.359 3.5.866-2.757 5.095-6.771 10.503-11.997 16.097-.064.234-.168.446-.318.647l-.71 1.659Zm15.584-23.98c-1.496-1.144-3.715-2.449-6.059-2.449-.406 0-.815.039-1.225.125 1.736-7.018 1.708-13.382-.17-18.826-.663-1.925-1.558-3.696-2.646-5.297 4.916 2.032 8.657 5.404 10.55 9.758.964 2.215 1.44 4.623 1.442 7.194-.006 2.962-.642 6.142-1.892 9.495Z"
    />
    <path
      fill="#60c4af"
      d="M362.288 59.748c-.535-.069-1.073-.124-1.613-.164 2.578-3.761 4.803-7.446 6.662-11.028-1.284 3.042-2.807 6.169-4.56 9.354-.037.234-.101.446-.187.647l-.302 1.191Z"
    />
    <path
      fill="#008d6d"
      d="M377.793 41.769c-1.076-.507-2.27-.866-3.5-.866-.845 0-1.707.17-2.557.578 0 0-.244-.502-.71-1.118.839-2.22 1.519-4.387 2.042-6.495.41-.086.819-.125 1.225-.125 2.344 0 4.563 1.305 6.059 2.449-.675 1.81-1.529 3.672-2.559 5.577Z"
    />
    <path
      fill="#e1a827"
      d="M358.448 65.191c-.4 0-.79-.01-1.163-.034l.289-.855c.15-.254.255-.522.318-.816.971-1.309 1.899-2.61 2.783-3.902.54.04 1.078.095 1.613.164.832.106 1.659.248 2.48.424L363.555 63c-.058.212-.146.418-.265.614l-.049.116h-.023c-.788 1.177-2.627 1.461-4.77 1.461Z"
    />
  </g>
</svg>
