<svg
  width="100%"
  height="100%"
  viewBox="0 0 480 96"
  version="1.1"
  xmlns="http://www.w3.org/2000/svg"
  xml:space="preserve"
  fill-rule="evenodd"
  clip-rule="evenodd"
  stroke-linejoin="round"
  stroke-miterlimit="2"
>
  <path
    d="m321.121 88.061 2.44-3.602 1.946-.034 8.069-7.942 5.821-8.59L352.3 82.34l2.307-.879 4.516-1.547 3.042-1.522 5.33 4.518 2.339-.041 4.655 4.25 5.777 5.626 1.56-.027 4.194 3.605h-71.191l4.067-4.32 2.225-3.942Z"
    fill="#799bb1"
  />
  <path
    d="m321.121 88.061 2.44-3.602 1.946-.034 8.069-7.942 5.821-8.59.081-.047-3.23 9.835-1.162 10.86-1.304-4.461-1.784 5.601-1.967 1.681 2.264 4.961h-17.466l4.067-4.32 2.225-3.942Z"
    fill="#5a7f95"
  />
  <path
    d="M384.671 91.04c-.312.704-.746 1.684-.746 1.684l-2.052 2.257 2.759-1.765 1.518-1.952-1.479-.224Z"
    fill="#adcce0"
  />
  <path
    d="m362.332 78.59-.167-.198-3.042 1.522-6.823 2.426 4.91 13.983h8.407l-2.856-3.314 2.856 1.083-3.591-6.41 1.388-2.007-1.082-7.085Z"
    fill="#5a7f95"
  />
  <path
    d="M339.397 67.893c2.461 4.72.454 5.558 2.187 7.927l1.156 2.219-.142 2.182-.035.536 1.888 3.342 1.319 2.531-.629-.056.975 1.872 2.438 1.689-2.408 6.188h13.63l-2.563-4.652-2.236-2.737-2.678-6.594-12.902-14.447Z"
    fill="#adcce0"
  />
  <path
    d="m325.507 84.425-1.86 5.056-.115 1.759-.778 3.934.275-4.209-.401-1.408 1.05-1.999.484-3.11 1.345-.023Z"
    fill="#799bb1"
  />
  <path
    d="m369.834 82.867-.585 1.405.765 1.334 2.014 3.949-2.63-2.855-1.2-1.563s.415-.921.062-.953c-.353-.031-.765-1.274-.765-1.274l2.339-.043Z"
    fill="#adcce0"
  />
  <path
    d="m376.448 95.61 6.743-4.796 2.959.45 3.988-4.488 1.949.295 5.146-4.492 6.01 3.822 4.133-5.919 1.107.168 7.343-9.981 1.804.275 9.222-9.878 13.607 20.072.942-2.129 7.342 12.3 1.614-1.209 3.287 6.223h-69.749l-7.447-.713Z"
    fill="#799bb1"
  />
  <path
    d="m397.27 82.603-5.183 4.468-1.949-.295-4.095 4.627-1.411 1.813-.968.62-3.824 2.487h9.84l.732-2.284 1.762-1.03.015-1.647.417.916v-2.926l1.003 1.688 1.809-5.524 1.852-2.913Z"
    fill="#5a7f95"
  />
  <path
    d="M426.852 61.066c-.033 1.814 3.239 9.041 3.239 9.041l-1.154-.174 1.644 3.159 1.963 5.571-.794-.12 2.289 3.53-4.64.479-1.156.86 4.591 5.3-1.827.996 1.839 2.37 2.199 2.516-2.122 1.315.647.414h20.074l-3.287-6.223-1.614 1.209-7.342-12.3-.942 2.129-13.607-20.072Z"
    fill="#adcce0"
  />
  <path
    d="M417.922 96.323h-19.065l4.386-9.922 4.133-5.919 1.107.168 7.343-9.981 1.804.275 9.222-9.822-3.9 6.771h1.02l-4.189 8.325 1.064 1.064-.854 1.235-1.283 5.015-.921-4.809-.78 4.389.899 9.197-1.932.351 1.946 3.663Z"
    fill="#5a7f95"
  />
  <path
    d="M403.243 86.401c-1.831 2.379-4.232 5.105-4.232 5.105l-.026 1.451-2.387 2.002-2.989 1.364h5.248l.485-1.037 1.232-2.848 1.297-1.646 1.372-4.391Z"
    fill="#adcce0"
  />
  <path
    d="m405.98 96.323 3.416-2.783 2.275-5.858-.904 6.065-.046 2.576h-4.741Z"
    fill="#799bb1"
  />
  <path
    d="M421.808 96.323c.679-.384 1.228-.713 1.228-.713l1.059.713h-2.287Z"
    fill="#adcce0"
  />
  <path
    d="M417.63 70.944c-.35.79-.952 3.898-.952 3.898l-2.634 3.651 2.63-1.404 1.502-3.046.534-4.256-1.08 1.157ZM408.483 80.65l-1.043 4.039-.675 2.248-2.855 3.855 4.456-3.612.117-6.53ZM390.138 86.776l-.726 3.437-1.363 1.339-1.966 3.483 3.964-3.179 1.442-.436-.46-2.584.798-1.804-1.689-.256Z"
    fill="#799bb1"
  />
  <path
    d="M397.233 83.7v-1.121l4.867 3.096-2.795-1.043.93.929-3.002-1.861ZM383.191 90.814l2.974.45-.875 1.108-.611-.774-1.488-.784ZM377.392 91.267l-2.903-4.148 5.385 5.244 2.673.965.607.494-2.374 1.257-.776-1.684-2.612-2.128Z"
    fill="#adcce0"
  />
  <g>
    <path
      d="M128.227 103.801h76l-14.038-19.932-4.943 1.616-7.458-13.51-3.623-.887-4.658-4.14-12.697 11.45-4.14-2.071-6.496 9.158-3.106-1.985-14.841 20.301Z"
      fill="#6b787f"
    />
    <path
      d="M178.834 103.801h7.13l-6-6.232-.19-3.95-8.64-9.971-2.588-5.028 1.405 5.471 7.383 10.563-.655 4.574 2.155 4.573Zm-31.435 0h2.007l-1.458-3.908-.549 3.908Zm-13.721 0h5.144l.993-4.204-2.06 1.099 2.799-7.077-6.876 10.182Z"
      fill="#40484d"
    />
    <path
      d="m143.068 83.5 3.106 6.348 5.239 3.771 6.95 7.605-5.176-8.788h2.293l-6.581-2.884-2.725-4.067-3.106-1.985ZM152.67 76.327l2.218 2.736 3.18 1.627 2.355 10.489 6.063 10.637-4.067-9.75 12.116 9.306-12.929-13.89-2.514-7.679-2.282-1.405-4.14-2.071ZM169.507 66.948l2.366 5.471 2.884 1.997 4.13 7.605-3.021-9.306 1.922-.74-3.623-.887-4.658-4.14ZM182.573 80.658l2.525 12.221 9.454 9.011-7.796-10.859-.253-3.401 3.686-3.761-4.943 1.616-2.673-4.827Z"
      fill="#92a2ab"
    />
  </g>
  <g>
    <path
      d="m225.718 96.005 10.539-6.81 7.521-9.567 4.796-3.549 4.329-5.507 6.036 4.727 3.781-4.886 1.951-.031 6.585-10.138 3.415-.056 3.841-4.886 11.768-17.42 11.463 16.816 3.17-.051 5.61 9.865 11.585 9.201 7.804-1.857 8.171 8.446 5.122 1.448 4.755 8.807 11.382 5.448h-80.12l-13.831-.057-2.605.057h-37.068Z"
      fill="#73817c"
    />
    <path
      d="m329.912 71.856-7.804 1.857 5.909 5.312 4.176 1.518 3.11.998 2.78-1.239-8.171-8.446ZM347.329 89.387l-6.362-8.27 2.238.633 4.124 7.637ZM304.913 54.647l-3.17.051 4.079 4.122 4.06 4.564-4.969-8.737Z"
      fill="#838f8a"
    />
    <path
      d="m290.329 37.882-2.317 12.134-2.195 2.335-2.073 5.854v7.045l-4.471 6.143-2.973 4.086 2.195 5.984-7.859 6.779-3.177 7.673-5.575.09h-36.492l10.865-6.81 7.521-9.567 4.796-3.549 4.329-5.507 6.036 4.727 3.781-4.886 1.951-.031 6.585-10.138 3.415-.056 3.841-4.886 11.817-17.42Z"
      fill="#525b58"
    />
    <path
      d="m292.743 58.162-3.855-2.732-1.852-1.91-3.292 5.058 2.195-6.229 2.073-2.333 2.317-12.134 11.414 16.816-.883 7.458-2.256-4.9-2.894-.699-2.967-2.588v4.193ZM304.64 55.838l-1.768-1.158 2.041-.033 3.345 5.882-3.618-4.691ZM329.549 75.431l-4.854-2.333 3.377-.804 1.84-.438 6.8 7.029-4.298-2.597-.548 2.675-2.317-3.532Z"
      fill="#f8f8f8"
    />
    <path
      d="m288.012 50.016 2.317-12.189-11.817 17.475-3.841 4.887-3.415.055-6.173 9.503 7.456-5.818.854 1.744 3.52-3.13 3.187-4.528 1.818 1.987 1.826-1.424 2.134-6.16 2.134-2.402Z"
      fill="#bdbdbe"
    />
    <path
      d="m282.093 67.518 1.651-2.268 7.967 13.086-9.618-10.818ZM280.299 75.433l-2.513-1.997 2.032-2.791 5.908 5.174-5.427-2.547v2.161ZM282.093 90.351l-7.527-5.498 3.929-3.39 3.598 8.888Z"
      fill="#838f8a"
    />
    <path
      d="m281.921 96.005 5.678-3.127.902-3.365 4.242-3.807 1.124-6.131 1.303-2.991-6.903-17.268 8.726 14.371 1.408 2.685 3.976 4.555-1.905-10.482 4.846 9.24 2.313.139-.614-3.432 5.126 6.839 2.661 3.548 3.767 1.061-.702-2.703-7.539-10.232 16.734 14.703 6.801 3.675.929-2.517 3.855 3.702 8.289 1.537h-65.017Z"
      fill="#62726e"
    />
    <path
      d="m291.845 41.387-2.675 2.535 1.208-6.096 4.698 7.093-3.231-3.532Z"
      fill="#fff"
    />
    <path
      d="m289.239 43.856 1.139-6.084-7.491 11.053 4.388-3.781 1.964-1.188Z"
      fill="#e1e1e0"
    />
    <path
      d="m252.903 70.572 6.036 4.727-8.954 8.376-13.728 5.521 7.521-9.568 4.796-3.549 4.329-5.507Z"
      fill="#62726e"
    />
    <path
      d="m254.055 71.473-1.152-.901-4.329 5.507-3.398 2.515 5.266-2.206 2.411-2.714 1.933.816-.731-1.887v-1.13Z"
      fill="#bdbdbe"
    />
    <path
      d="m263.613 95.987-1.144.018h-29.787l6.511-2.721 4.024-4.528-1.189 3.794 9.695-6.182 3.063-4.522 9.284-8.313-6.691 8.271-1.266 4.493-3.293 5.854 4.436-4.991.123 3.589 1.466-1.65 8.609-7.457-5.487 9.033 1.006 2.733.64 2.579Z"
      fill="#424846"
    />
    <path
      d="m162.821 96.005 6.036-3.603 6.859-8.408 5.488-3.723 4.756 1.081 7.683-6.726 7.774-4.084 3.576-6.846 6.301-6.485 8.095 10.148 3.612 6.666 8.414 6.366 12.042 3.243 6.616 9.488 8.049 2.883h-95.301Z"
      fill="#73817c"
    />
    <path
      d="m204.993 63.696 6.301-6.485-1.379 2.986-.222 5.181-1.92 5.525-1.052 9.007-7.226 3.124-4.024 3.122-1.627 6.698-3.952 3.151h-27.071l6.036-3.603 6.859-8.408 5.488-3.723 4.756 1.081 7.683-6.726 7.316-5.885 4.034-5.045Z"
      fill="#525b58"
    />
    <path
      d="m181.204 80.271 4.756 1.156-3.31 4.962h-2.423l-11.37 6.013 6.859-8.408 5.488-3.723Z"
      fill="#62726e"
    />
    <path
      d="m243.457 83.634-12.042-3.243 4.406 4.887 14.252 7.844-6.616-9.488Z"
      fill="#838f8a"
    />
    <path
      d="m209.915 60.197 1.379-2.986 8.095 10.148-.903 2.16v6.426l-3.384-5.345-1.783-3.273-2.025-1.651-3.521 5.227 1.92-5.525.222-5.181Z"
      fill="#f8f8f8"
    />
    <path
      d="m209.915 60.197 1.379-2.986-6.301 6.485-4.034 5.045 2.964-.184 2.147 8.051.637-4.027 1.066-1.678 1.92-5.525.222-5.181ZM185.494 81.246l-4.29-.975-3.598 2.441.419 1.852 2.35-2.147 5.119-1.171Z"
      fill="#bdbdbe"
    />
    <path
      d="m237.218 84.677-2.166-3.307 8.405 2.264 4.938 7.081-4.775-4.672-6.402-1.366Z"
      fill="#f8f8f8"
    />
    <path
      d="m203.385 81.352 3.336-1.441 2.026 2.247-5.362-.806ZM196.735 85.176l2.76-2.142 9.058 6.751-7.594-3.376 3.031 2.938-7.255-4.171ZM194.016 92.147l.754-3.104 4.22 3.785-4.974-.681Z"
      fill="#838f8a"
    />
    <path
      d="m196.735 85.176-1.264.98 2.904 1.446-.394-1.71-1.246-.716Z"
      fill="#838f8a"
    />
    <path
      d="m208.398 96.005 3.955-1.392.885-3.399 7.068 1.693-5.223-7.128 2.487.672-2.487-3.431-1.941-6.391 5.884 6.526h1.213l3.791 4.205 3.488 1.984-1.274-2.287 5.216 3.027 5.459 4.912v-2.961l4.913 2.961 2.45 1.009h-35.884Z"
      fill="#62726e"
    />
    <path
      d="M187.607 96.005h-17.062l5.317-1.747 5.109-6.659.613 2.422 9.556-8.056 5.57-4.695-5.056 7.48 2.38-.534-3.925 3.266-4.966 4.131 4.209-1.005-2.875 3.189 1.13 2.208Z"
      fill="#424846"
    />
    <path
      d="m209.915 60.197-.211 4.926 1.59-3.75 6.303 3.74-6.303-7.902-1.379 2.986Z"
      fill="#fff"
    />
    <path
      d="m209.915 60.197 1.379-2.986-6.061 6.239 2.54-1.316.815.905 1.105 2.339.222-5.181Z"
      fill="#e1e1e0"
    />
  </g>
</svg>
