<svg
  xmlns="http://www.w3.org/2000/svg"
  xml:space="preserve"
  fill-rule="evenodd"
  stroke-linejoin="round"
  stroke-miterlimit="2"
  clip-rule="evenodd"
  viewBox="0 0 480 96"
>
  <g fill-rule="nonzero">
    <path
      fill="#49c6e5"
      d="M268.987 92.537V79.672h-9.119V91.36h-1.06V72.708h-15.944v-9.36h-6.918v10.279h-.875V59.955h-6.023v13.672h-.825V44.081h-1.657v-4.582h-2.392v-9.831h-.679v9.861h-2.468v4.508h-1.584v23.044h-1.379V45.276h-5.135v14.863h-3.572v12.569h-1.212V56.772h-1.493v-.98h-1.162v-5.241h-.486v5.241h-3.528v-5.241h-.486v5.241h-1.171v1.016h-1.523v22.651h-.957V62.625h-4.251v1.771h-2.125V39.312h-5.03v-1.411h-1.004V32.45h-.486v5.451h-9.164V32.45h-.486v5.451h-1.168v1.411h-5.516v25.731h-1.771v7.805h-3.004v8.71h-1.068V49.503H151.99v9.843h-3.405v22.326h-3.422V51.014h-1.133V30.866h-1.836v-.685h-1.004v-5.455h-.486v5.455h-3.525v-5.455h-.486v5.455h-1.168v.691h-1.78v20.156h-1.063v27.406h-1.71V49.243h-2.187V27.654h-1.595v-4.88h-1.918v-4.875h-2.245V5.465h-.735v12.463h-2.372v4.846h-2.119v4.88h-1.771v21.43h-2.029v32.474h-.996V54.442h-1.941v-8.227h-1.513v-2.617h-1.707V36.68h-.65v6.941h-1.713v2.594h-1.753v8.227h-2.155v31.583h-1.13V55.54h-6.192v8.145H92.45V34.159h-3.686v-1.87H87.76v-5.452h-.486v5.452h-3.525v-5.452h-.486v5.452h-1.168v1.87h-3.823v29.71h-1.798v2.872h-.82v-6.447h-2.383V46.766H62.497v13.581h-2.412v23.079h-1.083V59.044h-5.2v6.145h-.647v-8.867h-2.33v-3.519h-3.103v-6.998h-.744v7.039H43.67v3.478h-2.319v8.499h-6.198v16.737h-1.019V61.486h-6.598v20.072h-.782V50.943h-1.695v-5.184h-2.266v-9.6h-.636V45.8h-2.52v5.05h-1.78v23.239h-6.441v6.951H7.639v11.497H3.447v3.185H273.18v-3.185h-4.193Z"
    />
    <path
      fill="#fff"
      d="M254.344 75.769h1.296v1.086h-1.296zm-2.099 0h1.296v1.086h-1.296zm-2.099 0h1.296v1.086h-1.296zm-2.098 0h1.296v1.086h-1.296zm-2.099 0h1.296v1.086h-1.296zm-2.098 0h1.296v1.086h-1.296zm10.493 2.217h1.296v1.086h-1.296zm-2.099 0h1.296v1.086h-1.296zm-2.099 0h1.296v1.086h-1.296zm-2.098 0h1.296v1.086h-1.296zm-2.099 0h1.296v1.086h-1.296zm-2.098 0h1.296v1.086h-1.296zm10.493 2.215h1.296v1.086h-1.296zm-2.099 0h1.296v1.086h-1.296zm-2.099 0h1.296v1.086h-1.296zm-2.098 0h1.296v1.086h-1.296zm-2.099 0h1.296v1.086h-1.296zm-2.098 0h1.296v1.086h-1.296zm10.493 2.217h1.296v1.086h-1.296zm-2.099 0h1.296v1.086h-1.296zm-2.099 0h1.296v1.086h-1.296zm-2.098 0h1.296v1.086h-1.296zm-2.099 0h1.296v1.086h-1.296zm-2.098 0h1.296v1.086h-1.296zm10.493 2.216h1.296v1.086h-1.296zm-2.099 0h1.296v1.086h-1.296zm-2.099 0h1.296v1.086h-1.296zm-2.098 0h1.296v1.086h-1.296zm-2.099 0h1.296v1.086h-1.296zm-2.098 0h1.296v1.086h-1.296zm10.493 2.216h1.296v1.086h-1.296zm-2.099 0h1.296v1.086h-1.296zm-2.099 0h1.296v1.086h-1.296zm-2.098 0h1.296v1.086h-1.296zm-2.099 0h1.296v1.086h-1.296zm-2.098 0h1.296v1.086h-1.296zm10.493 2.23h1.296v2.278h-1.296zm-2.099 0h1.296v2.278h-1.296zm-2.099 0h1.296v2.278h-1.296zm-2.098 0h1.296v2.278h-1.296zm-2.099 0h1.296v2.278h-1.296zm-2.098 0h1.296v2.278h-1.296zM89.841 67.944h1.207v.671h-1.207zm-1.686 0h1.207v.671h-1.207zm-1.685 0h1.207v.671H86.47zm-1.686 0h1.207v.671h-1.207zm-1.686 0h1.207v.671h-1.207zm-1.685 0h1.207v.671h-1.207zm-1.686 0h1.207v.671h-1.207zm10.114 1.78h1.207v.671h-1.207zm-1.686 0h1.207v.671h-1.207zm-1.685 0h1.207v.671H86.47zm-1.686 0h1.207v.671h-1.207zm-1.686 0h1.207v.671h-1.207zm-1.685 0h1.207v.671h-1.207zm-1.686 0h1.207v.671h-1.207zm10.114-32.963h1.207v1.587h-1.207zm-1.686 0h1.207v1.587h-1.207zm-1.685 0h1.207v1.587H86.47zm-1.686 0h1.207v1.587h-1.207zm-1.686 0h1.207v1.587h-1.207zm-1.685 0h1.207v1.587h-1.207zm-1.686 0h1.207v1.587h-1.207zm10.114 34.743h1.207v.671h-1.207zm-1.686 0h1.207v.671h-1.207zm-1.685 0h1.207v.671H86.47zm-1.686 0h1.207v.671h-1.207zm-1.686 0h1.207v.671h-1.207zm-1.685 0h1.207v.671h-1.207zm-1.686 0h1.207v.671h-1.207zm10.114 1.78h1.207v.671h-1.207zm-1.686 0h1.207v.671h-1.207zm-1.685 0h1.207v.671H86.47zm-1.686 0h1.207v.671h-1.207zm-1.686 0h1.207v.671h-1.207zm-1.685 0h1.207v.671h-1.207zm-1.686 0h1.207v.671h-1.207zm10.114 1.78h1.207v.671h-1.207zm-1.686 0h1.207v.671h-1.207zm-1.685 0h1.207v.671H86.47zm-1.686 0h1.207v.671h-1.207zm-1.686 0h1.207v.671h-1.207zm-1.685 0h1.207v.671h-1.207zm-1.686 0h1.207v.671h-1.207zm10.114 1.78h1.207v.671h-1.207zm-1.686 0h1.207v.671h-1.207zm-1.685 0h1.207v.671H86.47zm-1.686 0h1.207v.671h-1.207zm-1.686 0h1.207v.671h-1.207zm-1.685 0h1.207v.671h-1.207zm-1.686 0h1.207v.671h-1.207zm10.114 1.78h1.207v.671h-1.207zm-1.686 0h1.207v.671h-1.207zm-1.685 0h1.207v.671H86.47zm-1.686 0h1.207v.671h-1.207zm-1.686 0h1.207v.671h-1.207zm-1.685 0h1.207v.671h-1.207zm-1.686 0h1.207v.671h-1.207zm10.114 1.78h1.207v.672h-1.207zm-1.686 0h1.207v.672h-1.207zm-1.685 0h1.207v.672H86.47zm-1.686 0h1.207v.672h-1.207zm-1.686 0h1.207v.672h-1.207zm-1.685 0h1.207v.672h-1.207zm-1.686 0h1.207v.672h-1.207zm10.114 1.78h1.207v.671h-1.207zm-1.686 0h1.207v.671h-1.207zm-1.685 0h1.207v.671H86.47zm-1.686 0h1.207v.671h-1.207zm-1.686 0h1.207v.671h-1.207zm-1.685 0h1.207v.671h-1.207zm-1.686 0h1.207v.671h-1.207zm10.114 1.78h1.207v.671h-1.207zm-1.686 0h1.207v.671h-1.207zm-1.685 0h1.207v.671H86.47zm-1.686 0h1.207v.671h-1.207zm-1.686 0h1.207v.671h-1.207zm-1.685 0h1.207v.671h-1.207zm-1.686 0h1.207v.671h-1.207zM89.841 50.13h1.207v.672h-1.207zm-1.686 0h1.207v.672h-1.207zm-1.685 0h1.207v.672H86.47zm-1.686 0h1.207v.672h-1.207zm-1.686 0h1.207v.672h-1.207zm-1.685 0h1.207v.672h-1.207zm-1.686 0h1.207v.672h-1.207zm10.114 1.781h1.207v.671h-1.207zm-1.686 0h1.207v.671h-1.207zm-1.685 0h1.207v.671H86.47zm-1.686 0h1.207v.671h-1.207zm-1.686 0h1.207v.671h-1.207zm-1.685 0h1.207v.671h-1.207zm-1.686 0h1.207v.671h-1.207zm10.114 1.779h1.207v.671h-1.207zm-1.686 0h1.207v.671h-1.207zm-1.685 0h1.207v.671H86.47zm-1.686 0h1.207v.671h-1.207zm-1.686 0h1.207v.671h-1.207zm-1.685 0h1.207v.671h-1.207zm-1.686 0h1.207v.671h-1.207zm10.114 1.78h1.207v.672h-1.207zm-1.686 0h1.207v.672h-1.207zm-1.685 0h1.207v.672H86.47zm-1.686 0h1.207v.672h-1.207zm-1.686 0h1.207v.672h-1.207zm-1.685 0h1.207v.672h-1.207zm-1.686 0h1.207v.672h-1.207zm10.114 1.781h1.207v.671h-1.207zm-1.686 0h1.207v.671h-1.207zm-1.685 0h1.207v.671H86.47zm-1.686 0h1.207v.671h-1.207zm-1.686 0h1.207v.671h-1.207zm-1.685 0h1.207v.671h-1.207zm-1.686 0h1.207v.671h-1.207zm10.114-15.873h1.207v.671h-1.207zm-1.686 0h1.207v.671h-1.207zm-1.685 0h1.207v.671H86.47zm-1.686 0h1.207v.671h-1.207zm-1.686 0h1.207v.671h-1.207zm-1.685 0h1.207v.671h-1.207zm-1.686 0h1.207v.671h-1.207zm10.114-1.708h1.207v.671h-1.207zm-1.686 0h1.207v.671h-1.207zm-1.685 0h1.207v.671H86.47zm-1.686 0h1.207v.671h-1.207zm-1.686 0h1.207v.671h-1.207zm-1.685 0h1.207v.671h-1.207zm-1.686 0h1.207v.671h-1.207zm10.114 3.488h1.207v.671h-1.207zm-1.686 0h1.207v.671h-1.207zm-1.685 0h1.207v.671H86.47zm-1.686 0h1.207v.671h-1.207zm-1.686 0h1.207v.671h-1.207zm-1.685 0h1.207v.671h-1.207zm-1.686 0h1.207v.671h-1.207zm10.114 1.78h1.207v.671h-1.207zm-1.686 0h1.207v.671h-1.207zm-1.685 0h1.207v.671H86.47zm-1.686 0h1.207v.671h-1.207zm-1.686 0h1.207v.671h-1.207zm-1.685 0h1.207v.671h-1.207zm-1.686 0h1.207v.671h-1.207zm10.114 1.78h1.207v.671h-1.207zm-1.686 0h1.207v.671h-1.207zm-1.685 0h1.207v.671H86.47zm-1.686 0h1.207v.671h-1.207zm-1.686 0h1.207v.671h-1.207zm-1.685 0h1.207v.671h-1.207zm-1.686 0h1.207v.671h-1.207zm10.114 1.78h1.207v.671h-1.207zm-1.686 0h1.207v.671h-1.207zm-1.685 0h1.207v.671H86.47zm-1.686 0h1.207v.671h-1.207zm-1.686 0h1.207v.671h-1.207zm-1.685 0h1.207v.671h-1.207zm-1.686 0h1.207v.671h-1.207zM89.841 59.03h1.207v.671h-1.207zm-1.686 0h1.207v.671h-1.207zm-1.685 0h1.207v.671H86.47zm-1.686 0h1.207v.671h-1.207zm-1.686 0h1.207v.671h-1.207zm-1.685 0h1.207v.671h-1.207zm-1.686 0h1.207v.671h-1.207zm10.114 1.78h1.207v.672h-1.207zm-1.686 0h1.207v.672h-1.207zm-1.685 0h1.207v.672H86.47zm-1.686 0h1.207v.672h-1.207zm-1.686 0h1.207v.672h-1.207zm-1.685 0h1.207v.672h-1.207zm-1.686 0h1.207v.672h-1.207zm10.114 1.781h1.207v.671h-1.207zm-1.686 0h1.207v.671h-1.207zm-1.685 0h1.207v.671H86.47zm-1.686 0h1.207v.671h-1.207zm-1.686 0h1.207v.671h-1.207zm-1.685 0h1.207v.671h-1.207zm-1.686 0h1.207v.671h-1.207zm10.114 1.78h1.207v.671h-1.207zm-1.686 0h1.207v.671h-1.207zm-1.685 0h1.207v.671H86.47zm-1.686 0h1.207v.671h-1.207zm-1.686 0h1.207v.671h-1.207zm-1.685 0h1.207v.671h-1.207zm-1.686 0h1.207v.671h-1.207zm10.114 1.78h1.207v.671h-1.207zm-1.686 0h1.207v.671h-1.207zm-1.685 0h1.207v.671H86.47zm-1.686 0h1.207v.671h-1.207zm-1.686 0h1.207v.671h-1.207zm-1.685 0h1.207v.671h-1.207zm-1.686 0h1.207v.671h-1.207zm10.114 21.51h1.207v.671h-1.207zm-1.686 0h1.207v.671h-1.207zm-1.685 0h1.207v.671H86.47zm-1.686 0h1.207v.671h-1.207zm-1.686 0h1.207v.671h-1.207zm-1.685 0h1.207v.671h-1.207zm-1.686 0h1.207v.671h-1.207zm10.114 2.308h1.207v1.524h-1.207zm-1.686 0h1.207v1.524h-1.207zm-1.685 0h1.207v1.524H86.47zm-1.686 0h1.207v1.524h-1.207zm-1.686 0h1.207v1.524h-1.207zm-1.685 0h1.207v1.524h-1.207zm-1.686 0h1.207v1.524h-1.207zM222.35 41.03h.492v.949h-.492zm1.274 0h.492v.949h-.492zm1.273 0h.492v.949h-.492zm-2.547 1.953h.492v.949h-.492zm1.274 0h.492v.949h-.492zm1.273 0h.492v.949h-.492zm-3.818 2.061h.489v1.353h-.489zm1.271 0h.492v1.353h-.492zm1.274 0h.492v1.353h-.492zm1.273 0h.492v1.353h-.492zm1.274 0h.489v1.353h-.489zm-5.092 2.108h.489v1.353h-.489zm1.271 0h.492v1.353h-.492zm1.274 0h.492v1.353h-.492zm1.273 0h.492v1.353h-.492zm1.274 0h.489v1.353h-.489zm-5.092 2.108h.489v1.353h-.489zm1.271 0h.492v1.353h-.492zm1.274 0h.492v1.353h-.492zm1.273 0h.492v1.353h-.492zm1.274 0h.489v1.353h-.489zm-5.092 2.105h.489v1.355h-.489zm1.271 0h.492v1.355h-.492zm1.274 0h.492v1.355h-.492zm1.273 0h.492v1.355h-.492zm1.274 0h.489v1.355h-.489zm-5.092 2.108h.489v1.353h-.489zm1.271 0h.492v1.353h-.492zm1.274 0h.492v1.353h-.492zm1.273 0h.492v1.353h-.492zm1.274 0h.489v1.353h-.489zm-5.092 2.108h.489v1.353h-.489zm1.271 0h.492v1.353h-.492zm1.274 0h.492v1.353h-.492zm1.273 0h.492v1.353h-.492zm1.274 0h.489v1.353h-.489zm-5.092 2.108h.489v1.353h-.489zm1.271 0h.492v1.353h-.492zm1.274 0h.492v1.353h-.492zm1.273 0h.492v1.353h-.492zm1.274 0h.489v1.353h-.489zm-5.092 2.108h.489v1.353h-.489zm1.271 0h.492v1.353h-.492zm1.274 0h.492v1.353h-.492zm1.273 0h.492v1.353h-.492zm1.274 0h.489v1.353h-.489zm-5.092 2.108h.489v1.353h-.489zm1.271 0h.492v1.353h-.492zm1.274 0h.492v1.353h-.492zm1.273 0h.492v1.353h-.492zm1.274 0h.489v1.353h-.489zm-5.092 2.108h.489v1.353h-.489zm1.271 0h.492v1.353h-.492zm1.274 0h.492v1.353h-.492zm1.273 0h.492v1.353h-.492zm1.274 0h.489v1.353h-.489zm-25.011-4.506h.407v1.121h-.407zm1.057 0h.407v1.121h-.407zm1.054 0h.407v1.121h-.407zm1.056 0h.407v1.121h-.407zm1.054 0h.407v1.121h-.407zm-4.221 1.748h.407v1.121h-.407zm1.057 0h.407v1.121h-.407zm1.054 0h.407v1.121h-.407zm1.056 0h.407v1.121h-.407zm1.054 0h.407v1.121h-.407zm-4.221 1.747h.407v1.121h-.407zm1.057 0h.407v1.121h-.407zm1.054 0h.407v1.121h-.407zm1.056 0h.407v1.121h-.407zm1.054 0h.407v1.121h-.407zm-4.221 1.745h.407v1.124h-.407zm1.057 0h.407v1.124h-.407zm1.054 0h.407v1.124h-.407zm1.056 0h.407v1.124h-.407zm1.054 0h.407v1.124h-.407zm-4.221 1.748h.407v1.121h-.407zm1.057 0h.407v1.121h-.407zm1.054 0h.407v1.121h-.407zm1.056 0h.407v1.121h-.407zm1.054 0h.407v1.121h-.407zm-4.221 1.748h.407v1.121h-.407zm1.057 0h.407v1.121h-.407zm1.054 0h.407v1.121h-.407zm1.056 0h.407v1.121h-.407zm1.054 0h.407v1.121h-.407zm-4.221 1.748h.407v1.121h-.407zm1.057 0h.407v1.121h-.407zm1.054 0h.407v1.121h-.407zm1.056 0h.407v1.121h-.407zm1.054 0h.407v1.121h-.407zm-4.221 1.745h.407v1.124h-.407zm1.057 0h.407v1.124h-.407zm1.054 0h.407v1.124h-.407zm1.056 0h.407v1.124h-.407zm1.054 0h.407v1.124h-.407zm-4.221 1.747h.407v1.121h-.407zm1.057 0h.407v1.121h-.407zm1.054 0h.407v1.121h-.407zm1.056 0h.407v1.121h-.407zm1.054 0h.407v1.121h-.407zm-4.221 1.748h.407v1.121h-.407zm1.057 0h.407v1.121h-.407zm1.054 0h.407v1.121h-.407zm1.056 0h.407v1.121h-.407zm1.054 0h.407v1.121h-.407zm-4.221 1.748h.407V78.1h-.407zm1.057 0h.407V78.1h-.407zm1.054 0h.407V78.1h-.407zm1.056 0h.407V78.1h-.407zm1.054 0h.407V78.1h-.407zm-4.221 1.748h.407v1.121h-.407zm1.057 0h.407v1.121h-.407zm1.054 0h.407v1.121h-.407zm1.056 0h.407v1.121h-.407zm1.054 0h.407v1.121h-.407zm-4.221 1.745h.407v1.121h-.407zm1.057 0h.407v1.121h-.407zm1.054 0h.407v1.121h-.407zm1.056 0h.407v1.121h-.407zm1.054 0h.407v1.121h-.407zm-4.221 1.748h.407v1.121h-.407zm1.057 0h.407v1.121h-.407zm1.054 0h.407v1.121h-.407zm1.056 0h.407v1.121h-.407zm1.054 0h.407v1.121h-.407zm-4.221 1.747h.407v1.121h-.407zm-49.404-8.736h.407v1.121h-.407zm0 1.748h.407V78.1h-.407zm0 1.748h.407v1.121h-.407zm0 9.084h.407v1.121h-.407zm0 1.748h.407v1.121h-.407zm0-5.592h.407v1.121h-.407zm-1.429-8.736h.404v1.121h-.404zm0 1.748h.404V78.1h-.404zm0 1.748h.404v1.121h-.404zm0 9.084h.404v1.121h-.404zm0 1.748h.404v1.121h-.404zm0-5.592h.404v1.121h-.404zm1.429-19.255h.407v1.121h-.407zm0 1.748h.407v1.121h-.407zm0 1.748h.407v1.121h-.407zm0 5.24h.407v1.121h-.407zm-1.429-8.736h.404v1.121h-.404zm1.429-1.753h.407v1.121h-.407zm-1.429 0h.404v1.121h-.404zm0 3.501h.404v1.121h-.404zm0 1.748h.404v1.121h-.404zm0 5.24h.404v1.121h-.404zm51.89 10.519h.407v1.121h-.407zm1.054 0h.407v1.121h-.407zm1.056 0h.407v1.121h-.407zm1.054 0h.407v1.121h-.407zm-4.221 1.748h.407v1.121h-.407zm1.057 0h.407v1.121h-.407zm-37.293-10.967h.407v1.121h-.407zm1.057 0h.407v1.121h-.407zm-1.057 1.748h.407v1.121h-.407zm1.057 0h.407v1.121h-.407zm-1.057 1.745h.407v1.121h-.407zm1.057 0h.407v1.121h-.407zm-1.057 1.748h.407v1.121h-.407zm1.057 0h.407v1.121h-.407zm-1.057 1.747h.407v1.121h-.407zm1.057 0h.407v1.121h-.407zm-1.057 1.748h.407v1.121h-.407zm1.057 0h.407v1.121h-.407zm-1.057 1.745h.407v1.124h-.407zm1.057 0h.407v1.124h-.407zm-1.057 1.748h.407v1.121h-.407zm1.057 0h.407v1.121h-.407zm-1.057 1.748h.407v1.121h-.407zm1.057 0h.407v1.121h-.407zm42.287-11.746h.407V78.1h-.407zm0 1.745h.407v1.124h-.407zm0 1.748h.407v1.121h-.407zm0 1.748h.407v1.121h-.407zm0 1.747h.407v1.121h-.407zm0 1.745h.407v1.121h-.407zm0 1.748h.407v1.121h-.407zm1.139-10.481h.407V78.1h-.407zm0 1.745h.407v1.124h-.407zm0 1.748h.407v1.121h-.407zm0 1.748h.407v1.121h-.407zm0 1.747h.407v1.121h-.407zm0 1.745h.407v1.121h-.407zm0 1.748h.407v1.121h-.407zm19.27-7.398h.407v1.121h-.407zm0 1.748h.407v1.121h-.407zm0 1.747h.407v1.121h-.407zm0 1.748h.407v1.121h-.407zm0 1.745h.407v1.121h-.407zm0 1.748h.407v1.121h-.407zm0 1.748h.407v1.121h-.407zm6.271-10.484h.407v1.121h-.407zm0 1.748h.407v1.121h-.407zm0 1.747h.407v1.121h-.407zm0 1.748h.407v1.121h-.407zm0 1.745h.407v1.121h-.407zm0 1.748h.407v1.121h-.407zm0 1.748h.407v1.121h-.407zm-70.024-.073h.407v1.121h-.407zm1.057 0h.407v1.121h-.407zm37.29-4.758h.407v1.121h-.407zm1.056 0h.407v1.121h-.407zm1.054 0h.407v1.121h-.407zm-4.221 2.155h.407v2.187h-.407zm1.057 0h.407v2.187h-.407zm1.054 0h.407v2.187h-.407zm1.056 0h.407v2.187h-.407zm1.054 0h.407v2.187h-.407zm15.698-21.776h.489v1.353h-.489zm1.271 0h.492v1.353h-.492zm1.274 0h.492v1.353h-.492zm1.273 0h.492v1.353h-.492zm1.274 0h.489v1.353h-.489zm-5.092 2.108h.489v1.353h-.489zm1.271 0h.492v1.353h-.492zm1.274 0h.492v1.353h-.492zm1.273 0h.492v1.353h-.492zm1.274 0h.489v1.353h-.489zm-5.092 2.108h.489v1.353h-.489zm1.271 0h.492v1.353h-.492zm1.274 0h.492v1.353h-.492zm1.273 0h.492v1.353h-.492zm1.274 0h.489v1.353h-.489zm-5.092 2.108h.489v1.353h-.489zm1.271 0h.492v1.353h-.492zm1.274 0h.492v1.353h-.492zm1.273 0h.492v1.353h-.492zm1.274 0h.489v1.353h-.489zm-5.092 2.105h.489v1.355h-.489zm1.271 0h.492v1.355h-.492zm1.274 0h.492v1.355h-.492zm1.273 0h.492v1.355h-.492zm1.274 0h.489v1.355h-.489zm-5.092 2.108h.489v1.356h-.489zm1.271 0h.492v1.356h-.492zm1.274 0h.492v1.356h-.492zm1.273 0h.492v1.356h-.492zm1.274 0h.489v1.356h-.489zm-5.092 2.108h.489v1.353h-.489zm1.271 0h.492v1.353h-.492zm1.274 0h.492v1.353h-.492zm1.273 0h.492v1.353h-.492zm1.274 0h.489v1.353h-.489zm-5.092 2.107h.489v1.353h-.489zm1.271 0h.492v1.353h-.492zm1.274 0h.492v1.353h-.492zm1.273 0h.492v1.353h-.492zm1.274 0h.489v1.353h-.489zm-5.092 2.108h.489v1.353h-.489zm1.271 0h.492v1.353h-.492zm1.274 0h.492v1.353h-.492zm1.273 0h.492v1.353h-.492zm1.274 0h.489v1.353h-.489zm-5.092 2.108h.489v1.353h-.489zm1.271 0h.492v1.353h-.492zm1.274 0h.492v1.353h-.492zm1.273 0h.492v1.353h-.492zm1.274 0h.489v1.353h-.489zm-5.092 2.105h.489v1.355h-.489zm1.271 0h.492v1.355h-.492zm1.274 0h.492v1.355h-.492zm1.273 0h.492v1.355h-.492zm1.274 0h.489v1.355h-.489zm-5.092 2.108h.489v2.298h-.489zm1.271 0h.492v2.298h-.492zm1.274 0h.492v2.298h-.492zm1.273 0h.492v2.298h-.492zm1.274 0h.489v2.298h-.489zM21.007 49.614h.433v1.197h-.433zm1.127 0h.436v1.197h-.436zm1.127 0h.436v1.197h-.436zm-2.254-1.911h.433V48.9h-.433zm1.127 0h.436V48.9h-.436zm1.127 0h.436V48.9h-.436zm-3.381 4.69h.433v1.197h-.433zm1.127 0h.433v1.197h-.433zm1.127 0h.436v1.197h-.436zm1.127 0h.436v1.197h-.436zm1.127 0h.436v1.197h-.436zm-4.508 1.865h.433v1.197h-.433zm1.127 0h.433v1.197h-.433zm1.127 0h.436v1.197h-.436zm1.127 0h.436v1.197h-.436zm1.127 0h.436v1.197h-.436zm-4.508 1.867h.433v1.197h-.433zm1.127 0h.433v1.197h-.433zm1.127 0h.436v1.197h-.436zm1.127 0h.436v1.197h-.436zm1.127 0h.436v1.197h-.436zM19.88 57.99h.433v1.197h-.433zm1.127 0h.433v1.197h-.433zm1.127 0h.436v1.197h-.436zm1.127 0h.436v1.197h-.436zm1.127 0h.436v1.197h-.436zm-4.508 1.868h.433v1.197h-.433zm1.127 0h.433v1.197h-.433zm1.127 0h.436v1.197h-.436zm1.127 0h.436v1.197h-.436zm1.127 0h.436v1.197h-.436zm-4.508 1.865h.433v1.197h-.433zm1.127 0h.433v1.197h-.433zm1.127 0h.436v1.197h-.436zm1.127 0h.436v1.197h-.436zm1.127 0h.436v1.197h-.436zm-4.508 1.865h.433v1.2h-.433zm1.127 0h.433v1.2h-.433zm1.127 0h.436v1.2h-.436zm1.127 0h.436v1.2h-.436zm1.127 0h.436v1.2h-.436zm-4.508 1.868h.433v1.197h-.433zm1.127 0h.433v1.197h-.433zm1.127 0h.436v1.197h-.436zm1.127 0h.436v1.197h-.436zm1.127 0h.436v1.197h-.436zm-4.508 1.865h.433v1.2h-.433zm1.127 0h.433v1.2h-.433zm1.127 0h.436v1.2h-.436zm1.127 0h.436v1.2h-.436zm1.127 0h.436v1.2h-.436zm-4.508 1.847h.433v1.197h-.433zm1.127 0h.433v1.197h-.433zm1.127 0h.436v1.197h-.436zm1.127 0h.436v1.197h-.436zm1.127 0h.436v1.197h-.436zm-4.508 1.865h.433v1.197h-.433zm1.127 0h.433v1.197h-.433zm1.127 0h.436v1.197h-.436zm1.127 0h.436v1.197h-.436zm1.127 0h.436v1.197h-.436zm-4.508 1.865h.433v1.2h-.433zm1.127 0h.433v1.2h-.433zm1.127 0h.436v1.2h-.436zm1.127 0h.436v1.2h-.436zm1.127 0h.436v1.2h-.436zm-4.508 1.868h.433v1.197h-.433zm1.127 0h.433v1.197h-.433zm1.127 0h.436v1.197h-.436zm1.127 0h.436v1.197h-.436zm1.127 0h.436v1.197h-.436zm-4.508 1.865h.433v1.2h-.433zm1.127 0h.433v1.2h-.433zm1.127 0h.436v1.2h-.436zm1.127 0h.436v1.2h-.436zm1.127 0h.436v1.2h-.436zm-4.508 1.868h.433v1.197h-.433zm1.127 0h.433v1.197h-.433zm1.127 0h.436v1.197h-.436zm1.127 0h.436v1.197h-.436zm1.127 0h.436v1.197h-.436zm-4.508 1.864h.433v1.2h-.433zm1.127 0h.433v1.2h-.433zm1.127 0h.436v1.2h-.436zm1.127 0h.436v1.2h-.436zm1.127 0h.436v1.2h-.436zm-4.508 1.868h.433v1.197h-.433zm1.127 0h.433v1.197h-.433zm1.127 0h.436v1.197h-.436zm1.127 0h.436v1.197h-.436zm1.127 0h.436v1.197h-.436zm-4.508 1.865h.433v1.2h-.433zm1.127 0h.433v1.2h-.433zm1.127 0h.436v1.2h-.436zm1.127 0h.436v1.2h-.436zm1.127 0h.436v1.2h-.436zm-4.508 1.868h.433v1.197h-.433zm1.127 0h.433v1.197h-.433zm1.127 0h.436v1.197h-.436zm1.127 0h.436v1.197h-.436zm1.127 0h.436v1.197h-.436zm-4.508 1.865h.433v1.197h-.433zm1.127 0h.433v1.197h-.433zm1.127 0h.436v1.197h-.436zm1.127 0h.436v1.197h-.436zm1.127 0h.436v1.197h-.436zm-4.508 1.868h.433v2.205h-.433zm1.127 0h.433v2.205h-.433zm1.127 0h.436v2.205h-.436zm1.127 0h.436v2.205h-.436zm1.127 0h.436v2.205h-.436zm95.389-33.985h.491v1.353h-.491zm1.273 0h.491v1.353h-.491zm1.273 0h.49v1.353h-.49zm1.273 0h.49v1.353h-.49zm1.273 0h.49v1.353h-.49zm-5.092 2.108h.491v1.353h-.491zm1.273 0h.491v1.353h-.491zm1.273 0h.49v1.353h-.49zm1.273 0h.49v1.353h-.49zm1.273 0h.49v1.353h-.49zm-5.092 2.107h.491v1.353h-.491zm1.273 0h.491v1.353h-.491zm1.273 0h.49v1.353h-.49zm1.273 0h.49v1.353h-.49zm1.273 0h.49v1.353h-.49zm-5.092 2.107h.491v1.353h-.491zm1.273 0h.491v1.353h-.491zm1.273 0h.49v1.353h-.49zm1.273 0h.49v1.353h-.49zm1.273 0h.49v1.353h-.49zm-5.092 2.108h.491v1.353h-.491zm1.273 0h.491v1.353h-.491zm1.273 0h.49v1.353h-.49zm1.273 0h.49v1.353h-.49zm1.273 0h.49v1.353h-.49zm-5.092 2.107h.491v1.353h-.491zm1.273 0h.491v1.353h-.491zm1.273 0h.49v1.353h-.49zm1.273 0h.49v1.353h-.49zm1.273 0h.49v1.353h-.49zm-5.092 2.107h.491v1.353h-.491zm1.273 0h.491v1.353h-.491zm1.273 0h.49v1.353h-.49zm1.273 0h.49v1.353h-.49zm1.273 0h.49v1.353h-.49zm-5.092 2.108h.491v1.353h-.491zm1.273 0h.491v1.353h-.491zm1.273 0h.49v1.353h-.49zm1.273 0h.49v1.353h-.49zm1.273 0h.49v1.353h-.49zm-5.092 2.107h.491v1.353h-.491zm1.273 0h.491v1.353h-.491zm1.273 0h.49v1.353h-.49zm1.273 0h.49v1.353h-.49zm1.273 0h.49v1.353h-.49zm-5.092 2.108h.491v1.353h-.491zm1.273 0h.491v1.353h-.491zm1.273 0h.49v1.353h-.49zm1.273 0h.49v1.353h-.49zm1.273 0h.49v1.353h-.49zm-5.092 2.107h.491v1.353h-.491zm1.273 0h.491v1.353h-.491zm1.273 0h.49v1.353h-.49zm1.273 0h.49v1.353h-.49zm1.273 0h.49v1.353h-.49zm-80.426-18.2h.491v1.353h-.491zm1.274 0h.49v1.353h-.49zm1.272 0h.49v1.353h-.49zm1.273 0h.49v1.353h-.49zm1.273 0h.491v1.353h-.491zm-5.092-3.674h.491v1.353h-.491zm1.274 0h.49v1.353h-.49zm1.272 0h.49v1.353h-.49zm1.273 0h.49v1.353h-.49zm1.273 0h.491v1.353h-.491zm-5.092 5.782h.491v1.353h-.491zm1.274 0h.49v1.353h-.49zm1.272 0h.49v1.353h-.49zm1.273 0h.49v1.353h-.49zm1.273 0h.491v1.353h-.491zm-5.092 2.107h.491v1.353h-.491zm1.274 0h.49v1.353h-.49zm1.272 0h.49v1.353h-.49zm1.273 0h.49v1.353h-.49zm1.273 0h.491v1.353h-.491zm-5.092 2.107h.491v1.353h-.491zm1.274 0h.49v1.353h-.49zm1.272 0h.49v1.353h-.49zm1.273 0h.49v1.353h-.49zm1.273 0h.491v1.353h-.491zm-5.092 2.108h.491v1.353h-.491zm1.274 0h.49v1.353h-.49zm1.272 0h.49v1.353h-.49zm1.273 0h.49v1.353h-.49zm1.273 0h.491v1.353h-.491zm-5.092 2.107h.491v1.353h-.491zm1.274 0h.49v1.353h-.49zm1.272 0h.49v1.353h-.49zm1.273 0h.49v1.353h-.49zm1.273 0h.491v1.353h-.491zm-5.092 2.107h.491v1.353h-.491zm1.274 0h.49v1.353h-.49zm1.272 0h.49v1.353h-.49zm1.273 0h.49v1.353h-.49zm1.273 0h.491v1.353h-.491zm-5.092 2.108h.491v1.353h-.491zm1.274 0h.49v1.353h-.49zm1.272 0h.49v1.353h-.49zm1.273 0h.49v1.353h-.49zm1.273 0h.491v1.353h-.491zm-5.092 2.107h.491v1.353h-.491zm1.274 0h.49v1.353h-.49zm1.272 0h.49v1.353h-.49zm1.273 0h.49v1.353h-.49zm1.273 0h.491v1.353h-.491zm-5.092 2.108h.491v1.353h-.491zm1.274 0h.49v1.353h-.49zm1.272 0h.49v1.353h-.49zm1.273 0h.49v1.353h-.49zm1.273 0h.491v1.353h-.491zm-5.092 2.107h.491v1.353h-.491zm1.274 0h.49v1.353h-.49zm1.272 0h.49v1.353h-.49zm1.273 0h.49v1.353h-.49zm1.273 0h.491v1.353h-.491zm-5.092 3.865h.491v1.353h-.491zm1.274 0h.49v1.353h-.49zm1.272 0h.49v1.353h-.49zm1.273 0h.49v1.353h-.49zm1.273 0h.491v1.353h-.491zm-5.092 2.108h.491v1.353h-.491zm1.274 0h.49v1.353h-.49zm1.272 0h.49v1.353h-.49zm1.273 0h.49v1.353h-.49zm1.273 0h.491v1.353h-.491zm-5.092 2.277h.491v2.527h-.491zm1.274 0h.49v2.527h-.49zm1.272 0h.49v2.527h-.49zm1.273 0h.49v2.527h-.49zm1.273 0h.491v2.527h-.491zm70.242-9.156h.491v1.353h-.491zm1.273 0h.491v1.353h-.491zm1.273 0h.49v1.353h-.49zm1.273 0h.49v1.353h-.49zm1.273 0h.49v1.353h-.49zm-5.092 2.107h.491v1.353h-.491zm1.273 0h.491v1.353h-.491zm1.273 0h.49v1.353h-.49zm1.273 0h.49v1.353h-.49zm1.273 0h.49v1.353h-.49zm-5.092 2.107h.491v1.353h-.491zm1.273 0h.491v1.353h-.491zm1.273 0h.49v1.353h-.49zm1.273 0h.49v1.353h-.49zm1.273 0h.49v1.353h-.49zm-5.092 2.108h.491v1.353h-.491zm1.273 0h.491v1.353h-.491zm1.273 0h.49v1.353h-.49zm1.273 0h.49v1.353h-.49zm1.273 0h.49v1.353h-.49zm-5.092 2.107h.491v1.353h-.491zm1.273 0h.491v1.353h-.491zm1.273 0h.49v1.353h-.49zm1.273 0h.49v1.353h-.49zm1.273 0h.49v1.353h-.49zM121.05 20.58h.491v.812h-.491zm1.273 0h.49v.812h-.49zm1.273 0h.49v.812h-.49zm-3.819 3.735h.491v.926h-.491zm1.273 0h.491v.926h-.491zm1.273 0h.49v.926h-.49zm1.273 0h.49v.926h-.49zm1.273 0h.49v.926h-.49zm-5.092 1.738h.491v.927h-.491zm1.273 0h.491v.927h-.491zm1.273 0h.49v.927h-.49zm1.273 0h.49v.927h-.49zm1.273 0h.49v.927h-.49zm-5.092 2.899h.491v.93h-.491zm1.273 0h.491v.93h-.491zm1.273 0h.49v.93h-.49zm1.273 0h.49v.93h-.49zm1.273 0h.49v.93h-.49zm-5.092 1.685h.491v1.353h-.491zm1.273 0h.491v1.353h-.491zm1.273 0h.49v1.353h-.49zm1.273 0h.49v1.353h-.49zm1.273 0h.49v1.353h-.49zm-5.092 2.107h.491v1.353h-.491zm1.273 0h.491v1.353h-.491zm1.273 0h.49v1.353h-.49zm1.273 0h.49v1.353h-.49zm1.273 0h.49v1.353h-.49zm-5.092 2.108h.491v1.353h-.491zm1.273 0h.491v1.353h-.491zm1.273 0h.49v1.353h-.49zm1.273 0h.49v1.353h-.49zm1.273 0h.49v1.353h-.49zm-5.092 2.107h.491v1.353h-.491zm1.273 0h.491v1.353h-.491zm1.273 0h.49v1.353h-.49zm1.273 0h.49v1.353h-.49zm1.273 0h.49v1.353h-.49zm-5.092 2.107h.491v1.353h-.491zm1.273 0h.491v1.353h-.491zm1.273 0h.49v1.353h-.49zm1.273 0h.49v1.353h-.49zm1.273 0h.49v1.353h-.49zm-5.092 2.108h.491v1.353h-.491zm1.273 0h.491v1.353h-.491zm1.273 0h.49v1.353h-.49zm1.273 0h.49v1.353h-.49zm1.273 0h.49v1.353h-.49zm-5.092 2.107h.491v1.353h-.491zm1.273 0h.491v1.353h-.491zm1.273 0h.49v1.353h-.49zm1.273 0h.49v1.353h-.49zm1.273 0h.49v1.353h-.49zm-5.092 1.968h.491v1.353h-.491zm1.273 0h.491v1.353h-.491zm1.273 0h.49v1.353h-.49zm1.273 0h.49v1.353h-.49zm1.273 0h.49v1.353h-.49zm-5.092 2.107h.491v1.353h-.491zm1.273 0h.491v1.353h-.491zm1.273 0h.49v1.353h-.49zm1.273 0h.49v1.353h-.49zm1.273 0h.49v1.353h-.49zm-5.092 2.107h.491v1.353h-.491zm1.273 0h.491v1.353h-.491zm1.273 0h.49v1.353h-.49zm1.273 0h.49v1.353h-.49zm1.273 0h.49v1.353h-.49zm-5.092 2.108h.491v1.353h-.491zm1.273 0h.491v1.353h-.491zm1.273 0h.49v1.353h-.49zm1.273 0h.49v1.353h-.49zm1.273 0h.49v1.353h-.49zm-5.092 2.107h.491v1.353h-.491zm-1.305 2.034h.491v1.353h-.491zm0 2.108h.491v1.353h-.491zm0-28.868h.491v.93h-.491zm0 1.685h.491v1.353h-.491zm0 2.107h.491v1.353h-.491zm0 2.108h.491v1.353h-.491zm0 2.107h.491v1.353h-.491zm0 2.107h.491v1.353h-.491zm0 2.108h.491v1.353h-.491zm0 2.107h.491v1.353h-.491zm0 1.968h.491v1.353h-.491zm0 2.107h.491v1.353h-.491zm0 2.107h.491v1.353h-.491zm0 2.108h.491v1.353h-.491zm0 2.107h.491v1.353h-.491zm7.51 2.034h.491v1.353h-.491zm0 2.108h.491v1.353h-.491zm0-28.868h.491v.93h-.491zm0 1.685h.491v1.353h-.491zm0 2.107h.491v1.353h-.491zm0 2.108h.491v1.353h-.491zm0 2.107h.491v1.353h-.491zm0 2.107h.491v1.353h-.491zm0 2.108h.491v1.353h-.491zm0 2.107h.491v1.353h-.491zm0 1.968h.491v1.353h-.491zm0 2.107h.491v1.353h-.491zm0 2.107h.491v1.353h-.491zm0 2.108h.491v1.353h-.491zm0 2.107h.491v1.353h-.491zm-4.932 0h.491v1.353h-.491zm1.273 0h.49v1.353h-.49zm1.273 0h.49v1.353h-.49zm1.273 0h.49v1.353h-.49zm-5.092 35.613h.491v1.353h-.491zm1.273 0h.491v1.353h-.491zm1.273 0h.49v1.353h-.49zm1.273 0h.49v1.353h-.49zm1.273 0h.49v1.353h-.49zm-5.092 2.107h.491v1.353h-.491zm1.273 0h.491v1.353h-.491zm1.273 0h.49v1.353h-.49zm1.273 0h.49v1.353h-.49zm1.273 0h.49v1.353h-.49zm10.501-43.703h.432v1.353h-.432zm1.121 0h.432v1.353h-.432zm1.122 0h.432v1.353h-.432zm1.121 0h.432v1.353h-.432zm-3.364 2.108h.432v1.353h-.432zm1.121 0h.432v1.353h-.432zm1.122 0h.432v1.353h-.432zm1.121 0h.432v1.353h-.432zm-3.364 2.107h.432v1.353h-.432zm-1.054 0h.432v1.353h-.432zm2.175 0h.432v1.353h-.432zm1.122 0h.432v1.353h-.432zm1.121 0h.432v1.353h-.432zm-3.364 2.108h.432v1.353h-.432zm1.121 0h.432v1.353h-.432zm1.122 0h.432v1.353h-.432zm1.121 0h.432v1.353h-.432zm-3.364 2.107h.432v1.353h-.432zm1.121 0h.432v1.353h-.432zm1.122 0h.432v1.353h-.432zm1.121 0h.432v1.353h-.432zm-3.364 2.108h.432v1.353h-.432zm1.121 0h.432v1.353h-.432zm1.122 0h.432v1.353h-.432zm1.121 0h.432v1.353h-.432zm-3.364 2.107h.432v1.353h-.432zm1.121 0h.432v1.353h-.432zm1.122 0h.432v1.353h-.432zm1.121 0h.432v1.353h-.432zm-3.364 2.108h.432v1.353h-.432zm1.121 0h.432v1.353h-.432zm1.122 0h.432v1.353h-.432zm1.121 0h.432v1.353h-.432zm-3.364 2.107h.432v1.353h-.432zm1.121 0h.432v1.353h-.432zm1.122 0h.432v1.353h-.432zm1.121 0h.432v1.353h-.432zm-3.364 2.107h.432v1.353h-.432zm1.121 0h.432v1.353h-.432zm1.122 0h.432v1.353h-.432zm1.121 0h.432v1.353h-.432zm-3.364 2.108h.432v1.353h-.432zm1.121 0h.432v1.353h-.432zm1.122 0h.432v1.353h-.432zm1.121 0h.432v1.353h-.432zm-3.364 1.967h.432v1.353h-.432zm1.121 0h.432v1.353h-.432zm1.122 0h.432v1.353h-.432zm1.121 0h.432v1.353h-.432zm-3.364 2.107h.432v1.353h-.432zm1.121 0h.432v1.353h-.432zm1.122 0h.432v1.353h-.432zm1.121 0h.432v1.353h-.432zm-3.364 2.108h.432v1.353h-.432zm1.121 0h.432v1.353h-.432zm1.122 0h.432v1.353h-.432zm1.121 0h.432v1.353h-.432zm-3.364 2.107h.432v1.353h-.432zm1.121 0h.432v1.353h-.432zm1.122 0h.432v1.353h-.432zm1.121 0h.432v1.353h-.432zm-3.364 2.108h.432v1.353h-.432zm1.121 0h.432v1.353h-.432zm1.122 0h.432v1.353h-.432zm1.121 0h.432v1.353h-.432zm-3.364 2.107h.432v1.353h-.432zm1.121 0h.432v1.353h-.432zm1.122 0h.432v1.353h-.432zm1.121 0h.432v1.353h-.432zm-3.364 2.108h.432v1.353h-.432zm1.121 0h.432v1.353h-.432zm1.122 0h.432v1.353h-.432zm1.121 0h.432v1.353h-.432zm-3.364 2.107h.432v1.353h-.432zm1.121 0h.432v1.353h-.432zm1.122 0h.432v1.353h-.432zm1.121 0h.432v1.353h-.432zm-3.364 2.107h.432v1.353h-.432zm1.121 0h.432v1.353h-.432zm1.122 0h.432v1.353h-.432zm1.121 0h.432v1.353h-.432zm-3.364 2.108h.432v2.359h-.432zm1.121 0h.432v2.359h-.432zm1.122 0h.432v2.359h-.432zm1.121 0h.432v2.359h-.432zm1.189-42.009h.432v1.353h-.432zm1.122 0h.432v1.353h-.432zm1.121 0h.432v1.353h-.432zm-2.243 2.108h.432v1.353h-.432zm1.122 0h.432v1.353h-.432zm1.121 0h.432v1.353h-.432zm-2.243 2.107h.432v1.353h-.432zm1.122 0h.432v1.353h-.432zm1.121 0h.432v1.353h-.432zm1.135 0h.432v1.353h-.432zm-3.378 2.108h.432v1.353h-.432zm1.122 0h.432v1.353h-.432zm1.121 0h.432v1.353h-.432zm-2.243 2.107h.432v1.353h-.432zm1.122 0h.432v1.353h-.432zm1.121 0h.432v1.353h-.432zm-2.243 2.108h.432v1.353h-.432zm1.122 0h.432v1.353h-.432zm1.121 0h.432v1.353h-.432zm-2.243 2.107h.432v1.353h-.432zm1.122 0h.432v1.353h-.432zm1.121 0h.432v1.353h-.432zm-2.243 2.108h.432v1.353h-.432zm1.122 0h.432v1.353h-.432zm1.121 0h.432v1.353h-.432zm-6.796-29.661h.432v1.353h-.432zm1.121 0h.432v1.353h-.432zm1.122 0h.432v1.353h-.432zm1.121 0h.432v1.353h-.432zm-3.364 2.107h.432v1.353h-.432zm1.121 0h.432v1.353h-.432zm1.122 0h.432v1.353h-.432zm1.121 0h.432v1.353h-.432zm-3.364 2.108h.432v1.353h-.432zm1.121 0h.432v1.353h-.432zm1.122 0h.432v1.353h-.432zm1.121 0h.432v1.353h-.432zm-3.364 2.107h.432v1.353h-.432zm1.121 0h.432v1.353h-.432zm1.122 0h.432v1.353h-.432zm1.121 0h.432v1.353h-.432zm-3.364 2.108h.432v1.353h-.432zm1.121 0h.432v1.353h-.432zm1.122 0h.432v1.353h-.432zm1.121 0h.432v1.353h-.432zm-3.364 2.107h.432v1.353h-.432zm1.121 0h.432v1.353h-.432zm1.122 0h.432v1.353h-.432zm1.121 0h.432v1.353h-.432zm-3.364 2.108h.432v1.353h-.432zm1.121 0h.432v1.353h-.432zm1.122 0h.432v1.353h-.432zm1.121 0h.432v1.353h-.432zm1.189-12.645h.432v1.353h-.432zm1.122 0h.432v1.353h-.432zm1.121 0h.432v1.353h-.432zm-2.243 2.107h.432v1.353h-.432zm1.122 0h.432v1.353h-.432zm1.121 0h.432v1.353h-.432zm-2.243 2.108h.432v1.353h-.432zm1.122 0h.432v1.353h-.432zm1.121 0h.432v1.353h-.432zm-2.243 2.107h.432v1.353h-.432zm1.122 0h.432v1.353h-.432zm1.121 0h.432v1.353h-.432zm-2.243 2.108h.432v1.353h-.432zm1.122 0h.432v1.353h-.432zm1.121 0h.432v1.353h-.432zm-2.243 2.107h.432v1.353h-.432zm1.122 0h.432v1.353h-.432zm1.121 0h.432v1.353h-.432zm-2.243 2.108h.432v1.353h-.432zm1.122 0h.432v1.353h-.432zm1.121 0h.432v1.353h-.432zm-2.243 19.123h.432v1.353h-.432zm1.122 0h.432v1.353h-.432zm1.121 0h.432v1.353h-.432zm-2.243 2.107h.432v1.353h-.432zm1.122 0h.432v1.353h-.432zm1.121 0h.432v1.353h-.432zm-2.243 2.108h.432v1.353h-.432zm1.122 0h.432v1.353h-.432zm1.121 0h.432v1.353h-.432zm-2.243 1.967h.432v1.353h-.432zm1.122 0h.432v1.353h-.432zm1.121 0h.432v1.353h-.432zm-2.243 2.107h.432v1.353h-.432zm1.122 0h.432v1.353h-.432zm1.121 0h.432v1.353h-.432zm-2.243 2.108h.432v1.353h-.432zm1.122 0h.432v1.353h-.432zm1.121 0h.432v1.353h-.432zm-2.243 2.107h.432v1.353h-.432zm1.122 0h.432v1.353h-.432zm1.121 0h.432v1.353h-.432zm-2.243 2.108h.432v1.353h-.432zm1.122 0h.432v1.353h-.432zm1.121 0h.432v1.353h-.432zm-2.243 2.107h.432v1.353h-.432zm1.122 0h.432v1.353h-.432zm1.121 0h.432v1.353h-.432zm-2.243 2.108h.432v1.353h-.432zm1.122 0h.432v1.353h-.432zm1.121 0h.432v1.353h-.432zm-2.243 2.107h.432v1.353h-.432zm1.122 0h.432v1.353h-.432zm1.121 0h.432v1.353h-.432zm-2.243 2.107h.432v1.353h-.432zm1.122 0h.432v1.353h-.432zm1.121 0h.432v1.353h-.432zm-2.243 2.108h.432v2.359h-.432zm1.122 0h.432v2.359h-.432zm1.121 0h.432v2.359h-.432zm1.14-35.686h.432v1.353h-.432zm0 2.107h.432v1.353h-.432zm0 2.108h.432v1.353h-.432zm0 2.107h.432v1.353h-.432zm0 2.108h.432v1.353h-.432zm0 2.107h.432v1.353h-.432zm0 2.107h.432v1.353h-.432zm0 2.108h.432v1.353h-.432zm0 1.967h.432v1.353h-.432zm0 2.107h.432v1.353h-.432zm0 2.108h.432v1.353h-.432zm0 2.107h.432v1.353h-.432zm0 2.108h.432v1.353h-.432zm0 2.107h.432v1.353h-.432zm0 2.108h.432v1.353h-.432zm0 2.107h.432v1.353h-.432zm0 2.107h.432v1.353h-.432zm0 2.108h.432v2.359h-.432zM95.993 57.65h.432v1.353h-.432zm1.121 0h.432v1.353h-.432zm-1.121 2.108h.432v1.353h-.432zm1.121 0h.432v1.353h-.432zm-1.121 2.107h.432v1.353h-.432zm1.121 0h.432v1.353h-.432zm-1.121 2.107h.432v1.353h-.432zm1.121 0h.432v1.353h-.432zm-1.121 2.108h.432v1.353h-.432zm1.121 0h.432v1.353h-.432zm-1.121 2.107h.432v1.353h-.432zm1.121 0h.432v1.353h-.432zm-1.121 2.108h.432v1.353h-.432zm1.121 0h.432v1.353h-.432zm-1.121 2.107h.432v1.353h-.432zm1.121 0h.432v1.353h-.432zm-1.121 1.967h.432v1.353h-.432zm1.121 0h.432v1.353h-.432zm-1.121 2.107h.432v1.353h-.432zm1.121 0h.432v1.353h-.432zm-1.121 2.108h.432v1.353h-.432zm1.121 0h.432v1.353h-.432zm-1.121 2.107h.432v1.353h-.432zm1.121 0h.432v1.353h-.432zm-1.121 2.108h.432v1.353h-.432zm1.121 0h.432v1.353h-.432zm-1.121 2.107h.432v1.353h-.432zm-3.434-17.315h.432v1.353h-.432zm0 2.107h.432v1.353h-.432zm0 2.108h.432v1.353h-.432zm0 1.967h.432v1.353h-.432zm0 2.107h.432v1.353h-.432zm0 2.107h.432v1.353h-.432zm0 2.108h.432v1.353h-.432zm0 2.107h.432v1.353h-.432zm0 2.108h.432v1.353h-.432zM76.946 67.591h.432v1.353h-.432zm0 2.107h.432v1.353h-.432zm0 2.108h.432v1.353h-.432zm0 1.967h.432v1.353h-.432zm0 2.107h.432v1.353h-.432zm0 2.107h.432v1.353h-.432zm0 2.108h.432v1.353h-.432zm0 2.107h.432v1.353h-.432zm0 2.108h.432v1.353h-.432zm0 5.287h.432v1.353h-.432zm15.506 0h.432v1.353h-.432zM55.583 67.591h.432v1.353h-.432zm0 2.107h.432v1.353h-.432zm0 2.108h.432v1.353h-.432zm0 1.967h.432v1.353h-.432zm0 2.107h.432v1.353h-.432zm0 2.107h.432v1.353h-.432zm0 2.108h.432v1.353h-.432zm0 2.107h.432v1.353h-.432zm0 2.108h.432v1.353h-.432zm1.41-16.719h.432v1.353h-.432zm0 2.107h.432v1.353h-.432zm0 2.108h.432v1.353h-.432zm-1.41-10.577h.432v1.353h-.432zm0 2.108h.432v1.353h-.432zm0 2.107h.432v1.353h-.432zm1.41-4.215h.432v1.353h-.432zm0 2.108h.432v1.353h-.432zm0 2.107h.432v1.353h-.432zm0 8.329h.432v1.353h-.432zm0 2.107h.432v1.353h-.432zm0 2.107h.432v1.353h-.432zm0 2.108h.432v1.353h-.432zm0 2.107h.432v1.353h-.432zm0 2.108h.432v1.353h-.432zm-1.41 5.017h.432v1.353h-.432zm-2.818 0h.432v1.353h-.432zm4.228 0h.432v1.353h-.432zm2.766 0h.432v1.353h-.432zM40.08 67.591h.432v1.353h-.432zm0 2.107h.432v1.353h-.432zm0 2.108h.432v1.353h-.432zm0 1.967h.432v1.353h-.432zm0 2.107h.432v1.353h-.432zm0 2.107h.432v1.353h-.432zm0 2.108h.432v1.353h-.432zm0 2.107h.432v1.353h-.432zm0 2.108h.432v1.353h-.432zm-1.303-16.719h.432v1.353h-.432zm0 2.107h.432v1.353h-.432zm0 2.108h.432v1.353h-.432zm0 1.967h.432v1.353h-.432zm0 2.107h.432v1.353h-.432zm0 2.107h.432v1.353h-.432zm0 2.108h.432v1.353h-.432zm0 2.107h.432v1.353h-.432zm0 2.108h.432v1.353h-.432zm-1.301-16.719h.432v1.353h-.432zm0 2.107h.432v1.353h-.432zm0 2.108h.432v1.353h-.432zm0 1.967h.432v1.353h-.432zm0 2.107h.432v1.353h-.432zm0 2.107h.432v1.353h-.432zm0 2.108h.432v1.353h-.432zm0 2.107h.432v1.353h-.432zm0 2.108h.432v1.353h-.432zm2.604 4.718h.432v1.353h-.432zm-1.303 0h.432v1.353h-.432zm-1.301 0h.432v1.353h-.432zm59.638-4.122h.432v1.353h-.432zm-1.121 2.108h.432v1.353h-.432zm1.121 0h.432v1.353h-.432zm-1.121 2.107h.432v1.353h-.432zm1.121 0h.432v1.353h-.432zm-1.121 2.108h.432v1.353h-.432zm1.121 0h.432v1.353h-.432zm1.18-33.579h.432v1.353h-.432zm0 2.108h.432v1.353h-.432zm0 2.107h.432v1.353h-.432zm0 2.107h.432v1.353h-.432zm0 2.108h.432v1.353h-.432zm0 2.107h.432v1.353h-.432zm0 2.108h.432v1.353h-.432zm0 2.107h.432v1.353h-.432zm0 1.967h.432v1.353h-.432zm0 2.107h.432v1.353h-.432zm0 2.108h.432v1.353h-.432zm0 2.107h.432v1.353h-.432zm0 2.108h.432v1.353h-.432zm0 2.107h.432v1.353h-.432zm0 2.108h.432v1.353h-.432zm0 2.107h.432v1.353h-.432zm0 2.108h.432v1.353h-.432zm35.968-37.211h.432v1.353h-.432zm0 2.107h.432v1.353h-.432zm0 2.108h.432v1.353h-.432zm0 2.107h.432v1.353h-.432zm0 2.108h.432v1.353h-.432zm0 2.107h.432v1.353h-.432zm0 2.107h.432v1.353h-.432zm0 2.108h.432v1.353h-.432zm0 1.967h.432v1.353h-.432zm0 2.107h.432v1.353h-.432zm0 2.108h.432v1.353h-.432zm0 2.107h.432v1.353h-.432zm0 2.108h.432v1.353h-.432zm0 2.107h.432v1.353h-.432zm0 2.108h.432v1.353h-.432zm0 2.107h.432v1.353h-.432zm0 2.107h.432v1.353h-.432zm0 2.108h.432v2.359h-.432zm-8.226-29.777h.491v1.353h-.491zm0 2.107h.491v1.353h-.491zm0 2.108h.491v1.353h-.491zm1.272 0h.491v1.353h-.491zm-1.272 2.107h.491v1.353h-.491zm1.272 0h.491v1.353h-.491zm-1.272 2.107h.491v1.353h-.491zm1.272 0h.491v1.353h-.491zm-1.272 2.108h.491v1.353h-.491zm1.272 0h.491v1.353h-.491zm-1.272 2.107h.491v1.353h-.491zm1.272 0h.491v1.353h-.491zm-1.272 2.108h.491v1.353h-.491zm1.272 0h.491v1.353h-.491zm-1.272 2.107h.491v1.353h-.491zm1.272 0h.491v1.353h-.491zm-1.272 1.968h.491v1.353h-.491zm1.272 0h.491v1.353h-.491zm-1.272 2.107h.491v1.353h-.491zm1.272 0h.491v1.353h-.491zm-1.272 2.107h.491v1.353h-.491zm1.272 0h.491v1.353h-.491zm-1.272 2.108h.491v1.353h-.491zm1.272 0h.491v1.353h-.491zm-1.272 2.107h.491v1.353h-.491zm1.272 0h.491v1.353h-.491zm-1.272 2.108h.491v1.353h-.491zm1.272 0h.491v1.353h-.491zm-1.272 2.107h.491v1.353h-.491zm1.272 0h.491v1.353h-.491zm2.848-9.858h.491v1.353h-.491zm0 2.107h.491V85h-.491zm0 2.108h.491v1.353h-.491zm0 2.107h.491v1.353h-.491zm15.506-3.502h.491v1.353h-.491zm0 2.107h.491v1.353h-.491zm0 2.108h.491v1.353h-.491zm0 2.107h.491v1.353h-.491zm1.518-6.322h.491v1.353h-.491zm0 2.107h.491v1.353h-.491zm0 2.108h.491v1.353h-.491zm0 2.107h.491v1.353h-.491zm-17.024.759h.491v1.353h-.491zm-11.684-31.514h.491v1.353h-.491zm0 2.107h.491v1.353h-.491zm-1.281-6.322h.49v1.353h-.49zm0 2.108h.49v1.353h-.49zm0-6.249h.49v1.353h-.49zm0 2.107h.49v1.353h-.49zm0 6.249h.49v1.353h-.49zm0 2.107h.49v1.353h-.49zm10.117-6.322h.491v1.353h-.491zm0 2.108h.491v1.353h-.491zm0-6.249h.491v1.353h-.491zm0 2.107h.491v1.353h-.491zm0 6.249h.491v1.353h-.491zm0 2.107h.491v1.353h-.491zm-10.109 2.108h.491v1.353h-.491zm1.273 0h.491v1.353h-.491zm-1.273 2.107h.491v1.353h-.491zm1.273 0h.491v1.353h-.491zm-1.273 2.107h.491v1.353h-.491zm1.273 0h.491v1.353h-.491zm-1.273 2.108h.491v1.353h-.491zm1.273 0h.491v1.353h-.491zm-1.273 2.107h.491v1.353h-.491zm1.273 0h.491v1.353h-.491zm-1.273 2.108h.491v1.353h-.491zm1.273 0h.491v1.353h-.491zm-1.273 2.107h.491v1.353h-.491zm1.273 0h.491v1.353h-.491zm-1.273 1.968h.491v1.353h-.491zm1.273 0h.491v1.353h-.491zm-1.273 2.107h.491v1.353h-.491zm1.273 0h.491v1.353h-.491zm-1.273 2.107h.491v1.353h-.491zm1.273 0h.491v1.353h-.491zM65.347 62.237h.491v.702h-.491zm1.273 0h.491v.702h-.491zm1.273 0h.491v.702h-.491zm1.273 0h.491v.702h-.491zm1.273 0h.49v.702h-.49zm-5.092 2.108h.491v.702h-.491zm1.273 0h.491v.702h-.491zm1.273 0h.491v.702h-.491zm1.273 0h.491v.702h-.491zm1.273 0h.49v.702h-.49zm-5.092 2.107h.491v.702h-.491zm1.273 0h.491v.702h-.491zm1.273 0h.491v.702h-.491zm1.273 0h.491v.702h-.491zm-.651-11.311h.491v.421h-.491zm0 1.914h.491v.421h-.491zm0 1.913h.491v.421h-.491zm-1.385-3.827h.491v.421h-.491zm0 1.914h.491v.421h-.491zm0 1.913h.491v.421h-.491zm4.191-3.827h.491v.421h-.491zm0 1.914h.491v.421h-.491zm0 1.913h.491v.421h-.491zm-1.385-3.827h.491v.421h-.491zm0 1.914h.491v.421h-.491zm0 1.913h.491v.421h-.491zm-4.107-3.827h.491v.421h-.491zm0 1.914h.491v.421h-.491zm0 1.913h.491v.421h-.491zm-1.382-3.827h.491v.421h-.491zm0 1.914h.491v.421h-.491zm0 1.913h.491v.421h-.491zm4.068-9.693h.491v.421h-.491zm0 1.913h.491v.421h-.491zm0 1.914h.491v.421h-.491zm-1.385-3.827h.491v.421h-.491zm0 1.913h.491v.421h-.491zm0 1.914h.491v.421h-.491zm4.191-3.827h.491v.421h-.491zm0 1.913h.491v.421h-.491zm0 1.914h.491v.421h-.491zm-1.385-3.827h.491v.421h-.491zm0 1.913h.491v.421h-.491zm0 1.914h.491v.421h-.491zm-4.107-3.827h.491v.421h-.491zm0 1.913h.491v.421h-.491zm0 1.914h.491v.421h-.491zm-1.382-3.827h.491v.421h-.491zm0 1.913h.491v.421h-.491zm0 1.914h.491v.421h-.491zm5.992 13.35h.49v.702h-.49zm-5.092 2.107h.491v.703h-.491zm1.273 0h.491v.703h-.491zm1.273 0h.491v.703h-.491zm1.273 0h.491v.703h-.491zm1.273 0h.49v.703h-.49zm-5.092 2.108h.491v.702h-.491zm1.273 0h.491v.702h-.491zm1.273 0h.491v.702h-.491zm1.273 0h.491v.702h-.491zm1.273 0h.49v.702h-.49zm-5.092 2.107h.491v.703h-.491zm1.273 0h.491v.703h-.491zm1.273 0h.491v.703h-.491zm1.273 0h.491v.703h-.491zm1.273 0h.49v.703h-.49zm-5.092 1.968h.491v.702h-.491zm1.273 0h.491v.702h-.491zm1.273 0h.491v.702h-.491zm1.273 0h.491v.702h-.491zm1.273 0h.49v.702h-.49zm-5.092 2.107h.491v.702h-.491zm1.273 0h.491v.702h-.491zm1.273 0h.491v.702h-.491zm1.273 0h.491v.702h-.491zm1.273 0h.49v.702h-.49zm-5.092 2.108h.491v.702h-.491zm1.273 0h.491v.702h-.491zm1.273 0h.491v.702h-.491zm1.273 0h.491v.702h-.491zm1.273 0h.49v.702h-.49zm1.166-16.72h.491v.702h-.491zm1.273 0h.491v.702h-.491zm-1.273 2.108h.491v.702h-.491zm1.273 0h.491v.702h-.491zm-1.273 2.107h.491v.702h-.491zm1.273 0h.491v.702h-.491zm-1.273 2.107h.491v.703h-.491zm1.273 0h.491v.703h-.491zm-1.273 2.108h.491v.702h-.491zm1.273 0h.491v.702h-.491zm-1.273 2.107h.491v.703h-.491zm1.273 0h.491v.703h-.491zm-1.273 1.968h.491v.702h-.491zm1.273 0h.491v.702h-.491zm-1.273 2.107h.491v.702h-.491zm1.273 0h.491v.702h-.491zm-1.273 2.108h.491v.702h-.491zm1.273 0h.491v.702h-.491zm-10.11-16.72h.491v.702h-.491zm1.273 0h.491v.702h-.491zm-1.273 2.108h.491v.702h-.491zm1.273 0h.491v.702h-.491zm-1.273 2.107h.491v.702h-.491zm1.273 0h.491v.702h-.491zm-1.273 2.107h.491v.703h-.491zm1.273 0h.491v.703h-.491zm-1.273 2.108h.491v.702h-.491zm1.273 0h.491v.702h-.491zm-1.273 2.107h.491v.703h-.491zm1.273 0h.491v.703h-.491zm-1.273 1.968h.491v.702h-.491zm1.273 0h.491v.702h-.491zm-1.273 2.107h.491v.702h-.491zm1.273 0h.491v.702h-.491zm-1.273 2.108h.491v.702h-.491zm1.273 0h.491v.702h-.491zm1.306 2.121h.491v.702h-.491zm1.273 0h.491v.702h-.491zm1.273 0h.491v.702h-.491zm1.273 0h.491v.702h-.491zm1.273 0h.49v.702h-.49zm-5.092 2.107h.491v.702h-.491zm1.273 0h.491v.702h-.491zm1.273 0h.491v.702h-.491zm1.273 0h.491v.702h-.491zm1.273 0h.49v.702h-.49zm1.166-2.107h.491v.702h-.491zm1.273 0h.491v.702h-.491zm-1.273 2.107h.491v.702h-.491zm1.273 0h.491v.702h-.491zm-10.11-2.107h.491v.702h-.491zm1.273 0h.491v.702h-.491zm-1.273 2.107h.491v.702h-.491zm1.273 0h.491v.702h-.491zm1.306 2.122h.491v.702h-.491zm1.273 0h.491v.702h-.491zm1.273 0h.491v.702h-.491zm1.273 0h.491v.702h-.491zm1.273 0h.49v.702h-.49zm-5.092 2.107h.491v.702h-.491zm1.273 0h.491v.702h-.491zm1.273 0h.491v.702h-.491zm1.273 0h.491v.702h-.491zm1.273 0h.49v.702h-.49zm1.166-2.107h.491v.702h-.491zm1.273 0h.491v.702h-.491zm-1.273 2.107h.491v.702h-.491zm1.273 0h.491v.702h-.491zm-10.11-2.107h.491v.702h-.491zm1.273 0h.491v.702h-.491zm-1.273 2.107h.491v.702h-.491zm1.273 0h.491v.702h-.491zm1.306 1.858h.491v2.14h-.491zm1.273 0h.491v2.14h-.491zm1.273 0h.491v2.14h-.491zm1.273 0h.491v2.14h-.491zm1.273 0h.49v2.14h-.49zm1.166 0h.491v2.14h-.491zm1.273 0h.491v2.14h-.491zm-10.11 0h.491v2.14h-.491zm1.273 0h.491v2.14h-.491zM31.78 63.451h.491v.702h-.491zm0 2.108h.491v.702h-.491zm0 2.107h.491v.702h-.491zm0 2.108h.491v.702h-.491zm0 2.107h.491v.702h-.491zm0 2.108h.491v.702h-.491zm0 1.967h.491v.702h-.491zm0 2.107h.491v.702h-.491zm0 2.108h.491v.702h-.491zm-2.578-16.72h.491v.702h-.491zm1.273 0h.491v.702h-.491zm-1.273 2.108h.491v.702h-.491zm1.273 0h.491v.702h-.491zm-1.273 2.107h.491v.702h-.491zm1.273 0h.491v.702h-.491zm-1.273 2.108h.491v.702h-.491zm1.273 0h.491v.702h-.491zm-1.273 2.107h.491v.702h-.491zm1.273 0h.491v.702h-.491zm-1.273 2.108h.491v.702h-.491zm1.273 0h.491v.702h-.491zm-1.273 1.967h.491v.702h-.491zm1.273 0h.491v.702h-.491zm-1.273 2.107h.491v.702h-.491zm1.273 0h.491v.702h-.491zm-1.273 2.108h.491v.702h-.491zm1.273 0h.491v.702h-.491zm1.305 2.121h.491v.702h-.491zm0 2.108h.491v.702h-.491zm-2.578-2.108h.491v.702h-.491zm1.273 0h.491v.702h-.491zM29.202 84.4h.491v.702h-.491zm1.273 0h.491v.702h-.491zm1.305 2.121h.491v.702h-.491zm0 2.108h.491v.702h-.491zm-2.578-2.108h.491v.702h-.491zm1.273 0h.491v.702h-.491zm-1.273 2.108h.491v.702h-.491zm1.273 0h.491v.702h-.491zm1.305 2.107h.491v.702h-.491zm-2.578 0h.491v.702h-.491zm1.273 0h.491v.702h-.491zm86.724-5.66h.491v1.353h-.491zm1.273 0h.491v1.353h-.491zm-1.273 2.107h.491v1.353h-.491zm1.273 0h.491v1.353h-.491zm-1.273 2.108h.491v1.353h-.491zm1.273 0h.491v1.353h-.491zm-1.273 2.107h.491v1.353h-.491zm1.273 0h.491v1.353h-.491zm-10.055-17.525h.472v1.092h-.472zm1.224 0h.472v1.092h-.472zm-1.224 2.107h.472v1.092h-.472zm1.224 0h.472v1.092h-.472zm-1.224 2.107h.472v1.092h-.472zm1.224 0h.472v1.092h-.472zm-1.224 1.968h.472v1.092h-.472zm1.224 0h.472v1.092h-.472zm-1.224 2.107h.472v1.092h-.472zm1.224 0h.472v1.092h-.472zm-1.224 2.108h.472v1.092h-.472zm1.224 0h.472v1.092h-.472zm-1.224 2.107h.472v1.092h-.472zm1.224 0h.472v1.092h-.472zm-1.224 2.107h.472v1.092h-.472zm1.224 0h.472v1.092h-.472zm-1.224 2.108h.472v2.04h-.472zm1.224 0h.472v2.04h-.472zm-3.703-16.719h.472v1.092h-.472zm1.224 0h.471v1.092h-.471zm-1.224 2.107h.472v1.092h-.472zm1.224 0h.471v1.092h-.471zm1.255-26.098h.472v1.092h-.472zm1.224 0h.472v1.092h-.472zm-1.224 2.107h.472v1.092h-.472zm1.224 0h.472v1.092h-.472zm121.413 23.057h.491v1.092h-.491zm1.273 0h.491v1.092h-.491zm-1.273 2.107h.491v1.092h-.491zm1.273 0h.491v1.092h-.491zm-1.273 4.33h.491v1.092h-.491zm1.273 0h.491v1.092h-.491zm-1.273 2.107h.491v1.092h-.491zm1.273 0h.491v1.092h-.491zm-1.273 2.122h.491v1.092h-.491zm1.273 0h.491v1.092h-.491zm-1.273 2.107h.491v1.092h-.491zm1.273 0h.491v1.092h-.491zm-1.273 2.177h.491v1.637h-.491zm1.273 0h.491v1.637h-.491zm29.033-8.513h.491v1.092h-.491zm0 2.107h.491v1.092h-.491zm0 2.122h.491v1.092h-.491zm0 2.107h.491v1.092h-.491zm0 2.177h.491v1.637h-.491zm1.423-8.513h.491v1.092h-.491zm0 2.107h.491v1.092h-.491zm0 2.122h.491v1.092h-.491zm0 2.107h.491v1.092h-.491zm0 2.177h.491v1.637h-.491zm1.423-8.513h.491v1.092h-.491zm0 2.107h.491v1.092h-.491zm0 2.122h.491v1.092h-.491zm0 2.107h.491v1.092h-.491zm0 2.177h.491v1.637h-.491zm1.423-8.513h.491v1.092h-.491zm0 2.107h.491v1.092h-.491zm0 2.122h.491v1.092h-.491zm0 2.107h.491v1.092h-.491zm0 2.177h.491v1.637h-.491zm1.423-8.513h.491v1.092h-.491zm0 2.107h.491v1.092h-.491zm0 2.122h.491v1.092h-.491zm0 2.107h.491v1.092h-.491zm0 2.177h.491v1.637h-.491zm-35.998-20.588h.491V70.5h-.491zm1.273 0h.491V70.5h-.491zm-1.273-5.718h.491v.687h-.491zm1.273 0h.491v.687h-.491zm-1.273-1.537h.491v.687h-.491zm1.273 0h.491v.687h-.491zm-1.273 9.362h.491v1.092h-.491zm1.273 0h.491v1.092h-.491zM105.938 49.882h.472v1.092h-.472zm1.224 0h.471v1.092h-.471zm1.255-1.46h.472v.517h-.472zm1.224 0h.472v.517h-.472zm-96.237 27.78h.49v1.092h-.49zm1.273 0h.49v1.092h-.49zm-1.273 2.107h.49v1.092h-.49zm1.273 0h.49v1.092h-.49zm-1.273 2.107h.49v1.092h-.49zm1.273 0h.49v1.092h-.49zm-1.273 2.108h.49v1.092h-.49zm1.273 0h.49v1.092h-.49zm-1.273 2.107h.49v1.092h-.49zm1.273 0h.49v1.092h-.49zm-1.273 4.872h.49v2.315h-.49zm1.273 0h.49v2.315h-.49zm1.355-13.301h.49v1.092h-.49zm1.273 0h.491v1.092h-.491zm-1.273 2.107h.49v1.092h-.49zm1.273 0h.491v1.092h-.491zm-1.273 2.107h.49v1.092h-.49zm1.273 0h.491v1.092h-.491zm-1.273 2.108h.49v1.092h-.49zm1.273 0h.491v1.092h-.491zm-1.273 2.107h.49v1.092h-.49zm1.273 0h.491v1.092h-.491zm-1.273 4.872h.49v2.315h-.49zm1.273 0h.491v2.315h-.491zm-8.048-6.652h.491v1.092h-.491zm1.273 0h.49v1.092h-.49zm-1.273 2.108h.491v1.092h-.491zm1.273 0h.49v1.092h-.49zm-1.273 1.967h.491v1.092h-.491zm1.273 0h.49v1.092h-.49zm-1.273 2.799h.491v2.094h-.491zm1.273 0h.49v2.094h-.49zm95.408-41.303h.472v.517h-.472zm1.224 0h.471v.517h-.471zm-1.224 3.567h.472v1.092h-.472zm1.224 0h.471v1.092h-.471zm-1.224 26.098h.472v1.092h-.472zm1.224 0h.471v1.092h-.471zm-1.224 1.968h.472v1.092h-.472zm1.224 0h.471v1.092h-.471zm-1.224 2.107h.472v1.092h-.472zm1.224 0h.471v1.092h-.471zm-1.224 2.108h.472v1.092h-.472zm1.224 0h.471v1.092h-.471zm-1.224 2.107h.472v1.092h-.472zm1.224 0h.471v1.092h-.471zm-1.224 2.107h.472v1.092h-.472zm1.224 0h.471v1.092h-.471zm1.255-31.242h.472v1.092h-.472zm1.224 0h.472v1.092h-.472zm-1.224 2.107h.472v1.092h-.472zm1.224 0h.472v1.092h-.472zm-1.224 2.108h.472v1.092h-.472zm1.224 0h.472v1.092h-.472zm-1.224 1.967h.472v1.092h-.472zm1.224 0h.472v1.092h-.472zm-1.224 2.108h.472v1.092h-.472zm1.224 0h.472v1.092h-.472zm-1.224 2.107h.472v1.092h-.472zm1.224 0h.472v1.092h-.472zm-1.224 2.107h.472v1.092h-.472zm1.224 0h.472v1.092h-.472zm-1.224 2.108h.472v1.092h-.472zm1.224 0h.472v1.092h-.472zm-3.703-14.612h.472v1.092h-.472zm1.224 0h.471v1.092h-.471zm1.255-1.952h.472v1.092h-.472zm1.224 0h.472v1.092h-.472zm-3.703 0h.472v1.092h-.472zm1.224 0h.471v1.092h-.471zm-1.224 4.059h.472v1.092h-.472zm1.224 0h.471v1.092h-.471zm-1.224 2.108h.472v1.092h-.472zm1.224 0h.471v1.092h-.471zm-1.224 1.967h.472v1.092h-.472zm1.224 0h.471v1.092h-.471zm-1.224 2.108h.472v1.092h-.472zm1.224 0h.471v1.092h-.471zm-1.224 2.107h.472v1.092h-.472zm1.224 0h.471v1.092h-.471zm-1.224 2.107h.472v1.092h-.472zm1.224 0h.471v1.092h-.471zm-1.224 2.108h.472v1.092h-.472zm1.224 0h.471v1.092h-.471zm-1.224 18.738h.472v2.04h-.472zm-1.184-16.719h.471v1.092h-.471zm0 2.107h.471v1.092h-.471zm0-26.098h.471v1.092h-.471zm0-1.46h.471v.517h-.471zm0 3.567h.471v1.092h-.471zm0 26.098h.471v1.092h-.471zm0 1.968h.471v1.092h-.471zm0 2.107h.471v1.092h-.471zm0 2.108h.471v1.092h-.471zm0 2.107h.471v1.092h-.471zm0 2.107h.471v1.092h-.471zm0-31.242h.471v1.092h-.471zm0-1.952h.471v1.092h-.471zm0 4.059h.471v1.092h-.471zm0 2.108h.471v1.092h-.471zm0 1.967h.471v1.092h-.471zm0 2.108h.471v1.092h-.471zm0 2.107h.471v1.092h-.471zm0 2.107h.471v1.092h-.471zm0 2.108h.471v1.092h-.471zm0 18.738h.471v2.04h-.471zm-2.274-16.719h.343v1.092h-.343zm0 2.107h.343v1.092h-.343zm0 2.107h.343v1.092h-.343zm0 1.968h.343v1.092h-.343zm0 2.107h.343v1.092h-.343zm0 2.108h.343v1.092h-.343zm0 2.107h.343v1.092h-.343zm0 2.107h.343v1.092h-.343zm0-31.242h.343v1.092h-.343zm0-1.952h.343v1.092h-.343zm0 4.059h.343v1.092h-.343zm0 2.108h.343v1.092h-.343zm0 1.967h.343v1.092h-.343zm0 2.108h.343v1.092h-.343zm0 2.107h.343v1.092h-.343zm0 2.107h.343v1.092h-.343zm0 2.108h.343v1.092h-.343zm0 18.738h.343v2.04h-.343zm9.262-16.719h.343v1.092h-.343zm0 2.107h.343v1.092h-.343zm0 2.107h.343v1.092h-.343zm0 1.968h.343v1.092h-.343zm0 2.107h.343v1.092h-.343zm0 2.108h.343v1.092h-.343zm0 2.107h.343v1.092h-.343zm0 2.107h.343v1.092h-.343zm0-31.242h.343v1.092h-.343zm0-1.952h.343v1.092h-.343zm0 4.059h.343v1.092h-.343zm0 2.108h.343v1.092h-.343zm0 1.967h.343v1.092h-.343zm0 2.108h.343v1.092h-.343zm0 2.107h.343v1.092h-.343zm0 2.107h.343v1.092h-.343zm0 2.108h.343v1.092h-.343zm0 18.738h.343v2.04h-.343zm-4.58 0h.471v2.04h-.471zm65.511-27.708h.202v1.61h-.202zm1.034 0h.202v1.61h-.202zm1.035 0h.202v1.61h-.202zm1.033 0h.202v1.61h-.202zm1.034 0h.202v1.61h-.202zm1.035 0h.202v1.61h-.202zm1.033 0h.202v1.61h-.202zm1.034 0h.202v1.61h-.202zm1.035 0h.202v1.61h-.202zm1.034 0h.202v1.61h-.202zm1.033 0h.202v1.61h-.202zm1.035 0h.202v1.61h-.202zm1.034 0h.202v1.61h-.202zm1.033 0h.202v1.61h-.202zm-13.442-5.042h.202v1.61h-.202zm1.034 0h.202v1.61h-.202zm1.035 0h.202v1.61h-.202zm1.033 0h.202v1.61h-.202zm1.034 0h.202v1.61h-.202zm1.035 0h.202v1.61h-.202zm1.033 0h.202v1.61h-.202zm1.034 0h.202v1.61h-.202zm1.035 0h.202v1.61h-.202zm1.034 0h.202v1.61h-.202zm1.033 0h.202v1.61h-.202zm1.035 0h.202v1.61h-.202zm1.034 0h.202v1.61h-.202zm1.033 0h.202v1.61h-.202zm-13.442 7.685h.202v1.61h-.202zm1.034 0h.202v1.61h-.202zm1.035 0h.202v1.61h-.202zm1.033 0h.202v1.61h-.202zm1.034 0h.202v1.61h-.202zm1.035 0h.202v1.61h-.202zm1.033 0h.202v1.61h-.202zm1.034 0h.202v1.61h-.202zm1.035 0h.202v1.61h-.202zm1.034 0h.202v1.61h-.202zm1.033 0h.202v1.61h-.202zm1.035 0h.202v1.61h-.202zm1.034 0h.202v1.61h-.202zm1.033 0h.202v1.61h-.202zm-13.442 2.643h.202v1.61h-.202zm1.034 0h.202v1.61h-.202zm1.035 0h.202v1.61h-.202zm1.033 0h.202v1.61h-.202zm1.034 0h.202v1.61h-.202zm1.035 0h.202v1.61h-.202zm1.033 0h.202v1.61h-.202zm1.034 0h.202v1.61h-.202zm1.035 0h.202v1.61h-.202zm1.034 0h.202v1.61h-.202zm1.033 0h.202v1.61h-.202zm1.035 0h.202v1.61h-.202zm1.034 0h.202v1.61h-.202zm1.033 0h.202v1.61h-.202zm-13.442 2.643h.202v1.61h-.202zm1.034 0h.202v1.61h-.202zm1.035 0h.202v1.61h-.202zm1.033 0h.202v1.61h-.202zm1.034 0h.202v1.61h-.202zm1.035 0h.202v1.61h-.202zm1.033 0h.202v1.61h-.202zm1.034 0h.202v1.61h-.202zm1.035 0h.202v1.61h-.202zm1.034 0h.202v1.61h-.202zm1.033 0h.202v1.61h-.202zm1.035 0h.202v1.61h-.202zm1.034 0h.202v1.61h-.202zm1.033 0h.202v1.61h-.202zm-13.442-23.795h.202v1.61h-.202zm1.034 0h.202v1.61h-.202zm1.035 0h.202v1.61h-.202zm1.033 0h.202v1.61h-.202zm1.034 0h.202v1.61h-.202zm1.035 0h.202v1.61h-.202zm1.033 0h.202v1.61h-.202zm1.034 0h.202v1.61h-.202zm1.035 0h.202v1.61h-.202zm1.034 0h.202v1.61h-.202zm1.033 0h.202v1.61h-.202zm1.035 0h.202v1.61h-.202zm1.034 0h.202v1.61h-.202zm1.033 0h.202v1.61h-.202zm-13.442 2.643h.202v1.61h-.202zm1.034 0h.202v1.61h-.202zm1.035 0h.202v1.61h-.202zm1.033 0h.202v1.61h-.202zm1.034 0h.202v1.61h-.202zm1.035 0h.202v1.61h-.202zm1.033 0h.202v1.61h-.202zm1.034 0h.202v1.61h-.202zm1.035 0h.202v1.61h-.202zm1.034 0h.202v1.61h-.202zm1.033 0h.202v1.61h-.202zm1.035 0h.202v1.61h-.202zm1.034 0h.202v1.61h-.202zm1.033 0h.202v1.61h-.202zm-13.442 2.643h.202v1.61h-.202zm1.034 0h.202v1.61h-.202zm1.035 0h.202v1.61h-.202zm1.033 0h.202v1.61h-.202zm1.034 0h.202v1.61h-.202zm1.035 0h.202v1.61h-.202zm1.033 0h.202v1.61h-.202zm1.034 0h.202v1.61h-.202zm1.035 0h.202v1.61h-.202zm1.034 0h.202v1.61h-.202zm1.033 0h.202v1.61h-.202zm1.035 0h.202v1.61h-.202zm1.034 0h.202v1.61h-.202zm1.033 0h.202v1.61h-.202zm-13.442 2.643h.202v1.61h-.202zm1.034 0h.202v1.61h-.202zm1.035 0h.202v1.61h-.202zm1.033 0h.202v1.61h-.202zm1.034 0h.202v1.61h-.202zm1.035 0h.202v1.61h-.202zm1.033 0h.202v1.61h-.202zm1.034 0h.202v1.61h-.202zm1.035 0h.202v1.61h-.202zm1.034 0h.202v1.61h-.202zm1.033 0h.202v1.61h-.202zm1.035 0h.202v1.61h-.202zm1.034 0h.202v1.61h-.202zm1.033 0h.202v1.61h-.202zm-13.442 18.509h.202v1.61h-.202zm1.034 0h.202v1.61h-.202zm1.035 0h.202v1.61h-.202zm1.033 0h.202v1.61h-.202zm1.034 0h.202v1.61h-.202zm1.035 0h.202v1.61h-.202zm1.033 0h.202v1.61h-.202zm1.034 0h.202v1.61h-.202zm1.035 0h.202v1.61h-.202zm1.034 0h.202v1.61h-.202zm1.033 0h.202v1.61h-.202zm1.035 0h.202v1.61h-.202zm1.034 0h.202v1.61h-.202zm1.033 0h.202v1.61h-.202zm-13.442 2.643h.202v1.61h-.202zm1.034 0h.202v1.61h-.202zm1.035 0h.202v1.61h-.202zm1.033 0h.202v1.61h-.202zm1.034 0h.202v1.61h-.202zm1.035 0h.202v1.61h-.202zm1.033 0h.202v1.61h-.202zm1.034 0h.202v1.61h-.202zm1.035 0h.202v1.61h-.202zm1.034 0h.202v1.61h-.202zm1.033 0h.202v1.61h-.202zm1.035 0h.202v1.61h-.202zm1.034 0h.202v1.61h-.202zm1.033 0h.202v1.61h-.202zm-13.442 5.055h.202v1.61h-.202zm1.034 0h.202v1.61h-.202zm1.035 0h.202v1.61h-.202zm1.033 0h.202v1.61h-.202zm1.034 0h.202v1.61h-.202zm1.035 0h.202v1.61h-.202zm1.033 0h.202v1.61h-.202zm1.034 0h.202v1.61h-.202zm1.035 0h.202v1.61h-.202zm1.034 0h.202v1.61h-.202zm1.033 0h.202v1.61h-.202zm1.035 0h.202v1.61h-.202zm1.034 0h.202v1.61h-.202zm1.033 0h.202v1.61h-.202zm-13.442 2.643h.202v1.61h-.202zm1.034 0h.202v1.61h-.202zm1.035 0h.202v1.61h-.202zm1.033 0h.202v1.61h-.202zm1.034 0h.202v1.61h-.202zm1.035 0h.202v1.61h-.202zm1.033 0h.202v1.61h-.202zm1.034 0h.202v1.61h-.202zm1.035 0h.202v1.61h-.202zm1.034 0h.202v1.61h-.202zm1.033 0h.202v1.61h-.202zm1.035 0h.202v1.61h-.202zm1.034 0h.202v1.61h-.202zm1.033 0h.202v1.61h-.202zm-13.442 2.852h.202v1.61h-.202zm1.034 0h.202v1.61h-.202zm1.035 0h.202v1.61h-.202zm1.033 0h.202v1.61h-.202zm1.034 0h.202v1.61h-.202zm1.035 0h.202v1.61h-.202zm1.033 0h.202v1.61h-.202zm1.034 0h.202v1.61h-.202zm1.035 0h.202v1.61h-.202zm1.034 0h.202v1.61h-.202zm1.033 0h.202v1.61h-.202zm1.035 0h.202v1.61h-.202zm1.034 0h.202v1.61h-.202zm1.033 0h.202v1.61h-.202zm-13.442 3.036h.202v2.119h-.202zm1.034 0h.202v2.119h-.202zm1.035 0h.202v2.119h-.202zm1.033 0h.202v2.119h-.202zm1.034 0h.202v2.119h-.202zm1.035 0h.202v2.119h-.202zm1.033 0h.202v2.119h-.202zm1.034 0h.202v2.119h-.202zm1.035 0h.202v2.119h-.202zm1.034 0h.202v2.119h-.202zm1.033 0h.202v2.119h-.202zm1.035 0h.202v2.119h-.202zm1.034 0h.202v2.119h-.202zm1.033 0h.202v2.119h-.202zm52.068-13.039h.202v1.61h-.202zm1.034 0h.202v1.61h-.202zm1.034 0h.202v1.61h-.202zm-2.068 2.643h.202v1.61h-.202zm1.034 0h.202v1.61h-.202zm1.034 0h.202v1.61h-.202zm-2.068 2.643h.202v1.61h-.202zm1.034 0h.202v1.61h-.202zm1.034 0h.202v1.61h-.202zm-2.068 2.643h.202v1.61h-.202zm1.034 0h.202v1.61h-.202zm1.034 0h.202v1.61h-.202zm-2.068 2.643h.202v1.61h-.202zm1.034 0h.202v1.61h-.202zm1.034 0h.202v1.61h-.202zm-2.068 2.643h.202v1.61h-.202zm1.034 0h.202v1.61h-.202zm1.034 0h.202v1.61h-.202zm-2.068-21.144h.202v1.61h-.202zm1.034 0h.202v1.61h-.202zm1.034 0h.202v1.61h-.202zm-2.068-2.566h.202v1.61h-.202zm1.034 0h.202v1.61h-.202zm1.034 0h.202v1.61h-.202zm-2.068 5.209h.202v1.61h-.202zm1.034 0h.202v1.61h-.202zm1.034 0h.202v1.61h-.202zm-2.068 2.643h.202v1.61h-.202zm1.034 0h.202v1.61h-.202zm1.034 0h.202v1.61h-.202zm-27.926-.081h.202v1.61h-.202zm1.034 0h.202v1.61h-.202zm1.034 0h.202v1.61h-.202zm-2.068 2.643h.202v1.61h-.202zm1.034 0h.202v1.61h-.202zm1.034 0h.202v1.61h-.202zm-2.068 2.643h.202v1.61h-.202zm1.034 0h.202v1.61h-.202zm1.034 0h.202v1.61h-.202zm-2.068 2.643h.202v1.61h-.202zm1.034 0h.202v1.61h-.202zm1.034 0h.202v1.61h-.202zm-2.068 2.643h.202v1.61h-.202zm1.034 0h.202v1.61h-.202zm1.034 0h.202v1.61h-.202zm-2.068 2.643h.202v1.61h-.202zm1.034 0h.202v1.61h-.202zm1.034 0h.202v1.61h-.202zm2.435-7.929h.202v1.61h-.202zm0 2.643h.202v1.61h-.202zm0 2.643h.202v1.61h-.202zm0 2.643h.202v1.61h-.202zm1.093-7.929h.202v1.61h-.202zm-1.093-6.329h.202v1.61h-.202zm1.093 0h.202v1.61h-.202zm-1.093-2.928h.202v1.61h-.202zm1.093 0h.202v1.61h-.202zm0 11.9h.202v1.61h-.202zm0 2.643h.202v1.61h-.202zm0 2.643h.202v1.61h-.202zm-5.596 2.901h.202v1.61h-.202zm1.034 0h.202v1.61h-.202zm1.034 0h.202v1.61h-.202zm2.435 0h.202v1.61h-.202zm1.093 0h.202v1.61h-.202zm-5.596-26.688h.202v1.61h-.202zm1.034 0h.202v1.61h-.202zm1.034 0h.202v1.61h-.202zm-2.068 2.643h.202v1.61h-.202zm1.034 0h.202v1.61h-.202zm1.034 0h.202v1.61h-.202zm-2.068 2.643h.202v1.61h-.202zm1.034 0h.202v1.61h-.202zm1.034 0h.202v1.61h-.202zm-2.068 2.643h.202v1.61h-.202zm1.034 0h.202v1.61h-.202zm1.034 0h.202v1.61h-.202zm.426-13.106h.202v1.61h-.202zm1.034 0h.202v1.61h-.202zm-1.034-10.572h.202v1.61h-.202zm1.034 0h.202v1.61h-.202zm-1.034 2.643h.202v1.61h-.202zm1.034 0h.202v1.61h-.202zm-1.034 2.643h.202v1.61h-.202zm1.034 0h.202v1.61h-.202zm-1.034 2.643h.202v1.61h-.202zm1.034 0h.202v1.61h-.202zm-57.585 21.116h.202v1.61h-.202zm1.034 0h.202v1.61h-.202zm1.034 0h.202v1.61h-.202zm-2.068 2.643h.202v1.61h-.202zm1.034 0h.202v1.61h-.202zm1.034 0h.202v1.61h-.202zm-2.068 2.643h.202v1.61h-.202zm1.034 0h.202v1.61h-.202zm1.034 0h.202v1.61h-.202zm-2.068 2.643h.202v1.61h-.202zm1.034 0h.202v1.61h-.202zm1.034 0h.202v1.61h-.202zm-2.068 2.643h.202v1.61h-.202zm1.034 0h.202v1.61h-.202zm1.034 0h.202v1.61h-.202zm-2.068 2.643h.202v1.61h-.202zm1.034 0h.202v1.61h-.202zm1.034 0h.202v1.61h-.202zm-46.571-5.09h.202v1.61h-.202zm0 2.643h.202v1.61h-.202zm0 2.643h.202v1.61h-.202zm44.503-23.983h.202v1.61h-.202zm1.034 0h.202v1.61h-.202zm1.034 0h.202v1.61h-.202zm-2.068 2.643h.202v1.61h-.202zm1.034 0h.202v1.61h-.202zm1.034 0h.202v1.61h-.202zm-2.068 2.643h.202v1.61h-.202zm1.034 0h.202v1.61h-.202zm1.034 0h.202v1.61h-.202zm-2.068 2.643h.202v1.61h-.202zm1.034 0h.202v1.61h-.202zm1.034 0h.202v1.61h-.202zm-6.297 2.643h.202v1.61h-.202zm1.034 0h.202v1.61h-.202zm1.034 0h.202v1.61h-.202zm-2.068 2.643h.202v1.61h-.202zm1.034 0h.202v1.61h-.202zm1.034 0h.202v1.61h-.202zm-2.068 2.643h.202v1.61h-.202zm1.034 0h.202v1.61h-.202zm1.034 0h.202v1.61h-.202zm-2.068 2.643h.202v1.61h-.202zm1.034 0h.202v1.61h-.202zm1.034 0h.202v1.61h-.202zm-2.068 2.643h.202v1.61h-.202zm1.034 0h.202v1.61h-.202zm1.034 0h.202v1.61h-.202zm-2.068 2.643h.202v1.61h-.202zm1.034 0h.202v1.61h-.202zm1.034 0h.202v1.61h-.202zm35.124-16.928h.202v1.61h-.202zm1.034 0h.202v1.61h-.202zm1.034 0h.202v1.61h-.202zm-2.068-5.747h.202v1.61h-.202zm1.034 0h.202v1.61h-.202zm1.034 0h.202v1.61h-.202zm-2.068 2.827h.202v1.61h-.202zm1.034 0h.202v1.61h-.202zm1.034 0h.202v1.61h-.202zm-2.068 5.563h.202v1.61h-.202zm1.034 0h.202v1.61h-.202zm1.034 0h.202v1.61h-.202zm-2.068 2.643h.202v1.61h-.202zm1.034 0h.202v1.61h-.202zm1.034 0h.202v1.61h-.202zm-2.068 2.613h.202v1.61h-.202zm1.034 0h.202v1.61h-.202zm1.034 0h.202v1.61h-.202zm-2.068 4.036h.202v1.61h-.202zm1.034 0h.202v1.61h-.202zm1.034 0h.202v1.61h-.202zm-2.068 2.643h.202v1.61h-.202zm1.034 0h.202v1.61h-.202zm1.034 0h.202v1.61h-.202zm-39.26-21.437h.202v1.61h-.202zm1.034 0h.202v1.61h-.202zm1.034 0h.202v1.61h-.202zm-2.068 2.643h.202v1.61h-.202zm1.034 0h.202v1.61h-.202zm1.034 0h.202v1.61h-.202zm-2.068 2.643h.202v1.61h-.202zm1.034 0h.202v1.61h-.202zm1.034 0h.202v1.61h-.202zm-2.068 2.643h.202v1.61h-.202zm1.034 0h.202v1.61h-.202zm1.034 0h.202v1.61h-.202zm2.161-10.843h.202v1.61h-.202zm1.034 0h.202v1.61h-.202zm1.034 0h.202v1.61h-.202zm-2.068-10.572h.202v1.61h-.202zm1.034 0h.202v1.61h-.202zm1.034 0h.202v1.61h-.202zm-2.068 2.643h.202v1.61h-.202zm1.034 0h.202v1.61h-.202zm1.034 0h.202v1.61h-.202zm-2.068 2.643h.202v1.61h-.202zm1.034 0h.202v1.61h-.202zm1.034 0h.202v1.61h-.202zm-2.068 2.643h.202v1.61h-.202zm1.034 0h.202v1.61h-.202zm1.034 0h.202v1.61h-.202zm-6.297 2.643h.202v1.61h-.202zm1.034 0h.202v1.61h-.202zm1.034 0h.202v1.61h-.202zm-2.068-10.572h.202v1.61h-.202zm1.034 0h.202v1.61h-.202zm1.034 0h.202v1.61h-.202zm-2.068 2.643h.202v1.61h-.202zm1.034 0h.202v1.61h-.202zm1.034 0h.202v1.61h-.202zm-2.068 2.643h.202v1.61h-.202zm1.034 0h.202v1.61h-.202zm1.034 0h.202v1.61h-.202zm-2.068 2.643h.202v1.61h-.202zm1.034 0h.202v1.61h-.202zm1.034 0h.202v1.61h-.202zm26.423-17.774h1.368v.564h-1.368zm-2.557 0h1.368v.564h-1.368zm-2.558 0h1.368v.564h-1.368zm-2.558 0h1.368v.564h-1.368zm7.673 1.26h1.368v.564h-1.368zm-2.557 0h1.368v.564h-1.368zm-2.558 0h1.368v.564h-1.368zm-2.558 0h1.368v.564h-1.368zm10.033-1.26h1.368v.564h-1.368zm0 1.26h1.368v.564h-1.368zm-12.478-1.26h1.368v.564h-1.368zm0 1.26h1.368v.564h-1.368z"
    />
  </g>
  <g fill-rule="nonzero">
    <path
      fill="#fff"
      d="m14.274 14.316-.256-.561s1.462-1.93 8.905-1.779c7.443.152 10.91 1.658 10.489 2.648-.421.99-1.724 1.047-1.724 1.047s.04-1.728-5.237-1.849c-5.277-.122-11.96.856-12.006.858-.046.002-.171-.364-.171-.364Z"
    />
    <path
      fill="#231f20"
      d="M20.824 8.847s-.158-.903 2.522-.956c2.679-.052 3.255.37 3.256 1.039l-5.778-.083Zm10.063 4.223c-.138-.026-.282-.053-.431-.08v1.109c.149.019.293.038.431.056V13.07Zm.847.172c-.14-.03-.29-.061-.448-.093v1.061c.158.022.308.044.448.065v-1.033Zm-8.312.345c.279.005.555.012.827.02v-1.239c-.273-.004-.55-.004-.827 0v1.219Zm6.875-.666c-.14-.024-.283-.047-.43-.071v1.149c.148.017.29.034.43.05v-1.128Zm-13.083-.117c-.216.027-.423.055-.62.082v.988c.207-.023.414-.044.62-.064v-1.006Zm9.819-.283c-.313-.029-.632-.055-.957-.077v1.247c.327.02.646.042.957.065v-1.235Zm2.195.267c-.207-.03-.42-.061-.638-.09v1.192c.218.021.431.043.638.065v-1.167Zm-1.038-.141c-.247-.03-.5-.06-.758-.086v1.226c.259.02.512.042.758.065v-1.205Zm-3.541.974c.349.014.692.03 1.027.048v-1.25c-.337-.019-.68-.033-1.027-.043v1.245Zm-2.837-1.207c-.312.014-.616.03-.914.048v1.131c.307-.007.612-.013.914-.015v-1.164Zm-7.035.761c-.422.077-.652.128-.652.128l-.159.941c.27-.047.541-.091.811-.132v-.937Zm8.245-.801c-.274.006-.545.014-.811.024v1.178c.273 0 .544.001.811.004v-1.206Zm9.111.956v1.006c.683.108 1.064.183 1.064.183v-.927s-.388-.109-1.064-.262Zm-13.761-.66c-.263.027-.516.056-.758.085v1.019c.253-.023.506-.043.758-.061V12.67Zm-3.196 1.383c.34-.049.68-.093 1.019-.134v-.976c-.39.058-.732.113-1.019.162v.948Zm4.182-1.478c-.2.018-.396.036-.586.054v1.057c.196-.013.391-.024.586-.034v-1.077Zm1.141-.088c-.254.017-.501.036-.742.055v1.09c.248-.011.496-.02.742-.028v-1.117Z"
    />
    <path
      fill="#6d615e"
      d="M14.125 13.303s4.965-.841 10.245-.788c5.281.052 8.827 1.077 8.827 1.077s-1.76-1.34-3.468-1.813c-1.707-.473-3.047-.762-2.758-1.418.289-.657 1.103-1.182.21-1.366-.893-.184-6.41-.21-7.014 0-.604.21-.105.552.316.945.42.394.63.683-.079.999-.71.315-3.363.656-6.279 2.364Zm-.331 1.457-.26-.346s1.729-1.129 10.043-.841c8.314.288 12.117 1.29 11.599 1.878-.519.588-1.979.588-1.979.588s.129-1.044-5.765-1.257c-5.895-.213-13.414.202-13.466.202-.051 0-.172-.224-.172-.224Z"
    />
    <path
      fill="#231f20"
      d="M15.263 17.318s.242-.812-.087-1.072c-.328-.259-1.417-.605-2.264-.553-.847.052-1.937-.501 1.054-.709 2.991-.207 6.966-.498 11.46-.465 4.495.033 7.815.811 7.771 1.606 0 0-.995.329-1.236.813-.242.484-.227.57-.227.57s-3.94-.815-8.209-.694c-4.27.121-8.262.504-8.262.504Z"
    />
    <path
      fill="#6d615e"
      d="M17.89 19.323c-1.901-.156-3.9-1.072-3.765-1.435.135-.363.412-.708 3.627-.881 3.215-.173 5.601-.362 8.14-.173 2.539.19 7.089.588 7.305 1.158.216.57-2.085 1.123-4.289 1.4-2.202.277-9.116.086-11.018-.069Z"
    />
    <path
      fill="#6d615e"
      d="m27.731 91.609-.121-4.122c-.003-.115.087-.208.202-.208h.415c.114 0 .21.093.213.208l.12 4.122c.004.115-.086.208-.201.208h-.415c-.114 0-.21-.093-.213-.208Zm-.258-5.342-.121-4.122c-.003-.115.087-.208.202-.208h.414c.115 0 .21.093.214.208l.12 4.122c.004.115-.086.208-.201.208h-.415c-.115 0-.21-.093-.213-.208Zm-.231-5.738-.106-4.123c-.004-.115.076-.207.178-.207h.367c.101 0 .185.092.189.207l.106 4.123c.003.114-.076.207-.178.207h-.367c-.102 0-.186-.093-.189-.207Zm-.479-5.796-.103-4.594c-.003-.127.075-.231.173-.231h.354c.098 0 .179.104.183.231l.102 4.594c.003.128-.074.231-.172.231h-.354c-.098 0-.18-.103-.183-.231Zm-.118 17.162c0 .114-.093.207-.207.207H25.09c-.115 0-.208-.093-.208-.207v-4.408c0-.115.093-.208.208-.208h1.348c.114 0 .207.093.207.208v4.408Zm-1.867-16.931c-.114 0-.207-.093-.207-.208v-4.64c0-.115.093-.208.207-.208h1.037c.115 0 .208.093.208.208v4.64c0 .115-.093.208-.208.208h-1.037Zm-.363-6.249v-4.459c0-.115.093-.207.208-.207h1.011c.114 0 .207.092.207.207v4.459c0 .115-.093.208-.207.208h-1.011c-.115 0-.208-.093-.208-.208Zm.208-16.542c.337-.129.7 5.134.7 5.134h-1.089s.052-5.004.389-5.134Zm.959 6.145v4.693c0 .115-.093.208-.207.208h-.752c-.115 0-.208-.093-.208-.208v-4.693c0-.114.093-.207.208-.207h.752c.114 0 .207.093.207.207Zm.804 23.491v4.537c0 .115-.093.207-.208.207H25.09c-.115 0-.208-.092-.208-.207v-4.537c0-.115.093-.207.208-.207h1.088c.115 0 .208.092.208.207Zm-.208-.985H25.09c-.115 0-.208-.093-.208-.208v-4.537c0-.115.093-.208.208-.208h1.088c.115 0 .208.093.208.208v4.537c0 .115-.093.208-.208.208Zm.061-21.641h.2c.055 0 .112.2.126.449l.533 8.932c.015.248-.017.45-.073.45h-.2c-.055 0-.112-.202-.126-.45l-.533-8.932c-.015-.249.018-.449.073-.449Zm1.677 33.853c.026-.13.985-.13.985-.13l.191 2.845 1.105-.2s-2.938-40.5-3.388-43.507c-.449-3.008-.528-9.957-.255-13.898.273-3.941 1.237-10.423 1.636-12.6.4-2.178 1.038-6.196 1.038-6.196l-1.038.183-1.871 12.453 1.492-12.453h-.778s-1.859 13.522-2.127 13.14c-.267-.382.08-13.14.08-13.14h-1.564L23.992 96h.89v-2.653c0-.115.093-.208.208-.208h1.512c.114 0 .207.093.207.208V96h.916l.19-.034c-.002-.322-.024-2.809.001-2.93Z"
    />
    <path
      fill="#231f20"
      d="M23.897 19.504h.363v.726h-.363zm0 1.297h.363v.726h-.363zm0 1.296h.363v.726h-.363zm0 1.297h.363v.726h-.363zm0 1.296h.363v.726h-.363zm0 1.296h.363v.726h-.363zm0 1.297h.363v.726h-.363zm0 1.296h.363v.726h-.363zm0 1.297h.363v.726h-.363zm0 1.296h.363v.726h-.363zM21.355 95.24s1.116-38.581.856-46.671c-.259-8.089-.408-29.036-.408-29.036l.814-.183.805 37.945L22.617 96h-1.262v-.76Z"
    />
    <path
      fill="#6d615e"
      d="M14.777 95.24s3.163-20.743 4.288-31.218c1.124-10.474 2.158-25.098 1.434-29.039-.725-3.941-2.127-15.626-2.127-15.626l.986-.007s2.556 16.981 2.454 22.859c-.102 5.876-1.208 20.051-1.692 23.438l-.484 3.388 4.154-.138v1.244h-3.877s-2.42 17.355-3.25 25.237l-1.886-.138Z"
    />
    <path
      fill="#6d615e"
      d="M15.2 84.186s2.029-2.052 8.322-1.756c6.293.297 8.277 1.779 8.026 1.87-.251.091-16.599.433-16.348-.114Zm9.029 1.026c-.068-.023-8.619-.399-8.801-.217-.183.183-.456 2.292 7.479 2.109 7.934-.182 9.348-1.527 7.934-1.938-1.413-.41-6.612.046-6.612.046Z"
    />
    <path
      fill="#231f20"
      d="M15.679 84.117v.89s3.693.478 8.892.365c5.199-.114 6.27-.206 6.27-.206v-.957l-15.162-.092Z"
    />
    <path
      fill="#6d615e"
      d="M15.679 84.117h-.085v.964l.074.01c.002 0 2.957.383 7.301.383.516 0 1.051-.005 1.604-.018 5.199-.114 6.271-.205 6.275-.205l.078-.007v-1.12l-15.332-.092v.085h.085l-.001.085 15.078.091v.873h.085l-.007-.084s-.016.001-.055.004c-.274.019-1.662.101-6.21.201-.551.012-1.086.017-1.6.017-2.167 0-3.988-.095-5.266-.191-.639-.048-1.143-.095-1.487-.131-.172-.018-.303-.033-.392-.043-.089-.011-.134-.016-.134-.017l-.011.085h.084v-.89h-.084l-.001.085.001-.085Z"
    />
    <path
      fill="#231f20"
      d="M23.346 7.891s.311-8.481.444-7.858c.133.622.47 7.861.47 7.861l-.914-.003Z"
    />
  </g>
</svg>
