<svg
  xmlns="http://www.w3.org/2000/svg"
  xml:space="preserve"
  fill-rule="evenodd"
  stroke-linejoin="round"
  stroke-miterlimit="2"
  clip-rule="evenodd"
  viewBox="0 0 480 96"
>
  <g fill-rule="nonzero">
    <path
      fill="#49c6e5"
      d="M268.987 92.537V79.672h-9.119V91.36h-1.06V72.708h-15.944v-9.36h-6.918v10.279h-.875V59.955h-6.023v13.672h-.825V44.081h-1.657v-4.582h-2.392v-9.831h-.679v9.861h-2.468v4.508h-1.584v23.044h-1.379V45.276h-5.135v14.863h-3.572v12.569h-1.212V56.772h-1.493v-.98h-1.162v-5.241h-.486v5.241h-3.528v-5.241h-.486v5.241h-1.171v1.016h-1.523v22.651h-.957V62.625h-4.251v1.771h-2.125V39.312h-5.03v-1.411h-1.004V32.45h-.486v5.451h-9.164V32.45h-.486v5.451h-1.168v1.411h-5.516v25.731h-1.771v7.805h-3.004v8.71h-1.068V49.503H151.99v9.843h-3.405v22.326h-3.422V51.014h-1.133V30.866h-1.836v-.685h-1.004v-5.455h-.486v5.455h-3.525v-5.455h-.486v5.455h-1.168v.691h-1.78v20.156h-1.063v27.406h-1.71V49.243h-2.187V27.654h-1.595v-4.88h-1.918v-4.875h-2.245V5.465h-.735v12.463h-2.372v4.846h-2.119v4.88h-1.771v21.43h-2.029v32.474h-.996V54.442h-1.941v-8.227h-1.513v-2.617h-1.707V36.68h-.65v6.941h-1.713v2.594h-1.753v8.227h-2.155v31.583h-1.13V55.54h-6.192v8.145H92.45V34.159h-3.686v-1.87H87.76v-5.452h-.486v5.452h-3.525v-5.452h-.486v5.452h-1.168v1.87h-3.823v29.71h-1.798v2.872h-.82v-6.447h-2.383V46.766H62.497v13.581h-2.412v23.079h-1.083V59.044h-5.2v6.145h-.647v-8.867h-2.33v-3.519h-3.103v-6.998h-.744v7.039H43.67v3.478h-2.319v8.499h-6.198v16.737h-1.019V61.486h-6.598v20.072h-.782V50.943h-1.695v-5.184h-2.266v-9.6h-.636V45.8h-2.52v5.05h-1.78v23.239h-6.441v6.951H7.639v11.497H3.447v3.185H273.18v-3.185h-4.193Z"
    />
    <path
      fill="#fff"
      d="M254.344 75.769h1.296v1.086h-1.296zm-2.099 0h1.296v1.086h-1.296zm-2.099 0h1.296v1.086h-1.296zm-2.098 0h1.296v1.086h-1.296zm-2.099 0h1.296v1.086h-1.296zm-2.098 0h1.296v1.086h-1.296zm10.493 2.217h1.296v1.086h-1.296zm-2.099 0h1.296v1.086h-1.296zm-2.099 0h1.296v1.086h-1.296zm-2.098 0h1.296v1.086h-1.296zm-2.099 0h1.296v1.086h-1.296zm-2.098 0h1.296v1.086h-1.296zm10.493 2.215h1.296v1.086h-1.296zm-2.099 0h1.296v1.086h-1.296zm-2.099 0h1.296v1.086h-1.296zm-2.098 0h1.296v1.086h-1.296zm-2.099 0h1.296v1.086h-1.296zm-2.098 0h1.296v1.086h-1.296zm10.493 2.217h1.296v1.086h-1.296zm-2.099 0h1.296v1.086h-1.296zm-2.099 0h1.296v1.086h-1.296zm-2.098 0h1.296v1.086h-1.296zm-2.099 0h1.296v1.086h-1.296zm-2.098 0h1.296v1.086h-1.296zm10.493 2.216h1.296v1.086h-1.296zm-2.099 0h1.296v1.086h-1.296zm-2.099 0h1.296v1.086h-1.296zm-2.098 0h1.296v1.086h-1.296zm-2.099 0h1.296v1.086h-1.296zm-2.098 0h1.296v1.086h-1.296zm10.493 2.216h1.296v1.086h-1.296zm-2.099 0h1.296v1.086h-1.296zm-2.099 0h1.296v1.086h-1.296zm-2.098 0h1.296v1.086h-1.296zm-2.099 0h1.296v1.086h-1.296zm-2.098 0h1.296v1.086h-1.296zm10.493 2.23h1.296v2.278h-1.296zm-2.099 0h1.296v2.278h-1.296zm-2.099 0h1.296v2.278h-1.296zm-2.098 0h1.296v2.278h-1.296zm-2.099 0h1.296v2.278h-1.296zm-2.098 0h1.296v2.278h-1.296zM89.841 67.944h1.207v.671h-1.207zm-1.686 0h1.207v.671h-1.207zm-1.685 0h1.207v.671H86.47zm-1.686 0h1.207v.671h-1.207zm-1.686 0h1.207v.671h-1.207zm-1.685 0h1.207v.671h-1.207zm-1.686 0h1.207v.671h-1.207zm10.114 1.78h1.207v.671h-1.207zm-1.686 0h1.207v.671h-1.207zm-1.685 0h1.207v.671H86.47zm-1.686 0h1.207v.671h-1.207zm-1.686 0h1.207v.671h-1.207zm-1.685 0h1.207v.671h-1.207zm-1.686 0h1.207v.671h-1.207zm10.114-32.963h1.207v1.587h-1.207zm-1.686 0h1.207v1.587h-1.207zm-1.685 0h1.207v1.587H86.47zm-1.686 0h1.207v1.587h-1.207zm-1.686 0h1.207v1.587h-1.207zm-1.685 0h1.207v1.587h-1.207zm-1.686 0h1.207v1.587h-1.207zm10.114 34.743h1.207v.671h-1.207zm-1.686 0h1.207v.671h-1.207zm-1.685 0h1.207v.671H86.47zm-1.686 0h1.207v.671h-1.207zm-1.686 0h1.207v.671h-1.207zm-1.685 0h1.207v.671h-1.207zm-1.686 0h1.207v.671h-1.207zm10.114 1.78h1.207v.671h-1.207zm-1.686 0h1.207v.671h-1.207zm-1.685 0h1.207v.671H86.47zm-1.686 0h1.207v.671h-1.207zm-1.686 0h1.207v.671h-1.207zm-1.685 0h1.207v.671h-1.207zm-1.686 0h1.207v.671h-1.207zm10.114 1.78h1.207v.671h-1.207zm-1.686 0h1.207v.671h-1.207zm-1.685 0h1.207v.671H86.47zm-1.686 0h1.207v.671h-1.207zm-1.686 0h1.207v.671h-1.207zm-1.685 0h1.207v.671h-1.207zm-1.686 0h1.207v.671h-1.207zm10.114 1.78h1.207v.671h-1.207zm-1.686 0h1.207v.671h-1.207zm-1.685 0h1.207v.671H86.47zm-1.686 0h1.207v.671h-1.207zm-1.686 0h1.207v.671h-1.207zm-1.685 0h1.207v.671h-1.207zm-1.686 0h1.207v.671h-1.207zm10.114 1.78h1.207v.671h-1.207zm-1.686 0h1.207v.671h-1.207zm-1.685 0h1.207v.671H86.47zm-1.686 0h1.207v.671h-1.207zm-1.686 0h1.207v.671h-1.207zm-1.685 0h1.207v.671h-1.207zm-1.686 0h1.207v.671h-1.207zm10.114 1.78h1.207v.672h-1.207zm-1.686 0h1.207v.672h-1.207zm-1.685 0h1.207v.672H86.47zm-1.686 0h1.207v.672h-1.207zm-1.686 0h1.207v.672h-1.207zm-1.685 0h1.207v.672h-1.207zm-1.686 0h1.207v.672h-1.207zm10.114 1.78h1.207v.671h-1.207zm-1.686 0h1.207v.671h-1.207zm-1.685 0h1.207v.671H86.47zm-1.686 0h1.207v.671h-1.207zm-1.686 0h1.207v.671h-1.207zm-1.685 0h1.207v.671h-1.207zm-1.686 0h1.207v.671h-1.207zm10.114 1.78h1.207v.671h-1.207zm-1.686 0h1.207v.671h-1.207zm-1.685 0h1.207v.671H86.47zm-1.686 0h1.207v.671h-1.207zm-1.686 0h1.207v.671h-1.207zm-1.685 0h1.207v.671h-1.207zm-1.686 0h1.207v.671h-1.207zM89.841 50.13h1.207v.672h-1.207zm-1.686 0h1.207v.672h-1.207zm-1.685 0h1.207v.672H86.47zm-1.686 0h1.207v.672h-1.207zm-1.686 0h1.207v.672h-1.207zm-1.685 0h1.207v.672h-1.207zm-1.686 0h1.207v.672h-1.207zm10.114 1.781h1.207v.671h-1.207zm-1.686 0h1.207v.671h-1.207zm-1.685 0h1.207v.671H86.47zm-1.686 0h1.207v.671h-1.207zm-1.686 0h1.207v.671h-1.207zm-1.685 0h1.207v.671h-1.207zm-1.686 0h1.207v.671h-1.207zm10.114 1.779h1.207v.671h-1.207zm-1.686 0h1.207v.671h-1.207zm-1.685 0h1.207v.671H86.47zm-1.686 0h1.207v.671h-1.207zm-1.686 0h1.207v.671h-1.207zm-1.685 0h1.207v.671h-1.207zm-1.686 0h1.207v.671h-1.207zm10.114 1.78h1.207v.672h-1.207zm-1.686 0h1.207v.672h-1.207zm-1.685 0h1.207v.672H86.47zm-1.686 0h1.207v.672h-1.207zm-1.686 0h1.207v.672h-1.207zm-1.685 0h1.207v.672h-1.207zm-1.686 0h1.207v.672h-1.207zm10.114 1.781h1.207v.671h-1.207zm-1.686 0h1.207v.671h-1.207zm-1.685 0h1.207v.671H86.47zm-1.686 0h1.207v.671h-1.207zm-1.686 0h1.207v.671h-1.207zm-1.685 0h1.207v.671h-1.207zm-1.686 0h1.207v.671h-1.207zm10.114-15.873h1.207v.671h-1.207zm-1.686 0h1.207v.671h-1.207zm-1.685 0h1.207v.671H86.47zm-1.686 0h1.207v.671h-1.207zm-1.686 0h1.207v.671h-1.207zm-1.685 0h1.207v.671h-1.207zm-1.686 0h1.207v.671h-1.207zm10.114-1.708h1.207v.671h-1.207zm-1.686 0h1.207v.671h-1.207zm-1.685 0h1.207v.671H86.47zm-1.686 0h1.207v.671h-1.207zm-1.686 0h1.207v.671h-1.207zm-1.685 0h1.207v.671h-1.207zm-1.686 0h1.207v.671h-1.207zm10.114 3.488h1.207v.671h-1.207zm-1.686 0h1.207v.671h-1.207zm-1.685 0h1.207v.671H86.47zm-1.686 0h1.207v.671h-1.207zm-1.686 0h1.207v.671h-1.207zm-1.685 0h1.207v.671h-1.207zm-1.686 0h1.207v.671h-1.207zm10.114 1.78h1.207v.671h-1.207zm-1.686 0h1.207v.671h-1.207zm-1.685 0h1.207v.671H86.47zm-1.686 0h1.207v.671h-1.207zm-1.686 0h1.207v.671h-1.207zm-1.685 0h1.207v.671h-1.207zm-1.686 0h1.207v.671h-1.207zm10.114 1.78h1.207v.671h-1.207zm-1.686 0h1.207v.671h-1.207zm-1.685 0h1.207v.671H86.47zm-1.686 0h1.207v.671h-1.207zm-1.686 0h1.207v.671h-1.207zm-1.685 0h1.207v.671h-1.207zm-1.686 0h1.207v.671h-1.207zm10.114 1.78h1.207v.671h-1.207zm-1.686 0h1.207v.671h-1.207zm-1.685 0h1.207v.671H86.47zm-1.686 0h1.207v.671h-1.207zm-1.686 0h1.207v.671h-1.207zm-1.685 0h1.207v.671h-1.207zm-1.686 0h1.207v.671h-1.207zM89.841 59.03h1.207v.671h-1.207zm-1.686 0h1.207v.671h-1.207zm-1.685 0h1.207v.671H86.47zm-1.686 0h1.207v.671h-1.207zm-1.686 0h1.207v.671h-1.207zm-1.685 0h1.207v.671h-1.207zm-1.686 0h1.207v.671h-1.207zm10.114 1.78h1.207v.672h-1.207zm-1.686 0h1.207v.672h-1.207zm-1.685 0h1.207v.672H86.47zm-1.686 0h1.207v.672h-1.207zm-1.686 0h1.207v.672h-1.207zm-1.685 0h1.207v.672h-1.207zm-1.686 0h1.207v.672h-1.207zm10.114 1.781h1.207v.671h-1.207zm-1.686 0h1.207v.671h-1.207zm-1.685 0h1.207v.671H86.47zm-1.686 0h1.207v.671h-1.207zm-1.686 0h1.207v.671h-1.207zm-1.685 0h1.207v.671h-1.207zm-1.686 0h1.207v.671h-1.207zm10.114 1.78h1.207v.671h-1.207zm-1.686 0h1.207v.671h-1.207zm-1.685 0h1.207v.671H86.47zm-1.686 0h1.207v.671h-1.207zm-1.686 0h1.207v.671h-1.207zm-1.685 0h1.207v.671h-1.207zm-1.686 0h1.207v.671h-1.207zm10.114 1.78h1.207v.671h-1.207zm-1.686 0h1.207v.671h-1.207zm-1.685 0h1.207v.671H86.47zm-1.686 0h1.207v.671h-1.207zm-1.686 0h1.207v.671h-1.207zm-1.685 0h1.207v.671h-1.207zm-1.686 0h1.207v.671h-1.207zm10.114 21.51h1.207v.671h-1.207zm-1.686 0h1.207v.671h-1.207zm-1.685 0h1.207v.671H86.47zm-1.686 0h1.207v.671h-1.207zm-1.686 0h1.207v.671h-1.207zm-1.685 0h1.207v.671h-1.207zm-1.686 0h1.207v.671h-1.207zm10.114 2.308h1.207v1.524h-1.207zm-1.686 0h1.207v1.524h-1.207zm-1.685 0h1.207v1.524H86.47zm-1.686 0h1.207v1.524h-1.207zm-1.686 0h1.207v1.524h-1.207zm-1.685 0h1.207v1.524h-1.207zm-1.686 0h1.207v1.524h-1.207zM222.35 41.03h.492v.949h-.492zm1.274 0h.492v.949h-.492zm1.273 0h.492v.949h-.492zm-2.547 1.953h.492v.949h-.492zm1.274 0h.492v.949h-.492zm1.273 0h.492v.949h-.492zm-3.818 2.061h.489v1.353h-.489zm1.271 0h.492v1.353h-.492zm1.274 0h.492v1.353h-.492zm1.273 0h.492v1.353h-.492zm1.274 0h.489v1.353h-.489zm-5.092 2.108h.489v1.353h-.489zm1.271 0h.492v1.353h-.492zm1.274 0h.492v1.353h-.492zm1.273 0h.492v1.353h-.492zm1.274 0h.489v1.353h-.489zm-5.092 2.108h.489v1.353h-.489zm1.271 0h.492v1.353h-.492zm1.274 0h.492v1.353h-.492zm1.273 0h.492v1.353h-.492zm1.274 0h.489v1.353h-.489zm-5.092 2.105h.489v1.355h-.489zm1.271 0h.492v1.355h-.492zm1.274 0h.492v1.355h-.492zm1.273 0h.492v1.355h-.492zm1.274 0h.489v1.355h-.489zm-5.092 2.108h.489v1.353h-.489zm1.271 0h.492v1.353h-.492zm1.274 0h.492v1.353h-.492zm1.273 0h.492v1.353h-.492zm1.274 0h.489v1.353h-.489zm-5.092 2.108h.489v1.353h-.489zm1.271 0h.492v1.353h-.492zm1.274 0h.492v1.353h-.492zm1.273 0h.492v1.353h-.492zm1.274 0h.489v1.353h-.489zm-5.092 2.108h.489v1.353h-.489zm1.271 0h.492v1.353h-.492zm1.274 0h.492v1.353h-.492zm1.273 0h.492v1.353h-.492zm1.274 0h.489v1.353h-.489zm-5.092 2.108h.489v1.353h-.489zm1.271 0h.492v1.353h-.492zm1.274 0h.492v1.353h-.492zm1.273 0h.492v1.353h-.492zm1.274 0h.489v1.353h-.489zm-5.092 2.108h.489v1.353h-.489zm1.271 0h.492v1.353h-.492zm1.274 0h.492v1.353h-.492zm1.273 0h.492v1.353h-.492zm1.274 0h.489v1.353h-.489zm-5.092 2.108h.489v1.353h-.489zm1.271 0h.492v1.353h-.492zm1.274 0h.492v1.353h-.492zm1.273 0h.492v1.353h-.492zm1.274 0h.489v1.353h-.489zm-25.011-4.506h.407v1.121h-.407zm1.057 0h.407v1.121h-.407zm1.054 0h.407v1.121h-.407zm1.056 0h.407v1.121h-.407zm1.054 0h.407v1.121h-.407zm-4.221 1.748h.407v1.121h-.407zm1.057 0h.407v1.121h-.407zm1.054 0h.407v1.121h-.407zm1.056 0h.407v1.121h-.407zm1.054 0h.407v1.121h-.407zm-4.221 1.747h.407v1.121h-.407zm1.057 0h.407v1.121h-.407zm1.054 0h.407v1.121h-.407zm1.056 0h.407v1.121h-.407zm1.054 0h.407v1.121h-.407zm-4.221 1.745h.407v1.124h-.407zm1.057 0h.407v1.124h-.407zm1.054 0h.407v1.124h-.407zm1.056 0h.407v1.124h-.407zm1.054 0h.407v1.124h-.407zm-4.221 1.748h.407v1.121h-.407zm1.057 0h.407v1.121h-.407zm1.054 0h.407v1.121h-.407zm1.056 0h.407v1.121h-.407zm1.054 0h.407v1.121h-.407zm-4.221 1.748h.407v1.121h-.407zm1.057 0h.407v1.121h-.407zm1.054 0h.407v1.121h-.407zm1.056 0h.407v1.121h-.407zm1.054 0h.407v1.121h-.407zm-4.221 1.748h.407v1.121h-.407zm1.057 0h.407v1.121h-.407zm1.054 0h.407v1.121h-.407zm1.056 0h.407v1.121h-.407zm1.054 0h.407v1.121h-.407zm-4.221 1.745h.407v1.124h-.407zm1.057 0h.407v1.124h-.407zm1.054 0h.407v1.124h-.407zm1.056 0h.407v1.124h-.407zm1.054 0h.407v1.124h-.407zm-4.221 1.747h.407v1.121h-.407zm1.057 0h.407v1.121h-.407zm1.054 0h.407v1.121h-.407zm1.056 0h.407v1.121h-.407zm1.054 0h.407v1.121h-.407zm-4.221 1.748h.407v1.121h-.407zm1.057 0h.407v1.121h-.407zm1.054 0h.407v1.121h-.407zm1.056 0h.407v1.121h-.407zm1.054 0h.407v1.121h-.407zm-4.221 1.748h.407V78.1h-.407zm1.057 0h.407V78.1h-.407zm1.054 0h.407V78.1h-.407zm1.056 0h.407V78.1h-.407zm1.054 0h.407V78.1h-.407zm-4.221 1.748h.407v1.121h-.407zm1.057 0h.407v1.121h-.407zm1.054 0h.407v1.121h-.407zm1.056 0h.407v1.121h-.407zm1.054 0h.407v1.121h-.407zm-4.221 1.745h.407v1.121h-.407zm1.057 0h.407v1.121h-.407zm1.054 0h.407v1.121h-.407zm1.056 0h.407v1.121h-.407zm1.054 0h.407v1.121h-.407zm-4.221 1.748h.407v1.121h-.407zm1.057 0h.407v1.121h-.407zm1.054 0h.407v1.121h-.407zm1.056 0h.407v1.121h-.407zm1.054 0h.407v1.121h-.407zm-4.221 1.747h.407v1.121h-.407zm-49.404-8.736h.407v1.121h-.407zm0 1.748h.407V78.1h-.407zm0 1.748h.407v1.121h-.407zm0 9.084h.407v1.121h-.407zm0 1.748h.407v1.121h-.407zm0-5.592h.407v1.121h-.407zm-1.429-8.736h.404v1.121h-.404zm0 1.748h.404V78.1h-.404zm0 1.748h.404v1.121h-.404zm0 9.084h.404v1.121h-.404zm0 1.748h.404v1.121h-.404zm0-5.592h.404v1.121h-.404zm1.429-19.255h.407v1.121h-.407zm0 1.748h.407v1.121h-.407zm0 1.748h.407v1.121h-.407zm0 5.24h.407v1.121h-.407zm-1.429-8.736h.404v1.121h-.404zm1.429-1.753h.407v1.121h-.407zm-1.429 0h.404v1.121h-.404zm0 3.501h.404v1.121h-.404zm0 1.748h.404v1.121h-.404zm0 5.24h.404v1.121h-.404zm51.89 10.519h.407v1.121h-.407zm1.054 0h.407v1.121h-.407zm1.056 0h.407v1.121h-.407zm1.054 0h.407v1.121h-.407zm-4.221 1.748h.407v1.121h-.407zm1.057 0h.407v1.121h-.407zm-37.293-10.967h.407v1.121h-.407zm1.057 0h.407v1.121h-.407zm-1.057 1.748h.407v1.121h-.407zm1.057 0h.407v1.121h-.407zm-1.057 1.745h.407v1.121h-.407zm1.057 0h.407v1.121h-.407zm-1.057 1.748h.407v1.121h-.407zm1.057 0h.407v1.121h-.407zm-1.057 1.747h.407v1.121h-.407zm1.057 0h.407v1.121h-.407zm-1.057 1.748h.407v1.121h-.407zm1.057 0h.407v1.121h-.407zm-1.057 1.745h.407v1.124h-.407zm1.057 0h.407v1.124h-.407zm-1.057 1.748h.407v1.121h-.407zm1.057 0h.407v1.121h-.407zm-1.057 1.748h.407v1.121h-.407zm1.057 0h.407v1.121h-.407zm42.287-11.746h.407V78.1h-.407zm0 1.745h.407v1.124h-.407zm0 1.748h.407v1.121h-.407zm0 1.748h.407v1.121h-.407zm0 1.747h.407v1.121h-.407zm0 1.745h.407v1.121h-.407zm0 1.748h.407v1.121h-.407zm1.139-10.481h.407V78.1h-.407zm0 1.745h.407v1.124h-.407zm0 1.748h.407v1.121h-.407zm0 1.748h.407v1.121h-.407zm0 1.747h.407v1.121h-.407zm0 1.745h.407v1.121h-.407zm0 1.748h.407v1.121h-.407zm19.27-7.398h.407v1.121h-.407zm0 1.748h.407v1.121h-.407zm0 1.747h.407v1.121h-.407zm0 1.748h.407v1.121h-.407zm0 1.745h.407v1.121h-.407zm0 1.748h.407v1.121h-.407zm0 1.748h.407v1.121h-.407zm6.271-10.484h.407v1.121h-.407zm0 1.748h.407v1.121h-.407zm0 1.747h.407v1.121h-.407zm0 1.748h.407v1.121h-.407zm0 1.745h.407v1.121h-.407zm0 1.748h.407v1.121h-.407zm0 1.748h.407v1.121h-.407zm-70.024-.073h.407v1.121h-.407zm1.057 0h.407v1.121h-.407zm37.29-4.758h.407v1.121h-.407zm1.056 0h.407v1.121h-.407zm1.054 0h.407v1.121h-.407zm-4.221 2.155h.407v2.187h-.407zm1.057 0h.407v2.187h-.407zm1.054 0h.407v2.187h-.407zm1.056 0h.407v2.187h-.407zm1.054 0h.407v2.187h-.407zm15.698-21.776h.489v1.353h-.489zm1.271 0h.492v1.353h-.492zm1.274 0h.492v1.353h-.492zm1.273 0h.492v1.353h-.492zm1.274 0h.489v1.353h-.489zm-5.092 2.108h.489v1.353h-.489zm1.271 0h.492v1.353h-.492zm1.274 0h.492v1.353h-.492zm1.273 0h.492v1.353h-.492zm1.274 0h.489v1.353h-.489zm-5.092 2.108h.489v1.353h-.489zm1.271 0h.492v1.353h-.492zm1.274 0h.492v1.353h-.492zm1.273 0h.492v1.353h-.492zm1.274 0h.489v1.353h-.489zm-5.092 2.108h.489v1.353h-.489zm1.271 0h.492v1.353h-.492zm1.274 0h.492v1.353h-.492zm1.273 0h.492v1.353h-.492zm1.274 0h.489v1.353h-.489zm-5.092 2.105h.489v1.355h-.489zm1.271 0h.492v1.355h-.492zm1.274 0h.492v1.355h-.492zm1.273 0h.492v1.355h-.492zm1.274 0h.489v1.355h-.489zm-5.092 2.108h.489v1.356h-.489zm1.271 0h.492v1.356h-.492zm1.274 0h.492v1.356h-.492zm1.273 0h.492v1.356h-.492zm1.274 0h.489v1.356h-.489zm-5.092 2.108h.489v1.353h-.489zm1.271 0h.492v1.353h-.492zm1.274 0h.492v1.353h-.492zm1.273 0h.492v1.353h-.492zm1.274 0h.489v1.353h-.489zm-5.092 2.107h.489v1.353h-.489zm1.271 0h.492v1.353h-.492zm1.274 0h.492v1.353h-.492zm1.273 0h.492v1.353h-.492zm1.274 0h.489v1.353h-.489zm-5.092 2.108h.489v1.353h-.489zm1.271 0h.492v1.353h-.492zm1.274 0h.492v1.353h-.492zm1.273 0h.492v1.353h-.492zm1.274 0h.489v1.353h-.489zm-5.092 2.108h.489v1.353h-.489zm1.271 0h.492v1.353h-.492zm1.274 0h.492v1.353h-.492zm1.273 0h.492v1.353h-.492zm1.274 0h.489v1.353h-.489zm-5.092 2.105h.489v1.355h-.489zm1.271 0h.492v1.355h-.492zm1.274 0h.492v1.355h-.492zm1.273 0h.492v1.355h-.492zm1.274 0h.489v1.355h-.489zm-5.092 2.108h.489v2.298h-.489zm1.271 0h.492v2.298h-.492zm1.274 0h.492v2.298h-.492zm1.273 0h.492v2.298h-.492zm1.274 0h.489v2.298h-.489zM21.007 49.614h.433v1.197h-.433zm1.127 0h.436v1.197h-.436zm1.127 0h.436v1.197h-.436zm-2.254-1.911h.433V48.9h-.433zm1.127 0h.436V48.9h-.436zm1.127 0h.436V48.9h-.436zm-3.381 4.69h.433v1.197h-.433zm1.127 0h.433v1.197h-.433zm1.127 0h.436v1.197h-.436zm1.127 0h.436v1.197h-.436zm1.127 0h.436v1.197h-.436zm-4.508 1.865h.433v1.197h-.433zm1.127 0h.433v1.197h-.433zm1.127 0h.436v1.197h-.436zm1.127 0h.436v1.197h-.436zm1.127 0h.436v1.197h-.436zm-4.508 1.867h.433v1.197h-.433zm1.127 0h.433v1.197h-.433zm1.127 0h.436v1.197h-.436zm1.127 0h.436v1.197h-.436zm1.127 0h.436v1.197h-.436zM19.88 57.99h.433v1.197h-.433zm1.127 0h.433v1.197h-.433zm1.127 0h.436v1.197h-.436zm1.127 0h.436v1.197h-.436zm1.127 0h.436v1.197h-.436zm-4.508 1.868h.433v1.197h-.433zm1.127 0h.433v1.197h-.433zm1.127 0h.436v1.197h-.436zm1.127 0h.436v1.197h-.436zm1.127 0h.436v1.197h-.436zm-4.508 1.865h.433v1.197h-.433zm1.127 0h.433v1.197h-.433zm1.127 0h.436v1.197h-.436zm1.127 0h.436v1.197h-.436zm1.127 0h.436v1.197h-.436zm-4.508 1.865h.433v1.2h-.433zm1.127 0h.433v1.2h-.433zm1.127 0h.436v1.2h-.436zm1.127 0h.436v1.2h-.436zm1.127 0h.436v1.2h-.436zm-4.508 1.868h.433v1.197h-.433zm1.127 0h.433v1.197h-.433zm1.127 0h.436v1.197h-.436zm1.127 0h.436v1.197h-.436zm1.127 0h.436v1.197h-.436zm-4.508 1.865h.433v1.2h-.433zm1.127 0h.433v1.2h-.433zm1.127 0h.436v1.2h-.436zm1.127 0h.436v1.2h-.436zm1.127 0h.436v1.2h-.436zm-4.508 1.847h.433v1.197h-.433zm1.127 0h.433v1.197h-.433zm1.127 0h.436v1.197h-.436zm1.127 0h.436v1.197h-.436zm1.127 0h.436v1.197h-.436zm-4.508 1.865h.433v1.197h-.433zm1.127 0h.433v1.197h-.433zm1.127 0h.436v1.197h-.436zm1.127 0h.436v1.197h-.436zm1.127 0h.436v1.197h-.436zm-4.508 1.865h.433v1.2h-.433zm1.127 0h.433v1.2h-.433zm1.127 0h.436v1.2h-.436zm1.127 0h.436v1.2h-.436zm1.127 0h.436v1.2h-.436zm-4.508 1.868h.433v1.197h-.433zm1.127 0h.433v1.197h-.433zm1.127 0h.436v1.197h-.436zm1.127 0h.436v1.197h-.436zm1.127 0h.436v1.197h-.436zm-4.508 1.865h.433v1.2h-.433zm1.127 0h.433v1.2h-.433zm1.127 0h.436v1.2h-.436zm1.127 0h.436v1.2h-.436zm1.127 0h.436v1.2h-.436zm-4.508 1.868h.433v1.197h-.433zm1.127 0h.433v1.197h-.433zm1.127 0h.436v1.197h-.436zm1.127 0h.436v1.197h-.436zm1.127 0h.436v1.197h-.436zm-4.508 1.864h.433v1.2h-.433zm1.127 0h.433v1.2h-.433zm1.127 0h.436v1.2h-.436zm1.127 0h.436v1.2h-.436zm1.127 0h.436v1.2h-.436zm-4.508 1.868h.433v1.197h-.433zm1.127 0h.433v1.197h-.433zm1.127 0h.436v1.197h-.436zm1.127 0h.436v1.197h-.436zm1.127 0h.436v1.197h-.436zm-4.508 1.865h.433v1.2h-.433zm1.127 0h.433v1.2h-.433zm1.127 0h.436v1.2h-.436zm1.127 0h.436v1.2h-.436zm1.127 0h.436v1.2h-.436zm-4.508 1.868h.433v1.197h-.433zm1.127 0h.433v1.197h-.433zm1.127 0h.436v1.197h-.436zm1.127 0h.436v1.197h-.436zm1.127 0h.436v1.197h-.436zm-4.508 1.865h.433v1.197h-.433zm1.127 0h.433v1.197h-.433zm1.127 0h.436v1.197h-.436zm1.127 0h.436v1.197h-.436zm1.127 0h.436v1.197h-.436zm-4.508 1.868h.433v2.205h-.433zm1.127 0h.433v2.205h-.433zm1.127 0h.436v2.205h-.436zm1.127 0h.436v2.205h-.436zm1.127 0h.436v2.205h-.436zm95.389-33.985h.491v1.353h-.491zm1.273 0h.491v1.353h-.491zm1.273 0h.49v1.353h-.49zm1.273 0h.49v1.353h-.49zm1.273 0h.49v1.353h-.49zm-5.092 2.108h.491v1.353h-.491zm1.273 0h.491v1.353h-.491zm1.273 0h.49v1.353h-.49zm1.273 0h.49v1.353h-.49zm1.273 0h.49v1.353h-.49zm-5.092 2.107h.491v1.353h-.491zm1.273 0h.491v1.353h-.491zm1.273 0h.49v1.353h-.49zm1.273 0h.49v1.353h-.49zm1.273 0h.49v1.353h-.49zm-5.092 2.107h.491v1.353h-.491zm1.273 0h.491v1.353h-.491zm1.273 0h.49v1.353h-.49zm1.273 0h.49v1.353h-.49zm1.273 0h.49v1.353h-.49zm-5.092 2.108h.491v1.353h-.491zm1.273 0h.491v1.353h-.491zm1.273 0h.49v1.353h-.49zm1.273 0h.49v1.353h-.49zm1.273 0h.49v1.353h-.49zm-5.092 2.107h.491v1.353h-.491zm1.273 0h.491v1.353h-.491zm1.273 0h.49v1.353h-.49zm1.273 0h.49v1.353h-.49zm1.273 0h.49v1.353h-.49zm-5.092 2.107h.491v1.353h-.491zm1.273 0h.491v1.353h-.491zm1.273 0h.49v1.353h-.49zm1.273 0h.49v1.353h-.49zm1.273 0h.49v1.353h-.49zm-5.092 2.108h.491v1.353h-.491zm1.273 0h.491v1.353h-.491zm1.273 0h.49v1.353h-.49zm1.273 0h.49v1.353h-.49zm1.273 0h.49v1.353h-.49zm-5.092 2.107h.491v1.353h-.491zm1.273 0h.491v1.353h-.491zm1.273 0h.49v1.353h-.49zm1.273 0h.49v1.353h-.49zm1.273 0h.49v1.353h-.49zm-5.092 2.108h.491v1.353h-.491zm1.273 0h.491v1.353h-.491zm1.273 0h.49v1.353h-.49zm1.273 0h.49v1.353h-.49zm1.273 0h.49v1.353h-.49zm-5.092 2.107h.491v1.353h-.491zm1.273 0h.491v1.353h-.491zm1.273 0h.49v1.353h-.49zm1.273 0h.49v1.353h-.49zm1.273 0h.49v1.353h-.49zm-80.426-18.2h.491v1.353h-.491zm1.274 0h.49v1.353h-.49zm1.272 0h.49v1.353h-.49zm1.273 0h.49v1.353h-.49zm1.273 0h.491v1.353h-.491zm-5.092-3.674h.491v1.353h-.491zm1.274 0h.49v1.353h-.49zm1.272 0h.49v1.353h-.49zm1.273 0h.49v1.353h-.49zm1.273 0h.491v1.353h-.491zm-5.092 5.782h.491v1.353h-.491zm1.274 0h.49v1.353h-.49zm1.272 0h.49v1.353h-.49zm1.273 0h.49v1.353h-.49zm1.273 0h.491v1.353h-.491zm-5.092 2.107h.491v1.353h-.491zm1.274 0h.49v1.353h-.49zm1.272 0h.49v1.353h-.49zm1.273 0h.49v1.353h-.49zm1.273 0h.491v1.353h-.491zm-5.092 2.107h.491v1.353h-.491zm1.274 0h.49v1.353h-.49zm1.272 0h.49v1.353h-.49zm1.273 0h.49v1.353h-.49zm1.273 0h.491v1.353h-.491zm-5.092 2.108h.491v1.353h-.491zm1.274 0h.49v1.353h-.49zm1.272 0h.49v1.353h-.49zm1.273 0h.49v1.353h-.49zm1.273 0h.491v1.353h-.491zm-5.092 2.107h.491v1.353h-.491zm1.274 0h.49v1.353h-.49zm1.272 0h.49v1.353h-.49zm1.273 0h.49v1.353h-.49zm1.273 0h.491v1.353h-.491zm-5.092 2.107h.491v1.353h-.491zm1.274 0h.49v1.353h-.49zm1.272 0h.49v1.353h-.49zm1.273 0h.49v1.353h-.49zm1.273 0h.491v1.353h-.491zm-5.092 2.108h.491v1.353h-.491zm1.274 0h.49v1.353h-.49zm1.272 0h.49v1.353h-.49zm1.273 0h.49v1.353h-.49zm1.273 0h.491v1.353h-.491zm-5.092 2.107h.491v1.353h-.491zm1.274 0h.49v1.353h-.49zm1.272 0h.49v1.353h-.49zm1.273 0h.49v1.353h-.49zm1.273 0h.491v1.353h-.491zm-5.092 2.108h.491v1.353h-.491zm1.274 0h.49v1.353h-.49zm1.272 0h.49v1.353h-.49zm1.273 0h.49v1.353h-.49zm1.273 0h.491v1.353h-.491zm-5.092 2.107h.491v1.353h-.491zm1.274 0h.49v1.353h-.49zm1.272 0h.49v1.353h-.49zm1.273 0h.49v1.353h-.49zm1.273 0h.491v1.353h-.491zm-5.092 3.865h.491v1.353h-.491zm1.274 0h.49v1.353h-.49zm1.272 0h.49v1.353h-.49zm1.273 0h.49v1.353h-.49zm1.273 0h.491v1.353h-.491zm-5.092 2.108h.491v1.353h-.491zm1.274 0h.49v1.353h-.49zm1.272 0h.49v1.353h-.49zm1.273 0h.49v1.353h-.49zm1.273 0h.491v1.353h-.491zm-5.092 2.277h.491v2.527h-.491zm1.274 0h.49v2.527h-.49zm1.272 0h.49v2.527h-.49zm1.273 0h.49v2.527h-.49zm1.273 0h.491v2.527h-.491zm70.242-9.156h.491v1.353h-.491zm1.273 0h.491v1.353h-.491zm1.273 0h.49v1.353h-.49zm1.273 0h.49v1.353h-.49zm1.273 0h.49v1.353h-.49zm-5.092 2.107h.491v1.353h-.491zm1.273 0h.491v1.353h-.491zm1.273 0h.49v1.353h-.49zm1.273 0h.49v1.353h-.49zm1.273 0h.49v1.353h-.49zm-5.092 2.107h.491v1.353h-.491zm1.273 0h.491v1.353h-.491zm1.273 0h.49v1.353h-.49zm1.273 0h.49v1.353h-.49zm1.273 0h.49v1.353h-.49zm-5.092 2.108h.491v1.353h-.491zm1.273 0h.491v1.353h-.491zm1.273 0h.49v1.353h-.49zm1.273 0h.49v1.353h-.49zm1.273 0h.49v1.353h-.49zm-5.092 2.107h.491v1.353h-.491zm1.273 0h.491v1.353h-.491zm1.273 0h.49v1.353h-.49zm1.273 0h.49v1.353h-.49zm1.273 0h.49v1.353h-.49zM121.05 20.58h.491v.812h-.491zm1.273 0h.49v.812h-.49zm1.273 0h.49v.812h-.49zm-3.819 3.735h.491v.926h-.491zm1.273 0h.491v.926h-.491zm1.273 0h.49v.926h-.49zm1.273 0h.49v.926h-.49zm1.273 0h.49v.926h-.49zm-5.092 1.738h.491v.927h-.491zm1.273 0h.491v.927h-.491zm1.273 0h.49v.927h-.49zm1.273 0h.49v.927h-.49zm1.273 0h.49v.927h-.49zm-5.092 2.899h.491v.93h-.491zm1.273 0h.491v.93h-.491zm1.273 0h.49v.93h-.49zm1.273 0h.49v.93h-.49zm1.273 0h.49v.93h-.49zm-5.092 1.685h.491v1.353h-.491zm1.273 0h.491v1.353h-.491zm1.273 0h.49v1.353h-.49zm1.273 0h.49v1.353h-.49zm1.273 0h.49v1.353h-.49zm-5.092 2.107h.491v1.353h-.491zm1.273 0h.491v1.353h-.491zm1.273 0h.49v1.353h-.49zm1.273 0h.49v1.353h-.49zm1.273 0h.49v1.353h-.49zm-5.092 2.108h.491v1.353h-.491zm1.273 0h.491v1.353h-.491zm1.273 0h.49v1.353h-.49zm1.273 0h.49v1.353h-.49zm1.273 0h.49v1.353h-.49zm-5.092 2.107h.491v1.353h-.491zm1.273 0h.491v1.353h-.491zm1.273 0h.49v1.353h-.49zm1.273 0h.49v1.353h-.49zm1.273 0h.49v1.353h-.49zm-5.092 2.107h.491v1.353h-.491zm1.273 0h.491v1.353h-.491zm1.273 0h.49v1.353h-.49zm1.273 0h.49v1.353h-.49zm1.273 0h.49v1.353h-.49zm-5.092 2.108h.491v1.353h-.491zm1.273 0h.491v1.353h-.491zm1.273 0h.49v1.353h-.49zm1.273 0h.49v1.353h-.49zm1.273 0h.49v1.353h-.49zm-5.092 2.107h.491v1.353h-.491zm1.273 0h.491v1.353h-.491zm1.273 0h.49v1.353h-.49zm1.273 0h.49v1.353h-.49zm1.273 0h.49v1.353h-.49zm-5.092 1.968h.491v1.353h-.491zm1.273 0h.491v1.353h-.491zm1.273 0h.49v1.353h-.49zm1.273 0h.49v1.353h-.49zm1.273 0h.49v1.353h-.49zm-5.092 2.107h.491v1.353h-.491zm1.273 0h.491v1.353h-.491zm1.273 0h.49v1.353h-.49zm1.273 0h.49v1.353h-.49zm1.273 0h.49v1.353h-.49zm-5.092 2.107h.491v1.353h-.491zm1.273 0h.491v1.353h-.491zm1.273 0h.49v1.353h-.49zm1.273 0h.49v1.353h-.49zm1.273 0h.49v1.353h-.49zm-5.092 2.108h.491v1.353h-.491zm1.273 0h.491v1.353h-.491zm1.273 0h.49v1.353h-.49zm1.273 0h.49v1.353h-.49zm1.273 0h.49v1.353h-.49zm-5.092 2.107h.491v1.353h-.491zm-1.305 2.034h.491v1.353h-.491zm0 2.108h.491v1.353h-.491zm0-28.868h.491v.93h-.491zm0 1.685h.491v1.353h-.491zm0 2.107h.491v1.353h-.491zm0 2.108h.491v1.353h-.491zm0 2.107h.491v1.353h-.491zm0 2.107h.491v1.353h-.491zm0 2.108h.491v1.353h-.491zm0 2.107h.491v1.353h-.491zm0 1.968h.491v1.353h-.491zm0 2.107h.491v1.353h-.491zm0 2.107h.491v1.353h-.491zm0 2.108h.491v1.353h-.491zm0 2.107h.491v1.353h-.491zm7.51 2.034h.491v1.353h-.491zm0 2.108h.491v1.353h-.491zm0-28.868h.491v.93h-.491zm0 1.685h.491v1.353h-.491zm0 2.107h.491v1.353h-.491zm0 2.108h.491v1.353h-.491zm0 2.107h.491v1.353h-.491zm0 2.107h.491v1.353h-.491zm0 2.108h.491v1.353h-.491zm0 2.107h.491v1.353h-.491zm0 1.968h.491v1.353h-.491zm0 2.107h.491v1.353h-.491zm0 2.107h.491v1.353h-.491zm0 2.108h.491v1.353h-.491zm0 2.107h.491v1.353h-.491zm-4.932 0h.491v1.353h-.491zm1.273 0h.49v1.353h-.49zm1.273 0h.49v1.353h-.49zm1.273 0h.49v1.353h-.49zm-5.092 35.613h.491v1.353h-.491zm1.273 0h.491v1.353h-.491zm1.273 0h.49v1.353h-.49zm1.273 0h.49v1.353h-.49zm1.273 0h.49v1.353h-.49zm-5.092 2.107h.491v1.353h-.491zm1.273 0h.491v1.353h-.491zm1.273 0h.49v1.353h-.49zm1.273 0h.49v1.353h-.49zm1.273 0h.49v1.353h-.49zm10.501-43.703h.432v1.353h-.432zm1.121 0h.432v1.353h-.432zm1.122 0h.432v1.353h-.432zm1.121 0h.432v1.353h-.432zm-3.364 2.108h.432v1.353h-.432zm1.121 0h.432v1.353h-.432zm1.122 0h.432v1.353h-.432zm1.121 0h.432v1.353h-.432zm-3.364 2.107h.432v1.353h-.432zm-1.054 0h.432v1.353h-.432zm2.175 0h.432v1.353h-.432zm1.122 0h.432v1.353h-.432zm1.121 0h.432v1.353h-.432zm-3.364 2.108h.432v1.353h-.432zm1.121 0h.432v1.353h-.432zm1.122 0h.432v1.353h-.432zm1.121 0h.432v1.353h-.432zm-3.364 2.107h.432v1.353h-.432zm1.121 0h.432v1.353h-.432zm1.122 0h.432v1.353h-.432zm1.121 0h.432v1.353h-.432zm-3.364 2.108h.432v1.353h-.432zm1.121 0h.432v1.353h-.432zm1.122 0h.432v1.353h-.432zm1.121 0h.432v1.353h-.432zm-3.364 2.107h.432v1.353h-.432zm1.121 0h.432v1.353h-.432zm1.122 0h.432v1.353h-.432zm1.121 0h.432v1.353h-.432zm-3.364 2.108h.432v1.353h-.432zm1.121 0h.432v1.353h-.432zm1.122 0h.432v1.353h-.432zm1.121 0h.432v1.353h-.432zm-3.364 2.107h.432v1.353h-.432zm1.121 0h.432v1.353h-.432zm1.122 0h.432v1.353h-.432zm1.121 0h.432v1.353h-.432zm-3.364 2.107h.432v1.353h-.432zm1.121 0h.432v1.353h-.432zm1.122 0h.432v1.353h-.432zm1.121 0h.432v1.353h-.432zm-3.364 2.108h.432v1.353h-.432zm1.121 0h.432v1.353h-.432zm1.122 0h.432v1.353h-.432zm1.121 0h.432v1.353h-.432zm-3.364 1.967h.432v1.353h-.432zm1.121 0h.432v1.353h-.432zm1.122 0h.432v1.353h-.432zm1.121 0h.432v1.353h-.432zm-3.364 2.107h.432v1.353h-.432zm1.121 0h.432v1.353h-.432zm1.122 0h.432v1.353h-.432zm1.121 0h.432v1.353h-.432zm-3.364 2.108h.432v1.353h-.432zm1.121 0h.432v1.353h-.432zm1.122 0h.432v1.353h-.432zm1.121 0h.432v1.353h-.432zm-3.364 2.107h.432v1.353h-.432zm1.121 0h.432v1.353h-.432zm1.122 0h.432v1.353h-.432zm1.121 0h.432v1.353h-.432zm-3.364 2.108h.432v1.353h-.432zm1.121 0h.432v1.353h-.432zm1.122 0h.432v1.353h-.432zm1.121 0h.432v1.353h-.432zm-3.364 2.107h.432v1.353h-.432zm1.121 0h.432v1.353h-.432zm1.122 0h.432v1.353h-.432zm1.121 0h.432v1.353h-.432zm-3.364 2.108h.432v1.353h-.432zm1.121 0h.432v1.353h-.432zm1.122 0h.432v1.353h-.432zm1.121 0h.432v1.353h-.432zm-3.364 2.107h.432v1.353h-.432zm1.121 0h.432v1.353h-.432zm1.122 0h.432v1.353h-.432zm1.121 0h.432v1.353h-.432zm-3.364 2.107h.432v1.353h-.432zm1.121 0h.432v1.353h-.432zm1.122 0h.432v1.353h-.432zm1.121 0h.432v1.353h-.432zm-3.364 2.108h.432v2.359h-.432zm1.121 0h.432v2.359h-.432zm1.122 0h.432v2.359h-.432zm1.121 0h.432v2.359h-.432zm1.189-42.009h.432v1.353h-.432zm1.122 0h.432v1.353h-.432zm1.121 0h.432v1.353h-.432zm-2.243 2.108h.432v1.353h-.432zm1.122 0h.432v1.353h-.432zm1.121 0h.432v1.353h-.432zm-2.243 2.107h.432v1.353h-.432zm1.122 0h.432v1.353h-.432zm1.121 0h.432v1.353h-.432zm1.135 0h.432v1.353h-.432zm-3.378 2.108h.432v1.353h-.432zm1.122 0h.432v1.353h-.432zm1.121 0h.432v1.353h-.432zm-2.243 2.107h.432v1.353h-.432zm1.122 0h.432v1.353h-.432zm1.121 0h.432v1.353h-.432zm-2.243 2.108h.432v1.353h-.432zm1.122 0h.432v1.353h-.432zm1.121 0h.432v1.353h-.432zm-2.243 2.107h.432v1.353h-.432zm1.122 0h.432v1.353h-.432zm1.121 0h.432v1.353h-.432zm-2.243 2.108h.432v1.353h-.432zm1.122 0h.432v1.353h-.432zm1.121 0h.432v1.353h-.432zm-6.796-29.661h.432v1.353h-.432zm1.121 0h.432v1.353h-.432zm1.122 0h.432v1.353h-.432zm1.121 0h.432v1.353h-.432zm-3.364 2.107h.432v1.353h-.432zm1.121 0h.432v1.353h-.432zm1.122 0h.432v1.353h-.432zm1.121 0h.432v1.353h-.432zm-3.364 2.108h.432v1.353h-.432zm1.121 0h.432v1.353h-.432zm1.122 0h.432v1.353h-.432zm1.121 0h.432v1.353h-.432zm-3.364 2.107h.432v1.353h-.432zm1.121 0h.432v1.353h-.432zm1.122 0h.432v1.353h-.432zm1.121 0h.432v1.353h-.432zm-3.364 2.108h.432v1.353h-.432zm1.121 0h.432v1.353h-.432zm1.122 0h.432v1.353h-.432zm1.121 0h.432v1.353h-.432zm-3.364 2.107h.432v1.353h-.432zm1.121 0h.432v1.353h-.432zm1.122 0h.432v1.353h-.432zm1.121 0h.432v1.353h-.432zm-3.364 2.108h.432v1.353h-.432zm1.121 0h.432v1.353h-.432zm1.122 0h.432v1.353h-.432zm1.121 0h.432v1.353h-.432zm1.189-12.645h.432v1.353h-.432zm1.122 0h.432v1.353h-.432zm1.121 0h.432v1.353h-.432zm-2.243 2.107h.432v1.353h-.432zm1.122 0h.432v1.353h-.432zm1.121 0h.432v1.353h-.432zm-2.243 2.108h.432v1.353h-.432zm1.122 0h.432v1.353h-.432zm1.121 0h.432v1.353h-.432zm-2.243 2.107h.432v1.353h-.432zm1.122 0h.432v1.353h-.432zm1.121 0h.432v1.353h-.432zm-2.243 2.108h.432v1.353h-.432zm1.122 0h.432v1.353h-.432zm1.121 0h.432v1.353h-.432zm-2.243 2.107h.432v1.353h-.432zm1.122 0h.432v1.353h-.432zm1.121 0h.432v1.353h-.432zm-2.243 2.108h.432v1.353h-.432zm1.122 0h.432v1.353h-.432zm1.121 0h.432v1.353h-.432zm-2.243 19.123h.432v1.353h-.432zm1.122 0h.432v1.353h-.432zm1.121 0h.432v1.353h-.432zm-2.243 2.107h.432v1.353h-.432zm1.122 0h.432v1.353h-.432zm1.121 0h.432v1.353h-.432zm-2.243 2.108h.432v1.353h-.432zm1.122 0h.432v1.353h-.432zm1.121 0h.432v1.353h-.432zm-2.243 1.967h.432v1.353h-.432zm1.122 0h.432v1.353h-.432zm1.121 0h.432v1.353h-.432zm-2.243 2.107h.432v1.353h-.432zm1.122 0h.432v1.353h-.432zm1.121 0h.432v1.353h-.432zm-2.243 2.108h.432v1.353h-.432zm1.122 0h.432v1.353h-.432zm1.121 0h.432v1.353h-.432zm-2.243 2.107h.432v1.353h-.432zm1.122 0h.432v1.353h-.432zm1.121 0h.432v1.353h-.432zm-2.243 2.108h.432v1.353h-.432zm1.122 0h.432v1.353h-.432zm1.121 0h.432v1.353h-.432zm-2.243 2.107h.432v1.353h-.432zm1.122 0h.432v1.353h-.432zm1.121 0h.432v1.353h-.432zm-2.243 2.108h.432v1.353h-.432zm1.122 0h.432v1.353h-.432zm1.121 0h.432v1.353h-.432zm-2.243 2.107h.432v1.353h-.432zm1.122 0h.432v1.353h-.432zm1.121 0h.432v1.353h-.432zm-2.243 2.107h.432v1.353h-.432zm1.122 0h.432v1.353h-.432zm1.121 0h.432v1.353h-.432zm-2.243 2.108h.432v2.359h-.432zm1.122 0h.432v2.359h-.432zm1.121 0h.432v2.359h-.432zm1.14-35.686h.432v1.353h-.432zm0 2.107h.432v1.353h-.432zm0 2.108h.432v1.353h-.432zm0 2.107h.432v1.353h-.432zm0 2.108h.432v1.353h-.432zm0 2.107h.432v1.353h-.432zm0 2.107h.432v1.353h-.432zm0 2.108h.432v1.353h-.432zm0 1.967h.432v1.353h-.432zm0 2.107h.432v1.353h-.432zm0 2.108h.432v1.353h-.432zm0 2.107h.432v1.353h-.432zm0 2.108h.432v1.353h-.432zm0 2.107h.432v1.353h-.432zm0 2.108h.432v1.353h-.432zm0 2.107h.432v1.353h-.432zm0 2.107h.432v1.353h-.432zm0 2.108h.432v2.359h-.432zM95.993 57.65h.432v1.353h-.432zm1.121 0h.432v1.353h-.432zm-1.121 2.108h.432v1.353h-.432zm1.121 0h.432v1.353h-.432zm-1.121 2.107h.432v1.353h-.432zm1.121 0h.432v1.353h-.432zm-1.121 2.107h.432v1.353h-.432zm1.121 0h.432v1.353h-.432zm-1.121 2.108h.432v1.353h-.432zm1.121 0h.432v1.353h-.432zm-1.121 2.107h.432v1.353h-.432zm1.121 0h.432v1.353h-.432zm-1.121 2.108h.432v1.353h-.432zm1.121 0h.432v1.353h-.432zm-1.121 2.107h.432v1.353h-.432zm1.121 0h.432v1.353h-.432zm-1.121 1.967h.432v1.353h-.432zm1.121 0h.432v1.353h-.432zm-1.121 2.107h.432v1.353h-.432zm1.121 0h.432v1.353h-.432zm-1.121 2.108h.432v1.353h-.432zm1.121 0h.432v1.353h-.432zm-1.121 2.107h.432v1.353h-.432zm1.121 0h.432v1.353h-.432zm-1.121 2.108h.432v1.353h-.432zm1.121 0h.432v1.353h-.432zm-1.121 2.107h.432v1.353h-.432zm-3.434-17.315h.432v1.353h-.432zm0 2.107h.432v1.353h-.432zm0 2.108h.432v1.353h-.432zm0 1.967h.432v1.353h-.432zm0 2.107h.432v1.353h-.432zm0 2.107h.432v1.353h-.432zm0 2.108h.432v1.353h-.432zm0 2.107h.432v1.353h-.432zm0 2.108h.432v1.353h-.432zM76.946 67.591h.432v1.353h-.432zm0 2.107h.432v1.353h-.432zm0 2.108h.432v1.353h-.432zm0 1.967h.432v1.353h-.432zm0 2.107h.432v1.353h-.432zm0 2.107h.432v1.353h-.432zm0 2.108h.432v1.353h-.432zm0 2.107h.432v1.353h-.432zm0 2.108h.432v1.353h-.432zm0 5.287h.432v1.353h-.432zm15.506 0h.432v1.353h-.432zM55.583 67.591h.432v1.353h-.432zm0 2.107h.432v1.353h-.432zm0 2.108h.432v1.353h-.432zm0 1.967h.432v1.353h-.432zm0 2.107h.432v1.353h-.432zm0 2.107h.432v1.353h-.432zm0 2.108h.432v1.353h-.432zm0 2.107h.432v1.353h-.432zm0 2.108h.432v1.353h-.432zm1.41-16.719h.432v1.353h-.432zm0 2.107h.432v1.353h-.432zm0 2.108h.432v1.353h-.432zm-1.41-10.577h.432v1.353h-.432zm0 2.108h.432v1.353h-.432zm0 2.107h.432v1.353h-.432zm1.41-4.215h.432v1.353h-.432zm0 2.108h.432v1.353h-.432zm0 2.107h.432v1.353h-.432zm0 8.329h.432v1.353h-.432zm0 2.107h.432v1.353h-.432zm0 2.107h.432v1.353h-.432zm0 2.108h.432v1.353h-.432zm0 2.107h.432v1.353h-.432zm0 2.108h.432v1.353h-.432zm-1.41 5.017h.432v1.353h-.432zm-2.818 0h.432v1.353h-.432zm4.228 0h.432v1.353h-.432zm2.766 0h.432v1.353h-.432zM40.08 67.591h.432v1.353h-.432zm0 2.107h.432v1.353h-.432zm0 2.108h.432v1.353h-.432zm0 1.967h.432v1.353h-.432zm0 2.107h.432v1.353h-.432zm0 2.107h.432v1.353h-.432zm0 2.108h.432v1.353h-.432zm0 2.107h.432v1.353h-.432zm0 2.108h.432v1.353h-.432zm-1.303-16.719h.432v1.353h-.432zm0 2.107h.432v1.353h-.432zm0 2.108h.432v1.353h-.432zm0 1.967h.432v1.353h-.432zm0 2.107h.432v1.353h-.432zm0 2.107h.432v1.353h-.432zm0 2.108h.432v1.353h-.432zm0 2.107h.432v1.353h-.432zm0 2.108h.432v1.353h-.432zm-1.301-16.719h.432v1.353h-.432zm0 2.107h.432v1.353h-.432zm0 2.108h.432v1.353h-.432zm0 1.967h.432v1.353h-.432zm0 2.107h.432v1.353h-.432zm0 2.107h.432v1.353h-.432zm0 2.108h.432v1.353h-.432zm0 2.107h.432v1.353h-.432zm0 2.108h.432v1.353h-.432zm2.604 4.718h.432v1.353h-.432zm-1.303 0h.432v1.353h-.432zm-1.301 0h.432v1.353h-.432zm59.638-4.122h.432v1.353h-.432zm-1.121 2.108h.432v1.353h-.432zm1.121 0h.432v1.353h-.432zm-1.121 2.107h.432v1.353h-.432zm1.121 0h.432v1.353h-.432zm-1.121 2.108h.432v1.353h-.432zm1.121 0h.432v1.353h-.432zm1.18-33.579h.432v1.353h-.432zm0 2.108h.432v1.353h-.432zm0 2.107h.432v1.353h-.432zm0 2.107h.432v1.353h-.432zm0 2.108h.432v1.353h-.432zm0 2.107h.432v1.353h-.432zm0 2.108h.432v1.353h-.432zm0 2.107h.432v1.353h-.432zm0 1.967h.432v1.353h-.432zm0 2.107h.432v1.353h-.432zm0 2.108h.432v1.353h-.432zm0 2.107h.432v1.353h-.432zm0 2.108h.432v1.353h-.432zm0 2.107h.432v1.353h-.432zm0 2.108h.432v1.353h-.432zm0 2.107h.432v1.353h-.432zm0 2.108h.432v1.353h-.432zm35.968-37.211h.432v1.353h-.432zm0 2.107h.432v1.353h-.432zm0 2.108h.432v1.353h-.432zm0 2.107h.432v1.353h-.432zm0 2.108h.432v1.353h-.432zm0 2.107h.432v1.353h-.432zm0 2.107h.432v1.353h-.432zm0 2.108h.432v1.353h-.432zm0 1.967h.432v1.353h-.432zm0 2.107h.432v1.353h-.432zm0 2.108h.432v1.353h-.432zm0 2.107h.432v1.353h-.432zm0 2.108h.432v1.353h-.432zm0 2.107h.432v1.353h-.432zm0 2.108h.432v1.353h-.432zm0 2.107h.432v1.353h-.432zm0 2.107h.432v1.353h-.432zm0 2.108h.432v2.359h-.432zm-8.226-29.777h.491v1.353h-.491zm0 2.107h.491v1.353h-.491zm0 2.108h.491v1.353h-.491zm1.272 0h.491v1.353h-.491zm-1.272 2.107h.491v1.353h-.491zm1.272 0h.491v1.353h-.491zm-1.272 2.107h.491v1.353h-.491zm1.272 0h.491v1.353h-.491zm-1.272 2.108h.491v1.353h-.491zm1.272 0h.491v1.353h-.491zm-1.272 2.107h.491v1.353h-.491zm1.272 0h.491v1.353h-.491zm-1.272 2.108h.491v1.353h-.491zm1.272 0h.491v1.353h-.491zm-1.272 2.107h.491v1.353h-.491zm1.272 0h.491v1.353h-.491zm-1.272 1.968h.491v1.353h-.491zm1.272 0h.491v1.353h-.491zm-1.272 2.107h.491v1.353h-.491zm1.272 0h.491v1.353h-.491zm-1.272 2.107h.491v1.353h-.491zm1.272 0h.491v1.353h-.491zm-1.272 2.108h.491v1.353h-.491zm1.272 0h.491v1.353h-.491zm-1.272 2.107h.491v1.353h-.491zm1.272 0h.491v1.353h-.491zm-1.272 2.108h.491v1.353h-.491zm1.272 0h.491v1.353h-.491zm-1.272 2.107h.491v1.353h-.491zm1.272 0h.491v1.353h-.491zm2.848-9.858h.491v1.353h-.491zm0 2.107h.491V85h-.491zm0 2.108h.491v1.353h-.491zm0 2.107h.491v1.353h-.491zm15.506-3.502h.491v1.353h-.491zm0 2.107h.491v1.353h-.491zm0 2.108h.491v1.353h-.491zm0 2.107h.491v1.353h-.491zm1.518-6.322h.491v1.353h-.491zm0 2.107h.491v1.353h-.491zm0 2.108h.491v1.353h-.491zm0 2.107h.491v1.353h-.491zm-17.024.759h.491v1.353h-.491zm-11.684-31.514h.491v1.353h-.491zm0 2.107h.491v1.353h-.491zm-1.281-6.322h.49v1.353h-.49zm0 2.108h.49v1.353h-.49zm0-6.249h.49v1.353h-.49zm0 2.107h.49v1.353h-.49zm0 6.249h.49v1.353h-.49zm0 2.107h.49v1.353h-.49zm10.117-6.322h.491v1.353h-.491zm0 2.108h.491v1.353h-.491zm0-6.249h.491v1.353h-.491zm0 2.107h.491v1.353h-.491zm0 6.249h.491v1.353h-.491zm0 2.107h.491v1.353h-.491zm-10.109 2.108h.491v1.353h-.491zm1.273 0h.491v1.353h-.491zm-1.273 2.107h.491v1.353h-.491zm1.273 0h.491v1.353h-.491zm-1.273 2.107h.491v1.353h-.491zm1.273 0h.491v1.353h-.491zm-1.273 2.108h.491v1.353h-.491zm1.273 0h.491v1.353h-.491zm-1.273 2.107h.491v1.353h-.491zm1.273 0h.491v1.353h-.491zm-1.273 2.108h.491v1.353h-.491zm1.273 0h.491v1.353h-.491zm-1.273 2.107h.491v1.353h-.491zm1.273 0h.491v1.353h-.491zm-1.273 1.968h.491v1.353h-.491zm1.273 0h.491v1.353h-.491zm-1.273 2.107h.491v1.353h-.491zm1.273 0h.491v1.353h-.491zm-1.273 2.107h.491v1.353h-.491zm1.273 0h.491v1.353h-.491zM65.347 62.237h.491v.702h-.491zm1.273 0h.491v.702h-.491zm1.273 0h.491v.702h-.491zm1.273 0h.491v.702h-.491zm1.273 0h.49v.702h-.49zm-5.092 2.108h.491v.702h-.491zm1.273 0h.491v.702h-.491zm1.273 0h.491v.702h-.491zm1.273 0h.491v.702h-.491zm1.273 0h.49v.702h-.49zm-5.092 2.107h.491v.702h-.491zm1.273 0h.491v.702h-.491zm1.273 0h.491v.702h-.491zm1.273 0h.491v.702h-.491zm-.651-11.311h.491v.421h-.491zm0 1.914h.491v.421h-.491zm0 1.913h.491v.421h-.491zm-1.385-3.827h.491v.421h-.491zm0 1.914h.491v.421h-.491zm0 1.913h.491v.421h-.491zm4.191-3.827h.491v.421h-.491zm0 1.914h.491v.421h-.491zm0 1.913h.491v.421h-.491zm-1.385-3.827h.491v.421h-.491zm0 1.914h.491v.421h-.491zm0 1.913h.491v.421h-.491zm-4.107-3.827h.491v.421h-.491zm0 1.914h.491v.421h-.491zm0 1.913h.491v.421h-.491zm-1.382-3.827h.491v.421h-.491zm0 1.914h.491v.421h-.491zm0 1.913h.491v.421h-.491zm4.068-9.693h.491v.421h-.491zm0 1.913h.491v.421h-.491zm0 1.914h.491v.421h-.491zm-1.385-3.827h.491v.421h-.491zm0 1.913h.491v.421h-.491zm0 1.914h.491v.421h-.491zm4.191-3.827h.491v.421h-.491zm0 1.913h.491v.421h-.491zm0 1.914h.491v.421h-.491zm-1.385-3.827h.491v.421h-.491zm0 1.913h.491v.421h-.491zm0 1.914h.491v.421h-.491zm-4.107-3.827h.491v.421h-.491zm0 1.913h.491v.421h-.491zm0 1.914h.491v.421h-.491zm-1.382-3.827h.491v.421h-.491zm0 1.913h.491v.421h-.491zm0 1.914h.491v.421h-.491zm5.992 13.35h.49v.702h-.49zm-5.092 2.107h.491v.703h-.491zm1.273 0h.491v.703h-.491zm1.273 0h.491v.703h-.491zm1.273 0h.491v.703h-.491zm1.273 0h.49v.703h-.49zm-5.092 2.108h.491v.702h-.491zm1.273 0h.491v.702h-.491zm1.273 0h.491v.702h-.491zm1.273 0h.491v.702h-.491zm1.273 0h.49v.702h-.49zm-5.092 2.107h.491v.703h-.491zm1.273 0h.491v.703h-.491zm1.273 0h.491v.703h-.491zm1.273 0h.491v.703h-.491zm1.273 0h.49v.703h-.49zm-5.092 1.968h.491v.702h-.491zm1.273 0h.491v.702h-.491zm1.273 0h.491v.702h-.491zm1.273 0h.491v.702h-.491zm1.273 0h.49v.702h-.49zm-5.092 2.107h.491v.702h-.491zm1.273 0h.491v.702h-.491zm1.273 0h.491v.702h-.491zm1.273 0h.491v.702h-.491zm1.273 0h.49v.702h-.49zm-5.092 2.108h.491v.702h-.491zm1.273 0h.491v.702h-.491zm1.273 0h.491v.702h-.491zm1.273 0h.491v.702h-.491zm1.273 0h.49v.702h-.49zm1.166-16.72h.491v.702h-.491zm1.273 0h.491v.702h-.491zm-1.273 2.108h.491v.702h-.491zm1.273 0h.491v.702h-.491zm-1.273 2.107h.491v.702h-.491zm1.273 0h.491v.702h-.491zm-1.273 2.107h.491v.703h-.491zm1.273 0h.491v.703h-.491zm-1.273 2.108h.491v.702h-.491zm1.273 0h.491v.702h-.491zm-1.273 2.107h.491v.703h-.491zm1.273 0h.491v.703h-.491zm-1.273 1.968h.491v.702h-.491zm1.273 0h.491v.702h-.491zm-1.273 2.107h.491v.702h-.491zm1.273 0h.491v.702h-.491zm-1.273 2.108h.491v.702h-.491zm1.273 0h.491v.702h-.491zm-10.11-16.72h.491v.702h-.491zm1.273 0h.491v.702h-.491zm-1.273 2.108h.491v.702h-.491zm1.273 0h.491v.702h-.491zm-1.273 2.107h.491v.702h-.491zm1.273 0h.491v.702h-.491zm-1.273 2.107h.491v.703h-.491zm1.273 0h.491v.703h-.491zm-1.273 2.108h.491v.702h-.491zm1.273 0h.491v.702h-.491zm-1.273 2.107h.491v.703h-.491zm1.273 0h.491v.703h-.491zm-1.273 1.968h.491v.702h-.491zm1.273 0h.491v.702h-.491zm-1.273 2.107h.491v.702h-.491zm1.273 0h.491v.702h-.491zm-1.273 2.108h.491v.702h-.491zm1.273 0h.491v.702h-.491zm1.306 2.121h.491v.702h-.491zm1.273 0h.491v.702h-.491zm1.273 0h.491v.702h-.491zm1.273 0h.491v.702h-.491zm1.273 0h.49v.702h-.49zm-5.092 2.107h.491v.702h-.491zm1.273 0h.491v.702h-.491zm1.273 0h.491v.702h-.491zm1.273 0h.491v.702h-.491zm1.273 0h.49v.702h-.49zm1.166-2.107h.491v.702h-.491zm1.273 0h.491v.702h-.491zm-1.273 2.107h.491v.702h-.491zm1.273 0h.491v.702h-.491zm-10.11-2.107h.491v.702h-.491zm1.273 0h.491v.702h-.491zm-1.273 2.107h.491v.702h-.491zm1.273 0h.491v.702h-.491zm1.306 2.122h.491v.702h-.491zm1.273 0h.491v.702h-.491zm1.273 0h.491v.702h-.491zm1.273 0h.491v.702h-.491zm1.273 0h.49v.702h-.49zm-5.092 2.107h.491v.702h-.491zm1.273 0h.491v.702h-.491zm1.273 0h.491v.702h-.491zm1.273 0h.491v.702h-.491zm1.273 0h.49v.702h-.49zm1.166-2.107h.491v.702h-.491zm1.273 0h.491v.702h-.491zm-1.273 2.107h.491v.702h-.491zm1.273 0h.491v.702h-.491zm-10.11-2.107h.491v.702h-.491zm1.273 0h.491v.702h-.491zm-1.273 2.107h.491v.702h-.491zm1.273 0h.491v.702h-.491zm1.306 1.858h.491v2.14h-.491zm1.273 0h.491v2.14h-.491zm1.273 0h.491v2.14h-.491zm1.273 0h.491v2.14h-.491zm1.273 0h.49v2.14h-.49zm1.166 0h.491v2.14h-.491zm1.273 0h.491v2.14h-.491zm-10.11 0h.491v2.14h-.491zm1.273 0h.491v2.14h-.491zM31.78 63.451h.491v.702h-.491zm0 2.108h.491v.702h-.491zm0 2.107h.491v.702h-.491zm0 2.108h.491v.702h-.491zm0 2.107h.491v.702h-.491zm0 2.108h.491v.702h-.491zm0 1.967h.491v.702h-.491zm0 2.107h.491v.702h-.491zm0 2.108h.491v.702h-.491zm-2.578-16.72h.491v.702h-.491zm1.273 0h.491v.702h-.491zm-1.273 2.108h.491v.702h-.491zm1.273 0h.491v.702h-.491zm-1.273 2.107h.491v.702h-.491zm1.273 0h.491v.702h-.491zm-1.273 2.108h.491v.702h-.491zm1.273 0h.491v.702h-.491zm-1.273 2.107h.491v.702h-.491zm1.273 0h.491v.702h-.491zm-1.273 2.108h.491v.702h-.491zm1.273 0h.491v.702h-.491zm-1.273 1.967h.491v.702h-.491zm1.273 0h.491v.702h-.491zm-1.273 2.107h.491v.702h-.491zm1.273 0h.491v.702h-.491zm-1.273 2.108h.491v.702h-.491zm1.273 0h.491v.702h-.491zm1.305 2.121h.491v.702h-.491zm0 2.108h.491v.702h-.491zm-2.578-2.108h.491v.702h-.491zm1.273 0h.491v.702h-.491zM29.202 84.4h.491v.702h-.491zm1.273 0h.491v.702h-.491zm1.305 2.121h.491v.702h-.491zm0 2.108h.491v.702h-.491zm-2.578-2.108h.491v.702h-.491zm1.273 0h.491v.702h-.491zm-1.273 2.108h.491v.702h-.491zm1.273 0h.491v.702h-.491zm1.305 2.107h.491v.702h-.491zm-2.578 0h.491v.702h-.491zm1.273 0h.491v.702h-.491zm86.724-5.66h.491v1.353h-.491zm1.273 0h.491v1.353h-.491zm-1.273 2.107h.491v1.353h-.491zm1.273 0h.491v1.353h-.491zm-1.273 2.108h.491v1.353h-.491zm1.273 0h.491v1.353h-.491zm-1.273 2.107h.491v1.353h-.491zm1.273 0h.491v1.353h-.491zm-10.055-17.525h.472v1.092h-.472zm1.224 0h.472v1.092h-.472zm-1.224 2.107h.472v1.092h-.472zm1.224 0h.472v1.092h-.472zm-1.224 2.107h.472v1.092h-.472zm1.224 0h.472v1.092h-.472zm-1.224 1.968h.472v1.092h-.472zm1.224 0h.472v1.092h-.472zm-1.224 2.107h.472v1.092h-.472zm1.224 0h.472v1.092h-.472zm-1.224 2.108h.472v1.092h-.472zm1.224 0h.472v1.092h-.472zm-1.224 2.107h.472v1.092h-.472zm1.224 0h.472v1.092h-.472zm-1.224 2.107h.472v1.092h-.472zm1.224 0h.472v1.092h-.472zm-1.224 2.108h.472v2.04h-.472zm1.224 0h.472v2.04h-.472zm-3.703-16.719h.472v1.092h-.472zm1.224 0h.471v1.092h-.471zm-1.224 2.107h.472v1.092h-.472zm1.224 0h.471v1.092h-.471zm1.255-26.098h.472v1.092h-.472zm1.224 0h.472v1.092h-.472zm-1.224 2.107h.472v1.092h-.472zm1.224 0h.472v1.092h-.472zm121.413 23.057h.491v1.092h-.491zm1.273 0h.491v1.092h-.491zm-1.273 2.107h.491v1.092h-.491zm1.273 0h.491v1.092h-.491zm-1.273 4.33h.491v1.092h-.491zm1.273 0h.491v1.092h-.491zm-1.273 2.107h.491v1.092h-.491zm1.273 0h.491v1.092h-.491zm-1.273 2.122h.491v1.092h-.491zm1.273 0h.491v1.092h-.491zm-1.273 2.107h.491v1.092h-.491zm1.273 0h.491v1.092h-.491zm-1.273 2.177h.491v1.637h-.491zm1.273 0h.491v1.637h-.491zm29.033-8.513h.491v1.092h-.491zm0 2.107h.491v1.092h-.491zm0 2.122h.491v1.092h-.491zm0 2.107h.491v1.092h-.491zm0 2.177h.491v1.637h-.491zm1.423-8.513h.491v1.092h-.491zm0 2.107h.491v1.092h-.491zm0 2.122h.491v1.092h-.491zm0 2.107h.491v1.092h-.491zm0 2.177h.491v1.637h-.491zm1.423-8.513h.491v1.092h-.491zm0 2.107h.491v1.092h-.491zm0 2.122h.491v1.092h-.491zm0 2.107h.491v1.092h-.491zm0 2.177h.491v1.637h-.491zm1.423-8.513h.491v1.092h-.491zm0 2.107h.491v1.092h-.491zm0 2.122h.491v1.092h-.491zm0 2.107h.491v1.092h-.491zm0 2.177h.491v1.637h-.491zm1.423-8.513h.491v1.092h-.491zm0 2.107h.491v1.092h-.491zm0 2.122h.491v1.092h-.491zm0 2.107h.491v1.092h-.491zm0 2.177h.491v1.637h-.491zm-35.998-20.588h.491V70.5h-.491zm1.273 0h.491V70.5h-.491zm-1.273-5.718h.491v.687h-.491zm1.273 0h.491v.687h-.491zm-1.273-1.537h.491v.687h-.491zm1.273 0h.491v.687h-.491zm-1.273 9.362h.491v1.092h-.491zm1.273 0h.491v1.092h-.491zM105.938 49.882h.472v1.092h-.472zm1.224 0h.471v1.092h-.471zm1.255-1.46h.472v.517h-.472zm1.224 0h.472v.517h-.472zm-96.237 27.78h.49v1.092h-.49zm1.273 0h.49v1.092h-.49zm-1.273 2.107h.49v1.092h-.49zm1.273 0h.49v1.092h-.49zm-1.273 2.107h.49v1.092h-.49zm1.273 0h.49v1.092h-.49zm-1.273 2.108h.49v1.092h-.49zm1.273 0h.49v1.092h-.49zm-1.273 2.107h.49v1.092h-.49zm1.273 0h.49v1.092h-.49zm-1.273 4.872h.49v2.315h-.49zm1.273 0h.49v2.315h-.49zm1.355-13.301h.49v1.092h-.49zm1.273 0h.491v1.092h-.491zm-1.273 2.107h.49v1.092h-.49zm1.273 0h.491v1.092h-.491zm-1.273 2.107h.49v1.092h-.49zm1.273 0h.491v1.092h-.491zm-1.273 2.108h.49v1.092h-.49zm1.273 0h.491v1.092h-.491zm-1.273 2.107h.49v1.092h-.49zm1.273 0h.491v1.092h-.491zm-1.273 4.872h.49v2.315h-.49zm1.273 0h.491v2.315h-.491zm-8.048-6.652h.491v1.092h-.491zm1.273 0h.49v1.092h-.49zm-1.273 2.108h.491v1.092h-.491zm1.273 0h.49v1.092h-.49zm-1.273 1.967h.491v1.092h-.491zm1.273 0h.49v1.092h-.49zm-1.273 2.799h.491v2.094h-.491zm1.273 0h.49v2.094h-.49zm95.408-41.303h.472v.517h-.472zm1.224 0h.471v.517h-.471zm-1.224 3.567h.472v1.092h-.472zm1.224 0h.471v1.092h-.471zm-1.224 26.098h.472v1.092h-.472zm1.224 0h.471v1.092h-.471zm-1.224 1.968h.472v1.092h-.472zm1.224 0h.471v1.092h-.471zm-1.224 2.107h.472v1.092h-.472zm1.224 0h.471v1.092h-.471zm-1.224 2.108h.472v1.092h-.472zm1.224 0h.471v1.092h-.471zm-1.224 2.107h.472v1.092h-.472zm1.224 0h.471v1.092h-.471zm-1.224 2.107h.472v1.092h-.472zm1.224 0h.471v1.092h-.471zm1.255-31.242h.472v1.092h-.472zm1.224 0h.472v1.092h-.472zm-1.224 2.107h.472v1.092h-.472zm1.224 0h.472v1.092h-.472zm-1.224 2.108h.472v1.092h-.472zm1.224 0h.472v1.092h-.472zm-1.224 1.967h.472v1.092h-.472zm1.224 0h.472v1.092h-.472zm-1.224 2.108h.472v1.092h-.472zm1.224 0h.472v1.092h-.472zm-1.224 2.107h.472v1.092h-.472zm1.224 0h.472v1.092h-.472zm-1.224 2.107h.472v1.092h-.472zm1.224 0h.472v1.092h-.472zm-1.224 2.108h.472v1.092h-.472zm1.224 0h.472v1.092h-.472zm-3.703-14.612h.472v1.092h-.472zm1.224 0h.471v1.092h-.471zm1.255-1.952h.472v1.092h-.472zm1.224 0h.472v1.092h-.472zm-3.703 0h.472v1.092h-.472zm1.224 0h.471v1.092h-.471zm-1.224 4.059h.472v1.092h-.472zm1.224 0h.471v1.092h-.471zm-1.224 2.108h.472v1.092h-.472zm1.224 0h.471v1.092h-.471zm-1.224 1.967h.472v1.092h-.472zm1.224 0h.471v1.092h-.471zm-1.224 2.108h.472v1.092h-.472zm1.224 0h.471v1.092h-.471zm-1.224 2.107h.472v1.092h-.472zm1.224 0h.471v1.092h-.471zm-1.224 2.107h.472v1.092h-.472zm1.224 0h.471v1.092h-.471zm-1.224 2.108h.472v1.092h-.472zm1.224 0h.471v1.092h-.471zm-1.224 18.738h.472v2.04h-.472zm-1.184-16.719h.471v1.092h-.471zm0 2.107h.471v1.092h-.471zm0-26.098h.471v1.092h-.471zm0-1.46h.471v.517h-.471zm0 3.567h.471v1.092h-.471zm0 26.098h.471v1.092h-.471zm0 1.968h.471v1.092h-.471zm0 2.107h.471v1.092h-.471zm0 2.108h.471v1.092h-.471zm0 2.107h.471v1.092h-.471zm0 2.107h.471v1.092h-.471zm0-31.242h.471v1.092h-.471zm0-1.952h.471v1.092h-.471zm0 4.059h.471v1.092h-.471zm0 2.108h.471v1.092h-.471zm0 1.967h.471v1.092h-.471zm0 2.108h.471v1.092h-.471zm0 2.107h.471v1.092h-.471zm0 2.107h.471v1.092h-.471zm0 2.108h.471v1.092h-.471zm0 18.738h.471v2.04h-.471zm-2.274-16.719h.343v1.092h-.343zm0 2.107h.343v1.092h-.343zm0 2.107h.343v1.092h-.343zm0 1.968h.343v1.092h-.343zm0 2.107h.343v1.092h-.343zm0 2.108h.343v1.092h-.343zm0 2.107h.343v1.092h-.343zm0 2.107h.343v1.092h-.343zm0-31.242h.343v1.092h-.343zm0-1.952h.343v1.092h-.343zm0 4.059h.343v1.092h-.343zm0 2.108h.343v1.092h-.343zm0 1.967h.343v1.092h-.343zm0 2.108h.343v1.092h-.343zm0 2.107h.343v1.092h-.343zm0 2.107h.343v1.092h-.343zm0 2.108h.343v1.092h-.343zm0 18.738h.343v2.04h-.343zm9.262-16.719h.343v1.092h-.343zm0 2.107h.343v1.092h-.343zm0 2.107h.343v1.092h-.343zm0 1.968h.343v1.092h-.343zm0 2.107h.343v1.092h-.343zm0 2.108h.343v1.092h-.343zm0 2.107h.343v1.092h-.343zm0 2.107h.343v1.092h-.343zm0-31.242h.343v1.092h-.343zm0-1.952h.343v1.092h-.343zm0 4.059h.343v1.092h-.343zm0 2.108h.343v1.092h-.343zm0 1.967h.343v1.092h-.343zm0 2.108h.343v1.092h-.343zm0 2.107h.343v1.092h-.343zm0 2.107h.343v1.092h-.343zm0 2.108h.343v1.092h-.343zm0 18.738h.343v2.04h-.343zm-4.58 0h.471v2.04h-.471zm65.511-27.708h.202v1.61h-.202zm1.034 0h.202v1.61h-.202zm1.035 0h.202v1.61h-.202zm1.033 0h.202v1.61h-.202zm1.034 0h.202v1.61h-.202zm1.035 0h.202v1.61h-.202zm1.033 0h.202v1.61h-.202zm1.034 0h.202v1.61h-.202zm1.035 0h.202v1.61h-.202zm1.034 0h.202v1.61h-.202zm1.033 0h.202v1.61h-.202zm1.035 0h.202v1.61h-.202zm1.034 0h.202v1.61h-.202zm1.033 0h.202v1.61h-.202zm-13.442-5.042h.202v1.61h-.202zm1.034 0h.202v1.61h-.202zm1.035 0h.202v1.61h-.202zm1.033 0h.202v1.61h-.202zm1.034 0h.202v1.61h-.202zm1.035 0h.202v1.61h-.202zm1.033 0h.202v1.61h-.202zm1.034 0h.202v1.61h-.202zm1.035 0h.202v1.61h-.202zm1.034 0h.202v1.61h-.202zm1.033 0h.202v1.61h-.202zm1.035 0h.202v1.61h-.202zm1.034 0h.202v1.61h-.202zm1.033 0h.202v1.61h-.202zm-13.442 7.685h.202v1.61h-.202zm1.034 0h.202v1.61h-.202zm1.035 0h.202v1.61h-.202zm1.033 0h.202v1.61h-.202zm1.034 0h.202v1.61h-.202zm1.035 0h.202v1.61h-.202zm1.033 0h.202v1.61h-.202zm1.034 0h.202v1.61h-.202zm1.035 0h.202v1.61h-.202zm1.034 0h.202v1.61h-.202zm1.033 0h.202v1.61h-.202zm1.035 0h.202v1.61h-.202zm1.034 0h.202v1.61h-.202zm1.033 0h.202v1.61h-.202zm-13.442 2.643h.202v1.61h-.202zm1.034 0h.202v1.61h-.202zm1.035 0h.202v1.61h-.202zm1.033 0h.202v1.61h-.202zm1.034 0h.202v1.61h-.202zm1.035 0h.202v1.61h-.202zm1.033 0h.202v1.61h-.202zm1.034 0h.202v1.61h-.202zm1.035 0h.202v1.61h-.202zm1.034 0h.202v1.61h-.202zm1.033 0h.202v1.61h-.202zm1.035 0h.202v1.61h-.202zm1.034 0h.202v1.61h-.202zm1.033 0h.202v1.61h-.202zm-13.442 2.643h.202v1.61h-.202zm1.034 0h.202v1.61h-.202zm1.035 0h.202v1.61h-.202zm1.033 0h.202v1.61h-.202zm1.034 0h.202v1.61h-.202zm1.035 0h.202v1.61h-.202zm1.033 0h.202v1.61h-.202zm1.034 0h.202v1.61h-.202zm1.035 0h.202v1.61h-.202zm1.034 0h.202v1.61h-.202zm1.033 0h.202v1.61h-.202zm1.035 0h.202v1.61h-.202zm1.034 0h.202v1.61h-.202zm1.033 0h.202v1.61h-.202zm-13.442-23.795h.202v1.61h-.202zm1.034 0h.202v1.61h-.202zm1.035 0h.202v1.61h-.202zm1.033 0h.202v1.61h-.202zm1.034 0h.202v1.61h-.202zm1.035 0h.202v1.61h-.202zm1.033 0h.202v1.61h-.202zm1.034 0h.202v1.61h-.202zm1.035 0h.202v1.61h-.202zm1.034 0h.202v1.61h-.202zm1.033 0h.202v1.61h-.202zm1.035 0h.202v1.61h-.202zm1.034 0h.202v1.61h-.202zm1.033 0h.202v1.61h-.202zm-13.442 2.643h.202v1.61h-.202zm1.034 0h.202v1.61h-.202zm1.035 0h.202v1.61h-.202zm1.033 0h.202v1.61h-.202zm1.034 0h.202v1.61h-.202zm1.035 0h.202v1.61h-.202zm1.033 0h.202v1.61h-.202zm1.034 0h.202v1.61h-.202zm1.035 0h.202v1.61h-.202zm1.034 0h.202v1.61h-.202zm1.033 0h.202v1.61h-.202zm1.035 0h.202v1.61h-.202zm1.034 0h.202v1.61h-.202zm1.033 0h.202v1.61h-.202zm-13.442 2.643h.202v1.61h-.202zm1.034 0h.202v1.61h-.202zm1.035 0h.202v1.61h-.202zm1.033 0h.202v1.61h-.202zm1.034 0h.202v1.61h-.202zm1.035 0h.202v1.61h-.202zm1.033 0h.202v1.61h-.202zm1.034 0h.202v1.61h-.202zm1.035 0h.202v1.61h-.202zm1.034 0h.202v1.61h-.202zm1.033 0h.202v1.61h-.202zm1.035 0h.202v1.61h-.202zm1.034 0h.202v1.61h-.202zm1.033 0h.202v1.61h-.202zm-13.442 2.643h.202v1.61h-.202zm1.034 0h.202v1.61h-.202zm1.035 0h.202v1.61h-.202zm1.033 0h.202v1.61h-.202zm1.034 0h.202v1.61h-.202zm1.035 0h.202v1.61h-.202zm1.033 0h.202v1.61h-.202zm1.034 0h.202v1.61h-.202zm1.035 0h.202v1.61h-.202zm1.034 0h.202v1.61h-.202zm1.033 0h.202v1.61h-.202zm1.035 0h.202v1.61h-.202zm1.034 0h.202v1.61h-.202zm1.033 0h.202v1.61h-.202zm-13.442 18.509h.202v1.61h-.202zm1.034 0h.202v1.61h-.202zm1.035 0h.202v1.61h-.202zm1.033 0h.202v1.61h-.202zm1.034 0h.202v1.61h-.202zm1.035 0h.202v1.61h-.202zm1.033 0h.202v1.61h-.202zm1.034 0h.202v1.61h-.202zm1.035 0h.202v1.61h-.202zm1.034 0h.202v1.61h-.202zm1.033 0h.202v1.61h-.202zm1.035 0h.202v1.61h-.202zm1.034 0h.202v1.61h-.202zm1.033 0h.202v1.61h-.202zm-13.442 2.643h.202v1.61h-.202zm1.034 0h.202v1.61h-.202zm1.035 0h.202v1.61h-.202zm1.033 0h.202v1.61h-.202zm1.034 0h.202v1.61h-.202zm1.035 0h.202v1.61h-.202zm1.033 0h.202v1.61h-.202zm1.034 0h.202v1.61h-.202zm1.035 0h.202v1.61h-.202zm1.034 0h.202v1.61h-.202zm1.033 0h.202v1.61h-.202zm1.035 0h.202v1.61h-.202zm1.034 0h.202v1.61h-.202zm1.033 0h.202v1.61h-.202zm-13.442 5.055h.202v1.61h-.202zm1.034 0h.202v1.61h-.202zm1.035 0h.202v1.61h-.202zm1.033 0h.202v1.61h-.202zm1.034 0h.202v1.61h-.202zm1.035 0h.202v1.61h-.202zm1.033 0h.202v1.61h-.202zm1.034 0h.202v1.61h-.202zm1.035 0h.202v1.61h-.202zm1.034 0h.202v1.61h-.202zm1.033 0h.202v1.61h-.202zm1.035 0h.202v1.61h-.202zm1.034 0h.202v1.61h-.202zm1.033 0h.202v1.61h-.202zm-13.442 2.643h.202v1.61h-.202zm1.034 0h.202v1.61h-.202zm1.035 0h.202v1.61h-.202zm1.033 0h.202v1.61h-.202zm1.034 0h.202v1.61h-.202zm1.035 0h.202v1.61h-.202zm1.033 0h.202v1.61h-.202zm1.034 0h.202v1.61h-.202zm1.035 0h.202v1.61h-.202zm1.034 0h.202v1.61h-.202zm1.033 0h.202v1.61h-.202zm1.035 0h.202v1.61h-.202zm1.034 0h.202v1.61h-.202zm1.033 0h.202v1.61h-.202zm-13.442 2.852h.202v1.61h-.202zm1.034 0h.202v1.61h-.202zm1.035 0h.202v1.61h-.202zm1.033 0h.202v1.61h-.202zm1.034 0h.202v1.61h-.202zm1.035 0h.202v1.61h-.202zm1.033 0h.202v1.61h-.202zm1.034 0h.202v1.61h-.202zm1.035 0h.202v1.61h-.202zm1.034 0h.202v1.61h-.202zm1.033 0h.202v1.61h-.202zm1.035 0h.202v1.61h-.202zm1.034 0h.202v1.61h-.202zm1.033 0h.202v1.61h-.202zm-13.442 3.036h.202v2.119h-.202zm1.034 0h.202v2.119h-.202zm1.035 0h.202v2.119h-.202zm1.033 0h.202v2.119h-.202zm1.034 0h.202v2.119h-.202zm1.035 0h.202v2.119h-.202zm1.033 0h.202v2.119h-.202zm1.034 0h.202v2.119h-.202zm1.035 0h.202v2.119h-.202zm1.034 0h.202v2.119h-.202zm1.033 0h.202v2.119h-.202zm1.035 0h.202v2.119h-.202zm1.034 0h.202v2.119h-.202zm1.033 0h.202v2.119h-.202zm52.068-13.039h.202v1.61h-.202zm1.034 0h.202v1.61h-.202zm1.034 0h.202v1.61h-.202zm-2.068 2.643h.202v1.61h-.202zm1.034 0h.202v1.61h-.202zm1.034 0h.202v1.61h-.202zm-2.068 2.643h.202v1.61h-.202zm1.034 0h.202v1.61h-.202zm1.034 0h.202v1.61h-.202zm-2.068 2.643h.202v1.61h-.202zm1.034 0h.202v1.61h-.202zm1.034 0h.202v1.61h-.202zm-2.068 2.643h.202v1.61h-.202zm1.034 0h.202v1.61h-.202zm1.034 0h.202v1.61h-.202zm-2.068 2.643h.202v1.61h-.202zm1.034 0h.202v1.61h-.202zm1.034 0h.202v1.61h-.202zm-2.068-21.144h.202v1.61h-.202zm1.034 0h.202v1.61h-.202zm1.034 0h.202v1.61h-.202zm-2.068-2.566h.202v1.61h-.202zm1.034 0h.202v1.61h-.202zm1.034 0h.202v1.61h-.202zm-2.068 5.209h.202v1.61h-.202zm1.034 0h.202v1.61h-.202zm1.034 0h.202v1.61h-.202zm-2.068 2.643h.202v1.61h-.202zm1.034 0h.202v1.61h-.202zm1.034 0h.202v1.61h-.202zm-27.926-.081h.202v1.61h-.202zm1.034 0h.202v1.61h-.202zm1.034 0h.202v1.61h-.202zm-2.068 2.643h.202v1.61h-.202zm1.034 0h.202v1.61h-.202zm1.034 0h.202v1.61h-.202zm-2.068 2.643h.202v1.61h-.202zm1.034 0h.202v1.61h-.202zm1.034 0h.202v1.61h-.202zm-2.068 2.643h.202v1.61h-.202zm1.034 0h.202v1.61h-.202zm1.034 0h.202v1.61h-.202zm-2.068 2.643h.202v1.61h-.202zm1.034 0h.202v1.61h-.202zm1.034 0h.202v1.61h-.202zm-2.068 2.643h.202v1.61h-.202zm1.034 0h.202v1.61h-.202zm1.034 0h.202v1.61h-.202zm2.435-7.929h.202v1.61h-.202zm0 2.643h.202v1.61h-.202zm0 2.643h.202v1.61h-.202zm0 2.643h.202v1.61h-.202zm1.093-7.929h.202v1.61h-.202zm-1.093-6.329h.202v1.61h-.202zm1.093 0h.202v1.61h-.202zm-1.093-2.928h.202v1.61h-.202zm1.093 0h.202v1.61h-.202zm0 11.9h.202v1.61h-.202zm0 2.643h.202v1.61h-.202zm0 2.643h.202v1.61h-.202zm-5.596 2.901h.202v1.61h-.202zm1.034 0h.202v1.61h-.202zm1.034 0h.202v1.61h-.202zm2.435 0h.202v1.61h-.202zm1.093 0h.202v1.61h-.202zm-5.596-26.688h.202v1.61h-.202zm1.034 0h.202v1.61h-.202zm1.034 0h.202v1.61h-.202zm-2.068 2.643h.202v1.61h-.202zm1.034 0h.202v1.61h-.202zm1.034 0h.202v1.61h-.202zm-2.068 2.643h.202v1.61h-.202zm1.034 0h.202v1.61h-.202zm1.034 0h.202v1.61h-.202zm-2.068 2.643h.202v1.61h-.202zm1.034 0h.202v1.61h-.202zm1.034 0h.202v1.61h-.202zm.426-13.106h.202v1.61h-.202zm1.034 0h.202v1.61h-.202zm-1.034-10.572h.202v1.61h-.202zm1.034 0h.202v1.61h-.202zm-1.034 2.643h.202v1.61h-.202zm1.034 0h.202v1.61h-.202zm-1.034 2.643h.202v1.61h-.202zm1.034 0h.202v1.61h-.202zm-1.034 2.643h.202v1.61h-.202zm1.034 0h.202v1.61h-.202zm-57.585 21.116h.202v1.61h-.202zm1.034 0h.202v1.61h-.202zm1.034 0h.202v1.61h-.202zm-2.068 2.643h.202v1.61h-.202zm1.034 0h.202v1.61h-.202zm1.034 0h.202v1.61h-.202zm-2.068 2.643h.202v1.61h-.202zm1.034 0h.202v1.61h-.202zm1.034 0h.202v1.61h-.202zm-2.068 2.643h.202v1.61h-.202zm1.034 0h.202v1.61h-.202zm1.034 0h.202v1.61h-.202zm-2.068 2.643h.202v1.61h-.202zm1.034 0h.202v1.61h-.202zm1.034 0h.202v1.61h-.202zm-2.068 2.643h.202v1.61h-.202zm1.034 0h.202v1.61h-.202zm1.034 0h.202v1.61h-.202zm-46.571-5.09h.202v1.61h-.202zm0 2.643h.202v1.61h-.202zm0 2.643h.202v1.61h-.202zm44.503-23.983h.202v1.61h-.202zm1.034 0h.202v1.61h-.202zm1.034 0h.202v1.61h-.202zm-2.068 2.643h.202v1.61h-.202zm1.034 0h.202v1.61h-.202zm1.034 0h.202v1.61h-.202zm-2.068 2.643h.202v1.61h-.202zm1.034 0h.202v1.61h-.202zm1.034 0h.202v1.61h-.202zm-2.068 2.643h.202v1.61h-.202zm1.034 0h.202v1.61h-.202zm1.034 0h.202v1.61h-.202zm-6.297 2.643h.202v1.61h-.202zm1.034 0h.202v1.61h-.202zm1.034 0h.202v1.61h-.202zm-2.068 2.643h.202v1.61h-.202zm1.034 0h.202v1.61h-.202zm1.034 0h.202v1.61h-.202zm-2.068 2.643h.202v1.61h-.202zm1.034 0h.202v1.61h-.202zm1.034 0h.202v1.61h-.202zm-2.068 2.643h.202v1.61h-.202zm1.034 0h.202v1.61h-.202zm1.034 0h.202v1.61h-.202zm-2.068 2.643h.202v1.61h-.202zm1.034 0h.202v1.61h-.202zm1.034 0h.202v1.61h-.202zm-2.068 2.643h.202v1.61h-.202zm1.034 0h.202v1.61h-.202zm1.034 0h.202v1.61h-.202zm35.124-16.928h.202v1.61h-.202zm1.034 0h.202v1.61h-.202zm1.034 0h.202v1.61h-.202zm-2.068-5.747h.202v1.61h-.202zm1.034 0h.202v1.61h-.202zm1.034 0h.202v1.61h-.202zm-2.068 2.827h.202v1.61h-.202zm1.034 0h.202v1.61h-.202zm1.034 0h.202v1.61h-.202zm-2.068 5.563h.202v1.61h-.202zm1.034 0h.202v1.61h-.202zm1.034 0h.202v1.61h-.202zm-2.068 2.643h.202v1.61h-.202zm1.034 0h.202v1.61h-.202zm1.034 0h.202v1.61h-.202zm-2.068 2.613h.202v1.61h-.202zm1.034 0h.202v1.61h-.202zm1.034 0h.202v1.61h-.202zm-2.068 4.036h.202v1.61h-.202zm1.034 0h.202v1.61h-.202zm1.034 0h.202v1.61h-.202zm-2.068 2.643h.202v1.61h-.202zm1.034 0h.202v1.61h-.202zm1.034 0h.202v1.61h-.202zm-39.26-21.437h.202v1.61h-.202zm1.034 0h.202v1.61h-.202zm1.034 0h.202v1.61h-.202zm-2.068 2.643h.202v1.61h-.202zm1.034 0h.202v1.61h-.202zm1.034 0h.202v1.61h-.202zm-2.068 2.643h.202v1.61h-.202zm1.034 0h.202v1.61h-.202zm1.034 0h.202v1.61h-.202zm-2.068 2.643h.202v1.61h-.202zm1.034 0h.202v1.61h-.202zm1.034 0h.202v1.61h-.202zm2.161-10.843h.202v1.61h-.202zm1.034 0h.202v1.61h-.202zm1.034 0h.202v1.61h-.202zm-2.068-10.572h.202v1.61h-.202zm1.034 0h.202v1.61h-.202zm1.034 0h.202v1.61h-.202zm-2.068 2.643h.202v1.61h-.202zm1.034 0h.202v1.61h-.202zm1.034 0h.202v1.61h-.202zm-2.068 2.643h.202v1.61h-.202zm1.034 0h.202v1.61h-.202zm1.034 0h.202v1.61h-.202zm-2.068 2.643h.202v1.61h-.202zm1.034 0h.202v1.61h-.202zm1.034 0h.202v1.61h-.202zm-6.297 2.643h.202v1.61h-.202zm1.034 0h.202v1.61h-.202zm1.034 0h.202v1.61h-.202zm-2.068-10.572h.202v1.61h-.202zm1.034 0h.202v1.61h-.202zm1.034 0h.202v1.61h-.202zm-2.068 2.643h.202v1.61h-.202zm1.034 0h.202v1.61h-.202zm1.034 0h.202v1.61h-.202zm-2.068 2.643h.202v1.61h-.202zm1.034 0h.202v1.61h-.202zm1.034 0h.202v1.61h-.202zm-2.068 2.643h.202v1.61h-.202zm1.034 0h.202v1.61h-.202zm1.034 0h.202v1.61h-.202zm26.423-17.774h1.368v.564h-1.368zm-2.557 0h1.368v.564h-1.368zm-2.558 0h1.368v.564h-1.368zm-2.558 0h1.368v.564h-1.368zm7.673 1.26h1.368v.564h-1.368zm-2.557 0h1.368v.564h-1.368zm-2.558 0h1.368v.564h-1.368zm-2.558 0h1.368v.564h-1.368zm10.033-1.26h1.368v.564h-1.368zm0 1.26h1.368v.564h-1.368zm-12.478-1.26h1.368v.564h-1.368zm0 1.26h1.368v.564h-1.368z"
    />
  </g>
  <path
    fill="#b1ca52"
    d="m342.567 96.048 4.41-31.483c1.323.039 2.687.541 4.051 1.649 7.036 5.721 8.261 12.72 17.702 16.784 3.581 1.541 8.03 3.123 11.58 4.941 3.476 1.778 7.517 5.425 10.636 8.109h-48.379Z"
  />
  <path
    fill="#97b72e"
    d="m348.562 96.003-35.691-.012c3.447-4.58 8.977-13.753 13.218-16.822 2.981-2.155 6.034-.517 8.237-3.817 1.332-1.997 3.689-4.098 4.633-5.449 2.184-3.124 5.081-5.512 8.186-5.33 2.884 3.989 4.103 10.32 1.214 14.713-3.169 4.822-2.123 11.29.203 16.717Z"
  />
  <path
    fill="#91b42c"
    d="M366.629 94.524c-2.614-.279-3.271-3.367-1.971-9.262.667-2.684 1.324-4.004 1.971-3.964.647-.04 1.304 1.28 1.971 3.964 1.3 5.895.643 8.983-1.971 9.262Z"
  />
  <path
    fill="#84a128"
    d="M366.629 94.524c-2.614-.279-3.271-3.367-1.971-9.262.667-2.684 1.324-4.004 1.971-3.964v13.226Z"
  />
  <path fill="#877868" d="M366.453 87.87h.352v8.178h-.352z" />
  <g fill-rule="nonzero">
    <path
      fill="#610610"
      d="M347.069 32.215s.017.146.051.425c.259 2.088 1.515 11.566 4.146 21.58 1.315 5.007 2.974 10.148 5.021 14.563 2.045 4.415 4.482 8.101 7.327 10.203.077.058.094.166.036.244-.057.077-.166.094-.243.036-3.118-2.307-5.701-6.398-7.843-11.235-6.419-14.507-8.839-35.769-8.841-35.777-.011-.095.058-.182.154-.193.095-.01.181.058.192.154Zm-13.238 0s.017.146.051.425c.259 2.088 1.516 11.566 4.146 21.58 1.315 5.007 2.975 10.148 5.021 14.563 2.045 4.415 4.482 8.101 7.327 10.203.077.058.094.166.036.244-.057.077-.166.094-.243.036-3.117-2.307-5.701-6.398-7.843-11.235-6.418-14.507-8.839-35.769-8.841-35.777-.011-.095.058-.182.154-.193.095-.01.181.058.192.154Z"
    />
    <path
      fill="#90191f"
      d="M336.695 41.879v.402h7.152v-.402h1.647v4.662h-1.647v-1.125h-7.152v1.125h-1.742v-4.662h1.742Z"
    />
    <path
      fill="#610610"
      d="m343.847 42.682-.121-.401h.121v-.402h1.647v4.662h-1.647v-1.125h-1.25l1.25-2.734Z"
    />
    <path
      fill="#bd2025"
      d="M343.847 41.879h1.647v.402h-1.647zm-8.904 0h1.742v.402h-1.742zm1.742.402h7.162v.401h-7.162z"
    />
    <path
      fill="#90191f"
      d="M336.946 51.044v.402h6.605v-.402h1.521v4.662h-1.521v-1.125h-6.605v1.125h-1.522v-4.662h1.522Z"
    />
    <path
      fill="#610610"
      d="m343.551 51.847-.112-.401h.112v-.402h1.521v4.662h-1.521v-1.125h-1.154l1.154-2.734Z"
    />
    <path
      fill="#bd2025"
      d="M343.551 51.044h1.521v.402h-1.521zm-8.136 0h1.521v.402h-1.521zm1.522.402h6.614v.402h-6.614z"
    />
    <path
      fill="#90191f"
      d="M336.946 61.656v.401h6.605v-.401h1.521v4.662h-1.521v-1.125h-6.605v1.125h-1.522v-4.662h1.522Z"
    />
    <path
      fill="#610610"
      d="m343.551 62.46-.112-.403h.112v-.401h1.521v4.662h-1.521v-1.125h-1.154l1.154-2.733Z"
    />
    <path
      fill="#bd2025"
      d="M343.551 61.656h1.521v.401h-1.521zm-8.136 0h1.521v.401h-1.521zm1.522.401h6.614v.402h-6.614z"
    />
    <path
      fill="#90191f"
      d="M336.43 34.161v.401h7.638v-.401h1.758v4.662h-1.758v-1.125h-7.638v1.125h-1.759v-4.662h1.759Z"
    />
    <path
      fill="#bd2025"
      d="M334.661 34.161h1.759v.402h-1.759zm-3.095 16.641h3.859V95.02h-3.859z"
    />
    <path fill="#610610" d="M331.566 79.227h3.482V95.02h-3.482z" />
    <path fill="#bd2025" d="M331.988 40.793h3.015v10.008h-3.015z" />
    <path
      fill="#bd2025"
      d="M332.32 33.316h2.351v7.477h-2.351zm.422-2.163h1.508v2.163h-1.508z"
    />
    <path
      fill="#ef3837"
      d="M335.048 50.802h.377V95.02h-.377zm-.377-10.009h.331v10.008h-.331z"
    />
    <path
      fill="#ef3837"
      d="M334.249 33.316h.422v7.477h-.422zm-.351-2.163h.352v2.163h-.352z"
    />
    <path
      fill="#610610"
      d="m344.067 34.964-.129-.402h.13v-.401h1.758v4.662h-1.758v-1.125h-1.335l1.334-2.734Z"
    />
    <path
      fill="#bd2025"
      d="M344.068 34.161h1.758v.402h-1.758zm-7.648.401h7.647v.402h-7.647z"
    />
    <path fill="#90191f" d="M339.565 33.799h1.166v.764h-1.166z" />
    <path fill="#bd2025" d="M340.505 33.799h.226v.764h-.226z" />
    <path
      fill="#610610"
      d="M333.19 32.194s-.623 1.895-1.859 5.159c-.618 1.632-1.391 3.606-2.327 5.849-.94 2.241-2.023 4.76-3.305 7.461-1.281 2.7-2.748 5.59-4.479 8.539-1.738 2.939-3.721 5.976-6.228 8.71-1.258 1.351-2.659 2.632-4.281 3.576-.81.467-1.678.842-2.586 1.042-.906.202-1.85.224-2.759.028-.108-.028-.234-.052-.33-.081-.113-.036-.246-.066-.344-.106-.205-.072-.423-.162-.631-.266-.418-.204-.818-.458-1.198-.742-.764-.569-1.444-1.267-2.077-2.005-1.26-1.491-2.311-3.178-3.269-4.908-1.9-3.479-3.422-7.169-4.784-10.84-1.354-3.678-2.534-7.356-3.597-10.938-2.12-7.168-3.783-13.951-5.116-19.783-1.34-5.832-2.341-10.718-3.012-14.143-.67-3.426-1.012-5.388-1.012-5.388-.035-.201-.225-.335-.426-.3-.2.035-.334.224-.3.425 0 0 .336 1.972.996 5.407.661 3.433 1.642 8.332 2.969 14.178 1.344 5.842 3.019 12.637 5.154 19.826 1.071 3.593 2.26 7.283 3.627 10.981 1.375 3.693 2.909 7.406 4.843 10.937.977 1.758 2.049 3.478 3.36 5.027.661.769 1.375 1.502 2.201 2.116.412.307.849.585 1.318.813.234.116.472.216.731.305.132.051.24.074.362.112.139.04.256.06.385.092 1.017.212 2.074.177 3.066-.052.995-.228 1.923-.64 2.776-1.14 1.707-1.011 3.136-2.343 4.412-3.734 2.539-2.811 4.513-5.889 6.243-8.862 1.72-2.982 3.172-5.895 4.438-8.614 1.262-2.722 2.343-5.249 3.248-7.511.906-2.262 1.653-4.25 2.249-5.893 1.191-3.288 1.789-5.196 1.789-5.196.022-.069-.015-.142-.083-.164-.068-.021-.141.016-.164.083Z"
    />
    <path
      fill="#90191f"
      d="M284.255 18.264v.581h10.331v-.581h2.379v6.735h-2.379v-1.626h-10.331v1.626h-2.516v-6.735h2.516Z"
    />
    <path
      fill="#610610"
      d="m294.586 19.424-.176-.579h.176v-.581h2.379v6.735h-2.379v-1.626h-1.805l1.805-3.949Z"
    />
    <path
      fill="#bd2025"
      d="M294.586 18.264h2.379v.581h-2.379zm-12.861 0h2.516v.581h-2.516zm2.516.581h10.345v.58h-10.345z"
    />
    <path
      fill="#90191f"
      d="M284.616 31.502v.58h9.543v-.58h2.196v6.735h-2.196v-1.626h-9.543v1.626h-2.197v-6.735h2.197Z"
    />
    <path
      fill="#610610"
      d="m294.158 32.663-.162-.581h.163v-.58h2.196v6.735h-2.196v-1.626h-1.668l1.667-3.948Z"
    />
    <path
      fill="#bd2025"
      d="M294.159 31.502h2.196v.581h-2.196zm-11.752 0h2.198v.581h-2.198zm2.198.58h9.553v.58h-9.553z"
    />
    <path
      fill="#90191f"
      d="M284.616 46.83v.58h9.543v-.58h2.196v6.734h-2.196v-1.625h-9.543v1.625h-2.197V46.83h2.197Z"
    />
    <path
      fill="#610610"
      d="m294.158 47.991-.162-.581h.163v-.58h2.196v6.734h-2.196v-1.625h-1.668l1.667-3.948Z"
    />
    <path
      fill="#bd2025"
      d="M294.159 46.83h2.196v.58h-2.196zm-11.752 0h2.198v.58h-2.198zm2.198.58h9.553v.581h-9.553z"
    />
    <path
      fill="#90191f"
      d="M283.872 7.117v.58h11.032v-.58h2.539v6.734h-2.539v-1.625h-11.032v1.625h-2.54V7.117h2.54Z"
    />
    <path
      fill="#bd2025"
      d="M281.318 7.117h2.54v.58h-2.54zm-4.471 24.036h5.574v63.866h-5.574z"
    />
    <path fill="#610610" d="M276.847 75.334h5.03v19.685h-5.03z" />
    <path
      fill="#bd2025"
      d="M277.457 16.696h4.354v14.457h-4.354zm.479-10.799h3.396v10.799h-3.396zm.609-3.124h2.177v3.124h-2.177z"
    />
    <path
      fill="#ef3837"
      d="M281.877 31.153h.544v63.866h-.544zm-.545-14.457h.479v14.457h-.479zm-.61-10.799h.61v10.799h-.61zm-.508-3.124h.509v3.124h-.509z"
    />
    <path
      fill="#610610"
      d="m294.904 8.277-.188-.58h.188v-.58h2.539v6.734h-2.539v-1.625h-1.928l1.928-3.949Z"
    />
    <path
      fill="#bd2025"
      d="M294.904 7.117h2.539v.58h-2.539zm-11.046.58h11.046v.581h-11.046z"
    />
    <path fill="#90191f" d="M288.401 6.594h1.684v1.103h-1.684z" />
    <path fill="#bd2025" d="M289.758 6.594h.327v1.103h-.327z" />
    <path
      fill="#610610"
      d="m355.44 82.04-101.644-6.706v-6.706L363.51 80.496l-8.07 1.544Z"
    />
    <path
      fill="#ef3837"
      d="M363.51 79.126v1.37L253.796 70.291v-3.26L363.51 79.126Z"
    />
    <path
      fill="#bd2025"
      d="M345.072 50.802h3.859V95.02h-3.859zm.422-10.009h3.015v10.008h-3.015z"
    />
    <path
      fill="#bd2025"
      d="M345.826 33.316h2.352v7.477h-2.352zm.422-2.163h1.507v2.163h-1.507z"
    />
    <path
      fill="#ef3837"
      d="M348.554 50.802h.377V95.02h-.377zm-.376-10.009h.331v10.008h-.331zm-.422-7.477h.422v7.477h-.422zm-.352-2.163h.352v2.163h-.352z"
    />
    <path
      fill="#ef3837"
      d="M345.072 50.802h3.859v.443h-3.859zm.422-10.009h2.849v.442h-2.849zm.332-7.477h2.141v.443h-2.141zm.422-2.163h1.377v.24h-1.377z"
    />
    <path
      fill="#610610"
      d="M346.77 32.199s-.532 1.886-1.592 5.149c-.531 1.631-1.195 3.606-2 5.854-.808 2.248-1.739 4.777-2.845 7.499-1.106 2.721-2.374 5.643-3.877 8.65-1.513 2.998-3.236 6.116-5.461 9.006-1.119 1.43-2.372 2.816-3.878 3.881-.751.525-1.572.961-2.447 1.199-.873.238-1.797.255-2.668.009-.861-.232-1.641-.766-2.332-1.394-.694-.632-1.302-1.374-1.865-2.15-1.119-1.563-2.044-3.284-2.889-5.039-1.672-3.522-3.009-7.208-4.207-10.868-1.193-3.664-2.23-7.315-3.167-10.867-1.866-7.106-3.332-13.81-4.507-19.572-1.182-5.76-2.065-10.582-2.656-13.961-.591-3.379-.893-5.313-.893-5.313-.03-.19-.207-.321-.398-.291-.19.03-.32.207-.29.397 0 0 .295 1.943.876 5.329.583 3.387 1.448 8.218 2.617 13.991 1.184 5.77 2.66 12.485 4.54 19.608.943 3.56 1.987 7.223 3.19 10.904 1.209 3.677 2.556 7.383 4.255 10.95.858 1.778 1.799 3.527 2.958 5.143.584.803 1.219 1.579 1.964 2.257.742.672 1.606 1.274 2.62 1.547.994.275 2.06.246 3.03-.027.974-.273 1.855-.754 2.648-1.316 1.584-1.138 2.855-2.573 3.988-4.039 2.247-2.962 3.959-6.115 5.46-9.141 1.492-3.035 2.744-5.977 3.835-8.714 2.178-5.478 3.693-10.152 4.716-13.431 1.018-3.282 1.527-5.179 1.527-5.179.019-.07-.022-.142-.091-.161-.069-.019-.141.022-.161.09Zm-67.608-28.03s-.404 1.109-1.11 3.048c-.716 1.938-1.766 4.695-3.052 7.993-2.576 6.593-6.168 15.33-10.245 23.837-2.025 4.258-4.17 8.46-6.372 12.286-2.199 3.825-4.466 7.276-6.704 9.98-1.122 1.348-2.228 2.514-3.304 3.423-1.076.908-2.122 1.553-3.037 1.905-.914.352-1.679.437-2.184.388-.128.004-.238-.014-.334-.035-.095-.016-.175-.03-.239-.041-.129-.022-.197-.034-.197-.034l-.055-.009c-.2-.034-.389.1-.423.3-.034.198.098.387.295.422 0 0 .079.014.231.043.077.014.171.03.283.051.112.023.243.044.393.042.596.059 1.486-.04 2.501-.426 1.015-.388 2.132-1.077 3.259-2.018 1.128-.945 2.27-2.139 3.407-3.517 2.278-2.759 4.557-6.245 6.765-10.096 2.208-3.854 4.356-8.074 6.381-12.348 4.023-8.563 7.553-17.338 10.083-23.959 1.266-3.31 2.264-6.09 2.959-8.037.682-1.953 1.072-3.068 1.072-3.068.035-.103-.019-.216-.122-.252-.101-.035-.213.018-.25.119l-.001.003Z"
    />
    <path fill="#bd2025" d="M296.355 31.153h5.574v63.866h-5.574z" />
    <path
      fill="#bd2025"
      d="M296.965 16.696h4.354v14.457h-4.354zm.478-10.799h3.397v10.799h-3.397zm.61-3.124h2.178v3.124h-2.178z"
    />
    <path
      fill="#ef3837"
      d="M301.384 31.153h.544v63.866h-.544zm-.544-14.457h.479v14.457h-.479zm-.609-10.799h.609v10.799h-.609zm-.508-3.124h.508v3.124h-.508z"
    />
    <path
      fill="#ef3837"
      d="M296.355 31.153h5.574v.639h-5.574zm.61-14.457h4.115v.639h-4.115zm.478-10.799h3.092v.639h-3.092zm.61-3.124h1.988v.346h-1.988z"
    />
    <path
      fill="#610610"
      d="m298.821 4.279-1.048 3.023c-.674 1.922-1.665 4.657-2.873 7.932-2.422 6.547-5.796 15.229-9.597 23.72-1.889 4.25-3.886 8.452-5.925 12.3-2.04 3.846-4.131 7.338-6.187 10.129-1.029 1.393-2.044 2.613-3.028 3.602-.981.991-1.944 1.733-2.799 2.201-.854.47-1.593.662-2.09.682-.25.043-.439 0-.568.003-.127-.005-.193-.008-.193-.008l-.057-.003c-.192-.008-.354.14-.362.332-.008.189.137.35.327.361 0 0 .078.005.232.014.153 0 .383.044.676 0 .591-.025 1.442-.248 2.375-.758.935-.506 1.951-1.289 2.972-2.31 1.023-1.017 2.067-2.26 3.107-3.68 2.085-2.838 4.185-6.36 6.229-10.23 2.045-3.869 4.042-8.088 5.929-12.352 1.877-4.268 3.638-8.585 5.231-12.653 1.592-4.069 3.012-7.891 4.199-11.178 1.19-3.285 2.125-6.043 2.779-7.974.641-1.936 1.008-3.042 1.008-3.042.031-.093-.019-.193-.113-.224-.092-.03-.191.019-.223.11l-.001.003Z"
    />
    <path fill="#eb9041" d="M275.379 91.336h8.477v5.036h-8.477z" />
    <path fill="#fdba56" d="M282.578 91.336h1.278v5.036h-1.278z" />
    <path fill="#fdba56" d="M275.379 91.336h8.477v.254h-8.477z" />
    <path fill="#985221" d="M280.27 91.59h1.263v4.782h-1.263z" />
    <path fill="#bf6329" d="M280.27 91.59h.334v4.782h-.334z" />
    <path fill="#985221" d="M278.181 91.59h1.263v4.782h-1.263z" />
    <path fill="#bf6329" d="M278.181 91.59h.333v4.782h-.333z" />
    <path fill="#985221" d="M276.091 91.59h1.263v4.782h-1.263z" />
    <path fill="#bf6329" d="M276.091 91.59h.333v4.782h-.333z" />
    <path fill="#eb9041" d="M294.887 91.336h8.477v5.036h-8.477z" />
    <path fill="#fdba56" d="M302.087 91.336h1.277v5.036h-1.277z" />
    <path fill="#fdba56" d="M294.887 91.336h8.477v.254h-8.477z" />
    <path fill="#985221" d="M299.778 91.59h1.263v4.782h-1.263z" />
    <path fill="#bf6329" d="M299.778 91.59h.334v4.782h-.334z" />
    <path fill="#985221" d="M297.688 91.59h1.263v4.782h-1.263z" />
    <path fill="#bf6329" d="M297.688 91.59h.334v4.782h-.334z" />
    <path fill="#985221" d="M295.598 91.59h1.263v4.782h-1.263z" />
    <path fill="#bf6329" d="M295.598 91.59h.334v4.782h-.334z" />
    <path fill="#985221" d="M283.217 92.207h11.67v4.165h-11.67z" />
    <path fill="#eb9041" d="M283.218 92.207h11.669v.349h-11.669z" />
    <path fill="#82421b" d="M284.785 93.855h8.302v2.518h-8.302z" />
    <path fill="#683111" d="M285.307 94.29h7.781v2.083h-7.781z" />
    <path fill="#eb9041" d="M330.42 92.918h5.815v3.455h-5.815z" />
    <path fill="#fdba56" d="M335.359 92.918h.877v3.455h-.877z" />
    <path fill="#fdba56" d="M330.42 92.918h5.816v.174h-5.816z" />
    <path fill="#985221" d="M333.776 93.092h.867v3.281h-.867z" />
    <path fill="#bf6329" d="M333.776 93.092h.229v3.281h-.229z" />
    <path fill="#985221" d="M332.342 93.092h.866v3.281h-.866z" />
    <path fill="#bf6329" d="M332.342 93.092h.229v3.281h-.229z" />
    <path fill="#985221" d="M330.908 93.092h.867v3.281h-.867z" />
    <path fill="#bf6329" d="M330.908 93.092h.229v3.281h-.229z" />
    <path fill="#eb9041" d="M343.803 92.918h5.815v3.455h-5.815z" />
    <path fill="#fdba56" d="M348.742 92.918h.876v3.455h-.876z" />
    <path fill="#fdba56" d="M343.803 92.918h5.815v.174h-5.815z" />
    <path fill="#985221" d="M347.159 93.092h.866v3.281h-.866z" />
    <path fill="#bf6329" d="M347.159 93.092h.229v3.281h-.229z" />
    <path fill="#985221" d="M345.725 93.092h.867v3.281h-.867z" />
    <path fill="#bf6329" d="M345.725 93.092h.229v3.281h-.229z" />
    <path fill="#985221" d="M344.291 93.092h.866v3.281h-.866z" />
    <path fill="#bf6329" d="M344.291 93.092h.229v3.281h-.229z" />
    <path fill="#985221" d="M335.797 93.515h8.006v2.858h-8.006z" />
    <path fill="#eb9041" d="M335.797 93.515h8.006v.239h-8.006z" />
    <path fill="#82421b" d="M336.873 94.646h5.696v1.727h-5.696z" />
    <path fill="#683111" d="M337.231 94.944h5.338v1.429h-5.338z" />
  </g>
  <path
    fill="#b1ca52"
    d="M216.998 62.815c1.331-.259 1.089-.697 2.509-.871 2.558-.317 5.97.099 8.003.291 21.742 2.035 37.275 22.801 55.913 34.202h-66.152l-8.869-13.993 8.596-19.629Z"
  />
  <path
    fill="#97b72e"
    d="M160.878 96.437c56.413-.089 72.349-.134 72.349-.134.287-3.565-2.937-4.996-8.865-8.613-11.082-6.763-8.585-9.355-2.851-12.624 4.273-2.435 8.036-5.69 7.802-8.494-.224-2.688-5.252-5.379-10.561-4.532-12.396 1.981-25.464 15.212-31.146 19.837-9.15 7.449-24.491 9.706-26.728 14.56Z"
  />
  <path
    fill="#91b42c"
    d="M266.313 93.868c-4.197-.471-5.252-5.676-3.164-15.615 1.071-4.526 2.125-6.752 3.164-6.684 1.039-.068 2.094 2.158 3.165 6.684 2.087 9.939 1.033 15.144-3.165 15.615Z"
  />
  <path
    fill="#84a128"
    d="M266.313 93.868c-4.197-.471-5.252-5.676-3.164-15.615 1.071-4.526 2.125-6.752 3.164-6.684v22.299Z"
  />
  <path fill="#877868" d="M266.031 82.649h.565v13.788h-.565z" />
  <path
    fill="#91b42c"
    d="M254.847 92.874c-5.818-.652-7.28-7.865-4.386-21.643 1.484-6.274 2.946-9.362 4.386-9.266 1.441-.096 2.903 2.992 4.387 9.266 2.894 13.778 1.432 20.991-4.387 21.643Z"
  />
  <path
    fill="#84a128"
    d="M254.847 92.874c-5.818-.652-7.28-7.865-4.386-21.643 1.484-6.274 2.946-9.362 4.386-9.266v30.909Z"
  />
  <path fill="#877868" d="M254.456 77.321h.783v19.116h-.783z" />
</svg>
