<svg
  xmlns="http://www.w3.org/2000/svg"
  xml:space="preserve"
  fill-rule="evenodd"
  stroke-linejoin="round"
  stroke-miterlimit="2"
  clip-rule="evenodd"
  viewBox="0 0 480 96"
>
  <g fill-rule="nonzero">
    <path
      fill="#49c6e5"
      d="M268.987 92.537V79.672h-9.119V91.36h-1.06V72.708h-15.944v-9.36h-6.918v10.279h-.875V59.955h-6.023v13.672h-.825V44.081h-1.657v-4.582h-2.392v-9.831h-.679v9.861h-2.468v4.508h-1.584v23.044h-1.379V45.276h-5.135v14.863h-3.572v12.569h-1.212V56.772h-1.493v-.98h-1.162v-5.241h-.486v5.241h-3.528v-5.241h-.486v5.241h-1.171v1.016h-1.523v22.651h-.957V62.625h-4.251v1.771h-2.125V39.312h-5.03v-1.411h-1.004V32.45h-.486v5.451h-9.164V32.45h-.486v5.451h-1.168v1.411h-5.516v25.731h-1.771v7.805h-3.004v8.71h-1.068V49.503H151.99v9.843h-3.405v22.326h-3.422V51.014h-1.133V30.866h-1.836v-.685h-1.004v-5.455h-.486v5.455h-3.525v-5.455h-.486v5.455h-1.168v.691h-1.78v20.156h-1.063v27.406h-1.71V49.243h-2.187V27.654h-1.595v-4.88h-1.918v-4.875h-2.245V5.465h-.735v12.463h-2.372v4.846h-2.119v4.88h-1.771v21.43h-2.029v32.474h-.996V54.442h-1.941v-8.227h-1.513v-2.617h-1.707V36.68h-.65v6.941h-1.713v2.594h-1.753v8.227h-2.155v31.583h-1.13V55.54h-6.192v8.145H92.45V34.159h-3.686v-1.87H87.76v-5.452h-.486v5.452h-3.525v-5.452h-.486v5.452h-1.168v1.87h-3.823v29.71h-1.798v2.872h-.82v-6.447h-2.383V46.766H62.497v13.581h-2.412v23.079h-1.083V59.044h-5.2v6.145h-.647v-8.867h-2.33v-3.519h-3.103v-6.998h-.744v7.039H43.67v3.478h-2.319v8.499h-6.198v16.737h-1.019V61.486h-6.598v20.072h-.782V50.943h-1.695v-5.184h-2.266v-9.6h-.636V45.8h-2.52v5.05h-1.78v23.239h-6.441v6.951H7.639v11.497H3.447v3.185H273.18v-3.185h-4.193Z"
    />
    <path
      fill="#fff"
      d="M254.344 75.769h1.296v1.086h-1.296zm-2.099 0h1.296v1.086h-1.296zm-2.099 0h1.296v1.086h-1.296zm-2.098 0h1.296v1.086h-1.296zm-2.099 0h1.296v1.086h-1.296zm-2.098 0h1.296v1.086h-1.296zm10.493 2.217h1.296v1.086h-1.296zm-2.099 0h1.296v1.086h-1.296zm-2.099 0h1.296v1.086h-1.296zm-2.098 0h1.296v1.086h-1.296zm-2.099 0h1.296v1.086h-1.296zm-2.098 0h1.296v1.086h-1.296zm10.493 2.215h1.296v1.086h-1.296zm-2.099 0h1.296v1.086h-1.296zm-2.099 0h1.296v1.086h-1.296zm-2.098 0h1.296v1.086h-1.296zm-2.099 0h1.296v1.086h-1.296zm-2.098 0h1.296v1.086h-1.296zm10.493 2.217h1.296v1.086h-1.296zm-2.099 0h1.296v1.086h-1.296zm-2.099 0h1.296v1.086h-1.296zm-2.098 0h1.296v1.086h-1.296zm-2.099 0h1.296v1.086h-1.296zm-2.098 0h1.296v1.086h-1.296zm10.493 2.216h1.296v1.086h-1.296zm-2.099 0h1.296v1.086h-1.296zm-2.099 0h1.296v1.086h-1.296zm-2.098 0h1.296v1.086h-1.296zm-2.099 0h1.296v1.086h-1.296zm-2.098 0h1.296v1.086h-1.296zm10.493 2.216h1.296v1.086h-1.296zm-2.099 0h1.296v1.086h-1.296zm-2.099 0h1.296v1.086h-1.296zm-2.098 0h1.296v1.086h-1.296zm-2.099 0h1.296v1.086h-1.296zm-2.098 0h1.296v1.086h-1.296zm10.493 2.23h1.296v2.278h-1.296zm-2.099 0h1.296v2.278h-1.296zm-2.099 0h1.296v2.278h-1.296zm-2.098 0h1.296v2.278h-1.296zm-2.099 0h1.296v2.278h-1.296zm-2.098 0h1.296v2.278h-1.296zM89.841 67.944h1.207v.671h-1.207zm-1.686 0h1.207v.671h-1.207zm-1.685 0h1.207v.671H86.47zm-1.686 0h1.207v.671h-1.207zm-1.686 0h1.207v.671h-1.207zm-1.685 0h1.207v.671h-1.207zm-1.686 0h1.207v.671h-1.207zm10.114 1.78h1.207v.671h-1.207zm-1.686 0h1.207v.671h-1.207zm-1.685 0h1.207v.671H86.47zm-1.686 0h1.207v.671h-1.207zm-1.686 0h1.207v.671h-1.207zm-1.685 0h1.207v.671h-1.207zm-1.686 0h1.207v.671h-1.207zm10.114-32.963h1.207v1.587h-1.207zm-1.686 0h1.207v1.587h-1.207zm-1.685 0h1.207v1.587H86.47zm-1.686 0h1.207v1.587h-1.207zm-1.686 0h1.207v1.587h-1.207zm-1.685 0h1.207v1.587h-1.207zm-1.686 0h1.207v1.587h-1.207zm10.114 34.743h1.207v.671h-1.207zm-1.686 0h1.207v.671h-1.207zm-1.685 0h1.207v.671H86.47zm-1.686 0h1.207v.671h-1.207zm-1.686 0h1.207v.671h-1.207zm-1.685 0h1.207v.671h-1.207zm-1.686 0h1.207v.671h-1.207zm10.114 1.78h1.207v.671h-1.207zm-1.686 0h1.207v.671h-1.207zm-1.685 0h1.207v.671H86.47zm-1.686 0h1.207v.671h-1.207zm-1.686 0h1.207v.671h-1.207zm-1.685 0h1.207v.671h-1.207zm-1.686 0h1.207v.671h-1.207zm10.114 1.78h1.207v.671h-1.207zm-1.686 0h1.207v.671h-1.207zm-1.685 0h1.207v.671H86.47zm-1.686 0h1.207v.671h-1.207zm-1.686 0h1.207v.671h-1.207zm-1.685 0h1.207v.671h-1.207zm-1.686 0h1.207v.671h-1.207zm10.114 1.78h1.207v.671h-1.207zm-1.686 0h1.207v.671h-1.207zm-1.685 0h1.207v.671H86.47zm-1.686 0h1.207v.671h-1.207zm-1.686 0h1.207v.671h-1.207zm-1.685 0h1.207v.671h-1.207zm-1.686 0h1.207v.671h-1.207zm10.114 1.78h1.207v.671h-1.207zm-1.686 0h1.207v.671h-1.207zm-1.685 0h1.207v.671H86.47zm-1.686 0h1.207v.671h-1.207zm-1.686 0h1.207v.671h-1.207zm-1.685 0h1.207v.671h-1.207zm-1.686 0h1.207v.671h-1.207zm10.114 1.78h1.207v.672h-1.207zm-1.686 0h1.207v.672h-1.207zm-1.685 0h1.207v.672H86.47zm-1.686 0h1.207v.672h-1.207zm-1.686 0h1.207v.672h-1.207zm-1.685 0h1.207v.672h-1.207zm-1.686 0h1.207v.672h-1.207zm10.114 1.78h1.207v.671h-1.207zm-1.686 0h1.207v.671h-1.207zm-1.685 0h1.207v.671H86.47zm-1.686 0h1.207v.671h-1.207zm-1.686 0h1.207v.671h-1.207zm-1.685 0h1.207v.671h-1.207zm-1.686 0h1.207v.671h-1.207zm10.114 1.78h1.207v.671h-1.207zm-1.686 0h1.207v.671h-1.207zm-1.685 0h1.207v.671H86.47zm-1.686 0h1.207v.671h-1.207zm-1.686 0h1.207v.671h-1.207zm-1.685 0h1.207v.671h-1.207zm-1.686 0h1.207v.671h-1.207zM89.841 50.13h1.207v.672h-1.207zm-1.686 0h1.207v.672h-1.207zm-1.685 0h1.207v.672H86.47zm-1.686 0h1.207v.672h-1.207zm-1.686 0h1.207v.672h-1.207zm-1.685 0h1.207v.672h-1.207zm-1.686 0h1.207v.672h-1.207zm10.114 1.781h1.207v.671h-1.207zm-1.686 0h1.207v.671h-1.207zm-1.685 0h1.207v.671H86.47zm-1.686 0h1.207v.671h-1.207zm-1.686 0h1.207v.671h-1.207zm-1.685 0h1.207v.671h-1.207zm-1.686 0h1.207v.671h-1.207zm10.114 1.779h1.207v.671h-1.207zm-1.686 0h1.207v.671h-1.207zm-1.685 0h1.207v.671H86.47zm-1.686 0h1.207v.671h-1.207zm-1.686 0h1.207v.671h-1.207zm-1.685 0h1.207v.671h-1.207zm-1.686 0h1.207v.671h-1.207zm10.114 1.78h1.207v.672h-1.207zm-1.686 0h1.207v.672h-1.207zm-1.685 0h1.207v.672H86.47zm-1.686 0h1.207v.672h-1.207zm-1.686 0h1.207v.672h-1.207zm-1.685 0h1.207v.672h-1.207zm-1.686 0h1.207v.672h-1.207zm10.114 1.781h1.207v.671h-1.207zm-1.686 0h1.207v.671h-1.207zm-1.685 0h1.207v.671H86.47zm-1.686 0h1.207v.671h-1.207zm-1.686 0h1.207v.671h-1.207zm-1.685 0h1.207v.671h-1.207zm-1.686 0h1.207v.671h-1.207zm10.114-15.873h1.207v.671h-1.207zm-1.686 0h1.207v.671h-1.207zm-1.685 0h1.207v.671H86.47zm-1.686 0h1.207v.671h-1.207zm-1.686 0h1.207v.671h-1.207zm-1.685 0h1.207v.671h-1.207zm-1.686 0h1.207v.671h-1.207zm10.114-1.708h1.207v.671h-1.207zm-1.686 0h1.207v.671h-1.207zm-1.685 0h1.207v.671H86.47zm-1.686 0h1.207v.671h-1.207zm-1.686 0h1.207v.671h-1.207zm-1.685 0h1.207v.671h-1.207zm-1.686 0h1.207v.671h-1.207zm10.114 3.488h1.207v.671h-1.207zm-1.686 0h1.207v.671h-1.207zm-1.685 0h1.207v.671H86.47zm-1.686 0h1.207v.671h-1.207zm-1.686 0h1.207v.671h-1.207zm-1.685 0h1.207v.671h-1.207zm-1.686 0h1.207v.671h-1.207zm10.114 1.78h1.207v.671h-1.207zm-1.686 0h1.207v.671h-1.207zm-1.685 0h1.207v.671H86.47zm-1.686 0h1.207v.671h-1.207zm-1.686 0h1.207v.671h-1.207zm-1.685 0h1.207v.671h-1.207zm-1.686 0h1.207v.671h-1.207zm10.114 1.78h1.207v.671h-1.207zm-1.686 0h1.207v.671h-1.207zm-1.685 0h1.207v.671H86.47zm-1.686 0h1.207v.671h-1.207zm-1.686 0h1.207v.671h-1.207zm-1.685 0h1.207v.671h-1.207zm-1.686 0h1.207v.671h-1.207zm10.114 1.78h1.207v.671h-1.207zm-1.686 0h1.207v.671h-1.207zm-1.685 0h1.207v.671H86.47zm-1.686 0h1.207v.671h-1.207zm-1.686 0h1.207v.671h-1.207zm-1.685 0h1.207v.671h-1.207zm-1.686 0h1.207v.671h-1.207zM89.841 59.03h1.207v.671h-1.207zm-1.686 0h1.207v.671h-1.207zm-1.685 0h1.207v.671H86.47zm-1.686 0h1.207v.671h-1.207zm-1.686 0h1.207v.671h-1.207zm-1.685 0h1.207v.671h-1.207zm-1.686 0h1.207v.671h-1.207zm10.114 1.78h1.207v.672h-1.207zm-1.686 0h1.207v.672h-1.207zm-1.685 0h1.207v.672H86.47zm-1.686 0h1.207v.672h-1.207zm-1.686 0h1.207v.672h-1.207zm-1.685 0h1.207v.672h-1.207zm-1.686 0h1.207v.672h-1.207zm10.114 1.781h1.207v.671h-1.207zm-1.686 0h1.207v.671h-1.207zm-1.685 0h1.207v.671H86.47zm-1.686 0h1.207v.671h-1.207zm-1.686 0h1.207v.671h-1.207zm-1.685 0h1.207v.671h-1.207zm-1.686 0h1.207v.671h-1.207zm10.114 1.78h1.207v.671h-1.207zm-1.686 0h1.207v.671h-1.207zm-1.685 0h1.207v.671H86.47zm-1.686 0h1.207v.671h-1.207zm-1.686 0h1.207v.671h-1.207zm-1.685 0h1.207v.671h-1.207zm-1.686 0h1.207v.671h-1.207zm10.114 1.78h1.207v.671h-1.207zm-1.686 0h1.207v.671h-1.207zm-1.685 0h1.207v.671H86.47zm-1.686 0h1.207v.671h-1.207zm-1.686 0h1.207v.671h-1.207zm-1.685 0h1.207v.671h-1.207zm-1.686 0h1.207v.671h-1.207zm10.114 21.51h1.207v.671h-1.207zm-1.686 0h1.207v.671h-1.207zm-1.685 0h1.207v.671H86.47zm-1.686 0h1.207v.671h-1.207zm-1.686 0h1.207v.671h-1.207zm-1.685 0h1.207v.671h-1.207zm-1.686 0h1.207v.671h-1.207zm10.114 2.308h1.207v1.524h-1.207zm-1.686 0h1.207v1.524h-1.207zm-1.685 0h1.207v1.524H86.47zm-1.686 0h1.207v1.524h-1.207zm-1.686 0h1.207v1.524h-1.207zm-1.685 0h1.207v1.524h-1.207zm-1.686 0h1.207v1.524h-1.207zM222.35 41.03h.492v.949h-.492zm1.274 0h.492v.949h-.492zm1.273 0h.492v.949h-.492zm-2.547 1.953h.492v.949h-.492zm1.274 0h.492v.949h-.492zm1.273 0h.492v.949h-.492zm-3.818 2.061h.489v1.353h-.489zm1.271 0h.492v1.353h-.492zm1.274 0h.492v1.353h-.492zm1.273 0h.492v1.353h-.492zm1.274 0h.489v1.353h-.489zm-5.092 2.108h.489v1.353h-.489zm1.271 0h.492v1.353h-.492zm1.274 0h.492v1.353h-.492zm1.273 0h.492v1.353h-.492zm1.274 0h.489v1.353h-.489zm-5.092 2.108h.489v1.353h-.489zm1.271 0h.492v1.353h-.492zm1.274 0h.492v1.353h-.492zm1.273 0h.492v1.353h-.492zm1.274 0h.489v1.353h-.489zm-5.092 2.105h.489v1.355h-.489zm1.271 0h.492v1.355h-.492zm1.274 0h.492v1.355h-.492zm1.273 0h.492v1.355h-.492zm1.274 0h.489v1.355h-.489zm-5.092 2.108h.489v1.353h-.489zm1.271 0h.492v1.353h-.492zm1.274 0h.492v1.353h-.492zm1.273 0h.492v1.353h-.492zm1.274 0h.489v1.353h-.489zm-5.092 2.108h.489v1.353h-.489zm1.271 0h.492v1.353h-.492zm1.274 0h.492v1.353h-.492zm1.273 0h.492v1.353h-.492zm1.274 0h.489v1.353h-.489zm-5.092 2.108h.489v1.353h-.489zm1.271 0h.492v1.353h-.492zm1.274 0h.492v1.353h-.492zm1.273 0h.492v1.353h-.492zm1.274 0h.489v1.353h-.489zm-5.092 2.108h.489v1.353h-.489zm1.271 0h.492v1.353h-.492zm1.274 0h.492v1.353h-.492zm1.273 0h.492v1.353h-.492zm1.274 0h.489v1.353h-.489zm-5.092 2.108h.489v1.353h-.489zm1.271 0h.492v1.353h-.492zm1.274 0h.492v1.353h-.492zm1.273 0h.492v1.353h-.492zm1.274 0h.489v1.353h-.489zm-5.092 2.108h.489v1.353h-.489zm1.271 0h.492v1.353h-.492zm1.274 0h.492v1.353h-.492zm1.273 0h.492v1.353h-.492zm1.274 0h.489v1.353h-.489zm-25.011-4.506h.407v1.121h-.407zm1.057 0h.407v1.121h-.407zm1.054 0h.407v1.121h-.407zm1.056 0h.407v1.121h-.407zm1.054 0h.407v1.121h-.407zm-4.221 1.748h.407v1.121h-.407zm1.057 0h.407v1.121h-.407zm1.054 0h.407v1.121h-.407zm1.056 0h.407v1.121h-.407zm1.054 0h.407v1.121h-.407zm-4.221 1.747h.407v1.121h-.407zm1.057 0h.407v1.121h-.407zm1.054 0h.407v1.121h-.407zm1.056 0h.407v1.121h-.407zm1.054 0h.407v1.121h-.407zm-4.221 1.745h.407v1.124h-.407zm1.057 0h.407v1.124h-.407zm1.054 0h.407v1.124h-.407zm1.056 0h.407v1.124h-.407zm1.054 0h.407v1.124h-.407zm-4.221 1.748h.407v1.121h-.407zm1.057 0h.407v1.121h-.407zm1.054 0h.407v1.121h-.407zm1.056 0h.407v1.121h-.407zm1.054 0h.407v1.121h-.407zm-4.221 1.748h.407v1.121h-.407zm1.057 0h.407v1.121h-.407zm1.054 0h.407v1.121h-.407zm1.056 0h.407v1.121h-.407zm1.054 0h.407v1.121h-.407zm-4.221 1.748h.407v1.121h-.407zm1.057 0h.407v1.121h-.407zm1.054 0h.407v1.121h-.407zm1.056 0h.407v1.121h-.407zm1.054 0h.407v1.121h-.407zm-4.221 1.745h.407v1.124h-.407zm1.057 0h.407v1.124h-.407zm1.054 0h.407v1.124h-.407zm1.056 0h.407v1.124h-.407zm1.054 0h.407v1.124h-.407zm-4.221 1.747h.407v1.121h-.407zm1.057 0h.407v1.121h-.407zm1.054 0h.407v1.121h-.407zm1.056 0h.407v1.121h-.407zm1.054 0h.407v1.121h-.407zm-4.221 1.748h.407v1.121h-.407zm1.057 0h.407v1.121h-.407zm1.054 0h.407v1.121h-.407zm1.056 0h.407v1.121h-.407zm1.054 0h.407v1.121h-.407zm-4.221 1.748h.407V78.1h-.407zm1.057 0h.407V78.1h-.407zm1.054 0h.407V78.1h-.407zm1.056 0h.407V78.1h-.407zm1.054 0h.407V78.1h-.407zm-4.221 1.748h.407v1.121h-.407zm1.057 0h.407v1.121h-.407zm1.054 0h.407v1.121h-.407zm1.056 0h.407v1.121h-.407zm1.054 0h.407v1.121h-.407zm-4.221 1.745h.407v1.121h-.407zm1.057 0h.407v1.121h-.407zm1.054 0h.407v1.121h-.407zm1.056 0h.407v1.121h-.407zm1.054 0h.407v1.121h-.407zm-4.221 1.748h.407v1.121h-.407zm1.057 0h.407v1.121h-.407zm1.054 0h.407v1.121h-.407zm1.056 0h.407v1.121h-.407zm1.054 0h.407v1.121h-.407zm-4.221 1.747h.407v1.121h-.407zm-49.404-8.736h.407v1.121h-.407zm0 1.748h.407V78.1h-.407zm0 1.748h.407v1.121h-.407zm0 9.084h.407v1.121h-.407zm0 1.748h.407v1.121h-.407zm0-5.592h.407v1.121h-.407zm-1.429-8.736h.404v1.121h-.404zm0 1.748h.404V78.1h-.404zm0 1.748h.404v1.121h-.404zm0 9.084h.404v1.121h-.404zm0 1.748h.404v1.121h-.404zm0-5.592h.404v1.121h-.404zm1.429-19.255h.407v1.121h-.407zm0 1.748h.407v1.121h-.407zm0 1.748h.407v1.121h-.407zm0 5.24h.407v1.121h-.407zm-1.429-8.736h.404v1.121h-.404zm1.429-1.753h.407v1.121h-.407zm-1.429 0h.404v1.121h-.404zm0 3.501h.404v1.121h-.404zm0 1.748h.404v1.121h-.404zm0 5.24h.404v1.121h-.404zm51.89 10.519h.407v1.121h-.407zm1.054 0h.407v1.121h-.407zm1.056 0h.407v1.121h-.407zm1.054 0h.407v1.121h-.407zm-4.221 1.748h.407v1.121h-.407zm1.057 0h.407v1.121h-.407zm-37.293-10.967h.407v1.121h-.407zm1.057 0h.407v1.121h-.407zm-1.057 1.748h.407v1.121h-.407zm1.057 0h.407v1.121h-.407zm-1.057 1.745h.407v1.121h-.407zm1.057 0h.407v1.121h-.407zm-1.057 1.748h.407v1.121h-.407zm1.057 0h.407v1.121h-.407zm-1.057 1.747h.407v1.121h-.407zm1.057 0h.407v1.121h-.407zm-1.057 1.748h.407v1.121h-.407zm1.057 0h.407v1.121h-.407zm-1.057 1.745h.407v1.124h-.407zm1.057 0h.407v1.124h-.407zm-1.057 1.748h.407v1.121h-.407zm1.057 0h.407v1.121h-.407zm-1.057 1.748h.407v1.121h-.407zm1.057 0h.407v1.121h-.407zm42.287-11.746h.407V78.1h-.407zm0 1.745h.407v1.124h-.407zm0 1.748h.407v1.121h-.407zm0 1.748h.407v1.121h-.407zm0 1.747h.407v1.121h-.407zm0 1.745h.407v1.121h-.407zm0 1.748h.407v1.121h-.407zm1.139-10.481h.407V78.1h-.407zm0 1.745h.407v1.124h-.407zm0 1.748h.407v1.121h-.407zm0 1.748h.407v1.121h-.407zm0 1.747h.407v1.121h-.407zm0 1.745h.407v1.121h-.407zm0 1.748h.407v1.121h-.407zm19.27-7.398h.407v1.121h-.407zm0 1.748h.407v1.121h-.407zm0 1.747h.407v1.121h-.407zm0 1.748h.407v1.121h-.407zm0 1.745h.407v1.121h-.407zm0 1.748h.407v1.121h-.407zm0 1.748h.407v1.121h-.407zm6.271-10.484h.407v1.121h-.407zm0 1.748h.407v1.121h-.407zm0 1.747h.407v1.121h-.407zm0 1.748h.407v1.121h-.407zm0 1.745h.407v1.121h-.407zm0 1.748h.407v1.121h-.407zm0 1.748h.407v1.121h-.407zm-70.024-.073h.407v1.121h-.407zm1.057 0h.407v1.121h-.407zm37.29-4.758h.407v1.121h-.407zm1.056 0h.407v1.121h-.407zm1.054 0h.407v1.121h-.407zm-4.221 2.155h.407v2.187h-.407zm1.057 0h.407v2.187h-.407zm1.054 0h.407v2.187h-.407zm1.056 0h.407v2.187h-.407zm1.054 0h.407v2.187h-.407zm15.698-21.776h.489v1.353h-.489zm1.271 0h.492v1.353h-.492zm1.274 0h.492v1.353h-.492zm1.273 0h.492v1.353h-.492zm1.274 0h.489v1.353h-.489zm-5.092 2.108h.489v1.353h-.489zm1.271 0h.492v1.353h-.492zm1.274 0h.492v1.353h-.492zm1.273 0h.492v1.353h-.492zm1.274 0h.489v1.353h-.489zm-5.092 2.108h.489v1.353h-.489zm1.271 0h.492v1.353h-.492zm1.274 0h.492v1.353h-.492zm1.273 0h.492v1.353h-.492zm1.274 0h.489v1.353h-.489zm-5.092 2.108h.489v1.353h-.489zm1.271 0h.492v1.353h-.492zm1.274 0h.492v1.353h-.492zm1.273 0h.492v1.353h-.492zm1.274 0h.489v1.353h-.489zm-5.092 2.105h.489v1.355h-.489zm1.271 0h.492v1.355h-.492zm1.274 0h.492v1.355h-.492zm1.273 0h.492v1.355h-.492zm1.274 0h.489v1.355h-.489zm-5.092 2.108h.489v1.356h-.489zm1.271 0h.492v1.356h-.492zm1.274 0h.492v1.356h-.492zm1.273 0h.492v1.356h-.492zm1.274 0h.489v1.356h-.489zm-5.092 2.108h.489v1.353h-.489zm1.271 0h.492v1.353h-.492zm1.274 0h.492v1.353h-.492zm1.273 0h.492v1.353h-.492zm1.274 0h.489v1.353h-.489zm-5.092 2.107h.489v1.353h-.489zm1.271 0h.492v1.353h-.492zm1.274 0h.492v1.353h-.492zm1.273 0h.492v1.353h-.492zm1.274 0h.489v1.353h-.489zm-5.092 2.108h.489v1.353h-.489zm1.271 0h.492v1.353h-.492zm1.274 0h.492v1.353h-.492zm1.273 0h.492v1.353h-.492zm1.274 0h.489v1.353h-.489zm-5.092 2.108h.489v1.353h-.489zm1.271 0h.492v1.353h-.492zm1.274 0h.492v1.353h-.492zm1.273 0h.492v1.353h-.492zm1.274 0h.489v1.353h-.489zm-5.092 2.105h.489v1.355h-.489zm1.271 0h.492v1.355h-.492zm1.274 0h.492v1.355h-.492zm1.273 0h.492v1.355h-.492zm1.274 0h.489v1.355h-.489zm-5.092 2.108h.489v2.298h-.489zm1.271 0h.492v2.298h-.492zm1.274 0h.492v2.298h-.492zm1.273 0h.492v2.298h-.492zm1.274 0h.489v2.298h-.489zM21.007 49.614h.433v1.197h-.433zm1.127 0h.436v1.197h-.436zm1.127 0h.436v1.197h-.436zm-2.254-1.911h.433V48.9h-.433zm1.127 0h.436V48.9h-.436zm1.127 0h.436V48.9h-.436zm-3.381 4.69h.433v1.197h-.433zm1.127 0h.433v1.197h-.433zm1.127 0h.436v1.197h-.436zm1.127 0h.436v1.197h-.436zm1.127 0h.436v1.197h-.436zm-4.508 1.865h.433v1.197h-.433zm1.127 0h.433v1.197h-.433zm1.127 0h.436v1.197h-.436zm1.127 0h.436v1.197h-.436zm1.127 0h.436v1.197h-.436zm-4.508 1.867h.433v1.197h-.433zm1.127 0h.433v1.197h-.433zm1.127 0h.436v1.197h-.436zm1.127 0h.436v1.197h-.436zm1.127 0h.436v1.197h-.436zM19.88 57.99h.433v1.197h-.433zm1.127 0h.433v1.197h-.433zm1.127 0h.436v1.197h-.436zm1.127 0h.436v1.197h-.436zm1.127 0h.436v1.197h-.436zm-4.508 1.868h.433v1.197h-.433zm1.127 0h.433v1.197h-.433zm1.127 0h.436v1.197h-.436zm1.127 0h.436v1.197h-.436zm1.127 0h.436v1.197h-.436zm-4.508 1.865h.433v1.197h-.433zm1.127 0h.433v1.197h-.433zm1.127 0h.436v1.197h-.436zm1.127 0h.436v1.197h-.436zm1.127 0h.436v1.197h-.436zm-4.508 1.865h.433v1.2h-.433zm1.127 0h.433v1.2h-.433zm1.127 0h.436v1.2h-.436zm1.127 0h.436v1.2h-.436zm1.127 0h.436v1.2h-.436zm-4.508 1.868h.433v1.197h-.433zm1.127 0h.433v1.197h-.433zm1.127 0h.436v1.197h-.436zm1.127 0h.436v1.197h-.436zm1.127 0h.436v1.197h-.436zm-4.508 1.865h.433v1.2h-.433zm1.127 0h.433v1.2h-.433zm1.127 0h.436v1.2h-.436zm1.127 0h.436v1.2h-.436zm1.127 0h.436v1.2h-.436zm-4.508 1.847h.433v1.197h-.433zm1.127 0h.433v1.197h-.433zm1.127 0h.436v1.197h-.436zm1.127 0h.436v1.197h-.436zm1.127 0h.436v1.197h-.436zm-4.508 1.865h.433v1.197h-.433zm1.127 0h.433v1.197h-.433zm1.127 0h.436v1.197h-.436zm1.127 0h.436v1.197h-.436zm1.127 0h.436v1.197h-.436zm-4.508 1.865h.433v1.2h-.433zm1.127 0h.433v1.2h-.433zm1.127 0h.436v1.2h-.436zm1.127 0h.436v1.2h-.436zm1.127 0h.436v1.2h-.436zm-4.508 1.868h.433v1.197h-.433zm1.127 0h.433v1.197h-.433zm1.127 0h.436v1.197h-.436zm1.127 0h.436v1.197h-.436zm1.127 0h.436v1.197h-.436zm-4.508 1.865h.433v1.2h-.433zm1.127 0h.433v1.2h-.433zm1.127 0h.436v1.2h-.436zm1.127 0h.436v1.2h-.436zm1.127 0h.436v1.2h-.436zm-4.508 1.868h.433v1.197h-.433zm1.127 0h.433v1.197h-.433zm1.127 0h.436v1.197h-.436zm1.127 0h.436v1.197h-.436zm1.127 0h.436v1.197h-.436zm-4.508 1.864h.433v1.2h-.433zm1.127 0h.433v1.2h-.433zm1.127 0h.436v1.2h-.436zm1.127 0h.436v1.2h-.436zm1.127 0h.436v1.2h-.436zm-4.508 1.868h.433v1.197h-.433zm1.127 0h.433v1.197h-.433zm1.127 0h.436v1.197h-.436zm1.127 0h.436v1.197h-.436zm1.127 0h.436v1.197h-.436zm-4.508 1.865h.433v1.2h-.433zm1.127 0h.433v1.2h-.433zm1.127 0h.436v1.2h-.436zm1.127 0h.436v1.2h-.436zm1.127 0h.436v1.2h-.436zm-4.508 1.868h.433v1.197h-.433zm1.127 0h.433v1.197h-.433zm1.127 0h.436v1.197h-.436zm1.127 0h.436v1.197h-.436zm1.127 0h.436v1.197h-.436zm-4.508 1.865h.433v1.197h-.433zm1.127 0h.433v1.197h-.433zm1.127 0h.436v1.197h-.436zm1.127 0h.436v1.197h-.436zm1.127 0h.436v1.197h-.436zm-4.508 1.868h.433v2.205h-.433zm1.127 0h.433v2.205h-.433zm1.127 0h.436v2.205h-.436zm1.127 0h.436v2.205h-.436zm1.127 0h.436v2.205h-.436zm95.389-33.985h.491v1.353h-.491zm1.273 0h.491v1.353h-.491zm1.273 0h.49v1.353h-.49zm1.273 0h.49v1.353h-.49zm1.273 0h.49v1.353h-.49zm-5.092 2.108h.491v1.353h-.491zm1.273 0h.491v1.353h-.491zm1.273 0h.49v1.353h-.49zm1.273 0h.49v1.353h-.49zm1.273 0h.49v1.353h-.49zm-5.092 2.107h.491v1.353h-.491zm1.273 0h.491v1.353h-.491zm1.273 0h.49v1.353h-.49zm1.273 0h.49v1.353h-.49zm1.273 0h.49v1.353h-.49zm-5.092 2.107h.491v1.353h-.491zm1.273 0h.491v1.353h-.491zm1.273 0h.49v1.353h-.49zm1.273 0h.49v1.353h-.49zm1.273 0h.49v1.353h-.49zm-5.092 2.108h.491v1.353h-.491zm1.273 0h.491v1.353h-.491zm1.273 0h.49v1.353h-.49zm1.273 0h.49v1.353h-.49zm1.273 0h.49v1.353h-.49zm-5.092 2.107h.491v1.353h-.491zm1.273 0h.491v1.353h-.491zm1.273 0h.49v1.353h-.49zm1.273 0h.49v1.353h-.49zm1.273 0h.49v1.353h-.49zm-5.092 2.107h.491v1.353h-.491zm1.273 0h.491v1.353h-.491zm1.273 0h.49v1.353h-.49zm1.273 0h.49v1.353h-.49zm1.273 0h.49v1.353h-.49zm-5.092 2.108h.491v1.353h-.491zm1.273 0h.491v1.353h-.491zm1.273 0h.49v1.353h-.49zm1.273 0h.49v1.353h-.49zm1.273 0h.49v1.353h-.49zm-5.092 2.107h.491v1.353h-.491zm1.273 0h.491v1.353h-.491zm1.273 0h.49v1.353h-.49zm1.273 0h.49v1.353h-.49zm1.273 0h.49v1.353h-.49zm-5.092 2.108h.491v1.353h-.491zm1.273 0h.491v1.353h-.491zm1.273 0h.49v1.353h-.49zm1.273 0h.49v1.353h-.49zm1.273 0h.49v1.353h-.49zm-5.092 2.107h.491v1.353h-.491zm1.273 0h.491v1.353h-.491zm1.273 0h.49v1.353h-.49zm1.273 0h.49v1.353h-.49zm1.273 0h.49v1.353h-.49zm-80.426-18.2h.491v1.353h-.491zm1.274 0h.49v1.353h-.49zm1.272 0h.49v1.353h-.49zm1.273 0h.49v1.353h-.49zm1.273 0h.491v1.353h-.491zm-5.092-3.674h.491v1.353h-.491zm1.274 0h.49v1.353h-.49zm1.272 0h.49v1.353h-.49zm1.273 0h.49v1.353h-.49zm1.273 0h.491v1.353h-.491zm-5.092 5.782h.491v1.353h-.491zm1.274 0h.49v1.353h-.49zm1.272 0h.49v1.353h-.49zm1.273 0h.49v1.353h-.49zm1.273 0h.491v1.353h-.491zm-5.092 2.107h.491v1.353h-.491zm1.274 0h.49v1.353h-.49zm1.272 0h.49v1.353h-.49zm1.273 0h.49v1.353h-.49zm1.273 0h.491v1.353h-.491zm-5.092 2.107h.491v1.353h-.491zm1.274 0h.49v1.353h-.49zm1.272 0h.49v1.353h-.49zm1.273 0h.49v1.353h-.49zm1.273 0h.491v1.353h-.491zm-5.092 2.108h.491v1.353h-.491zm1.274 0h.49v1.353h-.49zm1.272 0h.49v1.353h-.49zm1.273 0h.49v1.353h-.49zm1.273 0h.491v1.353h-.491zm-5.092 2.107h.491v1.353h-.491zm1.274 0h.49v1.353h-.49zm1.272 0h.49v1.353h-.49zm1.273 0h.49v1.353h-.49zm1.273 0h.491v1.353h-.491zm-5.092 2.107h.491v1.353h-.491zm1.274 0h.49v1.353h-.49zm1.272 0h.49v1.353h-.49zm1.273 0h.49v1.353h-.49zm1.273 0h.491v1.353h-.491zm-5.092 2.108h.491v1.353h-.491zm1.274 0h.49v1.353h-.49zm1.272 0h.49v1.353h-.49zm1.273 0h.49v1.353h-.49zm1.273 0h.491v1.353h-.491zm-5.092 2.107h.491v1.353h-.491zm1.274 0h.49v1.353h-.49zm1.272 0h.49v1.353h-.49zm1.273 0h.49v1.353h-.49zm1.273 0h.491v1.353h-.491zm-5.092 2.108h.491v1.353h-.491zm1.274 0h.49v1.353h-.49zm1.272 0h.49v1.353h-.49zm1.273 0h.49v1.353h-.49zm1.273 0h.491v1.353h-.491zm-5.092 2.107h.491v1.353h-.491zm1.274 0h.49v1.353h-.49zm1.272 0h.49v1.353h-.49zm1.273 0h.49v1.353h-.49zm1.273 0h.491v1.353h-.491zm-5.092 3.865h.491v1.353h-.491zm1.274 0h.49v1.353h-.49zm1.272 0h.49v1.353h-.49zm1.273 0h.49v1.353h-.49zm1.273 0h.491v1.353h-.491zm-5.092 2.108h.491v1.353h-.491zm1.274 0h.49v1.353h-.49zm1.272 0h.49v1.353h-.49zm1.273 0h.49v1.353h-.49zm1.273 0h.491v1.353h-.491zm-5.092 2.277h.491v2.527h-.491zm1.274 0h.49v2.527h-.49zm1.272 0h.49v2.527h-.49zm1.273 0h.49v2.527h-.49zm1.273 0h.491v2.527h-.491zm70.242-9.156h.491v1.353h-.491zm1.273 0h.491v1.353h-.491zm1.273 0h.49v1.353h-.49zm1.273 0h.49v1.353h-.49zm1.273 0h.49v1.353h-.49zm-5.092 2.107h.491v1.353h-.491zm1.273 0h.491v1.353h-.491zm1.273 0h.49v1.353h-.49zm1.273 0h.49v1.353h-.49zm1.273 0h.49v1.353h-.49zm-5.092 2.107h.491v1.353h-.491zm1.273 0h.491v1.353h-.491zm1.273 0h.49v1.353h-.49zm1.273 0h.49v1.353h-.49zm1.273 0h.49v1.353h-.49zm-5.092 2.108h.491v1.353h-.491zm1.273 0h.491v1.353h-.491zm1.273 0h.49v1.353h-.49zm1.273 0h.49v1.353h-.49zm1.273 0h.49v1.353h-.49zm-5.092 2.107h.491v1.353h-.491zm1.273 0h.491v1.353h-.491zm1.273 0h.49v1.353h-.49zm1.273 0h.49v1.353h-.49zm1.273 0h.49v1.353h-.49zM121.05 20.58h.491v.812h-.491zm1.273 0h.49v.812h-.49zm1.273 0h.49v.812h-.49zm-3.819 3.735h.491v.926h-.491zm1.273 0h.491v.926h-.491zm1.273 0h.49v.926h-.49zm1.273 0h.49v.926h-.49zm1.273 0h.49v.926h-.49zm-5.092 1.738h.491v.927h-.491zm1.273 0h.491v.927h-.491zm1.273 0h.49v.927h-.49zm1.273 0h.49v.927h-.49zm1.273 0h.49v.927h-.49zm-5.092 2.899h.491v.93h-.491zm1.273 0h.491v.93h-.491zm1.273 0h.49v.93h-.49zm1.273 0h.49v.93h-.49zm1.273 0h.49v.93h-.49zm-5.092 1.685h.491v1.353h-.491zm1.273 0h.491v1.353h-.491zm1.273 0h.49v1.353h-.49zm1.273 0h.49v1.353h-.49zm1.273 0h.49v1.353h-.49zm-5.092 2.107h.491v1.353h-.491zm1.273 0h.491v1.353h-.491zm1.273 0h.49v1.353h-.49zm1.273 0h.49v1.353h-.49zm1.273 0h.49v1.353h-.49zm-5.092 2.108h.491v1.353h-.491zm1.273 0h.491v1.353h-.491zm1.273 0h.49v1.353h-.49zm1.273 0h.49v1.353h-.49zm1.273 0h.49v1.353h-.49zm-5.092 2.107h.491v1.353h-.491zm1.273 0h.491v1.353h-.491zm1.273 0h.49v1.353h-.49zm1.273 0h.49v1.353h-.49zm1.273 0h.49v1.353h-.49zm-5.092 2.107h.491v1.353h-.491zm1.273 0h.491v1.353h-.491zm1.273 0h.49v1.353h-.49zm1.273 0h.49v1.353h-.49zm1.273 0h.49v1.353h-.49zm-5.092 2.108h.491v1.353h-.491zm1.273 0h.491v1.353h-.491zm1.273 0h.49v1.353h-.49zm1.273 0h.49v1.353h-.49zm1.273 0h.49v1.353h-.49zm-5.092 2.107h.491v1.353h-.491zm1.273 0h.491v1.353h-.491zm1.273 0h.49v1.353h-.49zm1.273 0h.49v1.353h-.49zm1.273 0h.49v1.353h-.49zm-5.092 1.968h.491v1.353h-.491zm1.273 0h.491v1.353h-.491zm1.273 0h.49v1.353h-.49zm1.273 0h.49v1.353h-.49zm1.273 0h.49v1.353h-.49zm-5.092 2.107h.491v1.353h-.491zm1.273 0h.491v1.353h-.491zm1.273 0h.49v1.353h-.49zm1.273 0h.49v1.353h-.49zm1.273 0h.49v1.353h-.49zm-5.092 2.107h.491v1.353h-.491zm1.273 0h.491v1.353h-.491zm1.273 0h.49v1.353h-.49zm1.273 0h.49v1.353h-.49zm1.273 0h.49v1.353h-.49zm-5.092 2.108h.491v1.353h-.491zm1.273 0h.491v1.353h-.491zm1.273 0h.49v1.353h-.49zm1.273 0h.49v1.353h-.49zm1.273 0h.49v1.353h-.49zm-5.092 2.107h.491v1.353h-.491zm-1.305 2.034h.491v1.353h-.491zm0 2.108h.491v1.353h-.491zm0-28.868h.491v.93h-.491zm0 1.685h.491v1.353h-.491zm0 2.107h.491v1.353h-.491zm0 2.108h.491v1.353h-.491zm0 2.107h.491v1.353h-.491zm0 2.107h.491v1.353h-.491zm0 2.108h.491v1.353h-.491zm0 2.107h.491v1.353h-.491zm0 1.968h.491v1.353h-.491zm0 2.107h.491v1.353h-.491zm0 2.107h.491v1.353h-.491zm0 2.108h.491v1.353h-.491zm0 2.107h.491v1.353h-.491zm7.51 2.034h.491v1.353h-.491zm0 2.108h.491v1.353h-.491zm0-28.868h.491v.93h-.491zm0 1.685h.491v1.353h-.491zm0 2.107h.491v1.353h-.491zm0 2.108h.491v1.353h-.491zm0 2.107h.491v1.353h-.491zm0 2.107h.491v1.353h-.491zm0 2.108h.491v1.353h-.491zm0 2.107h.491v1.353h-.491zm0 1.968h.491v1.353h-.491zm0 2.107h.491v1.353h-.491zm0 2.107h.491v1.353h-.491zm0 2.108h.491v1.353h-.491zm0 2.107h.491v1.353h-.491zm-4.932 0h.491v1.353h-.491zm1.273 0h.49v1.353h-.49zm1.273 0h.49v1.353h-.49zm1.273 0h.49v1.353h-.49zm-5.092 35.613h.491v1.353h-.491zm1.273 0h.491v1.353h-.491zm1.273 0h.49v1.353h-.49zm1.273 0h.49v1.353h-.49zm1.273 0h.49v1.353h-.49zm-5.092 2.107h.491v1.353h-.491zm1.273 0h.491v1.353h-.491zm1.273 0h.49v1.353h-.49zm1.273 0h.49v1.353h-.49zm1.273 0h.49v1.353h-.49zm10.501-43.703h.432v1.353h-.432zm1.121 0h.432v1.353h-.432zm1.122 0h.432v1.353h-.432zm1.121 0h.432v1.353h-.432zm-3.364 2.108h.432v1.353h-.432zm1.121 0h.432v1.353h-.432zm1.122 0h.432v1.353h-.432zm1.121 0h.432v1.353h-.432zm-3.364 2.107h.432v1.353h-.432zm-1.054 0h.432v1.353h-.432zm2.175 0h.432v1.353h-.432zm1.122 0h.432v1.353h-.432zm1.121 0h.432v1.353h-.432zm-3.364 2.108h.432v1.353h-.432zm1.121 0h.432v1.353h-.432zm1.122 0h.432v1.353h-.432zm1.121 0h.432v1.353h-.432zm-3.364 2.107h.432v1.353h-.432zm1.121 0h.432v1.353h-.432zm1.122 0h.432v1.353h-.432zm1.121 0h.432v1.353h-.432zm-3.364 2.108h.432v1.353h-.432zm1.121 0h.432v1.353h-.432zm1.122 0h.432v1.353h-.432zm1.121 0h.432v1.353h-.432zm-3.364 2.107h.432v1.353h-.432zm1.121 0h.432v1.353h-.432zm1.122 0h.432v1.353h-.432zm1.121 0h.432v1.353h-.432zm-3.364 2.108h.432v1.353h-.432zm1.121 0h.432v1.353h-.432zm1.122 0h.432v1.353h-.432zm1.121 0h.432v1.353h-.432zm-3.364 2.107h.432v1.353h-.432zm1.121 0h.432v1.353h-.432zm1.122 0h.432v1.353h-.432zm1.121 0h.432v1.353h-.432zm-3.364 2.107h.432v1.353h-.432zm1.121 0h.432v1.353h-.432zm1.122 0h.432v1.353h-.432zm1.121 0h.432v1.353h-.432zm-3.364 2.108h.432v1.353h-.432zm1.121 0h.432v1.353h-.432zm1.122 0h.432v1.353h-.432zm1.121 0h.432v1.353h-.432zm-3.364 1.967h.432v1.353h-.432zm1.121 0h.432v1.353h-.432zm1.122 0h.432v1.353h-.432zm1.121 0h.432v1.353h-.432zm-3.364 2.107h.432v1.353h-.432zm1.121 0h.432v1.353h-.432zm1.122 0h.432v1.353h-.432zm1.121 0h.432v1.353h-.432zm-3.364 2.108h.432v1.353h-.432zm1.121 0h.432v1.353h-.432zm1.122 0h.432v1.353h-.432zm1.121 0h.432v1.353h-.432zm-3.364 2.107h.432v1.353h-.432zm1.121 0h.432v1.353h-.432zm1.122 0h.432v1.353h-.432zm1.121 0h.432v1.353h-.432zm-3.364 2.108h.432v1.353h-.432zm1.121 0h.432v1.353h-.432zm1.122 0h.432v1.353h-.432zm1.121 0h.432v1.353h-.432zm-3.364 2.107h.432v1.353h-.432zm1.121 0h.432v1.353h-.432zm1.122 0h.432v1.353h-.432zm1.121 0h.432v1.353h-.432zm-3.364 2.108h.432v1.353h-.432zm1.121 0h.432v1.353h-.432zm1.122 0h.432v1.353h-.432zm1.121 0h.432v1.353h-.432zm-3.364 2.107h.432v1.353h-.432zm1.121 0h.432v1.353h-.432zm1.122 0h.432v1.353h-.432zm1.121 0h.432v1.353h-.432zm-3.364 2.107h.432v1.353h-.432zm1.121 0h.432v1.353h-.432zm1.122 0h.432v1.353h-.432zm1.121 0h.432v1.353h-.432zm-3.364 2.108h.432v2.359h-.432zm1.121 0h.432v2.359h-.432zm1.122 0h.432v2.359h-.432zm1.121 0h.432v2.359h-.432zm1.189-42.009h.432v1.353h-.432zm1.122 0h.432v1.353h-.432zm1.121 0h.432v1.353h-.432zm-2.243 2.108h.432v1.353h-.432zm1.122 0h.432v1.353h-.432zm1.121 0h.432v1.353h-.432zm-2.243 2.107h.432v1.353h-.432zm1.122 0h.432v1.353h-.432zm1.121 0h.432v1.353h-.432zm1.135 0h.432v1.353h-.432zm-3.378 2.108h.432v1.353h-.432zm1.122 0h.432v1.353h-.432zm1.121 0h.432v1.353h-.432zm-2.243 2.107h.432v1.353h-.432zm1.122 0h.432v1.353h-.432zm1.121 0h.432v1.353h-.432zm-2.243 2.108h.432v1.353h-.432zm1.122 0h.432v1.353h-.432zm1.121 0h.432v1.353h-.432zm-2.243 2.107h.432v1.353h-.432zm1.122 0h.432v1.353h-.432zm1.121 0h.432v1.353h-.432zm-2.243 2.108h.432v1.353h-.432zm1.122 0h.432v1.353h-.432zm1.121 0h.432v1.353h-.432zm-6.796-29.661h.432v1.353h-.432zm1.121 0h.432v1.353h-.432zm1.122 0h.432v1.353h-.432zm1.121 0h.432v1.353h-.432zm-3.364 2.107h.432v1.353h-.432zm1.121 0h.432v1.353h-.432zm1.122 0h.432v1.353h-.432zm1.121 0h.432v1.353h-.432zm-3.364 2.108h.432v1.353h-.432zm1.121 0h.432v1.353h-.432zm1.122 0h.432v1.353h-.432zm1.121 0h.432v1.353h-.432zm-3.364 2.107h.432v1.353h-.432zm1.121 0h.432v1.353h-.432zm1.122 0h.432v1.353h-.432zm1.121 0h.432v1.353h-.432zm-3.364 2.108h.432v1.353h-.432zm1.121 0h.432v1.353h-.432zm1.122 0h.432v1.353h-.432zm1.121 0h.432v1.353h-.432zm-3.364 2.107h.432v1.353h-.432zm1.121 0h.432v1.353h-.432zm1.122 0h.432v1.353h-.432zm1.121 0h.432v1.353h-.432zm-3.364 2.108h.432v1.353h-.432zm1.121 0h.432v1.353h-.432zm1.122 0h.432v1.353h-.432zm1.121 0h.432v1.353h-.432zm1.189-12.645h.432v1.353h-.432zm1.122 0h.432v1.353h-.432zm1.121 0h.432v1.353h-.432zm-2.243 2.107h.432v1.353h-.432zm1.122 0h.432v1.353h-.432zm1.121 0h.432v1.353h-.432zm-2.243 2.108h.432v1.353h-.432zm1.122 0h.432v1.353h-.432zm1.121 0h.432v1.353h-.432zm-2.243 2.107h.432v1.353h-.432zm1.122 0h.432v1.353h-.432zm1.121 0h.432v1.353h-.432zm-2.243 2.108h.432v1.353h-.432zm1.122 0h.432v1.353h-.432zm1.121 0h.432v1.353h-.432zm-2.243 2.107h.432v1.353h-.432zm1.122 0h.432v1.353h-.432zm1.121 0h.432v1.353h-.432zm-2.243 2.108h.432v1.353h-.432zm1.122 0h.432v1.353h-.432zm1.121 0h.432v1.353h-.432zm-2.243 19.123h.432v1.353h-.432zm1.122 0h.432v1.353h-.432zm1.121 0h.432v1.353h-.432zm-2.243 2.107h.432v1.353h-.432zm1.122 0h.432v1.353h-.432zm1.121 0h.432v1.353h-.432zm-2.243 2.108h.432v1.353h-.432zm1.122 0h.432v1.353h-.432zm1.121 0h.432v1.353h-.432zm-2.243 1.967h.432v1.353h-.432zm1.122 0h.432v1.353h-.432zm1.121 0h.432v1.353h-.432zm-2.243 2.107h.432v1.353h-.432zm1.122 0h.432v1.353h-.432zm1.121 0h.432v1.353h-.432zm-2.243 2.108h.432v1.353h-.432zm1.122 0h.432v1.353h-.432zm1.121 0h.432v1.353h-.432zm-2.243 2.107h.432v1.353h-.432zm1.122 0h.432v1.353h-.432zm1.121 0h.432v1.353h-.432zm-2.243 2.108h.432v1.353h-.432zm1.122 0h.432v1.353h-.432zm1.121 0h.432v1.353h-.432zm-2.243 2.107h.432v1.353h-.432zm1.122 0h.432v1.353h-.432zm1.121 0h.432v1.353h-.432zm-2.243 2.108h.432v1.353h-.432zm1.122 0h.432v1.353h-.432zm1.121 0h.432v1.353h-.432zm-2.243 2.107h.432v1.353h-.432zm1.122 0h.432v1.353h-.432zm1.121 0h.432v1.353h-.432zm-2.243 2.107h.432v1.353h-.432zm1.122 0h.432v1.353h-.432zm1.121 0h.432v1.353h-.432zm-2.243 2.108h.432v2.359h-.432zm1.122 0h.432v2.359h-.432zm1.121 0h.432v2.359h-.432zm1.14-35.686h.432v1.353h-.432zm0 2.107h.432v1.353h-.432zm0 2.108h.432v1.353h-.432zm0 2.107h.432v1.353h-.432zm0 2.108h.432v1.353h-.432zm0 2.107h.432v1.353h-.432zm0 2.107h.432v1.353h-.432zm0 2.108h.432v1.353h-.432zm0 1.967h.432v1.353h-.432zm0 2.107h.432v1.353h-.432zm0 2.108h.432v1.353h-.432zm0 2.107h.432v1.353h-.432zm0 2.108h.432v1.353h-.432zm0 2.107h.432v1.353h-.432zm0 2.108h.432v1.353h-.432zm0 2.107h.432v1.353h-.432zm0 2.107h.432v1.353h-.432zm0 2.108h.432v2.359h-.432zM95.993 57.65h.432v1.353h-.432zm1.121 0h.432v1.353h-.432zm-1.121 2.108h.432v1.353h-.432zm1.121 0h.432v1.353h-.432zm-1.121 2.107h.432v1.353h-.432zm1.121 0h.432v1.353h-.432zm-1.121 2.107h.432v1.353h-.432zm1.121 0h.432v1.353h-.432zm-1.121 2.108h.432v1.353h-.432zm1.121 0h.432v1.353h-.432zm-1.121 2.107h.432v1.353h-.432zm1.121 0h.432v1.353h-.432zm-1.121 2.108h.432v1.353h-.432zm1.121 0h.432v1.353h-.432zm-1.121 2.107h.432v1.353h-.432zm1.121 0h.432v1.353h-.432zm-1.121 1.967h.432v1.353h-.432zm1.121 0h.432v1.353h-.432zm-1.121 2.107h.432v1.353h-.432zm1.121 0h.432v1.353h-.432zm-1.121 2.108h.432v1.353h-.432zm1.121 0h.432v1.353h-.432zm-1.121 2.107h.432v1.353h-.432zm1.121 0h.432v1.353h-.432zm-1.121 2.108h.432v1.353h-.432zm1.121 0h.432v1.353h-.432zm-1.121 2.107h.432v1.353h-.432zm-3.434-17.315h.432v1.353h-.432zm0 2.107h.432v1.353h-.432zm0 2.108h.432v1.353h-.432zm0 1.967h.432v1.353h-.432zm0 2.107h.432v1.353h-.432zm0 2.107h.432v1.353h-.432zm0 2.108h.432v1.353h-.432zm0 2.107h.432v1.353h-.432zm0 2.108h.432v1.353h-.432zM76.946 67.591h.432v1.353h-.432zm0 2.107h.432v1.353h-.432zm0 2.108h.432v1.353h-.432zm0 1.967h.432v1.353h-.432zm0 2.107h.432v1.353h-.432zm0 2.107h.432v1.353h-.432zm0 2.108h.432v1.353h-.432zm0 2.107h.432v1.353h-.432zm0 2.108h.432v1.353h-.432zm0 5.287h.432v1.353h-.432zm15.506 0h.432v1.353h-.432zM55.583 67.591h.432v1.353h-.432zm0 2.107h.432v1.353h-.432zm0 2.108h.432v1.353h-.432zm0 1.967h.432v1.353h-.432zm0 2.107h.432v1.353h-.432zm0 2.107h.432v1.353h-.432zm0 2.108h.432v1.353h-.432zm0 2.107h.432v1.353h-.432zm0 2.108h.432v1.353h-.432zm1.41-16.719h.432v1.353h-.432zm0 2.107h.432v1.353h-.432zm0 2.108h.432v1.353h-.432zm-1.41-10.577h.432v1.353h-.432zm0 2.108h.432v1.353h-.432zm0 2.107h.432v1.353h-.432zm1.41-4.215h.432v1.353h-.432zm0 2.108h.432v1.353h-.432zm0 2.107h.432v1.353h-.432zm0 8.329h.432v1.353h-.432zm0 2.107h.432v1.353h-.432zm0 2.107h.432v1.353h-.432zm0 2.108h.432v1.353h-.432zm0 2.107h.432v1.353h-.432zm0 2.108h.432v1.353h-.432zm-1.41 5.017h.432v1.353h-.432zm-2.818 0h.432v1.353h-.432zm4.228 0h.432v1.353h-.432zm2.766 0h.432v1.353h-.432zM40.08 67.591h.432v1.353h-.432zm0 2.107h.432v1.353h-.432zm0 2.108h.432v1.353h-.432zm0 1.967h.432v1.353h-.432zm0 2.107h.432v1.353h-.432zm0 2.107h.432v1.353h-.432zm0 2.108h.432v1.353h-.432zm0 2.107h.432v1.353h-.432zm0 2.108h.432v1.353h-.432zm-1.303-16.719h.432v1.353h-.432zm0 2.107h.432v1.353h-.432zm0 2.108h.432v1.353h-.432zm0 1.967h.432v1.353h-.432zm0 2.107h.432v1.353h-.432zm0 2.107h.432v1.353h-.432zm0 2.108h.432v1.353h-.432zm0 2.107h.432v1.353h-.432zm0 2.108h.432v1.353h-.432zm-1.301-16.719h.432v1.353h-.432zm0 2.107h.432v1.353h-.432zm0 2.108h.432v1.353h-.432zm0 1.967h.432v1.353h-.432zm0 2.107h.432v1.353h-.432zm0 2.107h.432v1.353h-.432zm0 2.108h.432v1.353h-.432zm0 2.107h.432v1.353h-.432zm0 2.108h.432v1.353h-.432zm2.604 4.718h.432v1.353h-.432zm-1.303 0h.432v1.353h-.432zm-1.301 0h.432v1.353h-.432zm59.638-4.122h.432v1.353h-.432zm-1.121 2.108h.432v1.353h-.432zm1.121 0h.432v1.353h-.432zm-1.121 2.107h.432v1.353h-.432zm1.121 0h.432v1.353h-.432zm-1.121 2.108h.432v1.353h-.432zm1.121 0h.432v1.353h-.432zm1.18-33.579h.432v1.353h-.432zm0 2.108h.432v1.353h-.432zm0 2.107h.432v1.353h-.432zm0 2.107h.432v1.353h-.432zm0 2.108h.432v1.353h-.432zm0 2.107h.432v1.353h-.432zm0 2.108h.432v1.353h-.432zm0 2.107h.432v1.353h-.432zm0 1.967h.432v1.353h-.432zm0 2.107h.432v1.353h-.432zm0 2.108h.432v1.353h-.432zm0 2.107h.432v1.353h-.432zm0 2.108h.432v1.353h-.432zm0 2.107h.432v1.353h-.432zm0 2.108h.432v1.353h-.432zm0 2.107h.432v1.353h-.432zm0 2.108h.432v1.353h-.432zm35.968-37.211h.432v1.353h-.432zm0 2.107h.432v1.353h-.432zm0 2.108h.432v1.353h-.432zm0 2.107h.432v1.353h-.432zm0 2.108h.432v1.353h-.432zm0 2.107h.432v1.353h-.432zm0 2.107h.432v1.353h-.432zm0 2.108h.432v1.353h-.432zm0 1.967h.432v1.353h-.432zm0 2.107h.432v1.353h-.432zm0 2.108h.432v1.353h-.432zm0 2.107h.432v1.353h-.432zm0 2.108h.432v1.353h-.432zm0 2.107h.432v1.353h-.432zm0 2.108h.432v1.353h-.432zm0 2.107h.432v1.353h-.432zm0 2.107h.432v1.353h-.432zm0 2.108h.432v2.359h-.432zm-8.226-29.777h.491v1.353h-.491zm0 2.107h.491v1.353h-.491zm0 2.108h.491v1.353h-.491zm1.272 0h.491v1.353h-.491zm-1.272 2.107h.491v1.353h-.491zm1.272 0h.491v1.353h-.491zm-1.272 2.107h.491v1.353h-.491zm1.272 0h.491v1.353h-.491zm-1.272 2.108h.491v1.353h-.491zm1.272 0h.491v1.353h-.491zm-1.272 2.107h.491v1.353h-.491zm1.272 0h.491v1.353h-.491zm-1.272 2.108h.491v1.353h-.491zm1.272 0h.491v1.353h-.491zm-1.272 2.107h.491v1.353h-.491zm1.272 0h.491v1.353h-.491zm-1.272 1.968h.491v1.353h-.491zm1.272 0h.491v1.353h-.491zm-1.272 2.107h.491v1.353h-.491zm1.272 0h.491v1.353h-.491zm-1.272 2.107h.491v1.353h-.491zm1.272 0h.491v1.353h-.491zm-1.272 2.108h.491v1.353h-.491zm1.272 0h.491v1.353h-.491zm-1.272 2.107h.491v1.353h-.491zm1.272 0h.491v1.353h-.491zm-1.272 2.108h.491v1.353h-.491zm1.272 0h.491v1.353h-.491zm-1.272 2.107h.491v1.353h-.491zm1.272 0h.491v1.353h-.491zm2.848-9.858h.491v1.353h-.491zm0 2.107h.491V85h-.491zm0 2.108h.491v1.353h-.491zm0 2.107h.491v1.353h-.491zm15.506-3.502h.491v1.353h-.491zm0 2.107h.491v1.353h-.491zm0 2.108h.491v1.353h-.491zm0 2.107h.491v1.353h-.491zm1.518-6.322h.491v1.353h-.491zm0 2.107h.491v1.353h-.491zm0 2.108h.491v1.353h-.491zm0 2.107h.491v1.353h-.491zm-17.024.759h.491v1.353h-.491zm-11.684-31.514h.491v1.353h-.491zm0 2.107h.491v1.353h-.491zm-1.281-6.322h.49v1.353h-.49zm0 2.108h.49v1.353h-.49zm0-6.249h.49v1.353h-.49zm0 2.107h.49v1.353h-.49zm0 6.249h.49v1.353h-.49zm0 2.107h.49v1.353h-.49zm10.117-6.322h.491v1.353h-.491zm0 2.108h.491v1.353h-.491zm0-6.249h.491v1.353h-.491zm0 2.107h.491v1.353h-.491zm0 6.249h.491v1.353h-.491zm0 2.107h.491v1.353h-.491zm-10.109 2.108h.491v1.353h-.491zm1.273 0h.491v1.353h-.491zm-1.273 2.107h.491v1.353h-.491zm1.273 0h.491v1.353h-.491zm-1.273 2.107h.491v1.353h-.491zm1.273 0h.491v1.353h-.491zm-1.273 2.108h.491v1.353h-.491zm1.273 0h.491v1.353h-.491zm-1.273 2.107h.491v1.353h-.491zm1.273 0h.491v1.353h-.491zm-1.273 2.108h.491v1.353h-.491zm1.273 0h.491v1.353h-.491zm-1.273 2.107h.491v1.353h-.491zm1.273 0h.491v1.353h-.491zm-1.273 1.968h.491v1.353h-.491zm1.273 0h.491v1.353h-.491zm-1.273 2.107h.491v1.353h-.491zm1.273 0h.491v1.353h-.491zm-1.273 2.107h.491v1.353h-.491zm1.273 0h.491v1.353h-.491zM65.347 62.237h.491v.702h-.491zm1.273 0h.491v.702h-.491zm1.273 0h.491v.702h-.491zm1.273 0h.491v.702h-.491zm1.273 0h.49v.702h-.49zm-5.092 2.108h.491v.702h-.491zm1.273 0h.491v.702h-.491zm1.273 0h.491v.702h-.491zm1.273 0h.491v.702h-.491zm1.273 0h.49v.702h-.49zm-5.092 2.107h.491v.702h-.491zm1.273 0h.491v.702h-.491zm1.273 0h.491v.702h-.491zm1.273 0h.491v.702h-.491zm-.651-11.311h.491v.421h-.491zm0 1.914h.491v.421h-.491zm0 1.913h.491v.421h-.491zm-1.385-3.827h.491v.421h-.491zm0 1.914h.491v.421h-.491zm0 1.913h.491v.421h-.491zm4.191-3.827h.491v.421h-.491zm0 1.914h.491v.421h-.491zm0 1.913h.491v.421h-.491zm-1.385-3.827h.491v.421h-.491zm0 1.914h.491v.421h-.491zm0 1.913h.491v.421h-.491zm-4.107-3.827h.491v.421h-.491zm0 1.914h.491v.421h-.491zm0 1.913h.491v.421h-.491zm-1.382-3.827h.491v.421h-.491zm0 1.914h.491v.421h-.491zm0 1.913h.491v.421h-.491zm4.068-9.693h.491v.421h-.491zm0 1.913h.491v.421h-.491zm0 1.914h.491v.421h-.491zm-1.385-3.827h.491v.421h-.491zm0 1.913h.491v.421h-.491zm0 1.914h.491v.421h-.491zm4.191-3.827h.491v.421h-.491zm0 1.913h.491v.421h-.491zm0 1.914h.491v.421h-.491zm-1.385-3.827h.491v.421h-.491zm0 1.913h.491v.421h-.491zm0 1.914h.491v.421h-.491zm-4.107-3.827h.491v.421h-.491zm0 1.913h.491v.421h-.491zm0 1.914h.491v.421h-.491zm-1.382-3.827h.491v.421h-.491zm0 1.913h.491v.421h-.491zm0 1.914h.491v.421h-.491zm5.992 13.35h.49v.702h-.49zm-5.092 2.107h.491v.703h-.491zm1.273 0h.491v.703h-.491zm1.273 0h.491v.703h-.491zm1.273 0h.491v.703h-.491zm1.273 0h.49v.703h-.49zm-5.092 2.108h.491v.702h-.491zm1.273 0h.491v.702h-.491zm1.273 0h.491v.702h-.491zm1.273 0h.491v.702h-.491zm1.273 0h.49v.702h-.49zm-5.092 2.107h.491v.703h-.491zm1.273 0h.491v.703h-.491zm1.273 0h.491v.703h-.491zm1.273 0h.491v.703h-.491zm1.273 0h.49v.703h-.49zm-5.092 1.968h.491v.702h-.491zm1.273 0h.491v.702h-.491zm1.273 0h.491v.702h-.491zm1.273 0h.491v.702h-.491zm1.273 0h.49v.702h-.49zm-5.092 2.107h.491v.702h-.491zm1.273 0h.491v.702h-.491zm1.273 0h.491v.702h-.491zm1.273 0h.491v.702h-.491zm1.273 0h.49v.702h-.49zm-5.092 2.108h.491v.702h-.491zm1.273 0h.491v.702h-.491zm1.273 0h.491v.702h-.491zm1.273 0h.491v.702h-.491zm1.273 0h.49v.702h-.49zm1.166-16.72h.491v.702h-.491zm1.273 0h.491v.702h-.491zm-1.273 2.108h.491v.702h-.491zm1.273 0h.491v.702h-.491zm-1.273 2.107h.491v.702h-.491zm1.273 0h.491v.702h-.491zm-1.273 2.107h.491v.703h-.491zm1.273 0h.491v.703h-.491zm-1.273 2.108h.491v.702h-.491zm1.273 0h.491v.702h-.491zm-1.273 2.107h.491v.703h-.491zm1.273 0h.491v.703h-.491zm-1.273 1.968h.491v.702h-.491zm1.273 0h.491v.702h-.491zm-1.273 2.107h.491v.702h-.491zm1.273 0h.491v.702h-.491zm-1.273 2.108h.491v.702h-.491zm1.273 0h.491v.702h-.491zm-10.11-16.72h.491v.702h-.491zm1.273 0h.491v.702h-.491zm-1.273 2.108h.491v.702h-.491zm1.273 0h.491v.702h-.491zm-1.273 2.107h.491v.702h-.491zm1.273 0h.491v.702h-.491zm-1.273 2.107h.491v.703h-.491zm1.273 0h.491v.703h-.491zm-1.273 2.108h.491v.702h-.491zm1.273 0h.491v.702h-.491zm-1.273 2.107h.491v.703h-.491zm1.273 0h.491v.703h-.491zm-1.273 1.968h.491v.702h-.491zm1.273 0h.491v.702h-.491zm-1.273 2.107h.491v.702h-.491zm1.273 0h.491v.702h-.491zm-1.273 2.108h.491v.702h-.491zm1.273 0h.491v.702h-.491zm1.306 2.121h.491v.702h-.491zm1.273 0h.491v.702h-.491zm1.273 0h.491v.702h-.491zm1.273 0h.491v.702h-.491zm1.273 0h.49v.702h-.49zm-5.092 2.107h.491v.702h-.491zm1.273 0h.491v.702h-.491zm1.273 0h.491v.702h-.491zm1.273 0h.491v.702h-.491zm1.273 0h.49v.702h-.49zm1.166-2.107h.491v.702h-.491zm1.273 0h.491v.702h-.491zm-1.273 2.107h.491v.702h-.491zm1.273 0h.491v.702h-.491zm-10.11-2.107h.491v.702h-.491zm1.273 0h.491v.702h-.491zm-1.273 2.107h.491v.702h-.491zm1.273 0h.491v.702h-.491zm1.306 2.122h.491v.702h-.491zm1.273 0h.491v.702h-.491zm1.273 0h.491v.702h-.491zm1.273 0h.491v.702h-.491zm1.273 0h.49v.702h-.49zm-5.092 2.107h.491v.702h-.491zm1.273 0h.491v.702h-.491zm1.273 0h.491v.702h-.491zm1.273 0h.491v.702h-.491zm1.273 0h.49v.702h-.49zm1.166-2.107h.491v.702h-.491zm1.273 0h.491v.702h-.491zm-1.273 2.107h.491v.702h-.491zm1.273 0h.491v.702h-.491zm-10.11-2.107h.491v.702h-.491zm1.273 0h.491v.702h-.491zm-1.273 2.107h.491v.702h-.491zm1.273 0h.491v.702h-.491zm1.306 1.858h.491v2.14h-.491zm1.273 0h.491v2.14h-.491zm1.273 0h.491v2.14h-.491zm1.273 0h.491v2.14h-.491zm1.273 0h.49v2.14h-.49zm1.166 0h.491v2.14h-.491zm1.273 0h.491v2.14h-.491zm-10.11 0h.491v2.14h-.491zm1.273 0h.491v2.14h-.491zM31.78 63.451h.491v.702h-.491zm0 2.108h.491v.702h-.491zm0 2.107h.491v.702h-.491zm0 2.108h.491v.702h-.491zm0 2.107h.491v.702h-.491zm0 2.108h.491v.702h-.491zm0 1.967h.491v.702h-.491zm0 2.107h.491v.702h-.491zm0 2.108h.491v.702h-.491zm-2.578-16.72h.491v.702h-.491zm1.273 0h.491v.702h-.491zm-1.273 2.108h.491v.702h-.491zm1.273 0h.491v.702h-.491zm-1.273 2.107h.491v.702h-.491zm1.273 0h.491v.702h-.491zm-1.273 2.108h.491v.702h-.491zm1.273 0h.491v.702h-.491zm-1.273 2.107h.491v.702h-.491zm1.273 0h.491v.702h-.491zm-1.273 2.108h.491v.702h-.491zm1.273 0h.491v.702h-.491zm-1.273 1.967h.491v.702h-.491zm1.273 0h.491v.702h-.491zm-1.273 2.107h.491v.702h-.491zm1.273 0h.491v.702h-.491zm-1.273 2.108h.491v.702h-.491zm1.273 0h.491v.702h-.491zm1.305 2.121h.491v.702h-.491zm0 2.108h.491v.702h-.491zm-2.578-2.108h.491v.702h-.491zm1.273 0h.491v.702h-.491zM29.202 84.4h.491v.702h-.491zm1.273 0h.491v.702h-.491zm1.305 2.121h.491v.702h-.491zm0 2.108h.491v.702h-.491zm-2.578-2.108h.491v.702h-.491zm1.273 0h.491v.702h-.491zm-1.273 2.108h.491v.702h-.491zm1.273 0h.491v.702h-.491zm1.305 2.107h.491v.702h-.491zm-2.578 0h.491v.702h-.491zm1.273 0h.491v.702h-.491zm86.724-5.66h.491v1.353h-.491zm1.273 0h.491v1.353h-.491zm-1.273 2.107h.491v1.353h-.491zm1.273 0h.491v1.353h-.491zm-1.273 2.108h.491v1.353h-.491zm1.273 0h.491v1.353h-.491zm-1.273 2.107h.491v1.353h-.491zm1.273 0h.491v1.353h-.491zm-10.055-17.525h.472v1.092h-.472zm1.224 0h.472v1.092h-.472zm-1.224 2.107h.472v1.092h-.472zm1.224 0h.472v1.092h-.472zm-1.224 2.107h.472v1.092h-.472zm1.224 0h.472v1.092h-.472zm-1.224 1.968h.472v1.092h-.472zm1.224 0h.472v1.092h-.472zm-1.224 2.107h.472v1.092h-.472zm1.224 0h.472v1.092h-.472zm-1.224 2.108h.472v1.092h-.472zm1.224 0h.472v1.092h-.472zm-1.224 2.107h.472v1.092h-.472zm1.224 0h.472v1.092h-.472zm-1.224 2.107h.472v1.092h-.472zm1.224 0h.472v1.092h-.472zm-1.224 2.108h.472v2.04h-.472zm1.224 0h.472v2.04h-.472zm-3.703-16.719h.472v1.092h-.472zm1.224 0h.471v1.092h-.471zm-1.224 2.107h.472v1.092h-.472zm1.224 0h.471v1.092h-.471zm1.255-26.098h.472v1.092h-.472zm1.224 0h.472v1.092h-.472zm-1.224 2.107h.472v1.092h-.472zm1.224 0h.472v1.092h-.472zm121.413 23.057h.491v1.092h-.491zm1.273 0h.491v1.092h-.491zm-1.273 2.107h.491v1.092h-.491zm1.273 0h.491v1.092h-.491zm-1.273 4.33h.491v1.092h-.491zm1.273 0h.491v1.092h-.491zm-1.273 2.107h.491v1.092h-.491zm1.273 0h.491v1.092h-.491zm-1.273 2.122h.491v1.092h-.491zm1.273 0h.491v1.092h-.491zm-1.273 2.107h.491v1.092h-.491zm1.273 0h.491v1.092h-.491zm-1.273 2.177h.491v1.637h-.491zm1.273 0h.491v1.637h-.491zm29.033-8.513h.491v1.092h-.491zm0 2.107h.491v1.092h-.491zm0 2.122h.491v1.092h-.491zm0 2.107h.491v1.092h-.491zm0 2.177h.491v1.637h-.491zm1.423-8.513h.491v1.092h-.491zm0 2.107h.491v1.092h-.491zm0 2.122h.491v1.092h-.491zm0 2.107h.491v1.092h-.491zm0 2.177h.491v1.637h-.491zm1.423-8.513h.491v1.092h-.491zm0 2.107h.491v1.092h-.491zm0 2.122h.491v1.092h-.491zm0 2.107h.491v1.092h-.491zm0 2.177h.491v1.637h-.491zm1.423-8.513h.491v1.092h-.491zm0 2.107h.491v1.092h-.491zm0 2.122h.491v1.092h-.491zm0 2.107h.491v1.092h-.491zm0 2.177h.491v1.637h-.491zm1.423-8.513h.491v1.092h-.491zm0 2.107h.491v1.092h-.491zm0 2.122h.491v1.092h-.491zm0 2.107h.491v1.092h-.491zm0 2.177h.491v1.637h-.491zm-35.998-20.588h.491V70.5h-.491zm1.273 0h.491V70.5h-.491zm-1.273-5.718h.491v.687h-.491zm1.273 0h.491v.687h-.491zm-1.273-1.537h.491v.687h-.491zm1.273 0h.491v.687h-.491zm-1.273 9.362h.491v1.092h-.491zm1.273 0h.491v1.092h-.491zM105.938 49.882h.472v1.092h-.472zm1.224 0h.471v1.092h-.471zm1.255-1.46h.472v.517h-.472zm1.224 0h.472v.517h-.472zm-96.237 27.78h.49v1.092h-.49zm1.273 0h.49v1.092h-.49zm-1.273 2.107h.49v1.092h-.49zm1.273 0h.49v1.092h-.49zm-1.273 2.107h.49v1.092h-.49zm1.273 0h.49v1.092h-.49zm-1.273 2.108h.49v1.092h-.49zm1.273 0h.49v1.092h-.49zm-1.273 2.107h.49v1.092h-.49zm1.273 0h.49v1.092h-.49zm-1.273 4.872h.49v2.315h-.49zm1.273 0h.49v2.315h-.49zm1.355-13.301h.49v1.092h-.49zm1.273 0h.491v1.092h-.491zm-1.273 2.107h.49v1.092h-.49zm1.273 0h.491v1.092h-.491zm-1.273 2.107h.49v1.092h-.49zm1.273 0h.491v1.092h-.491zm-1.273 2.108h.49v1.092h-.49zm1.273 0h.491v1.092h-.491zm-1.273 2.107h.49v1.092h-.49zm1.273 0h.491v1.092h-.491zm-1.273 4.872h.49v2.315h-.49zm1.273 0h.491v2.315h-.491zm-8.048-6.652h.491v1.092h-.491zm1.273 0h.49v1.092h-.49zm-1.273 2.108h.491v1.092h-.491zm1.273 0h.49v1.092h-.49zm-1.273 1.967h.491v1.092h-.491zm1.273 0h.49v1.092h-.49zm-1.273 2.799h.491v2.094h-.491zm1.273 0h.49v2.094h-.49zm95.408-41.303h.472v.517h-.472zm1.224 0h.471v.517h-.471zm-1.224 3.567h.472v1.092h-.472zm1.224 0h.471v1.092h-.471zm-1.224 26.098h.472v1.092h-.472zm1.224 0h.471v1.092h-.471zm-1.224 1.968h.472v1.092h-.472zm1.224 0h.471v1.092h-.471zm-1.224 2.107h.472v1.092h-.472zm1.224 0h.471v1.092h-.471zm-1.224 2.108h.472v1.092h-.472zm1.224 0h.471v1.092h-.471zm-1.224 2.107h.472v1.092h-.472zm1.224 0h.471v1.092h-.471zm-1.224 2.107h.472v1.092h-.472zm1.224 0h.471v1.092h-.471zm1.255-31.242h.472v1.092h-.472zm1.224 0h.472v1.092h-.472zm-1.224 2.107h.472v1.092h-.472zm1.224 0h.472v1.092h-.472zm-1.224 2.108h.472v1.092h-.472zm1.224 0h.472v1.092h-.472zm-1.224 1.967h.472v1.092h-.472zm1.224 0h.472v1.092h-.472zm-1.224 2.108h.472v1.092h-.472zm1.224 0h.472v1.092h-.472zm-1.224 2.107h.472v1.092h-.472zm1.224 0h.472v1.092h-.472zm-1.224 2.107h.472v1.092h-.472zm1.224 0h.472v1.092h-.472zm-1.224 2.108h.472v1.092h-.472zm1.224 0h.472v1.092h-.472zm-3.703-14.612h.472v1.092h-.472zm1.224 0h.471v1.092h-.471zm1.255-1.952h.472v1.092h-.472zm1.224 0h.472v1.092h-.472zm-3.703 0h.472v1.092h-.472zm1.224 0h.471v1.092h-.471zm-1.224 4.059h.472v1.092h-.472zm1.224 0h.471v1.092h-.471zm-1.224 2.108h.472v1.092h-.472zm1.224 0h.471v1.092h-.471zm-1.224 1.967h.472v1.092h-.472zm1.224 0h.471v1.092h-.471zm-1.224 2.108h.472v1.092h-.472zm1.224 0h.471v1.092h-.471zm-1.224 2.107h.472v1.092h-.472zm1.224 0h.471v1.092h-.471zm-1.224 2.107h.472v1.092h-.472zm1.224 0h.471v1.092h-.471zm-1.224 2.108h.472v1.092h-.472zm1.224 0h.471v1.092h-.471zm-1.224 18.738h.472v2.04h-.472zm-1.184-16.719h.471v1.092h-.471zm0 2.107h.471v1.092h-.471zm0-26.098h.471v1.092h-.471zm0-1.46h.471v.517h-.471zm0 3.567h.471v1.092h-.471zm0 26.098h.471v1.092h-.471zm0 1.968h.471v1.092h-.471zm0 2.107h.471v1.092h-.471zm0 2.108h.471v1.092h-.471zm0 2.107h.471v1.092h-.471zm0 2.107h.471v1.092h-.471zm0-31.242h.471v1.092h-.471zm0-1.952h.471v1.092h-.471zm0 4.059h.471v1.092h-.471zm0 2.108h.471v1.092h-.471zm0 1.967h.471v1.092h-.471zm0 2.108h.471v1.092h-.471zm0 2.107h.471v1.092h-.471zm0 2.107h.471v1.092h-.471zm0 2.108h.471v1.092h-.471zm0 18.738h.471v2.04h-.471zm-2.274-16.719h.343v1.092h-.343zm0 2.107h.343v1.092h-.343zm0 2.107h.343v1.092h-.343zm0 1.968h.343v1.092h-.343zm0 2.107h.343v1.092h-.343zm0 2.108h.343v1.092h-.343zm0 2.107h.343v1.092h-.343zm0 2.107h.343v1.092h-.343zm0-31.242h.343v1.092h-.343zm0-1.952h.343v1.092h-.343zm0 4.059h.343v1.092h-.343zm0 2.108h.343v1.092h-.343zm0 1.967h.343v1.092h-.343zm0 2.108h.343v1.092h-.343zm0 2.107h.343v1.092h-.343zm0 2.107h.343v1.092h-.343zm0 2.108h.343v1.092h-.343zm0 18.738h.343v2.04h-.343zm9.262-16.719h.343v1.092h-.343zm0 2.107h.343v1.092h-.343zm0 2.107h.343v1.092h-.343zm0 1.968h.343v1.092h-.343zm0 2.107h.343v1.092h-.343zm0 2.108h.343v1.092h-.343zm0 2.107h.343v1.092h-.343zm0 2.107h.343v1.092h-.343zm0-31.242h.343v1.092h-.343zm0-1.952h.343v1.092h-.343zm0 4.059h.343v1.092h-.343zm0 2.108h.343v1.092h-.343zm0 1.967h.343v1.092h-.343zm0 2.108h.343v1.092h-.343zm0 2.107h.343v1.092h-.343zm0 2.107h.343v1.092h-.343zm0 2.108h.343v1.092h-.343zm0 18.738h.343v2.04h-.343zm-4.58 0h.471v2.04h-.471zm65.511-27.708h.202v1.61h-.202zm1.034 0h.202v1.61h-.202zm1.035 0h.202v1.61h-.202zm1.033 0h.202v1.61h-.202zm1.034 0h.202v1.61h-.202zm1.035 0h.202v1.61h-.202zm1.033 0h.202v1.61h-.202zm1.034 0h.202v1.61h-.202zm1.035 0h.202v1.61h-.202zm1.034 0h.202v1.61h-.202zm1.033 0h.202v1.61h-.202zm1.035 0h.202v1.61h-.202zm1.034 0h.202v1.61h-.202zm1.033 0h.202v1.61h-.202zm-13.442-5.042h.202v1.61h-.202zm1.034 0h.202v1.61h-.202zm1.035 0h.202v1.61h-.202zm1.033 0h.202v1.61h-.202zm1.034 0h.202v1.61h-.202zm1.035 0h.202v1.61h-.202zm1.033 0h.202v1.61h-.202zm1.034 0h.202v1.61h-.202zm1.035 0h.202v1.61h-.202zm1.034 0h.202v1.61h-.202zm1.033 0h.202v1.61h-.202zm1.035 0h.202v1.61h-.202zm1.034 0h.202v1.61h-.202zm1.033 0h.202v1.61h-.202zm-13.442 7.685h.202v1.61h-.202zm1.034 0h.202v1.61h-.202zm1.035 0h.202v1.61h-.202zm1.033 0h.202v1.61h-.202zm1.034 0h.202v1.61h-.202zm1.035 0h.202v1.61h-.202zm1.033 0h.202v1.61h-.202zm1.034 0h.202v1.61h-.202zm1.035 0h.202v1.61h-.202zm1.034 0h.202v1.61h-.202zm1.033 0h.202v1.61h-.202zm1.035 0h.202v1.61h-.202zm1.034 0h.202v1.61h-.202zm1.033 0h.202v1.61h-.202zm-13.442 2.643h.202v1.61h-.202zm1.034 0h.202v1.61h-.202zm1.035 0h.202v1.61h-.202zm1.033 0h.202v1.61h-.202zm1.034 0h.202v1.61h-.202zm1.035 0h.202v1.61h-.202zm1.033 0h.202v1.61h-.202zm1.034 0h.202v1.61h-.202zm1.035 0h.202v1.61h-.202zm1.034 0h.202v1.61h-.202zm1.033 0h.202v1.61h-.202zm1.035 0h.202v1.61h-.202zm1.034 0h.202v1.61h-.202zm1.033 0h.202v1.61h-.202zm-13.442 2.643h.202v1.61h-.202zm1.034 0h.202v1.61h-.202zm1.035 0h.202v1.61h-.202zm1.033 0h.202v1.61h-.202zm1.034 0h.202v1.61h-.202zm1.035 0h.202v1.61h-.202zm1.033 0h.202v1.61h-.202zm1.034 0h.202v1.61h-.202zm1.035 0h.202v1.61h-.202zm1.034 0h.202v1.61h-.202zm1.033 0h.202v1.61h-.202zm1.035 0h.202v1.61h-.202zm1.034 0h.202v1.61h-.202zm1.033 0h.202v1.61h-.202zm-13.442-23.795h.202v1.61h-.202zm1.034 0h.202v1.61h-.202zm1.035 0h.202v1.61h-.202zm1.033 0h.202v1.61h-.202zm1.034 0h.202v1.61h-.202zm1.035 0h.202v1.61h-.202zm1.033 0h.202v1.61h-.202zm1.034 0h.202v1.61h-.202zm1.035 0h.202v1.61h-.202zm1.034 0h.202v1.61h-.202zm1.033 0h.202v1.61h-.202zm1.035 0h.202v1.61h-.202zm1.034 0h.202v1.61h-.202zm1.033 0h.202v1.61h-.202zm-13.442 2.643h.202v1.61h-.202zm1.034 0h.202v1.61h-.202zm1.035 0h.202v1.61h-.202zm1.033 0h.202v1.61h-.202zm1.034 0h.202v1.61h-.202zm1.035 0h.202v1.61h-.202zm1.033 0h.202v1.61h-.202zm1.034 0h.202v1.61h-.202zm1.035 0h.202v1.61h-.202zm1.034 0h.202v1.61h-.202zm1.033 0h.202v1.61h-.202zm1.035 0h.202v1.61h-.202zm1.034 0h.202v1.61h-.202zm1.033 0h.202v1.61h-.202zm-13.442 2.643h.202v1.61h-.202zm1.034 0h.202v1.61h-.202zm1.035 0h.202v1.61h-.202zm1.033 0h.202v1.61h-.202zm1.034 0h.202v1.61h-.202zm1.035 0h.202v1.61h-.202zm1.033 0h.202v1.61h-.202zm1.034 0h.202v1.61h-.202zm1.035 0h.202v1.61h-.202zm1.034 0h.202v1.61h-.202zm1.033 0h.202v1.61h-.202zm1.035 0h.202v1.61h-.202zm1.034 0h.202v1.61h-.202zm1.033 0h.202v1.61h-.202zm-13.442 2.643h.202v1.61h-.202zm1.034 0h.202v1.61h-.202zm1.035 0h.202v1.61h-.202zm1.033 0h.202v1.61h-.202zm1.034 0h.202v1.61h-.202zm1.035 0h.202v1.61h-.202zm1.033 0h.202v1.61h-.202zm1.034 0h.202v1.61h-.202zm1.035 0h.202v1.61h-.202zm1.034 0h.202v1.61h-.202zm1.033 0h.202v1.61h-.202zm1.035 0h.202v1.61h-.202zm1.034 0h.202v1.61h-.202zm1.033 0h.202v1.61h-.202zm-13.442 18.509h.202v1.61h-.202zm1.034 0h.202v1.61h-.202zm1.035 0h.202v1.61h-.202zm1.033 0h.202v1.61h-.202zm1.034 0h.202v1.61h-.202zm1.035 0h.202v1.61h-.202zm1.033 0h.202v1.61h-.202zm1.034 0h.202v1.61h-.202zm1.035 0h.202v1.61h-.202zm1.034 0h.202v1.61h-.202zm1.033 0h.202v1.61h-.202zm1.035 0h.202v1.61h-.202zm1.034 0h.202v1.61h-.202zm1.033 0h.202v1.61h-.202zm-13.442 2.643h.202v1.61h-.202zm1.034 0h.202v1.61h-.202zm1.035 0h.202v1.61h-.202zm1.033 0h.202v1.61h-.202zm1.034 0h.202v1.61h-.202zm1.035 0h.202v1.61h-.202zm1.033 0h.202v1.61h-.202zm1.034 0h.202v1.61h-.202zm1.035 0h.202v1.61h-.202zm1.034 0h.202v1.61h-.202zm1.033 0h.202v1.61h-.202zm1.035 0h.202v1.61h-.202zm1.034 0h.202v1.61h-.202zm1.033 0h.202v1.61h-.202zm-13.442 5.055h.202v1.61h-.202zm1.034 0h.202v1.61h-.202zm1.035 0h.202v1.61h-.202zm1.033 0h.202v1.61h-.202zm1.034 0h.202v1.61h-.202zm1.035 0h.202v1.61h-.202zm1.033 0h.202v1.61h-.202zm1.034 0h.202v1.61h-.202zm1.035 0h.202v1.61h-.202zm1.034 0h.202v1.61h-.202zm1.033 0h.202v1.61h-.202zm1.035 0h.202v1.61h-.202zm1.034 0h.202v1.61h-.202zm1.033 0h.202v1.61h-.202zm-13.442 2.643h.202v1.61h-.202zm1.034 0h.202v1.61h-.202zm1.035 0h.202v1.61h-.202zm1.033 0h.202v1.61h-.202zm1.034 0h.202v1.61h-.202zm1.035 0h.202v1.61h-.202zm1.033 0h.202v1.61h-.202zm1.034 0h.202v1.61h-.202zm1.035 0h.202v1.61h-.202zm1.034 0h.202v1.61h-.202zm1.033 0h.202v1.61h-.202zm1.035 0h.202v1.61h-.202zm1.034 0h.202v1.61h-.202zm1.033 0h.202v1.61h-.202zm-13.442 2.852h.202v1.61h-.202zm1.034 0h.202v1.61h-.202zm1.035 0h.202v1.61h-.202zm1.033 0h.202v1.61h-.202zm1.034 0h.202v1.61h-.202zm1.035 0h.202v1.61h-.202zm1.033 0h.202v1.61h-.202zm1.034 0h.202v1.61h-.202zm1.035 0h.202v1.61h-.202zm1.034 0h.202v1.61h-.202zm1.033 0h.202v1.61h-.202zm1.035 0h.202v1.61h-.202zm1.034 0h.202v1.61h-.202zm1.033 0h.202v1.61h-.202zm-13.442 3.036h.202v2.119h-.202zm1.034 0h.202v2.119h-.202zm1.035 0h.202v2.119h-.202zm1.033 0h.202v2.119h-.202zm1.034 0h.202v2.119h-.202zm1.035 0h.202v2.119h-.202zm1.033 0h.202v2.119h-.202zm1.034 0h.202v2.119h-.202zm1.035 0h.202v2.119h-.202zm1.034 0h.202v2.119h-.202zm1.033 0h.202v2.119h-.202zm1.035 0h.202v2.119h-.202zm1.034 0h.202v2.119h-.202zm1.033 0h.202v2.119h-.202zm52.068-13.039h.202v1.61h-.202zm1.034 0h.202v1.61h-.202zm1.034 0h.202v1.61h-.202zm-2.068 2.643h.202v1.61h-.202zm1.034 0h.202v1.61h-.202zm1.034 0h.202v1.61h-.202zm-2.068 2.643h.202v1.61h-.202zm1.034 0h.202v1.61h-.202zm1.034 0h.202v1.61h-.202zm-2.068 2.643h.202v1.61h-.202zm1.034 0h.202v1.61h-.202zm1.034 0h.202v1.61h-.202zm-2.068 2.643h.202v1.61h-.202zm1.034 0h.202v1.61h-.202zm1.034 0h.202v1.61h-.202zm-2.068 2.643h.202v1.61h-.202zm1.034 0h.202v1.61h-.202zm1.034 0h.202v1.61h-.202zm-2.068-21.144h.202v1.61h-.202zm1.034 0h.202v1.61h-.202zm1.034 0h.202v1.61h-.202zm-2.068-2.566h.202v1.61h-.202zm1.034 0h.202v1.61h-.202zm1.034 0h.202v1.61h-.202zm-2.068 5.209h.202v1.61h-.202zm1.034 0h.202v1.61h-.202zm1.034 0h.202v1.61h-.202zm-2.068 2.643h.202v1.61h-.202zm1.034 0h.202v1.61h-.202zm1.034 0h.202v1.61h-.202zm-27.926-.081h.202v1.61h-.202zm1.034 0h.202v1.61h-.202zm1.034 0h.202v1.61h-.202zm-2.068 2.643h.202v1.61h-.202zm1.034 0h.202v1.61h-.202zm1.034 0h.202v1.61h-.202zm-2.068 2.643h.202v1.61h-.202zm1.034 0h.202v1.61h-.202zm1.034 0h.202v1.61h-.202zm-2.068 2.643h.202v1.61h-.202zm1.034 0h.202v1.61h-.202zm1.034 0h.202v1.61h-.202zm-2.068 2.643h.202v1.61h-.202zm1.034 0h.202v1.61h-.202zm1.034 0h.202v1.61h-.202zm-2.068 2.643h.202v1.61h-.202zm1.034 0h.202v1.61h-.202zm1.034 0h.202v1.61h-.202zm2.435-7.929h.202v1.61h-.202zm0 2.643h.202v1.61h-.202zm0 2.643h.202v1.61h-.202zm0 2.643h.202v1.61h-.202zm1.093-7.929h.202v1.61h-.202zm-1.093-6.329h.202v1.61h-.202zm1.093 0h.202v1.61h-.202zm-1.093-2.928h.202v1.61h-.202zm1.093 0h.202v1.61h-.202zm0 11.9h.202v1.61h-.202zm0 2.643h.202v1.61h-.202zm0 2.643h.202v1.61h-.202zm-5.596 2.901h.202v1.61h-.202zm1.034 0h.202v1.61h-.202zm1.034 0h.202v1.61h-.202zm2.435 0h.202v1.61h-.202zm1.093 0h.202v1.61h-.202zm-5.596-26.688h.202v1.61h-.202zm1.034 0h.202v1.61h-.202zm1.034 0h.202v1.61h-.202zm-2.068 2.643h.202v1.61h-.202zm1.034 0h.202v1.61h-.202zm1.034 0h.202v1.61h-.202zm-2.068 2.643h.202v1.61h-.202zm1.034 0h.202v1.61h-.202zm1.034 0h.202v1.61h-.202zm-2.068 2.643h.202v1.61h-.202zm1.034 0h.202v1.61h-.202zm1.034 0h.202v1.61h-.202zm.426-13.106h.202v1.61h-.202zm1.034 0h.202v1.61h-.202zm-1.034-10.572h.202v1.61h-.202zm1.034 0h.202v1.61h-.202zm-1.034 2.643h.202v1.61h-.202zm1.034 0h.202v1.61h-.202zm-1.034 2.643h.202v1.61h-.202zm1.034 0h.202v1.61h-.202zm-1.034 2.643h.202v1.61h-.202zm1.034 0h.202v1.61h-.202zm-57.585 21.116h.202v1.61h-.202zm1.034 0h.202v1.61h-.202zm1.034 0h.202v1.61h-.202zm-2.068 2.643h.202v1.61h-.202zm1.034 0h.202v1.61h-.202zm1.034 0h.202v1.61h-.202zm-2.068 2.643h.202v1.61h-.202zm1.034 0h.202v1.61h-.202zm1.034 0h.202v1.61h-.202zm-2.068 2.643h.202v1.61h-.202zm1.034 0h.202v1.61h-.202zm1.034 0h.202v1.61h-.202zm-2.068 2.643h.202v1.61h-.202zm1.034 0h.202v1.61h-.202zm1.034 0h.202v1.61h-.202zm-2.068 2.643h.202v1.61h-.202zm1.034 0h.202v1.61h-.202zm1.034 0h.202v1.61h-.202zm-46.571-5.09h.202v1.61h-.202zm0 2.643h.202v1.61h-.202zm0 2.643h.202v1.61h-.202zm44.503-23.983h.202v1.61h-.202zm1.034 0h.202v1.61h-.202zm1.034 0h.202v1.61h-.202zm-2.068 2.643h.202v1.61h-.202zm1.034 0h.202v1.61h-.202zm1.034 0h.202v1.61h-.202zm-2.068 2.643h.202v1.61h-.202zm1.034 0h.202v1.61h-.202zm1.034 0h.202v1.61h-.202zm-2.068 2.643h.202v1.61h-.202zm1.034 0h.202v1.61h-.202zm1.034 0h.202v1.61h-.202zm-6.297 2.643h.202v1.61h-.202zm1.034 0h.202v1.61h-.202zm1.034 0h.202v1.61h-.202zm-2.068 2.643h.202v1.61h-.202zm1.034 0h.202v1.61h-.202zm1.034 0h.202v1.61h-.202zm-2.068 2.643h.202v1.61h-.202zm1.034 0h.202v1.61h-.202zm1.034 0h.202v1.61h-.202zm-2.068 2.643h.202v1.61h-.202zm1.034 0h.202v1.61h-.202zm1.034 0h.202v1.61h-.202zm-2.068 2.643h.202v1.61h-.202zm1.034 0h.202v1.61h-.202zm1.034 0h.202v1.61h-.202zm-2.068 2.643h.202v1.61h-.202zm1.034 0h.202v1.61h-.202zm1.034 0h.202v1.61h-.202zm35.124-16.928h.202v1.61h-.202zm1.034 0h.202v1.61h-.202zm1.034 0h.202v1.61h-.202zm-2.068-5.747h.202v1.61h-.202zm1.034 0h.202v1.61h-.202zm1.034 0h.202v1.61h-.202zm-2.068 2.827h.202v1.61h-.202zm1.034 0h.202v1.61h-.202zm1.034 0h.202v1.61h-.202zm-2.068 5.563h.202v1.61h-.202zm1.034 0h.202v1.61h-.202zm1.034 0h.202v1.61h-.202zm-2.068 2.643h.202v1.61h-.202zm1.034 0h.202v1.61h-.202zm1.034 0h.202v1.61h-.202zm-2.068 2.613h.202v1.61h-.202zm1.034 0h.202v1.61h-.202zm1.034 0h.202v1.61h-.202zm-2.068 4.036h.202v1.61h-.202zm1.034 0h.202v1.61h-.202zm1.034 0h.202v1.61h-.202zm-2.068 2.643h.202v1.61h-.202zm1.034 0h.202v1.61h-.202zm1.034 0h.202v1.61h-.202zm-39.26-21.437h.202v1.61h-.202zm1.034 0h.202v1.61h-.202zm1.034 0h.202v1.61h-.202zm-2.068 2.643h.202v1.61h-.202zm1.034 0h.202v1.61h-.202zm1.034 0h.202v1.61h-.202zm-2.068 2.643h.202v1.61h-.202zm1.034 0h.202v1.61h-.202zm1.034 0h.202v1.61h-.202zm-2.068 2.643h.202v1.61h-.202zm1.034 0h.202v1.61h-.202zm1.034 0h.202v1.61h-.202zm2.161-10.843h.202v1.61h-.202zm1.034 0h.202v1.61h-.202zm1.034 0h.202v1.61h-.202zm-2.068-10.572h.202v1.61h-.202zm1.034 0h.202v1.61h-.202zm1.034 0h.202v1.61h-.202zm-2.068 2.643h.202v1.61h-.202zm1.034 0h.202v1.61h-.202zm1.034 0h.202v1.61h-.202zm-2.068 2.643h.202v1.61h-.202zm1.034 0h.202v1.61h-.202zm1.034 0h.202v1.61h-.202zm-2.068 2.643h.202v1.61h-.202zm1.034 0h.202v1.61h-.202zm1.034 0h.202v1.61h-.202zm-6.297 2.643h.202v1.61h-.202zm1.034 0h.202v1.61h-.202zm1.034 0h.202v1.61h-.202zm-2.068-10.572h.202v1.61h-.202zm1.034 0h.202v1.61h-.202zm1.034 0h.202v1.61h-.202zm-2.068 2.643h.202v1.61h-.202zm1.034 0h.202v1.61h-.202zm1.034 0h.202v1.61h-.202zm-2.068 2.643h.202v1.61h-.202zm1.034 0h.202v1.61h-.202zm1.034 0h.202v1.61h-.202zm-2.068 2.643h.202v1.61h-.202zm1.034 0h.202v1.61h-.202zm1.034 0h.202v1.61h-.202zm26.423-17.774h1.368v.564h-1.368zm-2.557 0h1.368v.564h-1.368zm-2.558 0h1.368v.564h-1.368zm-2.558 0h1.368v.564h-1.368zm7.673 1.26h1.368v.564h-1.368zm-2.557 0h1.368v.564h-1.368zm-2.558 0h1.368v.564h-1.368zm-2.558 0h1.368v.564h-1.368zm10.033-1.26h1.368v.564h-1.368zm0 1.26h1.368v.564h-1.368zm-12.478-1.26h1.368v.564h-1.368zm0 1.26h1.368v.564h-1.368z"
    />
  </g>
  <path
    fill="#f2f2f2"
    fill-rule="nonzero"
    d="M204.803 2.569c-35.481 0-49.838 93.6-49.838 93.6h9.034s6.829-91.09 40.804-91.09c33.974 0 40.804 91.09 40.804 91.09h9.034s-14.358-93.6-49.838-93.6Z"
  />
</svg>
