<?xml version="1.0" encoding="UTF-8"?>
<!DOCTYPE svg  PUBLIC '-//W3C//DTD SVG 1.1//EN'  'http://www.w3.org/Graphics/SVG/1.1/DTD/svg11.dtd'>
<svg clip-rule="evenodd" fill-rule="evenodd" stroke-linejoin="round" stroke-miterlimit="2" version="1.1" viewBox="0 0 422 407" xml:space="preserve" xmlns="http://www.w3.org/2000/svg"><path d="m210.84 0c116.45 0 210.84 91.013 210.84 203.28 0 112.27-94.39 203.28-210.84 203.28-116.44 0-210.84-91.01-210.84-203.28 0-112.27 94.4-203.28 210.84-203.28z" fill="#1a1a1a"/><path d="m209.12 45.478c87.48 0 159.16 70.652 160.11 157.8 0.95 87.152-69.19 157.8-156.67 157.8s-159.16-70.65-160.11-157.8c-0.95-87.153 69.2-157.8 156.67-157.8z" fill="#e6e6e6"/><path d="m268.03 346.14c6.58-2.71 11.06-4.54 16.95-9.83l2.43-14.11c1.16-8.65 1.86-8.55-3.23-15.53l-44.31-60.8c-1.03-1.4-3.4-5-5.32-3.32-2.26 1.98-0.21 4.43 1.03 6.4l30.67 48.24c4.51 7.08 3.99 8.8 2.28 17.09l-4.79 26.43c-0.93 5.15-1.74 7.92 4.29 5.43z" fill="#030405"/><path d="m209.97 248.66c12.31 1.68 12.37 0.53 19.08 10.83 8.19 12.56 13.72 22.56 20.68 36.19 5.75 11.26 4.24 15.03-0.77 26.13l-10.18 22.53c-4.59 10.16-4.82 11.37-16.08 11.37-22.17-0.01-38.08-0.85-56.95-7.7-11.23-4.07-10.26-2.72-5.62-13.99l31.21-75.8c4.86-11.82 6.67-10.49 18.63-9.56z" fill="#030405"/><path d="m191.02 217.4c5.65 0 10.23 4.492 10.23 10.034 0 5.541-4.58 10.034-10.23 10.034s-10.23-4.493-10.23-10.034c0-5.542 4.58-10.034 10.23-10.034z" fill="#030405"/><path d="m227.96 217.14c5.97 0 10.81 4.784 10.81 10.686 0 5.901-4.84 10.684-10.81 10.684s-10.82-4.783-10.82-10.684c0-5.902 4.85-10.686 10.82-10.686z" fill="#030405"/><path d="m180.07 181.04c5.86 0 10.62 4.784 10.62 10.685 0 5.902-4.76 10.686-10.62 10.686s-10.62-4.784-10.62-10.686c0-5.901 4.76-10.685 10.62-10.685z" fill="#030405"/><path d="m210.63 160.46c6.19 0 11.2 4.9 11.2 10.946 0 6.045-5.01 10.945-11.2 10.945s-11.21-4.9-11.21-10.945c0-6.046 5.02-10.946 11.21-10.946z" fill="#030405"/><path d="m239.85 183.49c5.72 0 10.36 4.813 10.36 10.751 0 5.937-4.64 10.751-10.36 10.751s-10.36-4.814-10.36-10.751c0-5.938 4.64-10.751 10.36-10.751z" fill="#030405"/><path d="m116.61 321.88c5.71 4.26 9.58 7.16 17.14 9.5l13.36-5.15c8.02-3.45 8.29-2.8 11.68-10.75l29.44-69.23c0.67-1.59 2.55-5.48 0.12-6.266-2.85-0.923-3.91 2.096-4.96 4.176l-25.67 51.08c-3.77 7.49-5.51 7.94-13.5 10.72l-25.14 9.45c-4.9 1.84-7.69 2.57-2.47 6.47z" fill="#030405"/><path d="m58.96 179.39c-1.02 7.047-1.74 11.833-0.18 19.596l10.89 9.291c6.85 5.401 6.41 5.956 15.01 5.141l74.89-7.105c1.73-0.168 6.04-0.373 5.57-2.885-0.54-2.947-3.7-2.441-6.03-2.368l-57.14 1.773c-8.38 0.261-9.6-1.058-15.86-6.755l-20.29-17.605c-3.95-3.424-5.92-5.534-6.86 0.917z" fill="#030405"/><path d="m155.8 61.57c-6.63 2.61-11.14 4.369-17.1 9.573l-2.65 14.068c-1.29 8.628-1.99 8.522 2.99 15.583l43.37 61.47c1 1.413 3.32 5.054 5.27 3.401 2.28-1.938 0.28-4.426-0.94-6.412l-29.92-48.71c-4.4-7.148-3.86-8.861-2.02-17.121l5.2-26.358c1.01-5.127 1.86-7.884-4.2-5.494z" fill="#030405"/><path d="m306.41 86.447c-5.54-4.482-9.28-7.54-16.75-10.17l-13.55 4.616c-8.15 3.129-8.4 2.469-12.09 10.279l-32.15 68.014c-0.74 1.567-2.77 5.378-0.37 6.261 2.81 1.035 3.99-1.936 5.12-3.975l27.66-50.028c4.06-7.342 5.82-7.716 13.91-10.184l25.5-8.452c4.96-1.644 7.78-2.26 2.72-6.361z" fill="#030405"/><path d="m362.54 228.6c1.14-7.03 1.93-11.802 0.5-19.589l-10.75-9.465c-6.76-5.51-6.31-6.057-14.92-5.38l-75 5.909c-1.73 0.14-6.04 0.276-5.62 2.794 0.51 2.955 3.67 2.501 6 2.465l57.16-0.861c8.39-0.127 9.58 1.213 15.75 7.007l20.01 17.927c3.89 3.487 5.83 5.629 6.87-0.807z" fill="#030405"/><path d="m170.34 225.47c4.59 11.547 5.62 11.035-0.05 21.942-6.91 13.31-12.9 23.04-21.34 35.8-6.97 10.55-11 11.09-23.13 12.19l-24.63 2.21c-11.09 1-12.27 1.4-17.8-8.41-10.89-19.3-17.99-33.57-21.31-53.368-1.97-11.79-2.67-10.271 9.43-11.775l81.34-10.108c12.69-1.577 12.42 0.651 17.49 11.519z" fill="#030405"/><path d="m171.05 179.97c-7.68 9.766-6.72 10.4-19 10.978-14.98 0.706-26.4 0.413-41.68-0.479-12.62-0.736-15.11-3.947-22.14-13.883l-14.29-20.187c-6.44-9.093-7.37-9.91-1.66-19.624 11.22-19.111 20-32.41 35.45-45.22 9.2-7.629 7.54-7.472 14.91 2.235l49.59 65.27c7.73 10.18 5.67 11.07-1.18 20.91z" fill="#030405"/><path d="m210.38 158.18c-12.27-1.946-12.36-0.798-18.85-11.237-7.92-12.733-13.23-22.848-19.9-36.621-5.51-11.381-3.92-15.12 1.32-26.104l10.66-22.317c4.8-10.053 5.06-11.261 16.32-11.02 22.16 0.48 38.05 1.661 56.77 8.906 11.15 4.315 10.2 2.939 5.32 14.111l-32.81 75.116c-5.12 11.717-6.9 10.352-18.83 9.166z" fill="#030405"/><path d="m250.65 180.95c-4.69-11.508-5.72-10.988-0.14-21.945 6.79-13.365 12.7-23.147 21.03-35.984 6.89-10.605 10.91-11.18 23.02-12.376l24.61-2.431c11.09-1.095 12.26-1.499 17.88 8.262 11.06 19.206 18.27 33.415 21.76 53.183 2.08 11.772 2.77 10.247-9.32 11.854l-81.25 10.805c-12.68 1.685-12.43-0.544-17.59-11.368z" fill="#030405"/><path d="m252.13 228.24c7.79-9.681 6.83-10.326 19.12-10.767 14.98-0.54 26.4-0.121 41.67 0.94 12.61 0.876 15.07 4.114 21.99 14.128l14.06 20.347c6.34 9.16 7.26 9.99 1.45 19.64-11.44 18.98-20.36 32.18-35.95 44.82-9.29 7.53-7.63 7.39-14.89-2.4l-48.86-65.81c-7.63-10.267-5.55-11.133 1.41-20.898z" fill="#030405"/></svg>
